<?xml version="1.0" encoding="utf-8"?>
<!-- Generator: Adobe Illustrator 16.0.0, SVG Export Plug-In . SVG Version: 6.00 Build 0)  -->
<!DOCTYPE svg PUBLIC "-//W3C//DTD SVG 1.1//EN" "http://www.w3.org/Graphics/SVG/1.1/DTD/svg11.dtd">
<svg version="1.1" id="Layer_1" xmlns="http://www.w3.org/2000/svg" xmlns:xlink="http://www.w3.org/1999/xlink" x="0px" y="0px"
	 width="100px" height="100px" viewBox="0 0 100 100" enable-background="new 0 0 100 100" xml:space="preserve">
<g>
	<path fill="#949493" d="M60,45.807v-1.25H41.25V29.806c0.01-4.832,3.916-8.74,8.75-8.75c4.829,0.01,8.74,3.918,8.75,8.75v16.001H60
		v-1.25V45.807h1.25V29.806c0-6.213-5.034-11.25-11.25-11.25c-6.211,0-11.25,5.037-11.25,11.25v17.251h22.5v-1.25H60z"/>
	<path fill="#EA453E" d="M30,41.805V75.8h40V41.805H30z M51.929,61.454l0.073,0.347v6.001c0,1.104-0.898,2.002-2.002,2.002
		s-2.002-0.898-2.002-2.002v-6.001l0.073-0.347c-2.363-0.801-4.072-3.018-4.072-5.654c0-3.311,2.69-5.999,6.001-5.999
		s6.001,2.688,6.001,5.999C56.001,58.437,54.292,60.653,51.929,61.454z"/>
</g>
<g>
	<path fill="#949493" d="M97.85,49.925h-1c-0.001,12.961-5.251,24.687-13.744,33.181c-8.494,8.493-20.219,13.743-33.181,13.744
		c-12.961-0.001-24.686-5.251-33.181-13.744C8.25,74.611,3,62.886,3,49.925c0-12.961,5.25-24.686,13.744-33.181
		C25.239,8.25,36.963,3,49.925,3c12.961,0,24.687,5.25,33.181,13.744c8.493,8.495,13.743,20.219,13.744,33.181H97.85h1
		C98.849,22.904,76.946,1,49.925,1C22.904,1,1,22.904,1,49.925C1,76.946,22.904,98.849,49.925,98.85
		c27.021-0.001,48.924-21.903,48.925-48.925H97.85z"/>
</g>
</svg>
