<?xml version="1.0" encoding="iso-8859-1"?>
<!-- Generator: Adobe Illustrator 19.0.0, SVG Export Plug-In . SVG Version: 6.00 Build 0)  -->
<svg xmlns="http://www.w3.org/2000/svg" xmlns:xlink="http://www.w3.org/1999/xlink" version="1.1" id="Layer_1" x="0px" y="0px" viewBox="0 0 512.001 512.001" style="enable-background:new 0 0 512.001 512.001;" xml:space="preserve">
<path style="fill:#73AF00;" d="M503.172,423.725H132.414V88.277h370.759c4.875,0,8.828,3.953,8.828,8.828v317.793  C512,419.773,508.047,423.725,503.172,423.725z"/>
<g>
	<path style="fill:#F5F5F5;" d="M132.414,423.725H8.828c-4.875,0-8.828-3.953-8.828-8.828V97.104c0-4.875,3.953-8.828,8.828-8.828   h123.586V423.725z"/>
	<path style="fill:#F5F5F5;" d="M412.053,302.189c-40.632,36.196-102.833,32.477-138.956-8.227   c-36.054-40.629-32.405-103.01,8.226-139.204c0.06-0.053,0.118-0.105,0.178-0.157c0.96-0.844,0.032-2.377-1.16-1.913   c-40.07,15.604-68.479,54.579-68.479,100.214c0,59.444,48.071,107.587,107.373,107.587c41.023,0,76.574-23.083,94.633-56.969   c0.602-1.131-0.81-2.231-1.766-1.377C412.087,302.158,412.069,302.174,412.053,302.189z"/>
	<path style="fill:#F5F5F5;" d="M359.787,172.59l14.12,15.841l19.56-8.232c2.532-1.066,4.964,1.705,3.578,4.077l-10.703,18.325   l13.873,16.058c1.796,2.079-0.088,5.248-2.772,4.663l-20.735-4.516l-10.986,18.156c-1.422,2.35-5.018,1.538-5.292-1.196   l-2.112-21.116l-20.662-4.838c-2.675-0.627-3.014-4.297-0.498-5.402l19.43-8.533l-1.784-21.145   C354.573,171.995,357.96,170.54,359.787,172.59z"/>
</g>
<g>
</g>
<g>
</g>
<g>
</g>
<g>
</g>
<g>
</g>
<g>
</g>
<g>
</g>
<g>
</g>
<g>
</g>
<g>
</g>
<g>
</g>
<g>
</g>
<g>
</g>
<g>
</g>
<g>
</g>
</svg>
