<?xml version="1.0" encoding="iso-8859-1"?>
<!-- Generator: Adobe Illustrator 19.0.0, SVG Export Plug-In . SVG Version: 6.00 Build 0)  -->
<svg xmlns="http://www.w3.org/2000/svg" xmlns:xlink="http://www.w3.org/1999/xlink" version="1.1" id="Layer_1" x="0px" y="0px" viewBox="0 0 512.001 512.001" style="enable-background:new 0 0 512.001 512.001;" xml:space="preserve">
<path style="fill:#73AF00;" d="M512,200.093H0V97.104c0-4.875,3.953-8.828,8.828-8.828h494.345c4.875,0,8.828,3.953,8.828,8.828  L512,200.093L512,200.093z"/>
<path style="fill:#FF4B55;" d="M503.172,423.725H8.828c-4.875,0-8.828-3.953-8.828-8.828V311.909h512v102.988  C512,419.773,508.047,423.725,503.172,423.725z"/>
<rect y="200.091" style="fill:#FFE15A;" width="512" height="111.81"/>
<path style="fill:#4173CD;" d="M361.945,256.099c0,58.426-47.435,105.945-105.945,105.945s-105.945-47.519-105.945-105.945  c0-58.594,47.435-106.029,105.945-106.029S361.945,197.505,361.945,256.099L361.945,256.099z"/>
<g>
	<path style="fill:#F2DD30;" d="M175.42,229.464h61.556l13.929-42.867l3.699,11.498l-20.228,62.316l-6.026-4.396l6.301-19.362   h-49.506L175.42,229.464z M206.176,324.249l19.025-58.51l-36.462-26.551h12.026l52.995,38.473l-6.024,4.396l-16.509-12.007   l-15.325,47.181L206.176,324.249L206.176,324.249z M305.822,324.249L256,288.062l-36.442,26.464l3.721-11.329l52.952-38.558   l2.262,7.102l-16.468,11.923l40.057,29.172L305.822,324.249L305.822,324.249z M336.578,229.464l-49.781,36.274l13.931,42.869   l-9.724-7.104l-20.209-62.316h7.399l6.298,19.448l40.079-29.172h12.006v0.001H336.578z M256,170.954l19.025,58.51h45.088   l-9.745,7.189h-65.487l2.305-7.189h20.418l-15.325-47.096L256,170.954z"/>
	<path style="fill:#F2DD30;" d="M257.775,340.823h-3.53v-45.912h3.53V340.823L257.775,340.823z M336.051,283.832l-43.651-14.12   l1.1-3.297l43.672,14.12L336.051,283.832L336.051,283.832z M175.928,283.832l-1.1-3.297l43.692-14.12l1.08,3.297L175.928,283.832   L175.928,283.832z M280.289,225.659l-2.877-2.028l26.995-37.12l2.812,2.03L280.289,225.659L280.289,225.659z M231.776,225.659   l-27.038-37.118l2.855-2.03l26.973,37.12L231.776,225.659L231.776,225.659z"/>
</g>
<g>
</g>
<g>
</g>
<g>
</g>
<g>
</g>
<g>
</g>
<g>
</g>
<g>
</g>
<g>
</g>
<g>
</g>
<g>
</g>
<g>
</g>
<g>
</g>
<g>
</g>
<g>
</g>
<g>
</g>
</svg>
