<?xml version="1.0" encoding="iso-8859-1"?>
<!-- Generator: Adobe Illustrator 19.0.0, SVG Export Plug-In . SVG Version: 6.00 Build 0)  -->
<svg xmlns="http://www.w3.org/2000/svg" xmlns:xlink="http://www.w3.org/1999/xlink" version="1.1" id="Layer_1" x="0px" y="0px" viewBox="0 0 512.001 512.001" style="enable-background:new 0 0 512.001 512.001;" xml:space="preserve">
<path style="fill:#73AF00;" d="M503.172,423.724H8.828c-4.875,0-8.828-3.953-8.828-8.828V97.104c0-4.875,3.953-8.828,8.828-8.828  h494.345c4.875,0,8.828,3.953,8.828,8.828v317.792C512,419.772,508.047,423.724,503.172,423.724z"/>
<rect y="167.72" style="fill:#FFE15A;" width="512" height="176.55"/>
<path style="fill:#FF4B55;" d="M2.666,421.192L176.551,256L2.666,90.809C1.027,92.411,0,94.631,0,97.104v317.792  C0,417.369,1.027,419.589,2.666,421.192z"/>
<g>
	<path style="fill:#464655;" d="M278.298,215.767l9.047,27.126l28.594,0.222c3.702,0.029,5.237,4.753,2.259,6.953l-23.002,16.986   l8.626,27.263c1.117,3.53-2.902,6.45-5.914,4.297l-23.263-16.628l-23.263,16.628c-3.011,2.153-7.031-0.767-5.914-4.297   l8.626-27.263l-23.002-16.986c-2.978-2.199-1.443-6.924,2.259-6.953l28.594-0.222l9.047-27.126   C272.159,212.255,277.127,212.255,278.298,215.767z"/>
	<path style="fill:#464655;" d="M410.299,215.767l9.047,27.126l28.594,0.222c3.702,0.029,5.237,4.753,2.259,6.953l-23.002,16.986   l8.626,27.263c1.117,3.53-2.902,6.45-5.914,4.297l-23.263-16.628l-23.263,16.628c-3.011,2.153-7.031-0.767-5.914-4.297   l8.626-27.263l-23.002-16.986c-2.978-2.199-1.443-6.924,2.259-6.953l28.594-0.222l9.047-27.126   C404.159,212.255,409.127,212.255,410.299,215.767z"/>
</g>
<g>
</g>
<g>
</g>
<g>
</g>
<g>
</g>
<g>
</g>
<g>
</g>
<g>
</g>
<g>
</g>
<g>
</g>
<g>
</g>
<g>
</g>
<g>
</g>
<g>
</g>
<g>
</g>
<g>
</g>
</svg>
