<?xml version="1.0" encoding="iso-8859-1"?>
<!-- Generator: Adobe Illustrator 19.0.0, SVG Export Plug-In . SVG Version: 6.00 Build 0)  -->
<svg xmlns="http://www.w3.org/2000/svg" xmlns:xlink="http://www.w3.org/1999/xlink" version="1.1" id="Layer_1" x="0px" y="0px" viewBox="0 0 512.001 512.001" style="enable-background:new 0 0 512.001 512.001;" xml:space="preserve">
<path style="fill:#F5F5F5;" d="M512,256H0V97.103c0-4.875,3.953-8.828,8.828-8.828h494.345c4.875,0,8.828,3.953,8.828,8.828L512,256  L512,256z"/>
<path style="fill:#73AF00;" d="M0,256h512v158.897c0,4.875-3.953,8.828-8.828,8.828H8.828c-4.875,0-8.828-3.953-8.828-8.828V256z"/>
<g>
	<path style="fill:#FF4B55;" d="M389.491,186.436c0,0,6.102,16.737,6.625,17.609l0.697-1.395l4.184-21.793l10.809-20.224   l-3.138,0.349l-24.583,11.855c0,0-14.645,16.04-14.819,16.563C369.092,189.923,389.491,186.436,389.491,186.436z"/>
	<path style="fill:#FF4B55;" d="M398.151,346.486c-0.813-0.117-12.902,0.465-12.902,0.465l-3.951-13.25l-2.266-25.047l4.271-1.133   l5.318,2.528l1.918-10.025c0,0-4.62-5.056-5.492-5.405s-11.332-2.702-11.332-2.702L359.68,273.35l16.737-9.327l13.076-17.958   l3.138-16.214l-2.615-13.425l-5.947-9.956c-0.088-0.284-0.156-0.504-0.156-0.504c-0.042-0.053-0.189-0.153-0.282-0.231   l-1.112-1.862l-0.018,1.086c-2.579-1.611-7.858-4.413-9.223-5.096c-1.743-0.872-10.984-2.441-12.902-1.046   c-1.918,1.395-10.809,5.579-12.378,8.543s-2.615,13.599-2.615,13.599s2.615,5.928,5.928,7.322   c3.313,1.395,9.763,2.964,10.809,2.615c0.903-0.301,11.137-3.325,13.929-4.597l1.239,2.505l-0.523,7.148l-5.753,4.01l-10.635,4.184   c0,0-16.214-4.533-16.911-4.359c-0.697,0.174-20.747-5.928-20.747-5.928L303.89,229.5l6.276-3.138l17.086-1.22   c0,0,3.313-19.352,3.836-19.701s11.681-9.24,11.681-9.24l9.24-2.266l-5.579-23.654l8.369-25.803l-21.852,6.276l-34.636,8.601   l-22.083-1.395l-19.527,6.276l-12.553,11.391l-7.207,9.763l-2.557,15.575l-1.628,20.69l-6.044,11.391l-6.848,5.368   c-0.768-2.027-4.367-9.784-4.367-9.784l8.717-2.092l-2.266-5.753l-6.102-4.533l1.918-6.974l6.974,3.836l1.918,1.395l1.22-7.148   l-7.671-10.809l1.22-5.405l9.24,4.882l-1.046-12.553l-8.194-5.056l0.523-6.974l8.95,2.673l-0.93-6.625l-9.763-7.091l9.53-15.342   l-11.623,0.582l-0.93-4.999l-3.021-1.163c0,0-16.157,6.858-17.319,6.625c-1.162-0.232-14.063-1.975-15.575-1.626   c-1.511,0.349-6.858,1.743-6.858,1.743l-1.512,5.928l-9.879-1.626l-14.645-1.22l-4.417,5.405l6.974,2.79   c0,0-1.626,12.32-1.162,13.25c0.465,0.929,4.649,6.974,4.649,6.974l-9.53,13.017l9.763,1.395l13.483-2.092l-0.466,3.255l17.9-1.86   l-3.953,2.092l-5.113,15.342l-14.878,30.22l-5.23,26.849l-8.369-8.717l-5.579-23.014l-8.369-22.665c0,0-1.743-6.974-2.79-7.148   c-1.046-0.174-5.579-1.046-5.579-1.046l-5.753,4.707l-7.322-1.046l-4.184,5.753l4.707,7.322c0,0-7.846,3.138-7.846,4.01   s0.523,5.928,1.046,6.102c0.523,0.174,12.378-0.174,12.378-0.174l7.148,12.727l-5.579,14.645l2.79,5.579l4.882,0.697l4.533-5.23   l15.691,46.899c0,0-1.22,6.102-2.092,6.625s-5.056,5.23-4.01,5.23s7.497,0.872,8.194,0.523s9.763-7.322,9.763-7.322   s14.296-10.984,15.168-10.112s14.471,9.24,14.471,9.24l-6.276,21.619l-14.819,21.619l-9.24-5.579l-6.625-9.415l-4.882,1.569   l-1.743,2.964l0.697,6.276c0,0-5.056,4.01-5.056,4.882s0.523,7.148,0.523,7.148s3.313,1.569,3.487,2.441s1.918,7.148,1.918,7.148   l3.487,1.22l6.625-4.01h10.984l6.799,1.046l14.471-4.533l21.096,1.046l-1.918-4.01c0,0-8.543-4.359-11.507-5.23   c-2.964-0.872-5.928-1.569-5.928-1.569l-1.22-6.102l20.747-24.583l7.671-1.569l2.615,6.451c0,0,8.601-2.092,8.601-2.79   c0-0.697,0-8.137,0-8.834s-1.86-6.508-1.86-6.508s-0.025-0.214-0.062-0.533l6.571-1.095l22.781-10.925l8.02,9.647l9.996,4.765   l-12.437,22.316l-10.693,7.207l-7.671-3.487l-10.694-7.904l-4.184,2.558l0.93,7.904l-6.276-0.465l-2.79,5.579l4.649,6.741   l-1.628,5.347c0,0,1.163,4.882,2.325,4.882s8.136-2.558,8.136-2.558l20.457-1.626l14.878-4.882l15.575,1.163   c0,0,3.022-10.461,2.325-10.461s-0.93-0.233-2.79-0.233s-8.369,0.233-8.369,0.233l-0.234-2.328l5.114-9.299l19.759-16.505   l5.812,1.163l2.092,3.021l5.812-4.416l-0.233-7.439l-5.113-5.346l-5.115-6.045l1.628-9.066l8.833,4.184   c0,0,13.948,9.763,15.109,10.229c1.163,0.465,28.128,7.438,28.128,7.438l5.579,13.25l-2.79,20.921l-8.601-2.557l-8.136-10.461   c0,0-2.325-1.163-3.487-0.93s-3.951,4.882-3.951,4.882l2.79,6.509l-3.72,1.162l-3.487,2.325l-0.697,4.882l3.254,3.021   c0,0,0,5.579,0,6.276s1.86,3.255,2.558,3.487c0.697,0.232,6.044,0.929,7.322,0.814c1.278-0.117,10.809-4.068,10.809-4.068   s17.899,0.349,18.365,0.233c0.466-0.117,15.924-3.487,15.924-3.487l8.717,1.395c0,0,5.812-4.417,5.579-4.999   C404.776,352.065,398.964,346.602,398.151,346.486z M364.734,220.608c-4.707,0.523-7.148,1.918-7.497-0.697   s-0.349-7.846,0.174-8.02c0.523-0.174,5.928-3.313,6.102-2.79c0.174,0.523,5.579,3.138,5.579,3.138l3.292,6.653   C370.647,219.815,367.968,220.248,364.734,220.608z"/>
	<path style="fill:#FF4B55;" d="M127.101,177.894c0,0,1.918-9.938,2.441-9.938s7.671-2.615,7.671-2.615l-21.27-13.773   c0,0,3.661,16.911,4.01,18.306C120.301,171.268,127.101,177.894,127.101,177.894z"/>
</g>
<g>
	<path style="fill:#464655;" d="M181.202,157.441c0.074,0.017,0.498,0.111,1.146,0.239l-0.16,0.697   c-0.262,1.122,0.441,2.25,1.569,2.506c0.158,0.039,0.316,0.054,0.471,0.054c0.951,0,1.814-0.654,2.035-1.623l0.224-0.974   c1.507,0.186,3.166,0.331,4.769,0.331c1.354,0,2.662-0.098,3.787-0.36s1.828-1.384,1.567-2.506   c-0.262-1.128-1.376-1.847-2.509-1.569c-3.31,0.779-9.763-0.371-11.965-0.872c-1.103-0.262-2.244,0.441-2.506,1.569   C179.374,156.062,180.077,157.185,181.202,157.441z"/>
	<path style="fill:#464655;" d="M388.332,191.217l5.272,16.098c0.284,0.861,1.087,1.439,1.988,1.439c0.03,0,0.06,0,0.093,0   c0.937-0.044,1.732-0.703,1.945-1.618c3.858-16.53,11.577-42.677,17.034-46.948c0.76-0.594,1.013-1.623,0.618-2.506   c-0.392-0.872-1.326-1.373-2.285-1.198c-1.117,0.207-27.582,5.362-45.995,32.979c-0.471,0.708-0.469,1.629,0.006,2.332   c0.477,0.703,1.326,1.03,2.161,0.877l15.332-3.17c-2.147,5.176-3.516,9.73-3.99,11.403c-6.982-4.249-14.856-5.005-20.317-3.591   c-6.233,1.634-11.471,5.607-14.376,10.902c-2.226,4.058-2.814,8.515-1.615,12.226c1.393,4.31,5.108,9.671,11.366,11.779   c4.146,1.408,10.845,1.72,19.677-3.746c0,0.042,0.007,0.081,0.006,0.122c-0.06,3.487-1.849,6.33-5.325,8.461   c-6.909,4.233-19.022,4.516-26.996,0.616c-10.515-5.133-26.324-8.055-35.156-9.38c5.476-1.746,12.097-2.238,20.053-0.415   c0.108,0.028,0.213-0.015,0.321-0.007c0.053,0.004,0.094,0.062,0.148,0.062c0.058,0,0.103-0.062,0.161-0.066   c0.481-0.039,0.947-0.185,1.3-0.527c0.006-0.006,0.007-0.013,0.011-0.019c0.002-0.002,0.006-0.001,0.006-0.001   c0.01-0.01,0.007-0.024,0.014-0.032c0.338-0.351,0.487-0.802,0.529-1.274c0.01-0.113,0.023-0.2,0.015-0.312   c-0.007-0.095,0.033-0.185,0.013-0.279c-0.024-0.12-2.343-11.997,4.04-20.181c3.836-4.92,10.11-7.606,18.647-7.992   c0.135-0.007,0.246-0.083,0.374-0.115c0.185-0.044,0.369-0.071,0.536-0.163c0.152-0.085,0.259-0.217,0.386-0.338   c0.106-0.099,0.237-0.159,0.323-0.284c0.019-0.025,0.02-0.057,0.036-0.085c0.014-0.023,0.042-0.033,0.056-0.057   c0.038-0.065,0.03-0.141,0.06-0.209c0.094-0.209,0.16-0.419,0.182-0.64c0.011-0.106,0.011-0.203,0.004-0.309   c-0.012-0.236-0.066-0.458-0.156-0.676c-0.022-0.055-0.011-0.117-0.039-0.17c-0.169-0.332-16.585-33.159,10.161-55.078   c0.87-0.714,1.018-1.988,0.341-2.882c-0.681-0.888-1.942-1.095-2.869-0.447c-26.408,18.54-62.906,20.54-77.372,20.54   c-25.801,0-42.102,9.715-49.838,29.694c-0.803,2.077-1.373,4.538-1.85,7.174c0.258-3.697-0.418-6.937-2.086-9.647   c-2.381-3.864-6.023-5.482-7.66-6.044c0.001-0.948-0.007-1.887-0.034-2.808c2.826-0.435,6.18,1.759,7.286,2.69   c0.387,0.327,0.87,0.501,1.356,0.501c0.321,0,0.646-0.076,0.942-0.228c0.751-0.382,1.204-1.172,1.144-2.01   c-0.684-9.729-7.284-14.457-11.812-16.057c3.992-3.172,8.247-8.363,10.854-16.829c0.25-0.818-0.019-1.705-0.684-2.239   c-0.664-0.54-1.591-0.621-2.332-0.207c-0.071,0.04-4.33,2.346-10.732,4.247l0.585-7.603c0.057-0.768-0.31-1.51-0.964-1.923   c-0.651-0.419-1.484-0.436-2.152-0.054c-0.108,0.06-10.82,6.072-21.745,9.246c-8.246-2.073-18.978-3.687-23.047,0.551   c-0.981,1.018-1.894,2.675-1.667,5.241c-7.02-1.465-23.136-3.863-32.919,2.463c-0.771,0.495-1.126,1.438-0.877,2.321   c0.25,0.883,1.046,1.504,1.964,1.526c3.105,0.076,7.905,0.79,9.908,2.114c-0.883,2.381-2.343,7.426-1.068,12.291   c-4.246,1.23-8.701,1.42-14.119-1.511l4.723-1.159c0.847-0.207,1.476-0.92,1.58-1.788c0.1-0.866-0.346-1.705-1.12-2.103   c-0.12-0.065-12.03-6.26-21.935-16.672c-0.562-0.583-1.414-0.796-2.196-0.534c-0.774,0.267-1.321,0.959-1.4,1.771   c-0.085,0.839-1.86,20.632,13.171,32.369c0.376,0.289,0.831,0.441,1.289,0.441c0.286,0,0.572-0.06,0.844-0.18   c0.703-0.31,1.182-0.981,1.242-1.749l0.583-7.477c7.499,4.49,13.708,4.061,19.034,2.442c0.668,1.018,1.517,1.988,2.588,2.877   c0.172,0.143,0.408,0.298,0.647,0.455c-3.423,8.013-10.22,10.079-10.511,10.159c-0.847,0.245-1.454,0.992-1.515,1.869   c-0.063,0.877,0.428,1.699,1.231,2.059c0.506,0.223,11.455,4.958,23.727,0.588l-0.193,1.4c-0.082,0.588,0.093,1.187,0.482,1.64   c0.387,0.458,0.951,0.725,1.547,0.736c0.052,0,0.191,0.006,0.408,0.006c1.409,0,6.083-0.107,11.382-1.324   c-0.801,7.486-5.362,16.407-10.214,25.82c-6.568,12.751-13.888,27.132-13.771,41.654c-2.506-3.244-5.626-8.302-7.169-15.017   c-0.534-2.332-0.888-4.424-1.209-6.336c-0.782-4.626-1.458-8.625-4.192-12.384c-3.092-4.249-7.464-13.736-7.274-18.916   c0.18-4.789-2.958-7.606-6.146-8.276c-0.23-0.047-0.447,0.012-0.675-0.015c-0.755-1.521-2.799-4.434-7.497-4.769   c-1.131-0.152-2.155,0.785-2.237,1.94c-0.082,1.15,0.785,2.152,1.937,2.233c1.639,0.116,2.655,0.742,3.279,1.366   c-1.535,0.789-2.777,2.105-3.642,3.79c-2.801-1.614-5.631-2.018-7.796-1.523c-0.561,0.127-0.984,0.43-1.469,0.659   c-1.417-0.739-5.191-2.146-9.739,0.746c-0.975,0.616-1.265,1.912-0.643,2.888c0.397,0.627,1.076,0.97,1.768,0.97   c0.382,0,0.771-0.104,1.12-0.327c1.624-1.031,3.011-1.166,4.029-1.036c-0.746,1.382-1.169,2.904-1.097,4.322   c0.145,2.817,1.773,5.002,4.29,5.928c-3.002,0.572-5.546,1.966-6.905,3.852c-0.22,0.306-0.265,0.654-0.423,0.977   c-1.912,0.198-4.853,1.484-6.712,5.415c-0.495,1.041-0.049,2.289,0.994,2.784c0.291,0.136,0.594,0.202,0.894,0.202   c0.785,0,1.536-0.441,1.894-1.198c0.829-1.75,1.803-2.443,2.531-2.76c1.987,6.554,8.448,5.062,12.345,4.149l1.561-0.354   c2.185-0.436,6.037,5.944,7.072,10.084c0.719,2.877-0.512,6.397-4.392,12.553c-2.356,3.748-1.678,6.462-0.692,8.079   c0.02,0.033,0.052,0.051,0.072,0.082c-0.626,0.188-1.397,0.323-2.439,0.185c-1.126-0.228-2.201,0.643-2.356,1.788   c-0.156,1.144,0.646,2.201,1.79,2.354c0.534,0.076,1.038,0.109,1.515,0.109c2.433,0,4.054-0.831,5.028-1.511   c1.361,0.582,2.761,0.801,3.796,0.721c2.884-0.239,4.839-2.767,6.159-5.906c3.849,21.222,12.694,40.928,14.231,44.252   c-0.31,7.519-8.426,9.284-8.777,9.361c-0.902,0.185-1.577,0.937-1.662,1.858c-0.085,0.915,0.436,1.777,1.286,2.125   c3.531,1.443,6.62,2.022,9.303,2.022c8.276,0,12.651-5.459,14.029-7.562c6.112-2.129,13.277-7.113,16.074-9.152   c4.664,3.495,8.541,5.432,9.836,6.038c-2.253,22.184-15.26,37.169-19.065,41.099c-2.577-1.476-8.268-5.121-10.147-9.464   c-1.778-4.104-5.075-5.26-7.764-5.02c-0.903-1.166-2.93-3.342-5.772-3.655c-1.397-0.147-3.517,0.109-5.672,2.266   c-0.818,0.818-0.818,2.141,0,2.958c0.814,0.818,2.138,0.823,2.958,0.006c1.182-1.182,1.986-1.111,2.248-1.074   c0.806,0.086,1.585,0.669,2.2,1.269c-1.525,1.3-2.47,3.119-2.317,5.105c0.108,1.395,0.631,2.707,1.368,3.927   c-1.524,0.793-3.36,2.094-4.569,4.152c-0.043,0.074-0.093,0.191-0.138,0.273c-2.498,0.159-6.994,1.922-7.694,7.742   c-0.136,1.15,0.681,2.19,1.828,2.326c0.087,0.011,0.169,0.017,0.254,0.017c1.044,0,1.948-0.779,2.076-1.842   c0.25-2.084,1.259-3.087,2.206-3.588c-0.024,0.858,0.047,1.751,0.355,2.684c0.723,2.196,2.429,3.977,4.977,5.362   c-0.269,0.858-0.445,1.772-0.468,2.761c-1.345,0.679-3.329,1.944-4.345,4.098c-0.76,1.608-0.807,3.405-0.139,5.203   c0.313,0.844,1.111,1.362,1.962,1.362c0.243,0,0.49-0.044,0.73-0.13c1.085-0.403,1.634-1.608,1.231-2.691   c-0.365-0.975-0.177-1.58-0.002-1.951c0.309-0.659,0.924-1.213,1.551-1.643c0.776,1.393,1.948,2.454,3.516,2.972   c0.716,0.234,1.46,0.349,2.207,0.349c2.489,0,5.013-1.259,6.631-3.448c1.937-2.626,5.726-1.122,5.972-1.018   c7.922,2.877,18.625,0.708,25.103-2.931c3.593-2.022,16.253-0.931,23.392,0.239c0.558,0.076,1.152-0.06,1.613-0.403   c0.458-0.354,0.749-0.877,0.807-1.454c0.722-7.224-8.625-9.142-16.135-10.684c-2.046-0.419-3.993-0.818-5.83-1.602   c-0.733-4.238,10.281-19.668,20.775-27.383c2.572-1.89,4.642-2.648,5.679-2.092c1.482,0.812,1.953,4.593,1.803,6.892   c-0.004,0.061,0.031,0.113,0.032,0.173c0.002,0.228,0.045,0.448,0.125,0.669c0.034,0.094,0.06,0.181,0.106,0.268   c0.029,0.056,0.032,0.117,0.066,0.17c0.12,0.184,0.282,0.319,0.444,0.451c0.032,0.026,0.043,0.069,0.077,0.094   c0.008,0.006,0.018,0.004,0.018,0.004c0.271,0.193,0.569,0.307,0.884,0.359c0.081,0.013,0.157,0.001,0.238,0.004   c0.234,0.012,0.46-0.012,0.69-0.082c0.054-0.015,0.111,0.001,0.164-0.019c0.17-0.066,0.354-0.16,0.527-0.231   c1.116-0.572,3.007,0.066,4.33,0.744c-0.246,0.763-0.395,1.559-0.324,2.423c0.087,1.079,0.423,2.152,0.946,3.182   c-2.073-0.234-4.012,0-5.416,1.079c-0.501,0.384-0.896,0.868-1.295,1.346c-2.945,0.291-6.628,2.147-7.503,6.532   c-0.226,1.133,0.506,2.233,1.64,2.463c0.139,0.028,0.278,0.039,0.414,0.039c0.975,0,1.849-0.686,2.049-1.684   c0.21-1.047,0.746-1.681,1.336-2.158c-0.018,0.764,0.064,1.521,0.29,2.234c0.409,1.294,1.515,3.224,4.327,4.303   c-0.253,0.43-0.471,0.888-0.664,1.356c-2.094,0.673-5.248,2.845-5.248,7.454c0,1.155,0.937,2.092,2.092,2.092   s2.092-0.937,2.092-2.092c0-0.814,0.202-1.405,0.468-1.894c0.067,0.302,0.116,0.612,0.224,0.896   c0.506,1.324,2.029,3.808,6.295,3.808c1.406,0,3.105-0.267,5.165-0.937c4.993-1.618,8.532-1.788,11.954-1.956   c4.092-0.196,7.957-0.387,13.387-2.904c7.823-3.634,17.514-2.402,22.591-1.341c2.751,0.567,5.443-0.785,6.551-3.307   c0.381-0.86,0.63-1.613,0.893-2.378c2.367,0.284,2.857,2.584,2.921,3.091c0.117,1.068,1.022,1.864,2.076,1.864   c0.071,0,0.145-0.006,0.217-0.011c1.15-0.12,1.986-1.15,1.866-2.3c-0.226-2.186-1.846-6.108-6.181-6.79   c0.055-1.484-0.234-2.706-0.961-3.606c-0.796-0.981-2.378-2.01-5.479-1.373c-3.209,0.664-4.685,0.796-5.351,0.736   c0.1-0.408,0.338-1.133,0.89-2.37c1.869-4.206,14.278-15.299,22.403-21.94c1.959-0.441,4.444-0.469,5.017,0.185   c0.202,0.223,0.202,0.992-0.256,2.207c-0.327,0.861-0.052,1.831,0.673,2.392c0.722,0.562,1.73,0.588,2.482,0.065   c0.324-0.228,7.914-5.618,7.762-12.182c-0.079-3.318-2.013-6.2-5.751-8.565c-3.168-1.999-4.988-4.316-5.412-6.876   c-0.444-2.678,0.698-5.055,1.461-6.321c2.997,1.437,6.005,3.294,9,5.77c17.667,14.609,32.702,16.935,40.823,16.897   c1.704,3.764,6.706,16.605,2.436,29.795c-2.272-0.403-6.734-1.853-9.796-6.957c-2.977-4.958-6.549-6.2-9.025-6.364   c-3.849-0.3-7.933,1.89-11.142,5.9c-0.686,0.861-0.591,2.103,0.215,2.844c0.809,0.746,2.059,0.742,2.852-0.011   c0.534-0.507,1.528-1.122,1.956-0.79l0.434,1.209c0.232,0.67,0.469,1.346,0.751,1.999c-1.664,0.245-3.266,0.926-4.516,2.343   c-0.824,0.934-1.343,2.012-1.718,3.122c-3.832,0.685-5.92,3.592-6.008,3.726c-0.638,0.953-0.378,2.233,0.569,2.877   c0.356,0.245,0.766,0.365,1.169,0.365c0.668,0,1.324-0.316,1.732-0.905c0.04-0.054,0.813-1.102,2.196-1.689   c0.173,0.788,0.456,1.55,0.885,2.244c0.722,1.164,1.747,1.943,2.91,2.358c-0.157,0.605-0.291,1.265-0.378,1.975   c-0.044,0.015-0.09,0.008-0.135,0.025c-5.01,2.109-3.988,8.335-2.749,11.332c0.335,0.807,1.111,1.291,1.931,1.291   c0.267,0,0.536-0.054,0.796-0.158c1.068-0.441,1.577-1.662,1.141-2.73c-0.015-0.04-1.191-3.115-0.435-4.866   c0.02,0.047,0.025,0.097,0.045,0.143c0.866,1.956,2.536,3.351,4.828,4.038c1.128,0.338,2.207,0.48,3.239,0.48   c3.424,0,6.33-1.586,8.777-2.925c1.905-1.041,3.705-1.994,5.124-1.896c1.033,0.098,2.215,0.284,3.511,0.484   c4.893,0.763,11.599,1.798,18.254-0.343c1.239-0.397,2.361-0.785,3.389-1.139c5.408-1.853,7.428-2.545,10.733-0.664   c4.002,2.289,9.161,0.751,11.82-2.053c0.833-0.879,1.313-1.859,1.571-2.852c1.365,0.544,2.471,1.131,2.648,1.458   c-0.39,1.09,0.177,2.283,1.267,2.675c0.232,0.082,0.469,0.12,0.703,0.12c0.859,0,1.664-0.534,1.97-1.389   c0.393-1.095,0.297-2.223-0.269-3.258c-1.383-2.518-5.431-3.87-7.458-4.407c-3.348-4.549-8.452-5.966-16.885-4.632   c-0.335,0.049-0.597-0.011-0.885-0.25c-3.079-2.489-3.756-15.424-4.16-23.145c-0.324-6.178-0.545-9.763-1.493-11.485   c0.484-0.397,3.133-0.447,4.783,0.757c0.796,0.588,0.874,1.117,0.684,1.716c-0.033,0.087-0.063,0.169-0.093,0.25   c-0.408,1.068,0.12,2.272,1.185,2.691c1.065,0.408,2.272-0.093,2.705-1.155c0.063-0.147,0.117-0.3,0.167-0.447   c0.746-2.12,3.802-11.72,0.202-17.8c-1.618-2.73-4.253-4.359-7.834-4.843c-9.126-1.23-16.081-7.061-20.757-17.223   c7.085-2.489,27.944-11.944,31.844-38.04c2.591-17.347-3.626-27.062-9.3-32.156c-0.271-0.244-0.565-0.429-0.842-0.659   c0.164-0.213,0.373-0.388,0.447-0.664C384.388,202.578,385.822,197.301,388.332,191.217z M373.56,187.488   c11.924-15.517,26.547-22.425,34.455-25.215c-5.187,9.344-10.129,26.822-12.705,36.803l-4.353-13.294   c-0.017-0.052-0.071-0.074-0.09-0.124c1.276-2.518,2.711-4.956,4.293-7.014c0.703-0.915,0.531-2.228-0.384-2.931   c-0.918-0.708-2.228-0.534-2.934,0.382c-1.975,2.568-3.715,5.613-5.217,8.69L373.56,187.488z M125.869,175.044   c-6.445-6.827-8.124-15.686-8.508-21.068c5.514,5.11,11.076,8.936,14.827,11.267l-3.334,0.819   c-0.637-0.511-1.262-0.983-1.928-1.581c-0.853-0.768-2.174-0.692-2.953,0.158c-0.774,0.861-0.703,2.185,0.158,2.958   c0.747,0.671,1.457,1.187,2.179,1.762L125.869,175.044z M283.681,244.058c-3.91-10.434-15.711-35.414-44.621-56.314   c0.023-0.061,0.038-0.141,0.061-0.201c0.371-0.958,0.855-1.783,1.27-2.689c43.772,11.186,70.413,29.383,81.056,37.855   C299.703,221.106,288.201,236.083,283.681,244.058z M331.066,202.689c-4.621,5.94-5.428,13.175-5.337,18.06   c-9.598-8.035-36.577-27.593-83.499-39.727c0.607-1.053,1.334-1.969,2.013-2.94c0.151,0.035,0.297,0.089,0.457,0.099   c57.73-2.481,89.939,9.916,101.735,15.758C339.816,195.281,334.601,198.144,331.066,202.689z M285.058,160.519   c12.76,0,42.219-1.53,67.627-14.122c-10.906,16.427-6.986,34.866-3.904,43.976c-11.701-5.993-43.389-18.441-101.186-16.448   C255.933,164.995,268.26,160.519,285.058,160.519z M235.988,205.097c0.521-4.729,1.041-9.227,1.862-13.016   c27.784,20.596,38.974,45.492,42.284,54.519c-6.824-1.53-13.005-1.034-18.333,1.713c-4.36,2.251-7.402,5.559-9.487,8.588   c-0.929-10.528-4.405-29.314-17.1-44.106c-0.041-0.047-0.098-0.068-0.142-0.111C235.412,210.14,235.713,207.59,235.988,205.097z    M233.345,268.968c-9.722-2.266-13.806-12.063-13.994-12.525c-0.256-0.632-0.803-1.106-1.469-1.259   c-0.158-0.033-0.316-0.054-0.474-0.054c-0.51,0-1.007,0.191-1.397,0.54c-6.985,6.282-15.53,7.938-19.797,8.374   c3.372-10.592,12.855-16.094,25.612-23.499l0.588-0.343c3.18-1.846,5.474-4.648,7.268-7.944c-0.002,5.265,0.28,11.13,1.247,16.067   c0.196,0.998,1.07,1.689,2.051,1.689c0.134,0,0.269-0.011,0.406-0.039c1.133-0.223,1.871-1.324,1.651-2.457   c-2.093-10.677-0.768-26.737-0.576-28.9c12.168,16.425,13.779,37.153,13.961,43.913c-7.137-1.235-11.115-6.782-11.157-6.839   c-0.39-0.567-1.03-0.905-1.714-0.905h-0.008c-0.681,0-1.319,0.327-1.71,0.883C230.741,260.049,231.948,265.448,233.345,268.968z    M225.935,211.727c-1.621-1.994-3.801-4.189-5.961-5.153c0.488-1.949,0.946-4.023,1.362-6.202   C223.575,202.211,226.963,205.998,225.935,211.727z M216.511,219.206c0.627,0.092,4.439,0.829,6.023,5.724   c-1.774-0.306-3.862-0.145-5.969,0.99C216.228,223.958,216.162,221.72,216.511,219.206z M223.982,229.935   c0.605,0.466,1.408,0.523,2.097,0.225c-1.214,2.253-2.739,4.116-4.616,5.516c-1.025-1.035-2.534-2.887-3.671-5.569   C220.892,227.849,223.672,229.711,223.982,229.935z M231.193,199.093c0.73-0.188,1.295-0.767,1.485-1.498   c-0.305,2.276-0.584,4.618-0.851,7.044c-0.876,7.955-1.832,16.57-4.543,23.11c-0.769-8.792-6.507-12.028-9.867-12.612   c0.179-0.607,0.341-1.205,0.569-1.838c0.297-0.826,0.59-1.715,0.877-2.653c1.912,1.206,4.554,4.471,6.035,6.744   c0.39,0.599,1.048,0.953,1.754,0.953c0.049,0,0.098,0,0.147-0.006c0.76-0.054,1.43-0.518,1.749-1.204   c5.007-10.77-1.734-18.45-6.425-21.347c0.118-0.767,0.236-1.533,0.343-2.312c2.72,1.278,5.622,3.91,6.668,5.026   c0.401,0.43,0.957,0.664,1.528,0.664C230.839,199.164,231.016,199.142,231.193,199.093z M227.72,185.75   c1.193,1.94,1.695,4.326,1.504,7.126c-1.699-1.41-3.942-2.934-6.24-3.746c0.247-2.378,0.433-4.765,0.54-7.121   C224.794,182.643,226.506,183.78,227.72,185.75z M229.231,171.535c-1.718-0.75-3.784-1.259-5.905-1.027   c-0.213-2.328-0.553-4.493-1.027-6.453C224.499,165.089,227.659,167.25,229.231,171.535z M215.731,140.437l-0.403,5.238   c-3.246,0.723-6.816,1.266-10.6,1.354c-0.567-0.196-1.357-0.461-2.276-0.757C207.838,144.28,212.675,141.991,215.731,140.437z    M154.593,174.254c-0.43-0.36-0.809-0.742-1.139-1.139c0.412-0.163,0.82-0.327,1.22-0.484c2.904-1.166,5.644-2.266,8.281-2.413   c5.926-0.365,7.655,1.977,8.042,2.697c0.395,0.736,0.332,1.384,0.098,1.705c-0.986,1.341-2.567,2.146-4.7,2.408   C161.523,177.583,155.723,175.197,154.593,174.254z M169.292,187.527c-0.632-0.458-1.465-0.529-2.155-0.169   c-7.178,3.585-14.321,3.133-18.857,2.228c2.723-1.856,5.917-4.969,8.052-9.884c2.446,0.887,5.485,1.602,8.491,1.602   c0.697,0,1.393-0.043,2.076-0.126c3.274-0.397,5.889-1.809,7.565-4.075c1.261-1.716,1.343-4.086,0.213-6.178   c-0.877-1.623-3.795-5.366-11.95-4.882c-3.326,0.18-6.519,1.46-9.608,2.702c-0.495,0.196-0.992,0.397-1.484,0.588   c-1.122-4.952,1.384-10.412,1.419-10.483c0.31-0.664,0.254-1.443-0.152-2.054c-1.163-1.749-3.479-2.838-5.914-3.52   c11.278-2.359,25.757,1.536,25.934,1.586c0.774,0.202,1.586-0.022,2.114-0.621c0.529-0.588,0.679-1.428,0.387-2.168   c-0.842-2.12-0.879-3.596-0.115-4.392c3.253-3.389,18.566-0.039,28.391,3.416c0.234,0.082,0.495,0.06,0.727,0.12   c9.682-0.152,18.143-2.921,23.153-4.991c-5.655,12.28-15.274,14.007-15.726,14.084c-1.135,0.18-1.912,1.242-1.738,2.381   c0.174,1.144,1.245,1.945,2.387,1.754c0.221-0.035,2.265-0.391,5.049-1.73c4.143,11.462,0.898,36.942-3.502,49.163   c-4.924,13.681,0.538,22.369,3.882,26.098c-13.214,7.688-23.544,14.22-26.436,27.64c-0.004,0.011-0.014,0.02-0.018,0.032   c-0.07,0.218-0.777,2.57-1.593,6.764c-5.121-3.403-14.664-17.372-9.527-33.745c1.4-4.468,3.046-8.838,4.637-13.065   c4.728-12.552,9.182-24.418,5.866-35.531c1.294-0.928,2.506-1.969,3.554-3.19c3.648-4.249,4.922-9.682,3.789-16.149   c-0.196-1.144-1.278-1.918-2.422-1.699c-1.135,0.196-1.899,1.28-1.697,2.419c0.918,5.247-0.011,9.398-2.841,12.7   c-5.47,6.386-16.593,7.704-21.455,7.971l0.36-2.615C170.251,188.742,169.921,187.978,169.292,187.527z M188.073,282.921   c-3.603,4.405-10.916,10.263-13.756,12.477c-2.622-2.5-5.248-5.468-7.562-8.945c10.705-1.815,17.13-8.46,19.539-11.54   c0.802,0.682,1.566,1.23,2.24,1.59c0.195,0.105,0.405,0.116,0.611,0.152c-0.281,1.792-0.548,3.823-0.801,6.045   C188.255,282.776,188.15,282.827,188.073,282.921z M162.611,244.789c1.685,0.474,6.055,1.59,10.087,1.59   c0.738,0,1.399-0.136,2.092-0.222c-0.149,2.575-0.022,5.055,0.339,7.414c-3.336,2.172-11.11,2.355-15.308,2.175   C160.382,252.083,161.345,248.422,162.611,244.789z M167.848,232.303c1.542,0.369,4.565,0.983,7.618,0.983   c0.792,0,1.58-0.047,2.347-0.147c-0.492,1.419-0.995,2.826-1.451,4.276c-0.48,1.532-0.812,3.034-1.079,4.521   c-0.015,0.002-0.031-0.002-0.046,0.001c-3.105,0.767-8.434-0.341-11.155-1.082C165.237,237.969,166.497,235.11,167.848,232.303z    M172.629,222.793c0.541-1.05,1.074-2.09,1.604-3.127c1.821,0.438,5.411,1.261,7.925,1.574c-0.359,0.96-0.713,1.913-1.081,2.894   c-0.556,1.475-1.114,2.994-1.673,4.504c-0.259-0.022-0.527-0.001-0.79,0.083c-2.479,0.766-6.353,0.243-8.862-0.279   C170.712,226.53,171.678,224.64,172.629,222.793z M179.266,209.141c1.506,0.57,3.917,1.329,6.351,1.329   c0.076,0,0.146-0.033,0.223-0.034c-0.63,2.188-1.387,4.444-2.206,6.743c-1.165-0.013-4.582-0.692-7.467-1.361   C177.288,213.554,178.325,211.329,179.266,209.141z M182.157,201.145c1.183,0.083,2.279,0.138,3.204,0.138   c0.913,0,1.64-0.06,2.301-0.141c-0.146,1.625-0.378,3.274-0.736,4.959c-1.588,0.47-4.183-0.139-6.105-0.85   C181.333,203.862,181.78,202.493,182.157,201.145z M162.506,259.99c4.007,0,9.612-0.457,13.483-2.255   c0.543,1.98,1.227,3.846,2.008,5.582c-7.188,4.994-15.218,6.143-18.059,6.379c-0.312-1.73-0.538-3.52-0.646-5.385   c-0.084-1.46-0.028-2.927,0.057-4.395C160.163,259.953,161.234,259.99,162.506,259.99z M179.943,267.047   c1.08,1.835,2.23,3.477,3.385,4.852c-1.779,2.358-8.051,9.567-18.857,10.738c-1.441-2.686-2.656-5.628-3.562-8.82   C164.555,273.46,172.513,272.049,179.943,267.047z M187.079,192.313c0.374,1.514,0.589,3.054,0.668,4.617l0,0   c-0.531,0.17-2.516,0.186-4.659,0.074c0.172-1.074,0.27-2.129,0.314-3.169C184.642,193.408,185.876,192.897,187.079,192.313z    M158.905,308.686c-0.542,0.174-0.994,0.556-1.248,1.063c-0.172,0.343-3.715,7.23-13.065,5.885   c3.307-2.179,6.336-5.846,6.336-11.453c0-0.31-0.068-0.616-0.202-0.894c-0.136-0.289-13.746-29.318-15.613-55.284   c-0.079-1.09-0.983-1.934-2.076-1.94h-0.011c-1.087,0-1.994,0.833-2.084,1.918c-0.542,6.532-2.705,13.942-4.947,14.127   c-0.825,0.087-2.756-0.534-3.481-1.727c-0.54-0.888-0.316-2.125,0.659-3.672c3.806-6.048,6.097-11.043,4.909-15.8   c-0.994-3.982-5.644-14.454-11.994-13.169l-1.656,0.376c-5.397,1.28-6.786,1.007-7.456-1.433c-0.167-0.61-0.076-1.106,0.289-1.613   c0.916-1.274,3.258-2.228,5.833-2.376c4.83-0.262,6.756,1.798,6.807,1.858c0.638,0.774,1.725,0.981,2.602,0.518   c0.877-0.469,1.305-1.493,1.018-2.446c-0.082-0.267-2.059-6.554-10.468-7.578c-1.888-0.228-2.343-1.443-2.394-2.413   c-0.082-1.608,0.935-3.514,2.778-3.934c3.307-0.736,9.478,2.07,12.152,12.766c0.28,1.128,1.441,1.777,2.536,1.526   c1.122-0.284,1.803-1.417,1.523-2.539c-1.369-5.474-3.587-9.227-6.067-11.756c0.043-0.077,0.108-0.135,0.142-0.22   c1.003-2.55,3.068-3.079,4.561-2.778c1.425,0.3,2.918,1.515,2.825,4.026c-0.259,6.931,5.219,17.614,8.068,21.532   c2.157,2.964,2.7,6.173,3.448,10.618c0.335,1.983,0.703,4.151,1.259,6.577c2.774,12.073,10.065,19.388,11.78,20.978   c2.264,14.521,10.444,24.662,17.944,31.115C170.382,302.835,163.961,307.109,158.905,308.686z M177.494,298.228   c2.415-1.901,6.671-5.378,10.238-8.855c-0.3,4.075-0.52,8.551-0.54,13.635c-0.002,0.594-0.052,1.161-0.07,1.746   C185.055,303.645,181.471,301.513,177.494,298.228z M306.724,284.284l3.644-10.791c3.563,1.265,6.921,2.713,10.077,4.297   l-6.959,9.715C311.274,286.21,309.02,285.137,306.724,284.284z M302.723,283.046c-1.954-0.502-3.932-0.871-5.935-1.065   l1.354-11.805c0.487,0.092,0.985,0.143,1.468,0.246c2.337,0.504,4.58,1.116,6.775,1.778L302.723,283.046z M292.597,281.804   c-2.065,0.019-4.151,0.205-6.257,0.541l-1.15-13.22c2.957-0.04,5.908,0.085,8.813,0.412L292.597,281.804z M281.006,269.298   l1.207,13.888c-2.159,0.548-4.339,1.286-6.531,2.159l-3.692-15.064C274.95,269.826,277.963,269.487,281.006,269.298z    M274.568,309.49c-1.678-0.591-3.251-1.393-4.738-2.282l7.479-14.196c0.175,0.2,0.365,0.371,0.511,0.615   c0.744,1.253,0.855,2.904,0.332,4.909C277.457,301.202,276.21,305.128,274.568,309.49z M265.297,295.577   c2.59-1.727,5.437-3.382,8.474-4.822l-7.427,14.097c-2.858-2.212-5.073-4.521-6.326-5.962   C261.762,297.85,263.524,296.758,265.297,295.577z M267.855,270.985l3.939,16.071c-2.018,0.972-4.049,2.081-6.089,3.325   l-6.059-17.577C262.263,272.135,265.023,271.524,267.855,270.985z M255.598,273.899l6.386,18.524   c0.029,0.083,0.11,0.12,0.148,0.196c-2.551,1.669-5.074,3.162-7.554,4.536l-6.186-21C250.596,275.41,253,274.645,255.598,273.899z    M244.437,277.546l6.359,21.589c0.004,0.015,0.021,0.022,0.025,0.036c-2.778,1.422-5.441,2.679-7.891,3.741l-6.918-21.593   c0.088-0.15,0.185-0.344,0.271-0.484C237.431,280.318,240.328,279.059,244.437,277.546z M233.35,286.71l5.706,17.81   c-4.355,1.728-7.757,2.829-9.45,3.335C228.518,300.93,230.792,292.737,233.35,286.71z M232.117,324.982   c1.417-3.405,0.998-7.601-1.28-12.809c-0.041-0.093-0.082-0.185-0.12-0.284c3.511-1.026,13.781-4.377,25.596-10.9   c2.111,2.556,8.356,9.385,16.728,12.383C268.287,325,261.19,338.034,254.04,339.19c-5.993,0.948-9.238-2.626-12.371-6.108   c-2.732-3.029-5.835-6.462-10.238-4.141c-0.343,0.181-0.601,0.413-0.9,0.62c-0.341-0.199-0.811-0.444-1.366-0.698   C230.366,327.814,231.447,326.595,232.117,324.982z M302.953,296.629c0.612,3.808,3.073,7.1,7.315,9.785   c2.476,1.564,3.754,3.285,3.8,5.116c0.049,1.956-1.228,3.993-2.675,5.644c-0.199-0.408-0.441-0.746-0.69-1.018   c-2.669-2.964-8.474-1.629-9.613-1.33c-0.289,0.071-0.558,0.213-0.79,0.397c-2.144,1.743-21.044,17.244-23.954,23.787   c-1.09,2.452-2.029,4.996-0.558,6.822c1.534,1.907,4.468,1.695,9.698,0.61c0.449-0.093,0.773-0.12,0.992-0.12   c0.25,0,0.373,0,0.373,0.028c0.177,0.3,0.295,1.983-1.4,5.807c-0.308,0.692-1.087,1.057-1.869,0.899   c-5.582-1.155-16.288-2.485-25.207,1.645c-4.689,2.174-7.998,2.332-11.828,2.517c-3.526,0.169-7.519,0.365-13.043,2.157   c-1.272,0.408-5.492,1.613-6.263-0.392c-0.644-1.685,0.611-4.633,1.943-5.498c8.234,0.32,11.59,0.323,11.59,0.323   c1.155,0,2.092-0.937,2.092-2.092s-0.937-2.092-2.092-2.092c-0.035,0-3.506,0-12.12-0.349c-1.487-0.06-4.067-0.419-4.622-2.174   c-0.414-1.302,0.316-3.182,1.629-4.184c1.139-0.883,4.977,0.087,8.728,1.705c1.191,0.751,2.43,1.356,3.631,1.754   c1.018,0.365,2.144-0.152,2.577-1.144c0.436-0.992,0.044-2.146-0.905-2.669c-0.744-0.414-1.959-1.052-3.424-1.705   c-2.435-1.651-4.364-4.015-4.514-5.863c-0.054-0.664,0.079-1.536,1.626-2.348c1.343-0.703,2.305,0.06,5.178,3.242   c3.337,3.7,7.894,8.723,16.149,7.432c16.073-2.604,27.386-43.319,27.492-43.729c0.814-3.122,0.553-5.846-0.782-8.096   c-0.771-1.301-1.763-2.146-2.71-2.792c7.892-2.84,16.789-3.811,25.923-0.647C303.587,289.975,302.382,293.087,302.953,296.629z    M317.012,289.768l7.153-9.985c2.606,1.463,5.053,2.999,7.352,4.587l-9.176,9.482c-0.713-0.555-1.405-1.033-2.127-1.631   C319.158,291.348,318.091,290.53,317.012,289.768z M334.945,302.007l9.19-7.321c1.77,1.71,3.384,3.381,4.81,4.958l-7.431,5.281   C339.427,304.145,337.236,303.178,334.945,302.007z M330.951,299.842c-1.713-1.018-3.47-2.157-5.267-3.427l9.265-9.574   c2.177,1.647,4.219,3.314,6.082,4.969L330.951,299.842z M346.493,306.52l5.196-3.694c1.704,2.053,3.082,3.876,4.076,5.278   C353.181,307.951,350.028,307.467,346.493,306.52z M389.919,235.526c-3.697,24.751-23.531,32.956-29.437,34.87   c-4.964-11.168-13.195-20.563-18.673-23.402c-1.018-0.523-2.285-0.126-2.819,0.894c-0.531,1.03-0.13,2.289,0.896,2.823   c4.173,2.163,12.623,10.962,17.503,22.986c5.266,12.972,13.686,20.328,25.022,21.864c2.28,0.306,3.847,1.231,4.794,2.823   c1.389,2.343,1.319,5.863,0.809,8.957c-2.669-1.695-7.015-2.239-9.382-0.425c-1.476,1.128-1.899,2.921-1.133,4.794   c0.518,1.269,0.757,5.824,0.989,10.232c0.668,12.755,1.515,22.785,5.705,26.179c1.209,0.981,2.667,1.384,4.173,1.128   c8.27-1.308,11.289,0.447,13.258,3.492c0.12,0.185,0.484,0.746-0.495,1.788c-1.487,1.569-4.607,2.489-6.707,1.302   c-4.95-2.834-8.423-1.64-14.168,0.338c-1.005,0.343-2.105,0.719-3.318,1.117c-5.705,1.842-11.588,0.926-16.323,0.185   c-1.389-0.213-2.654-0.408-3.756-0.512c-2.697-0.256-5.154,1.085-7.532,2.387c-2.879,1.575-5.598,3.084-8.802,2.109   c-1.487-0.447-1.97-1.193-2.207-1.721c-0.703-1.573-0.183-3.854,0.318-5.305c1.794-0.316,3.407-0.257,5.183-0.072   c2.561,0.256,5.475,0.562,9.148-0.79c1.085-0.397,1.638-1.602,1.239-2.686c-0.401-1.085-1.597-1.623-2.689-1.237   c-2.76,1.007-4.857,0.807-7.268,0.551c-2.198-0.223-4.678-0.474-7.658,0.316c-0.455,0.12-1.141,0.191-1.667-0.659   c-0.692-1.111-0.662-3.166,0.755-4.767c1.09-1.237,3.201-1.198,5.151-0.785c1.092,0.61,2.482,1.111,4.277,1.454   c1.024,0.217,2.04-0.397,2.376-1.384c0.335-0.992-0.111-2.076-1.046-2.545c-0.158-0.076-1.803-0.883-3.997-1.438   c-1.155-0.839-1.567-2.022-2.185-3.793l-0.466-1.302c-0.278-0.742-0.634-1.302-1.024-1.727c1.005-0.436,1.988-0.632,2.945-0.572   c2.152,0.147,4.075,1.608,5.715,4.348c5.429,9.044,14.433,9.148,14.814,9.148c0.87,0,1.649-0.54,1.956-1.352   c6.766-17.881-2.28-35.169-2.669-35.898c-0.007-0.011-0.018-0.018-0.024-0.03c-0.006-0.01-0.003-0.021-0.009-0.031   c-0.803-1.389-20.113-34.03-60.996-42.84c-29.451-6.369-65.039,10.249-66.54,10.962c-0.354,0.163-0.651,0.425-0.864,0.751   c-4.233,6.543-11.292,23.907-6.089,35.801c1.773,4.054,2.196,7.257,1.254,9.529c-0.632,1.521-1.864,2.741-3.958,3.869   c-0.28-2.615-1.182-6.02-3.874-7.502c-2.632-1.438-6.054-0.638-10.177,2.392c-9.761,7.176-23.687,24.125-22.417,31.464   c0.31,1.803,1.441,3.084,3.179,3.607c1.681,0.501,3.751,0.931,5.93,1.378c4.31,0.888,9.393,1.929,11.648,3.797   c-6.086-0.779-17.876-1.858-22.537,0.757c-5.497,3.095-14.947,5.067-21.526,2.686c-2.392-0.997-7.747-1.788-10.861,2.43   c-1.161,1.575-2.983,2.005-4.16,1.608c-1.367-0.447-1.654-1.869-1.654-2.98c0-4.854,4.672-5.23,6.102-5.23   c1.155,0,2.092-0.937,2.092-2.092s-0.937-2.092-2.092-2.092c-3.204,0-5.841,1.044-7.65,2.82c-1.673-0.874-2.753-1.907-3.145-3.099   c-0.536-1.629,0.234-3.318,0.744-4.179c0.969-1.646,2.684-2.52,3.734-2.944c2.375,2.231,5.139,3.828,6.526,4.436   c1.046,0.452,2.285-0.022,2.756-1.079c0.463-1.057-0.022-2.294-1.079-2.756c-2.801-1.226-7.925-5.007-8.167-8.178   c-0.089-1.161,0.981-2.044,2.087-2.321c0.798-0.202,2.808-0.36,4.018,2.435c3.059,7.078,13.007,12.057,13.43,12.264   c0.295,0.147,0.61,0.219,0.926,0.219c0.51,0,1.011-0.185,1.406-0.54c0.885-0.807,21.722-20.05,21.843-51.53   c0.072-19.03,2.718-30.901,3.701-34.677c3.698-0.178,13.151-1.316,21.64-7.826c2.457,4.353,8.693,12.803,20.17,13.092   c0.017,0,0.035,0,0.052,0c0.751,0,1.447-0.408,1.82-1.063c0.382-0.675,0.36-1.504-0.054-2.152   c-0.041-0.065-3.255-5.208-2.522-9.643c2.637,2.545,7.439,5.987,14.283,6.233h0.001h0.001c0.024,0,0.049,0,0.074,0   c0.362,0,0.687-0.118,0.986-0.284c0.136-0.076,0.256-0.134,0.37-0.241c0.268-0.232,0.463-0.529,0.587-0.872   c0.011-0.032,0.044-0.047,0.054-0.081c0.028-0.093,2.923-9.207,11.186-13.474c5.277-2.73,11.64-2.899,18.938-0.495   c0.18,0.058,0.361,0.056,0.541,0.065c0.041,0.002,0.072,0.039,0.113,0.039c0.032,0,0.065-0.011,0.097-0.013   c0.054-0.002,0.105-0.014,0.159-0.021c0.093-0.011,0.185-0.011,0.278-0.036c0.064-0.017,0.11-0.062,0.172-0.085   c0.138-0.051,0.263-0.113,0.387-0.191c0.109-0.068,0.21-0.139,0.303-0.225c0.099-0.089,0.181-0.19,0.262-0.298   c0.081-0.109,0.151-0.218,0.21-0.341c0.028-0.056,0.074-0.097,0.096-0.158c0.278-0.761,4.606-12.06,15.396-18.728   c0.039,0.007,0.069,0.031,0.109,0.034c0.259,0.028,26.04,2.882,40.309,9.85c4.351,2.125,9.66,3.177,14.915,3.177   c5.933,0,11.793-1.341,16.105-3.982c4.707-2.882,7.239-7.022,7.322-11.959c0.172-10.123-6.059-17.914-12.008-20.099   c-3.732-1.367-7.326-0.545-9.597,2.228c-2.828,3.444-2.661,7.905,0.397,10.613c3.174,2.812,9.036,3.258,14.901-1.929   c0.686,1.332,1.235,2.803,1.605,4.374c-6.616,4.573-12.788,6.097-17.827,4.398c-4.787-1.613-7.641-5.759-8.719-9.099   c-0.847-2.621-0.371-5.879,1.302-8.93c2.354-4.294,6.642-7.524,11.763-8.858c5.34-1.4,14.098-0.196,20.712,5.742   C386.873,211.516,392.237,220.02,389.919,235.526z M370.763,215.977c-4.11,3.869-7.894,3.956-9.761,2.3   c-1.373-1.215-1.348-3.111,0.063-4.822c0.836-1.018,1.871-1.362,2.877-1.362c0.725,0,1.436,0.18,2.046,0.403   C367.644,213.106,369.308,214.316,370.763,215.977z"/>
</g>
<g>
</g>
<g>
</g>
<g>
</g>
<g>
</g>
<g>
</g>
<g>
</g>
<g>
</g>
<g>
</g>
<g>
</g>
<g>
</g>
<g>
</g>
<g>
</g>
<g>
</g>
<g>
</g>
<g>
</g>
</svg>
