<?xml version="1.0" encoding="iso-8859-1"?>
<!-- Generator: Adobe Illustrator 19.0.0, SVG Export Plug-In . SVG Version: 6.00 Build 0)  -->
<svg xmlns="http://www.w3.org/2000/svg" xmlns:xlink="http://www.w3.org/1999/xlink" version="1.1" id="Layer_1" x="0px" y="0px" viewBox="0 0 512.001 512.001" style="enable-background:new 0 0 512.001 512.001;" xml:space="preserve">
<path style="fill:#F5F5F5;" d="M503.172,423.725H8.828c-4.875,0-8.828-3.953-8.828-8.828V97.104c0-4.875,3.953-8.828,8.828-8.828  h494.345c4.875,0,8.828,3.953,8.828,8.828v317.793C512,419.773,508.047,423.725,503.172,423.725z"/>
<path style="fill:#41479B;" d="M11.476,110.877l182.888,133.649H79.144H53.442l17.156,19.137L203.815,412.25H11.476V110.877   M3.081,90.529C1.228,92.148,0,94.452,0,97.104v317.793c0,4.875,3.953,8.828,8.828,8.828h220.69L79.144,256.001h150.374  L3.081,90.529L3.081,90.529z"/>
<polyline style="fill:#FF4B55;" points="11.476,110.877 194.364,244.525 79.144,244.525 53.442,244.525 70.6,263.661   203.816,412.249 11.476,412.249 11.476,110.877 "/>
<g>
	<path style="fill:#F5F5F5;" d="M67.345,296.399l7.066,14.583l13.411-9.096c0.591-0.402,1.386,0.057,1.334,0.77l-1.171,16.162   l16.162-1.171c0.713-0.052,1.172,0.743,0.77,1.334l-9.096,13.411l14.583,7.066c0.643,0.312,0.643,1.228,0,1.54l-14.583,7.066   l9.096,13.411c0.402,0.591-0.057,1.386-0.77,1.334l-16.162-1.171l1.171,16.162c0.052,0.713-0.743,1.172-1.334,0.77l-13.411-9.096   l-7.066,14.583c-0.312,0.643-1.228,0.643-1.54,0l-7.066-14.583l-13.411,9.096c-0.591,0.402-1.386-0.057-1.334-0.77l1.171-16.162   l-16.162,1.171c-0.713,0.052-1.172-0.743-0.77-1.334l9.096-13.411l-14.586-7.063c-0.643-0.312-0.643-1.228,0-1.54l14.583-7.066   l-9.096-13.411c-0.402-0.591,0.057-1.386,0.77-1.334l16.162,1.171l-1.171-16.162c-0.052-0.713,0.743-1.172,1.334-0.77l13.411,9.096   l7.066-14.583C66.116,295.756,67.033,295.756,67.345,296.399z"/>
	<path style="fill:#F5F5F5;" d="M85.694,212.062l-6.135-4.191l5.401-5.661l-7.697-1.405l2.632-7.367l-7.603,1.847l-0.593-7.8   l-6.194,4.779l-3.713-6.884l-3.714,6.886l-6.194-4.779l-0.593,7.8l-7.603-1.847l2.632,7.367l-7.697,1.405l5.401,5.661l-6.135,4.191   c-7.741-3.614-14.547-8.895-19.903-15.427c3.598,20.961,21.815,36.929,43.804,36.929s40.205-15.968,43.804-36.929   C100.241,203.168,93.434,208.448,85.694,212.062z"/>
</g>
<g>
</g>
<g>
</g>
<g>
</g>
<g>
</g>
<g>
</g>
<g>
</g>
<g>
</g>
<g>
</g>
<g>
</g>
<g>
</g>
<g>
</g>
<g>
</g>
<g>
</g>
<g>
</g>
<g>
</g>
</svg>
