<?xml version="1.0" encoding="iso-8859-1"?>
<!-- Generator: Adobe Illustrator 19.0.0, SVG Export Plug-In . SVG Version: 6.00 Build 0)  -->
<svg xmlns="http://www.w3.org/2000/svg" xmlns:xlink="http://www.w3.org/1999/xlink" version="1.1" id="Layer_1" x="0px" y="0px" viewBox="0 0 512.001 512.001" style="enable-background:new 0 0 512.001 512.001;" xml:space="preserve">
<path style="fill:#41479B;" d="M503.172,423.724H8.828c-4.875,0-8.828-3.953-8.828-8.828V97.104c0-4.875,3.953-8.828,8.828-8.828  h494.345c4.875,0,8.828,3.953,8.828,8.828v317.792C512,419.772,508.047,423.724,503.172,423.724z"/>
<path style="fill:#F5F5F5;" d="M247.172,88.276h-15.333l-81.77,53.573V88.276h-44.138v53.573l-81.77-53.573H8.828  C3.953,88.276,0,92.229,0,97.104v7.002l70.155,45.963H0v44.138h70.155L0,240.171v7.001C0,252.047,3.953,256,8.828,256h15.333  l81.77-53.573V256h44.138v-53.573L231.838,256h15.333c4.875,0,8.828-3.953,8.828-8.828v-7.002l-70.154-45.963h70.154v-44.138  h-70.155l70.155-45.963v-7.002C255.999,92.229,252.048,88.276,247.172,88.276z"/>
<g>
	<polygon style="fill:#FF4B55;" points="255.999,158.897 141.241,158.897 141.241,88.276 114.758,88.276 114.758,158.897 0,158.897    0,185.379 114.758,185.379 114.758,256 141.241,256 141.241,185.379 255.999,185.379  "/>
	<path style="fill:#FF4B55;" d="M97.103,150.069L4.207,89.768C1.735,91.333,0,93.961,0,97.104v0.458l80.889,52.507H97.103z"/>
	<path style="fill:#FF4B55;" d="M166.283,150.069l88.374-57.366c-1.536-2.599-4.246-4.427-7.485-4.427h-1.909l-95.194,61.793   H166.283z"/>
	<path style="fill:#FF4B55;" d="M89.474,194.207L1.269,251.463C2.79,254.125,5.542,256,8.828,256h1.665l95.195-61.793H89.474z"/>
	<path style="fill:#FF4B55;" d="M255.859,247.867l-82.666-53.659H156.98l93.873,60.934   C253.666,253.837,255.594,251.102,255.859,247.867z"/>
</g>
<g>
	<path style="fill:#F5F5F5;" d="M377.128,150.113l3.237,9.708l10.233,0.079c0.792,0.007,1.121,1.017,0.483,1.489l-8.232,6.079   l3.086,9.757c0.239,0.756-0.621,1.382-1.267,0.92l-8.326-5.951l-8.326,5.951c-0.646,0.461-1.505-0.164-1.267-0.92l3.086-9.757   l-8.232-6.079c-0.638-0.471-0.309-1.483,0.483-1.489l10.233-0.079l3.237-9.708C375.814,149.361,376.878,149.361,377.128,150.113z"/>
	<path style="fill:#F5F5F5;" d="M333.616,162.054l6.906,7.552l9.38-4.089c0.727-0.317,1.439,0.473,1.047,1.163l-5.048,8.901   l6.788,7.658c0.526,0.594-0.006,1.515-0.782,1.356l-10.026-2.05l-5.185,8.822c-0.402,0.683-1.442,0.462-1.532-0.326l-1.149-10.168   l-9.993-2.205c-0.775-0.171-0.885-1.229-0.163-1.557l9.316-4.235l-0.991-10.185C332.109,161.901,333.081,161.468,333.616,162.054z"/>
	<path style="fill:#F5F5F5;" d="M298.722,190.659l9.38,4.089l6.906-7.552c0.535-0.585,1.507-0.152,1.43,0.637l-0.991,10.185   l9.316,4.235c0.722,0.328,0.61,1.386-0.163,1.557l-9.993,2.205l-1.149,10.168c-0.089,0.788-1.13,1.009-1.532,0.326l-5.185-8.822   l-10.026,2.05c-0.777,0.159-1.309-0.762-0.782-1.356l6.788-7.658l-5.048-8.901C297.283,191.133,297.994,190.343,298.722,190.659z"/>
	<path style="fill:#F5F5F5;" d="M278.479,230.985l10.233-0.079l3.238-9.708c0.25-0.753,1.314-0.753,1.566,0l3.237,9.708   l10.233,0.079c0.792,0.007,1.121,1.017,0.483,1.489l-8.232,6.079l3.086,9.757c0.239,0.756-0.621,1.382-1.267,0.92l-8.326-5.951   l-8.326,5.951c-0.646,0.461-1.505-0.164-1.267-0.92l3.086-9.757l-8.232-6.079C277.358,232.002,277.687,230.99,278.479,230.985z"/>
	<path style="fill:#F5F5F5;" d="M276.389,276.057l9.316-4.235l-0.991-10.185c-0.077-0.789,0.895-1.221,1.43-0.637l6.906,7.552   l9.38-4.089c0.727-0.317,1.439,0.473,1.047,1.163l-5.048,8.902l6.788,7.658c0.526,0.594-0.006,1.515-0.782,1.356l-10.026-2.05   l-5.185,8.822c-0.402,0.683-1.442,0.462-1.532-0.326l-1.149-10.168l-9.993-2.205C275.778,277.443,275.667,276.385,276.389,276.057z   "/>
	<path style="fill:#F5F5F5;" d="M292.811,318.083l6.788-7.658l-5.048-8.901c-0.391-0.69,0.321-1.48,1.047-1.163l9.38,4.089   l6.906-7.552c0.535-0.585,1.507-0.152,1.43,0.637l-0.991,10.185l9.316,4.235c0.722,0.328,0.61,1.386-0.163,1.557l-9.993,2.205   l-1.149,10.168c-0.089,0.788-1.13,1.009-1.532,0.326l-5.185-8.822l-10.026,2.05C292.817,319.597,292.285,318.677,292.811,318.083z"/>
	<path style="fill:#F5F5F5;" d="M324.907,349.796l3.086-9.757l-8.232-6.079c-0.638-0.471-0.309-1.483,0.483-1.489l10.233-0.079   l3.238-9.708c0.25-0.753,1.314-0.753,1.566,0l3.237,9.708l10.233,0.079c0.792,0.007,1.121,1.017,0.483,1.489l-8.232,6.079   l3.086,9.757c0.239,0.756-0.621,1.382-1.267,0.92l-8.326-5.951l-8.326,5.951C325.53,351.177,324.669,350.552,324.907,349.796z"/>
	<path style="fill:#F5F5F5;" d="M367.129,365.712l-1.149-10.168l-9.993-2.205c-0.775-0.171-0.885-1.229-0.163-1.557l9.316-4.235   l-0.991-10.185c-0.077-0.789,0.895-1.222,1.43-0.637l6.906,7.552l9.38-4.089c0.727-0.317,1.439,0.473,1.047,1.163l-5.048,8.901   l6.788,7.658c0.526,0.594-0.006,1.515-0.782,1.356l-10.026-2.05l-5.185,8.822C368.257,366.721,367.217,366.5,367.129,365.712z"/>
	<path style="fill:#F5F5F5;" d="M412.172,363.081l-5.185-8.822l-10.026,2.05c-0.777,0.159-1.309-0.762-0.782-1.356l6.788-7.658   l-5.048-8.901c-0.391-0.69,0.321-1.48,1.047-1.163l9.38,4.089l6.906-7.552c0.535-0.585,1.507-0.152,1.43,0.637l-0.991,10.185   l9.316,4.235c0.722,0.328,0.61,1.386-0.163,1.557l-9.993,2.205l-1.149,10.168C413.615,363.543,412.574,363.764,412.172,363.081z"/>
	<path style="fill:#F5F5F5;" d="M452.252,342.355l-8.326-5.951l-8.326,5.951c-0.646,0.461-1.505-0.164-1.267-0.92l3.086-9.757   l-8.232-6.079c-0.638-0.471-0.309-1.483,0.483-1.489l10.233-0.079l3.238-9.708c0.25-0.753,1.314-0.753,1.566,0l3.237,9.708   l10.233,0.079c0.792,0.007,1.121,1.017,0.483,1.489l-8.232,6.079l3.086,9.757C453.757,342.19,452.896,342.816,452.252,342.355z"/>
	<path style="fill:#F5F5F5;" d="M480.436,307.118l-10.026-2.05l-5.185,8.822c-0.402,0.683-1.442,0.462-1.532-0.326l-1.149-10.168   l-9.993-2.205c-0.775-0.171-0.885-1.229-0.163-1.557l9.316-4.235l-0.991-10.185c-0.077-0.789,0.895-1.221,1.43-0.637l6.906,7.552   l9.38-4.089c0.727-0.317,1.439,0.473,1.047,1.163l-5.048,8.901l6.788,7.658C481.745,306.356,481.213,307.277,480.436,307.118z"/>
	<path style="fill:#F5F5F5;" d="M491.852,263.466l-9.993,2.205l-1.149,10.168c-0.089,0.788-1.13,1.009-1.532,0.326l-5.185-8.822   l-10.026,2.05c-0.777,0.159-1.309-0.762-0.782-1.356l6.788-7.658l-5.048-8.902c-0.391-0.69,0.321-1.48,1.047-1.163l9.38,4.089   l6.906-7.552c0.535-0.585,1.507-0.152,1.43,0.637l-0.991,10.185l9.316,4.235C492.737,262.237,492.626,263.296,491.852,263.466z"/>
	<path style="fill:#F5F5F5;" d="M484.525,218.944l-8.232,6.079l3.086,9.757c0.239,0.756-0.621,1.382-1.267,0.92l-8.326-5.951   l-8.326,5.951c-0.646,0.461-1.505-0.164-1.267-0.92l3.086-9.757l-8.232-6.079c-0.638-0.471-0.309-1.483,0.483-1.489l10.233-0.079   l3.238-9.708c0.25-0.753,1.314-0.753,1.566,0l3.237,9.708l10.233,0.079C484.834,217.461,485.163,218.473,484.525,218.944z"/>
	<path style="fill:#F5F5F5;" d="M459.724,181.25l-5.048,8.902l6.788,7.658c0.526,0.594-0.006,1.515-0.782,1.356l-10.026-2.05   l-5.185,8.822c-0.402,0.683-1.442,0.462-1.532-0.326l-1.149-10.168l-9.993-2.205c-0.775-0.171-0.885-1.229-0.163-1.557l9.316-4.235   l-0.991-10.185c-0.077-0.789,0.895-1.222,1.43-0.637l6.906,7.552l9.38-4.089C459.403,179.771,460.115,180.561,459.724,181.25z"/>
	<path style="fill:#F5F5F5;" d="M421.735,156.904l-0.991,10.185l9.316,4.235c0.722,0.328,0.61,1.386-0.163,1.557l-9.993,2.205   l-1.149,10.168c-0.089,0.788-1.13,1.009-1.532,0.326l-5.185-8.822l-10.026,2.05c-0.777,0.159-1.309-0.762-0.782-1.356l6.788-7.658   l-5.048-8.902c-0.391-0.69,0.321-1.48,1.047-1.163l9.38,4.089l6.906-7.552C420.84,155.682,421.812,156.115,421.735,156.904z"/>
	<path style="fill:#F5F5F5;" d="M377.128,150.113l3.237,9.708l10.233,0.079c0.792,0.007,1.121,1.017,0.483,1.489l-8.232,6.079   l3.086,9.757c0.239,0.756-0.621,1.382-1.267,0.92l-8.326-5.951l-8.326,5.951c-0.646,0.461-1.505-0.164-1.267-0.92l3.086-9.757   l-8.232-6.079c-0.638-0.471-0.309-1.483,0.483-1.489l10.233-0.079l3.237-9.708C375.814,149.361,376.878,149.361,377.128,150.113z"/>
</g>
<g>
</g>
<g>
</g>
<g>
</g>
<g>
</g>
<g>
</g>
<g>
</g>
<g>
</g>
<g>
</g>
<g>
</g>
<g>
</g>
<g>
</g>
<g>
</g>
<g>
</g>
<g>
</g>
<g>
</g>
</svg>
