<?xml version="1.0" encoding="iso-8859-1"?>
<!-- Generator: Adobe Illustrator 19.0.0, SVG Export Plug-In . SVG Version: 6.00 Build 0)  -->
<svg xmlns="http://www.w3.org/2000/svg" xmlns:xlink="http://www.w3.org/1999/xlink" version="1.1" id="Layer_1" x="0px" y="0px" viewBox="0 0 512.001 512.001" style="enable-background:new 0 0 512.001 512.001;" xml:space="preserve">
<path style="fill:#41479B;" d="M503.172,423.724H8.828c-4.875,0-8.828-3.953-8.828-8.828V97.104c0-4.875,3.953-8.828,8.828-8.828  h494.345c4.875,0,8.828,3.953,8.828,8.828v317.792C512,419.772,508.047,423.724,503.172,423.724z"/>
<path style="fill:#F5F5F5;" d="M247.172,88.276h-15.333l-81.77,53.573V88.276h-44.138v53.573l-81.77-53.573H8.828  C3.953,88.276,0,92.229,0,97.104v7.002l70.155,45.963H0v44.138h70.155L0,240.171v7.001C0,252.047,3.953,256,8.828,256h15.333  l81.77-53.573V256h44.138v-53.573L231.838,256h15.333c4.875,0,8.828-3.953,8.828-8.828v-7.002l-70.154-45.963h70.154v-44.138  h-70.155l70.155-45.963v-7.002C255.999,92.229,252.048,88.276,247.172,88.276z"/>
<g>
	<polygon style="fill:#FF4B55;" points="255.999,158.897 141.241,158.897 141.241,88.276 114.758,88.276 114.758,158.897 0,158.897    0,185.379 114.758,185.379 114.758,256 141.241,256 141.241,185.379 255.999,185.379  "/>
	<path style="fill:#FF4B55;" d="M97.103,150.069L4.207,89.768C1.735,91.333,0,93.961,0,97.104v0.458l80.889,52.507H97.103z"/>
	<path style="fill:#FF4B55;" d="M166.283,150.069l88.374-57.366c-1.536-2.599-4.246-4.427-7.485-4.427h-1.909l-95.194,61.793   H166.283z"/>
	<path style="fill:#FF4B55;" d="M89.474,194.207L1.269,251.463C2.79,254.125,5.542,256,8.828,256h1.665l95.195-61.793H89.474z"/>
	<path style="fill:#FF4B55;" d="M255.859,247.867l-82.666-53.659H156.98l93.873,60.934   C253.666,253.837,255.594,251.102,255.859,247.867z"/>
</g>
<path style="fill:#F5F5F5;" d="M328.608,192.663c-1.184,15.778-6.08,116.046,57.536,138.712  c63.639-22.672,58.722-122.936,57.536-138.712c-7.708,3.021-35.609,12.179-57.536-3.427  C364.219,204.84,336.321,195.688,328.608,192.663z"/>
<g>
	<path style="fill:#FFA028;" d="M417.403,212.893c-3.488-2.712-9.945,2.325-17.18,1.809c-6.709-0.479-14.977-7.273-25.724-4.344   c-2.969-2.734-1.532-9.089-1.532-9.089c-7.461,4.823-7.996,11.425-7.527,15.006c-5.32,7.03-4.961,17.758-3.969,21.032   c1.291,4.263,3.746,4.779,4.134,9.558c0.387,4.779,2.196,3.1,2.196,3.1c3.736-2.095,4.279-6.048,5.85-12.516   c6.07,0.775,10.037-4.662,10.037-4.662c-3.982,1.249-6.494-0.946-7.863-2.879c0.214-0.639,0.385-1.228,0.63-1.9   c4.521-12.401,26.154-8.991,28.159-5.555c3.617,6.2,8.396,8.525,8.396,8.525c0-6.464-4.779-12.141-4.779-12.141   C415.465,217.543,417.403,212.893,417.403,212.893z M365.349,239.501c-0.714,0-1.292-0.578-1.292-1.291s0.578-1.291,1.292-1.291   c0.713,0,1.291,0.578,1.291,1.291C366.64,238.923,366.062,239.501,365.349,239.501z"/>
	<path style="fill:#FFA028;" d="M396.102,292.24c4.212-1.333,3.729-9.509,8.258-15.172c4.201-5.252,14.486-8.206,18.172-18.718   c3.936-0.894,8.353,3.895,8.353,3.895c0.262-8.881-4.872-13.066-8.087-14.712c-2.771-8.37-11.808-14.161-15.068-15.201   c-4.243-1.355-6.06,0.373-10.216-2.019s-3.799,0.05-3.799,0.05c-0.394,4.266,2.552,6.955,6.988,11.919   c-4.082,4.558-1.855,10.911-1.855,10.911c1.23-3.989,4.463-4.811,6.833-4.842c0.405,0.538,0.793,1.014,1.207,1.597   c7.647,10.757-7.434,26.638-11.402,26.339c-7.158-0.54-11.784,2.078-11.784,2.078c5.323,3.667,12.71,2.953,12.71,2.953   C393.372,288.007,396.102,292.24,396.102,292.24z M403.723,234.278c0.405-0.587,1.209-0.736,1.796-0.331   c0.587,0.405,0.736,1.209,0.331,1.796s-1.209,0.736-1.796,0.331C403.466,235.669,403.318,234.866,403.723,234.278z"/>
	<path style="fill:#FFA028;" d="M339.154,234.826c-0.564,4.382,7.058,7.383,10.289,13.876c2.997,6.02,1.348,16.595,9.333,24.361   c-0.845,3.947-7.049,5.939-7.049,5.939c7.946,3.975,13.903,1.079,16.749-1.145c8.759,1.009,17.815-4.753,20.13-7.272   c3.015-3.278,2.212-5.655,6.131-8.418s1.554-3.467,1.554-3.467c-3.704-2.153-7.383-0.611-13.753,1.323   c-2.418-5.621-9.117-6.274-9.117-6.274c3.101,2.795,2.486,6.073,1.517,8.235c-0.659,0.14-1.254,0.292-1.956,0.424   c-12.977,2.409-21.036-17.954-19.095-21.427c3.501-6.266,3.074-11.564,3.074-11.564c-5.567,3.285-8.028,10.287-8.028,10.287   C344.144,234.131,339.154,234.826,339.154,234.826z M388.527,266.132c0.363,0.615,0.159,1.407-0.456,1.769   c-0.615,0.363-1.406,0.159-1.769-0.456s-0.159-1.406,0.456-1.769C387.372,265.313,388.165,265.517,388.527,266.132z"/>
</g>
<path style="fill:#CDCE0C;" d="M386.144,334.66l-0.509-0.175c-71.634-24.918-60.058-143.037-59.934-144.23l0.224-2.134l1.958,0.887  c0.338,0.154,33.572,14.894,57.331-2.931l0.929-0.696l0.929,0.696c23.794,17.849,56.999,3.082,57.33,2.931l1.959-0.89l0.224,2.137  c0.126,1.193,11.701,119.312-59.934,144.23L386.144,334.66z M328.608,192.663c-1.184,15.778-6.08,116.046,57.536,138.712  c63.639-22.672,58.722-122.936,57.536-138.712c-7.708,3.021-35.609,12.179-57.536-3.427  C364.219,204.84,336.321,195.688,328.608,192.663z"/>
<path style="fill:#82AFFF;" d="M346.246,295.819c8.689,15.757,21.374,28.957,39.898,35.556c18.529-6.601,31.218-19.8,39.907-35.556  H346.246z"/>
<g>
</g>
<g>
</g>
<g>
</g>
<g>
</g>
<g>
</g>
<g>
</g>
<g>
</g>
<g>
</g>
<g>
</g>
<g>
</g>
<g>
</g>
<g>
</g>
<g>
</g>
<g>
</g>
<g>
</g>
</svg>
