<?xml version="1.0" encoding="iso-8859-1"?>
<!-- Generator: Adobe Illustrator 19.0.0, SVG Export Plug-In . SVG Version: 6.00 Build 0)  -->
<svg xmlns="http://www.w3.org/2000/svg" xmlns:xlink="http://www.w3.org/1999/xlink" version="1.1" id="Layer_1" x="0px" y="0px" viewBox="0 0 512.001 512.001" style="enable-background:new 0 0 512.001 512.001;" xml:space="preserve">
<path style="fill:#FF4B55;" d="M512,155.367H0V97.104c0-4.875,3.953-8.828,8.828-8.828h494.345c4.875,0,8.828,3.953,8.828,8.828  L512,155.367L512,155.367z"/>
<rect y="155.371" style="fill:#F5F5F5;" width="512" height="67.09"/>
<g>
	<rect y="222.461" style="fill:#FF4B55;" width="512" height="67.09"/>
	<path style="fill:#FF4B55;" d="M503.172,423.725H8.828c-4.875,0-8.828-3.953-8.828-8.828v-58.262h512v58.262   C512,419.773,508.047,423.725,503.172,423.725z"/>
</g>
<rect y="289.551" style="fill:#F5F5F5;" width="512" height="67.09"/>
<path style="fill:#41479B;" d="M3.256,421.591l244.341-160.086c3.966-2.599,3.966-8.412,0-11.009L3.256,90.411  C1.311,92.03,0,94.376,0,97.104v317.793C0,417.626,1.311,419.972,3.256,421.591z"/>
<path style="fill:#F5F5F5;" d="M90.183,215.027l9.213,27.623l29.118,0.226c3.769,0.029,5.333,4.84,2.301,7.08l-23.424,17.298  l8.783,27.763c1.138,3.594-2.955,6.568-6.023,4.375l-23.69-16.932l-23.69,16.932c-3.066,2.193-7.159-0.781-6.023-4.375l8.783-27.763  l-23.424-17.298c-3.032-2.24-1.47-7.05,2.301-7.08l29.118-0.226l9.213-27.623C83.932,211.45,88.99,211.45,90.183,215.027z"/>
<g>
</g>
<g>
</g>
<g>
</g>
<g>
</g>
<g>
</g>
<g>
</g>
<g>
</g>
<g>
</g>
<g>
</g>
<g>
</g>
<g>
</g>
<g>
</g>
<g>
</g>
<g>
</g>
<g>
</g>
</svg>
