<?xml version="1.0" encoding="iso-8859-1"?>
<!-- Generator: Adobe Illustrator 19.0.0, SVG Export Plug-In . SVG Version: 6.00 Build 0)  -->
<svg xmlns="http://www.w3.org/2000/svg" xmlns:xlink="http://www.w3.org/1999/xlink" version="1.1" id="Layer_1" x="0px" y="0px" viewBox="0 0 512.001 512.001" style="enable-background:new 0 0 512.001 512.001;" xml:space="preserve">
<path style="fill:#F5F5F5;" d="M503.172,423.724H8.828c-4.875,0-8.828-3.953-8.828-8.828V97.104c0-4.875,3.953-8.828,8.828-8.828  h494.345c4.875,0,8.828,3.953,8.828,8.828v317.792C512,419.772,508.047,423.724,503.172,423.724z"/>
<path style="fill:#464655;" d="M142.246,273.342c0,0,0.245,4.682-3.698,8.871c-3.943,4.191-1.972,9.612,3.204,12.077  c0,0-3.572,8.502,1.726,12.075c3.345,2.258,7.886,1.972,7.886,1.972s2.465,10.105,0.493,16.511  c-1.972,6.408,0.739,24.89,45.838,14.294c0,0,0.409,11.829,18.483,21.029c18.071,9.201,14.532,30.995,14.532,30.995  s24.876,14.402,52.37-19.639c27.495-34.04,29.458-38.623,49.097-46.478c0,0-30.767-31.422-19.638-58.916  c1.465-3.624,3.122-7.426,4.849-11.336c3.186,10.348,9.48,25.459,20.723,34.248c3.498,2.721,7.815,3.58,11.988,4.418  c4.48,0.9,8.346,1.677,10.167,4.439c1.601,2.46,1.747,6.799,0.509,12.803c-13.368,14.583-26.287,18.469-26.468,18.516l-3.109,0.839  l6.536,21.557l-19.506,17.945l0.348,1.739c2.414,12.029,9.839,13.624,12.908,13.768c0.184,0,0.369,0.021,0.553,0.021  c7.098,0,14.319-5.973,16.611-13.849c3.969-13.603,16.918-15.158,17.061-15.158l1.964-0.225l0.654-1.862  c0.287-0.819,7.017-20.212,10.33-39.972c1.332-7.993,1.586-14.356,1.314-19.923c0.103-0.192,0.22-0.299,0.322-0.493l-0.338-0.177  c-1.25-21.07-12.679-26.678-23.966-31.88c-9.622-4.467-13.399-8.804-15.268-12.244c0.388,0.01,0.718,0.113,1.112,0.113  c3.069,0,6.301-0.348,9.573-1.268c9.123-2.537,16.509-8.776,21.95-18.533c3.314-5.973,27.965-73.604,30.767-81.295l1.943-5.34  l-31.821,6.792l2.424-19.352l-41.241,14.545l0.982,2.946c0.143,0.388,13.277,39.83,12.008,63.907  c-0.348,6.322-2.332,10.903-5.953,13.603c-4.552,3.362-10.722,3.183-13.944,2.836c7.178-19.071,11.806-39.108,4.963-57.047  c-11.336-29.721-61.535-56.952-99.502-53.024c-37.967,3.928-69.435,13.102-79.909,51.071c-10.474,37.968-7.554,48-6.244,54.546  c1.309,6.546-23.351,35.442-18.892,44.361C131.895,274.08,142.246,273.342,142.246,273.342z M324.243,239.005  c0.66-1.557,1.32-3.107,1.961-4.684c1.163,0.207,2.887,0.452,5.421,0.452c4.296,0,9.921-0.819,14.606-4.317  c5.175-3.866,8.019-10.024,8.449-18.308c1.166-21.602-8.244-53.454-11.353-63.294l25.857-9.103l-6.28,50.16l6.219,0.777  l4.299-34.322l22.868-4.874c-10.903,29.867-26.226,71.128-28.415,75.056c-4.602,8.244-10.719,13.481-18.166,15.548  C338.527,245.267,327.875,240.787,324.243,239.005z M339.755,358.296l3.191,10.53c-0.082,0.256-0.238,0.392-0.314,0.654  c-1.493,5.114-6.301,9.308-10.577,9.308c-0.103,0-0.204,0-0.287,0c-3.886-0.163-5.749-3.948-6.628-7.037L339.755,358.296z   M373.542,303.962c-0.253,2.823-0.526,5.682-1.085,9.037c-2.659,15.895-7.774,32.015-9.492,37.191  c-3.519,0.823-10.781,3.311-15.964,10.346l-7.991-26.303C345.381,331.702,360.304,323.34,373.542,303.962z M321.461,245.564  c0.12-0.274,0.238-0.524,0.355-0.798c2.362,1.12,6.349,2.766,11.668,3.805c1.478,4.398,4.94,11.757,19.866,18.667  c10.351,4.779,19.058,8.832,20.444,24.83c-1.954,3.593-4.094,6.089-6.18,9.039c-0.305-2.541-0.895-4.823-2.092-6.641  c-3.273-4.971-9.063-6.137-14.197-7.16c-3.62-0.736-7.037-1.411-9.348-3.212C328.767,273.779,323.105,252.813,321.461,245.564z   M158.019,199.159c0,0,0.984-22.178,10.845-40.909l150.823,69.99l-12.816,27.602L158.019,199.159z"/>
<g>
</g>
<g>
</g>
<g>
</g>
<g>
</g>
<g>
</g>
<g>
</g>
<g>
</g>
<g>
</g>
<g>
</g>
<g>
</g>
<g>
</g>
<g>
</g>
<g>
</g>
<g>
</g>
<g>
</g>
</svg>
