<?xml version="1.0" encoding="iso-8859-1"?>
<!-- Generator: Adobe Illustrator 19.0.0, SVG Export Plug-In . SVG Version: 6.00 Build 0)  -->
<svg xmlns="http://www.w3.org/2000/svg" xmlns:xlink="http://www.w3.org/1999/xlink" version="1.1" id="Layer_1" x="0px" y="0px" viewBox="0 0 512.001 512.001" style="enable-background:new 0 0 512.001 512.001;" xml:space="preserve">
<path style="fill:#73AF00;" d="M503.172,423.724H8.828c-4.875,0-8.828-3.953-8.828-8.828V97.104c0-4.875,3.953-8.828,8.828-8.828  h494.345c4.875,0,8.828,3.953,8.828,8.828v317.792C512,419.772,508.047,423.724,503.172,423.724z"/>
<g>
	<polygon style="fill:#FFE15A;" points="375.086,88.276 0,334.021 0,360.406 415.355,88.276  "/>
	<polygon style="fill:#FFE15A;" points="512,177.979 512,151.594 96.644,423.724 136.913,423.724  "/>
</g>
<path style="fill:#464655;" d="M512,151.594v-54.49c0-4.875-3.953-8.828-8.828-8.828h-87.817L0,360.406v54.49  c0,4.875,3.953,8.828,8.828,8.828h87.817L512,151.594z"/>
<g>
	<path style="fill:#F5F5F5;" d="M156.018,275.9l18.119,14.59l19.67-12.42c2.547-1.608,5.675,0.951,4.602,3.766l-8.277,21.74   l17.89,14.869c2.316,1.926,0.849,5.69-2.159,5.542l-23.234-1.154l-8.613,21.61c-1.116,2.797-5.15,2.567-5.938-0.341l-6.082-22.454   l-23.213-1.514c-3.006-0.196-4.032-4.105-1.511-5.752l19.475-12.724l-5.734-22.546C150.273,276.194,153.673,274.01,156.018,275.9z"/>
	<path style="fill:#F5F5F5;" d="M323.007,166.29l18.119,14.59l19.67-12.42c2.547-1.608,5.675,0.951,4.602,3.766l-8.277,21.74   l17.89,14.869c2.316,1.926,0.849,5.69-2.159,5.542l-23.234-1.154l-8.613,21.61c-1.116,2.797-5.15,2.566-5.938-0.341l-6.082-22.454   l-23.213-1.514c-3.006-0.196-4.032-4.105-1.511-5.752l19.475-12.724l-5.734-22.546C317.261,166.586,320.661,164.401,323.007,166.29   z"/>
</g>
<path style="fill:#FF4B55;" d="M512,414.896V177.979L136.913,423.724h366.258C508.047,423.724,512,419.772,512,414.896z"/>
<g>
</g>
<g>
</g>
<g>
</g>
<g>
</g>
<g>
</g>
<g>
</g>
<g>
</g>
<g>
</g>
<g>
</g>
<g>
</g>
<g>
</g>
<g>
</g>
<g>
</g>
<g>
</g>
<g>
</g>
</svg>
