<?xml version="1.0" encoding="iso-8859-1"?>
<!-- Generator: Adobe Illustrator 19.0.0, SVG Export Plug-In . SVG Version: 6.00 Build 0)  -->
<svg xmlns="http://www.w3.org/2000/svg" xmlns:xlink="http://www.w3.org/1999/xlink" version="1.1" id="Layer_1" x="0px" y="0px" viewBox="0 0 512.001 512.001" style="enable-background:new 0 0 512.001 512.001;" xml:space="preserve">
<path style="fill:#41479B;" d="M503.172,423.724H8.828c-4.875,0-8.828-3.953-8.828-8.828V97.104c0-4.875,3.953-8.828,8.828-8.828  h494.345c4.875,0,8.828,3.953,8.828,8.828v317.792C512,419.772,508.047,423.724,503.172,423.724z"/>
<g>
	<rect y="282.48" style="fill:#F5F5F5;" width="512" height="23.54"/>
	<rect y="329.57" style="fill:#F5F5F5;" width="512" height="23.54"/>
</g>
<rect y="306.02" style="fill:#FF4B55;" width="512" height="23.54"/>
<g>
	<path style="fill:#FFE15A;" d="M169.649,234.664l2.708,8.118l8.557,0.066c0.663,0.006,0.938,0.851,0.405,1.245l-6.884,5.084   l2.581,8.159c0.2,0.632-0.52,1.155-1.059,0.769l-6.963-4.977l-6.963,4.977c-0.54,0.385-1.259-0.137-1.059-0.769l2.581-8.159   l-6.884-5.084c-0.533-0.394-0.258-1.24,0.405-1.245l8.557-0.066l2.708-8.118C168.549,234.035,169.44,234.035,169.649,234.664z"/>
	<path style="fill:#FFE15A;" d="M169.649,377.322l2.708,8.118l8.557,0.066c0.663,0.006,0.938,0.851,0.405,1.245l-6.884,5.084   l2.581,8.159c0.2,0.632-0.52,1.155-1.059,0.769l-6.963-4.977l-6.963,4.977c-0.54,0.385-1.259-0.137-1.059-0.769l2.581-8.159   l-6.884-5.084c-0.533-0.394-0.258-1.24,0.405-1.245l8.557-0.066l2.708-8.118C168.549,376.693,169.44,376.693,169.649,377.322z"/>
	<path style="fill:#FFE15A;" d="M123.342,385.293l6.881-5.088l7.041,4.864c0.545,0.376,1.257-0.158,1.047-0.787l-2.712-8.117   l6.802-5.194c0.527-0.403,0.238-1.244-0.425-1.238l-8.557,0.071l-2.838-8.074c-0.22-0.626-1.109-0.611-1.309,0.021l-2.577,8.161   l-8.555,0.204c-0.663,0.015-0.924,0.866-0.384,1.251l6.965,4.972l-2.45,8.2C122.081,385.176,122.808,385.688,123.342,385.293z"/>
	<path style="fill:#FFE15A;" d="M137.104,269.322l-6.987-4.941l-6.937,5.012c-0.537,0.388-1.26-0.131-1.063-0.765l2.54-8.172   l-6.91-5.049c-0.535-0.391-0.265-1.238,0.398-1.247l8.557-0.109l2.667-8.131c0.206-0.63,1.096-0.634,1.309-0.007l2.749,8.105   l8.558,0.023c0.663,0.002,0.942,0.846,0.41,1.242l-6.859,5.118l2.623,8.147C138.363,269.177,137.646,269.704,137.104,269.322z"/>
	<path style="fill:#FFE15A;" d="M201.552,269.427l6.881-5.088l7.041,4.864c0.545,0.376,1.257-0.158,1.047-0.787l-2.712-8.117   l6.802-5.194c0.527-0.403,0.238-1.244-0.425-1.238l-8.557,0.071l-2.838-8.074c-0.22-0.626-1.109-0.611-1.309,0.021l-2.577,8.161   l-8.555,0.204c-0.663,0.015-0.924,0.866-0.384,1.251l6.965,4.972l-2.45,8.2C200.291,269.309,201.019,269.822,201.552,269.427z"/>
	<path style="fill:#FFE15A;" d="M215.315,385.188l-6.987-4.941l-6.937,5.012c-0.537,0.388-1.26-0.131-1.063-0.765l2.54-8.172   l-6.91-5.049c-0.535-0.391-0.265-1.238,0.398-1.247l8.557-0.109l2.667-8.131c0.206-0.63,1.096-0.634,1.309-0.007l2.749,8.105   l8.558,0.023c0.663,0.002,0.942,0.846,0.41,1.242l-6.859,5.118l2.623,8.147C216.573,385.046,215.856,385.572,215.315,385.188z"/>
	<path style="fill:#FFE15A;" d="M113.107,335.327l-8.557,0.056l-2.824-8.078c-0.218-0.626-1.108-0.613-1.309,0.019l-2.591,8.157   l-8.556,0.19c-0.663,0.014-0.926,0.865-0.386,1.251l6.957,4.984l-2.464,8.195c-0.191,0.634,0.536,1.148,1.07,0.754l6.89-5.076   l7.033,4.876c0.545,0.377,1.257-0.156,1.048-0.785l-2.699-8.121l6.81-5.182C114.057,336.164,113.77,335.322,113.107,335.327z"/>
	<path style="fill:#FFE15A;" d="M89.271,291.342l8.556-0.161l2.617-8.148c0.203-0.631,1.092-0.641,1.309-0.014l2.798,8.087   l8.558-0.029c0.663-0.002,0.948,0.841,0.418,1.24l-6.827,5.16l2.673,8.13c0.207,0.63-0.506,1.161-1.05,0.781l-7.017-4.898   l-6.906,5.054c-0.535,0.392-1.26-0.124-1.068-0.758l2.49-8.188l-6.941-5.006C88.343,292.204,88.609,291.354,89.271,291.342z"/>
	<path style="fill:#FFE15A;" d="M248.699,291.027l-8.557,0.056l-2.824-8.078c-0.218-0.626-1.108-0.614-1.309,0.019l-2.591,8.157   l-8.556,0.19c-0.663,0.014-0.926,0.865-0.386,1.251l6.957,4.984l-2.464,8.195c-0.191,0.634,0.536,1.148,1.07,0.755l6.89-5.076   l7.033,4.876c0.545,0.377,1.257-0.156,1.048-0.785l-2.698-8.121l6.81-5.182C249.649,291.865,249.362,291.022,248.699,291.027z"/>
	<path style="fill:#FFE15A;" d="M224.864,335.642l8.556-0.161l2.617-8.148c0.203-0.631,1.092-0.641,1.309-0.014l2.798,8.087   l8.558-0.029c0.663-0.002,0.948,0.841,0.418,1.24l-6.827,5.16l2.673,8.13c0.207,0.63-0.506,1.161-1.05,0.781l-7.017-4.898   l-6.906,5.054c-0.535,0.392-1.26-0.124-1.068-0.758l2.49-8.188l-6.941-5.006C223.936,336.504,224.201,335.656,224.864,335.642z"/>
</g>
<g>
</g>
<g>
</g>
<g>
</g>
<g>
</g>
<g>
</g>
<g>
</g>
<g>
</g>
<g>
</g>
<g>
</g>
<g>
</g>
<g>
</g>
<g>
</g>
<g>
</g>
<g>
</g>
<g>
</g>
</svg>
