<?xml version="1.0" encoding="iso-8859-1"?>
<!-- Generator: Adobe Illustrator 19.0.0, SVG Export Plug-In . SVG Version: 6.00 Build 0)  -->
<svg xmlns="http://www.w3.org/2000/svg" xmlns:xlink="http://www.w3.org/1999/xlink" version="1.1" id="Layer_1" x="0px" y="0px" viewBox="0 0 512.001 512.001" style="enable-background:new 0 0 512.001 512.001;" xml:space="preserve">
<path style="fill:#73AF00;" d="M0,136.198h512V97.104c0-4.875-3.953-8.828-8.828-8.828H8.828C3.953,88.276,0,92.229,0,97.104  V136.198z"/>
<rect y="136.2" style="fill:#F5F5F5;" width="512" height="47.923"/>
<rect y="184.12" style="fill:#73AF00;" width="512" height="47.923"/>
<rect y="232.04" style="fill:#F5F5F5;" width="512" height="47.923"/>
<rect y="279.97" style="fill:#73AF00;" width="512" height="47.923"/>
<rect y="327.88" style="fill:#F5F5F5;" width="512" height="47.923"/>
<path style="fill:#73AF00;" d="M8.828,423.724h494.345c4.875,0,8.828-3.953,8.828-8.828v-39.094H0v39.094  C0,419.772,3.953,423.724,8.828,423.724z"/>
<path style="fill:#FF4B55;" d="M8.828,232.04h238.344c4.875,0,8.828-3.953,8.828-8.828V97.104c0-4.875-3.953-8.828-8.828-8.828  H8.828C3.953,88.276,0,92.229,0,97.104v126.108C0,228.087,3.953,232.04,8.828,232.04z"/>
<g>
	<path style="fill:#F5F5F5;" d="M135.749,220.69h-14.233c-1.294,0-2.453-0.806-2.902-2.02l-4.583-12.372   c-1.789-4.83-2.592-9.97-2.362-15.115l1.596-35.735c0.041-0.907,0.623-1.7,1.476-2.01l0,0c1.464-0.533,3.014,0.552,3.014,2.111   v16.273c0,0.455,0.369,0.824,0.824,0.824l0,0c0.439,0,0.801-0.344,0.823-0.783l1.279-25.948c0.052-1.054,0.844-1.922,1.888-2.071   l0,0c1.294-0.185,2.464,0.792,2.513,2.1l0.883,24.191c0.018,0.486,0.448,0.852,0.93,0.791l0,0c0.408-0.051,0.717-0.394,0.725-0.806   l0.531-26.881c0.029-1.468,1.473-2.487,2.866-2.023l0,0c0.853,0.285,1.443,1.063,1.486,1.961l1.312,27.17   c0.014,0.302,0.191,0.573,0.461,0.708l0,0c0.546,0.274,1.192-0.111,1.21-0.723l0.658-21.052c0.05-1.59,1.715-2.605,3.151-1.921l0,0   c0.725,0.345,1.205,1.058,1.252,1.86l1.532,25.838l4.099,11.957c0.231,0.672,1.174,0.684,1.418,0.018   c1.161-3.169,3.796-9.087,8.024-11.693c0.749-0.461,1.709-0.402,2.413,0.126l0,0c1.035,0.777,1.156,2.274,0.271,3.217   c-2.061,2.194-5.066,6.805-4.849,14.912c0.028,1.032-0.271,2.046-0.881,2.879l-11.55,15.778c-1.156,1.58-1.898,3.425-2.157,5.366   l-0.052,0.387C138.613,219.542,137.301,220.69,135.749,220.69z"/>
	<path style="fill:#F5F5F5;" d="M128.671,100.366l2.319,6.954l7.33,0.056c0.568,0.004,0.803,0.729,0.346,1.067l-5.897,4.354   l2.211,6.989c0.171,0.542-0.445,0.99-0.907,0.659l-5.964-4.263l-5.964,4.263c-0.462,0.33-1.078-0.118-0.907-0.659l2.211-6.989   l-5.897-4.354c-0.457-0.338-0.222-1.063,0.346-1.067l7.33-0.056l2.319-6.954C127.728,99.827,128.491,99.827,128.671,100.366z"/>
	<path style="fill:#F5F5F5;" d="M94.188,110.372l2.319,6.954l7.33,0.056c0.568,0.004,0.803,0.729,0.346,1.067l-5.897,4.354   l2.211,6.989c0.171,0.542-0.445,0.99-0.907,0.659l-5.964-4.263l-5.964,4.263c-0.462,0.33-1.078-0.118-0.907-0.659l2.211-6.989   l-5.897-4.354c-0.457-0.338-0.222-1.063,0.346-1.067l7.33-0.056l2.319-6.954C93.247,109.832,94.008,109.832,94.188,110.372z"/>
	<path style="fill:#F5F5F5;" d="M163.992,110.372l2.319,6.954l7.33,0.056c0.568,0.004,0.803,0.729,0.346,1.067l-5.897,4.354   l2.211,6.989c0.171,0.542-0.445,0.99-0.907,0.659l-5.964-4.263l-5.964,4.263c-0.462,0.33-1.078-0.118-0.907-0.659l2.211-6.989   l-5.897-4.354c-0.457-0.338-0.222-1.063,0.346-1.067l7.33-0.056l2.319-6.954C163.051,109.832,163.812,109.832,163.992,110.372z"/>
	<path style="fill:#F5F5F5;" d="M187.118,136.666l2.319,6.954l7.33,0.056c0.568,0.004,0.803,0.729,0.346,1.067l-5.897,4.354   l2.211,6.989c0.171,0.542-0.445,0.99-0.907,0.659l-5.964-4.263l-5.964,4.263c-0.462,0.33-1.078-0.118-0.907-0.659l2.211-6.989   l-5.897-4.354c-0.457-0.338-0.222-1.063,0.346-1.067l7.33-0.056l2.319-6.954C186.177,136.127,186.938,136.127,187.118,136.666z"/>
	<path style="fill:#F5F5F5;" d="M69.139,136.666l2.319,6.954l7.33,0.056c0.568,0.004,0.803,0.729,0.346,1.067l-5.897,4.354   l2.211,6.989c0.171,0.542-0.445,0.99-0.907,0.659l-5.964-4.263l-5.964,4.263c-0.462,0.33-1.078-0.118-0.907-0.659l2.211-6.989   l-5.897-4.354c-0.457-0.338-0.222-1.063,0.346-1.067l7.33-0.056l2.319-6.954C68.196,136.127,68.959,136.127,69.139,136.666z"/>
	<path style="fill:#F5F5F5;" d="M193.77,171.157l2.319,6.954l7.33,0.056c0.568,0.004,0.803,0.729,0.346,1.067l-5.897,4.354   l2.211,6.989c0.171,0.542-0.445,0.99-0.907,0.659l-5.964-4.263l-5.964,4.263c-0.462,0.33-1.078-0.118-0.907-0.659l2.211-6.989   l-5.897-4.354c-0.457-0.338-0.222-1.063,0.346-1.067l7.33-0.056l2.319-6.954C192.827,170.618,193.59,170.618,193.77,171.157z"/>
	<path style="fill:#F5F5F5;" d="M60.152,171.157l2.319,6.954l7.33,0.056c0.568,0.004,0.803,0.729,0.346,1.067l-5.897,4.354   l2.211,6.989c0.171,0.542-0.445,0.99-0.907,0.659l-5.964-4.263l-5.964,4.263c-0.462,0.33-1.078-0.118-0.907-0.659l2.211-6.989   l-5.897-4.354c-0.457-0.338-0.222-1.063,0.346-1.067l7.33-0.056l2.319-6.954C59.21,170.618,59.972,170.618,60.152,171.157z"/>
</g>
<g>
</g>
<g>
</g>
<g>
</g>
<g>
</g>
<g>
</g>
<g>
</g>
<g>
</g>
<g>
</g>
<g>
</g>
<g>
</g>
<g>
</g>
<g>
</g>
<g>
</g>
<g>
</g>
<g>
</g>
</svg>
