<?xml version="1.0" encoding="iso-8859-1"?>
<!-- Generator: Adobe Illustrator 19.0.0, SVG Export Plug-In . SVG Version: 6.00 Build 0)  -->
<svg xmlns="http://www.w3.org/2000/svg" xmlns:xlink="http://www.w3.org/1999/xlink" version="1.1" id="Layer_1" x="0px" y="0px" viewBox="0 0 512.001 512.001" style="enable-background:new 0 0 512.001 512.001;" xml:space="preserve">
<path style="fill:#41479B;" d="M503.172,423.724H8.828c-4.875,0-8.828-3.953-8.828-8.828V97.104c0-4.875,3.953-8.828,8.828-8.828  h494.345c4.875,0,8.828,3.953,8.828,8.828v317.792C512,419.772,508.047,423.724,503.172,423.724z"/>
<path style="fill:#F5F5F5;" d="M247.172,88.276h-15.333l-81.77,53.573V88.276h-44.138v53.573l-81.77-53.573H8.828  C3.953,88.276,0,92.229,0,97.104v7.002l70.155,45.963H0v44.138h70.155L0,240.171v7.001C0,252.047,3.953,256,8.828,256h15.333  l81.77-53.573V256h44.138v-53.573L231.838,256h15.333c4.875,0,8.828-3.953,8.828-8.828v-7.002l-70.154-45.963h70.154v-44.138  h-70.155l70.155-45.963v-7.002C255.999,92.229,252.048,88.276,247.172,88.276z"/>
<g>
	<polygon style="fill:#FF4B55;" points="255.999,158.897 141.241,158.897 141.241,88.276 114.758,88.276 114.758,158.897 0,158.897    0,185.379 114.758,185.379 114.758,256 141.241,256 141.241,185.379 255.999,185.379  "/>
	<path style="fill:#FF4B55;" d="M97.103,150.069L4.207,89.768C1.735,91.333,0,93.961,0,97.104v0.458l80.889,52.507H97.103z"/>
	<path style="fill:#FF4B55;" d="M166.283,150.069l88.374-57.366c-1.536-2.599-4.246-4.427-7.485-4.427h-1.909l-95.194,61.793   H166.283z"/>
	<path style="fill:#FF4B55;" d="M89.474,194.207L1.269,251.463C2.79,254.125,5.542,256,8.828,256h1.665l95.195-61.793H89.474z"/>
	<path style="fill:#FF4B55;" d="M255.859,247.867l-82.666-53.659H156.98l93.873,60.934   C253.666,253.837,255.594,251.102,255.859,247.867z"/>
</g>
<g>
	<path style="fill:#FFE15A;" d="M383.827,172.219c0,0-3.691-14.766-14.766-22.149c0,0,11.074,18.457,11.074,33.224L383.827,172.219z   "/>
	<path style="fill:#FFE15A;" d="M366.753,156.183c0,0,7.73,4.729,11.882,12.459l-3.346,7.73   C375.291,176.372,372.522,165.413,366.753,156.183z"/>
	<path style="fill:#FFE15A;" d="M358.217,157.914c0,0,13.382,4.153,19.726,12.805l-3.807,5.768   C374.137,176.487,369.061,166.682,358.217,157.914z"/>
	<path style="fill:#FFE15A;" d="M356.256,164.605c0,0,14.074,2.191,20.419,8.883l-1.615,6.345   C375.06,179.832,367.331,170.603,356.256,164.605z"/>
	<path style="fill:#FFE15A;" d="M356.718,169.219c0,0,13.612,1.385,19.842,8.536c6.229,7.153-2.307,4.96-2.307,4.96   S367.1,174.526,356.718,169.219z"/>
	<path style="fill:#FFE15A;" d="M383.827,172.219c0,0,3.691-14.766,14.766-22.149c0,0-11.074,18.457-11.074,33.224L383.827,172.219z   "/>
	<path style="fill:#FFE15A;" d="M400.901,156.183c0,0-7.73,4.729-11.882,12.459l3.346,7.73   C392.364,176.372,395.133,165.413,400.901,156.183z"/>
	<path style="fill:#FFE15A;" d="M409.437,157.914c0,0-13.382,4.153-19.726,12.805l3.807,5.768   C393.517,176.487,398.593,166.682,409.437,157.914z"/>
	<path style="fill:#FFE15A;" d="M411.399,164.605c0,0-14.074,2.191-20.419,8.883l1.615,6.345   C392.595,179.832,400.324,170.603,411.399,164.605z"/>
	<path style="fill:#FFE15A;" d="M410.936,169.219c0,0-13.612,1.385-19.842,8.536c-6.229,7.153,2.307,4.96,2.307,4.96   S400.554,174.526,410.936,169.219z"/>
	<path style="fill:#FFE15A;" d="M383.827,150.069c0,0-3.691,7.767,0,11.651C387.519,157.837,383.827,150.069,383.827,150.069z"/>
	<path style="fill:#FFE15A;" d="M380.149,151.998c0,0-0.495,8.586,4.386,10.794C386.494,157.804,380.149,151.998,380.149,151.998z"/>
	<path style="fill:#FFE15A;" d="M387.505,151.998c0,0,0.495,8.586-4.386,10.794C381.16,157.804,387.505,151.998,387.505,151.998z"/>
	<path style="fill:#FFE15A;" d="M388.714,156.95c0,0-3.221,7.975-8.578,7.884C380.497,159.488,388.714,156.95,388.714,156.95z"/>
	<path style="fill:#FFE15A;" d="M378.94,156.95c0,0,3.221,7.975,8.578,7.884C387.157,159.488,378.94,156.95,378.94,156.95z"/>
</g>
<ellipse style="fill:#FFD255;" cx="383.82" cy="175.91" rx="11.08" ry="14.766"/>
<g>
	<path style="fill:#73AF00;" d="M358.525,190.984l-2.538-3.923c0,0-7.383,1.769-9.152-3.768l-2.846-0.231   c0,0,0.384-3.768,3.691-4.307c0,0,1.999-2.461,5.537-1.999c3.538,0.461,5.384,3.46,7.422,4.23c2.038,0.769,2.269,3.307,2.269,3.307   l15.535,15.919c0,0-4.46,5.692-8.46,7.537C365.983,209.593,351.295,200.597,358.525,190.984z"/>
	<path style="fill:#73AF00;" d="M408.976,193.906c0,0,6.461,4.384,6.691,16.497h-10.729c0,0,0.116-8.191-1.961-12.574   L408.976,193.906z"/>
	<path style="fill:#73AF00;" d="M407.592,194.368c0,0,8.075,2.654,13.036-3.691l-8.421-1.153L407.592,194.368z"/>
	<path style="fill:#73AF00;" d="M405.169,185.485l8.2,2.764c1.034,0.349,1.399,1.629,0.674,2.445   c-3.111,3.505-12.397,11.903-27.37,11.903c-19.496,0-24.533-12.267-24.764-13.189c-0.231-0.922-1.269-8.421-1.269-8.421   l8.306-0.922L405.169,185.485z"/>
</g>
<g>
	<polygon style="fill:#FF4B55;" points="325.439,298.429 346.912,298.429 335.837,319.88 324.763,305.113  "/>
	<polygon style="fill:#FF4B55;" points="442.215,298.429 420.743,298.429 431.817,319.88 442.891,305.113  "/>
</g>
<g>
	<path style="fill:#FFD25A;" d="M325.35,334.646c-10.593,0-18.699-5.685-19.117-5.981l8.536-12.052   c0.071,0.046,7.223,4.906,14.516,2.697c7.38-2.228,12.225-10.937,14.991-17.856l13.71,5.486   c-5.816,14.542-14.112,23.479-24.651,26.569C330.579,334.318,327.892,334.646,325.35,334.646z"/>
	<path style="fill:#FFD25A;" d="M442.304,334.646c10.593,0,18.699-5.685,19.117-5.981l-8.536-12.052   c-0.071,0.046-7.223,4.906-14.516,2.697c-7.38-2.228-12.225-10.937-14.991-17.856l-13.71,5.486   c5.816,14.542,14.112,23.479,24.651,26.569C437.075,334.318,439.763,334.646,442.304,334.646z"/>
</g>
<path style="fill:#FF4B55;" d="M431.817,257.123h-95.98v-35.47c0-4.875,3.953-8.828,8.828-8.828h78.325  c4.875,0,8.828,3.953,8.828,8.828v35.47H431.817z"/>
<g>
	<path style="fill:#FFE15A;" d="M362.024,238.666l-1.153-7.383c-5.422-0.231-8.536-6.575-8.536-6.575l-4.384,2.422   C352.564,238.205,362.024,238.666,362.024,238.666z"/>
	<path style="fill:#FFE15A;" d="M419.819,231.052c1.615-1.23,5.153-1.692,5.153-1.692c-2.538-2.615-5.306-0.769-5.306-0.769   c2.307-2.153,1-5.229,1-5.229c0,1-1.615,1.692-1.615,1.692c0.077-1.999-1.999-3.923-1.999-3.923l-1.077,1.769   c-0.692-1.692-3.153-2.999-3.153-2.999l-1,4.153c-2.307-1.999-6.383-1.846-6.383-1.846l0.769,1.923   c-2.461,0.076-9.152,1.461-13.075,1.922s-7.075-0.615-7.075-2.383c0-1.482,3.428-1.665,4.911-1.687   c1.049,0.234,2.368,0.612,4.222,1.169c3.46,1.038,5.487-0.466,5.487-0.466c-1.212-0.461-1.346-1-1.346-1   c2.595-1.5,5.03-1.13,5.03-1.13c-0.865-1.903-4.615-1.788-4.615-1.788c0.981-0.519,1.73-2.134,1.73-2.134   c-0.231,0.231-2.362,0.754-5.272,1.144c-2.19,0.295-4.247,1.96-5.097,2.73c-2.309-0.177-8.342-0.25-7.281,3.933   c1.308,5.153,11.69,3.307,18.073,2.307s9.69-0.153,11.074,0.692c1.385,0.846-0.589,3.712-7.075,2.538   c-5.605-1.014-8.692-1.043-10.387-0.865c-1.879,0.12-3.481,0.626-4.61,0.865c-2.538,0.538-12.306,3.999-14.151-1   c-1.846-5-10.844,8.152-10.844,8.152l0.703,0.836l-2.395-0.567c-3.23,4.326-12.92,5.653-12.92,5.653s-1.442-2.595-2.654-2.942   c-1.212-0.346-1.73,1.557-1.73,1.557s-1.442,0.057-1.557,1.385c-0.116,1.326,1.038,1.442,1.038,1.442s-1.385,2.019,0.922,2.595   c0,0-0.173,2.826,3.23,0.865c10.11,1.274,17.482-3.917,20.674-6.749c2.087,0.134,5.339,0.067,7.839-1.23   c3.999-2.077,8.613-4.692,11.305-3.691c0,0,2.154,6.614-6.306,6.767c0,0-1.251-1.582-2.51-1.582c-0.543,0-1.108,0.652-0.934,1.238   c0,0-1.476-0.087-1.737,0.782c-0.213,0.708,0.303,1.519,1.389,1.389c0,0-0.738,1.086,0,1.737s1.651,0,1.651,0   s-0.391,1.346,0.521,1.476c0.78,0.111,1.813-1.163,2.109-1.55c1.354,0.211,10.591,1.276,12.586-8.413c0,0,4.615,1.999,9.152,1.615   c4.537-0.384,8.999,0.308,8.614,2.538c-0.503,1.617-1.495,1.51-1.495,1.51c-1.086-0.435-2.91-0.391-3.17,1.173   c-0.26,1.564,1.867,1.607,1.867,1.607c0.608,1.433,2.345,0.825,2.345,0.825c1.519,1.086,2.519-0.087,2.519-0.087   c0.652,0.565,1.324,0.67,1.954,0.13c0.608-0.521,0.267-3.996,0.209-5.236c-0.096-2.063-0.385-7.459-3.384-7.537   c-2.999-0.077-6.845,1.692-12.151-2.769c-0.277-0.233-0.547-0.381-0.821-0.579c2.511,0.233,4.31,0.914,6.051,1.194   C411.206,232.898,418.205,232.283,419.819,231.052z"/>
	<path style="fill:#FFE15A;" d="M347.95,227.131c0,0-1.471,0.04-2.191-0.173c-1.235-0.364-1.385-2.307-0.057-2.654   c0,0-1.597-1.085-0.865-2.307c0.586-0.978,2.079-0.975,2.598-0.398c0,0-0.487-1.609,0.921-2.14c1.12-0.423,2.019,0.865,2.019,2.538   c0,0,1.674-1.362,2.538-0.461c0.602,0.628,0.429,1.453-0.577,3.172C351.308,226.462,347.95,227.131,347.95,227.131z"/>
</g>
<g>
	<path style="fill:#41479B;" d="M346.13,226.419c0,0-0.781,1.346-3.04,0.521c0,0,1.954-0.913,2.215-1.694L346.13,226.419z"/>
	<path style="fill:#41479B;" d="M345.305,222.466c0,0-1.216-0.781-2.562-0.738c0,0,1.997-1.476,3.691-0.173L345.305,222.466z"/>
	<path style="fill:#41479B;" d="M348.128,220.382c0,0,0.391-1.433-0.391-2.215c0,0,1.607,0.695,1.824,1.997L348.128,220.382z"/>
	<path style="fill:#41479B;" d="M351.689,221.858c0,0,0.781-1.737,0.087-2.562c0,0,2.084,1.216,1.216,3.214L351.689,221.858z"/>
	<path style="fill:#41479B;" d="M347.62,241.161c0,0-0.836-1.711-1.914-1.705c0,0,2.268-0.825,3.249,1.12L347.62,241.161z"/>
	<path style="fill:#41479B;" d="M345.792,243.34c0,0-1.491-1.186-2.462-0.716c0,0,1.693-1.72,3.414-0.386L345.792,243.34z"/>
	<path style="fill:#41479B;" d="M346.84,246.417c0,0-1.905-0.021-2.383,0.946c0,0,0.28-2.397,2.458-2.4L346.84,246.417z"/>
	<path style="fill:#41479B;" d="M348.581,248.395c0,0-0.781,1.346-3.04,0.521c0,0,1.954-0.913,2.215-1.694L348.581,248.395z"/>
	<path style="fill:#41479B;" d="M382.908,247.711c0,0-0.64,1.102-2.49,0.427c0,0,1.502-0.536,1.715-1.177L382.908,247.711z"/>
</g>
<path style="fill:#FFD255;" d="M363.371,223.9c0,0-4.154,7.075-3.155,17.304c0,0,12.247-1.788,17.554-14.016  c0,0,1.293-0.523,1.798-1.779c0.429-1.068,0.394-2.827-1.663-2.817c0,0,0.616-1.23,1.365-1.519c0,0-1.326-0.519-2.884-0.173  c0,0,1.212-1.212,1.212-2.769c0,0-1.846,1.212-2.999,1.326c0,0-0.116-1.903,0.346-2.134c0,0-2.422,0.231-3.634,1.5  c0,0-0.808-1.096-0.75-2.25c0,0-2.25,0.981-3.115,2.422c0,0-0.692-0.75-0.634-1.5c0,0-1.615,1.961-1.961,2.999  c0,0-1.522-0.418-2.191,0.808C362.175,222.188,362.286,223.161,363.371,223.9z"/>
<g>
	<path style="fill:#41479B;" d="M381.062,242.56c0,0-0.492-0.927-1.969-1.129c0,0,1.882-0.868,3.069,0.376L381.062,242.56z"/>
	<path style="fill:#41479B;" d="M411.594,246.078c0,0-1.079,0.341-1.585,1.867c0,0-0.553-2.167,1.001-3.182L411.594,246.078z"/>
	<path style="fill:#41479B;" d="M413.858,246.874c0,0-1.022,0.993-0.973,2.601c0,0-1.261-1.846-0.149-3.332L413.858,246.874z"/>
	<path style="fill:#41479B;" d="M418.744,246.787c0,0-0.309,1.052,0.625,2.174c0,0-1.933-0.615-1.97-2.298L418.744,246.787z"/>
	<path style="fill:#41479B;" d="M416.448,247.197c0,0-0.82,0.78-0.602,2.374c0,0-1.525-1.34-0.575-2.934L416.448,247.197z"/>
	<path style="fill:#41479B;" d="M379.488,244.457c0,0-0.988-0.354-2.216,0.49c0,0,0.807-1.909,2.522-1.788L379.488,244.457z"/>
	<path style="fill:#41479B;" d="M380.838,246.558c0,0-1.015-0.266-2.165,0.682c0,0,0.177-1.842,1.897-1.87L380.838,246.558z"/>
</g>
<path style="fill:#F5F5F5;" d="M431.817,263.073c-8.005,0-8.005,7.221-16.011,7.221c-8.005,0-8.005-7.221-16.011-7.221  c-8,0-8,7.221-16,7.221c-7.993,0-7.993-7.221-15.986-7.221s-7.992,7.221-15.983,7.221c-7.994,0-7.994-7.221-15.989-7.221v-13.332  c7.994,0,7.994,7.221,15.989,7.221c7.992,0,7.992-7.221,15.983-7.221c7.993,0,7.993,7.221,15.986,7.221c8,0,8-7.221,16-7.221  c8.006,0,8.006,7.221,16.011,7.221c8.006,0,8.006-7.221,16.011-7.221V263.073z"/>
<path style="fill:#41479B;" d="M415.806,270.294c-8.005,0-8.005-7.221-16.011-7.221c-8,0-8,7.221-16,7.221  c-7.993,0-7.993-7.221-15.986-7.221s-7.992,7.221-15.983,7.221c-7.978,0-8-7.186-15.944-7.217c0.11,3.192,0.477,7.93,1.412,13.497  c6.494,0.86,7.085,7.051,14.531,7.051c7.992,0,7.992-7.222,15.983-7.222c7.993,0,7.993,7.222,15.986,7.222c8,0,8-7.222,16-7.222  c8.005,0,8.005,7.222,16.011,7.222c7.457,0,8.05-6.193,14.553-7.051c0.936-5.567,1.302-10.305,1.412-13.497  C423.817,263.108,423.795,270.294,415.806,270.294z"/>
<path style="fill:#F5F5F5;" d="M415.806,283.626c-8.005,0-8.005-7.222-16.011-7.222c-8,0-8,7.222-16,7.222  c-7.993,0-7.993-7.222-15.986-7.222s-7.992,7.222-15.983,7.222c-7.446,0-8.038-6.191-14.531-7.051  c0.742,4.412,1.848,9.331,3.479,14.418c3.599,2.066,5.166,5.965,11.052,5.965c7.992,0,7.992-7.221,15.983-7.221  c7.993,0,7.993,7.221,15.986,7.221c8,0,8-7.221,16-7.221c8.005,0,8.005,7.221,16.011,7.221c5.899,0,7.465-3.907,11.076-5.971  c1.63-5.085,2.735-10.003,3.478-14.412C423.856,277.434,423.263,283.626,415.806,283.626z"/>
<path style="fill:#41479B;" d="M415.806,296.958c-8.005,0-8.005-7.221-16.011-7.221c-8,0-8,7.221-16,7.221  c-7.993,0-7.993-7.221-15.986-7.221s-7.992,7.221-15.983,7.221c-5.885,0-7.453-3.9-11.052-5.965  c2.031,6.338,4.884,12.911,8.866,19.041c0.671,0.138,1.363,0.256,2.186,0.256c7.992,0,7.992-7.222,15.983-7.222  c7.993,0,7.993,7.222,15.986,7.222c8,0,8-7.222,16-7.222c8.005,0,8.005,7.222,16.011,7.222c0.832,0,1.533-0.118,2.21-0.258  c3.982-6.132,6.835-12.706,8.866-19.044C423.272,293.05,421.705,296.958,415.806,296.958z"/>
<path style="fill:#F5F5F5;" d="M415.806,310.29c-8.005,0-8.005-7.222-16.011-7.222c-8,0-8,7.222-16,7.222  c-7.993,0-7.993-7.222-15.986-7.222s-7.992,7.222-15.983,7.222c-0.823,0-1.515-0.118-2.186-0.256  c2.53,3.895,5.526,7.599,9.054,10.951c2.444-2.065,4.386-4.585,9.116-4.585c7.993,0,7.993,7.221,15.986,7.221c8,0,8-7.221,16-7.221  c4.749,0,6.691,2.532,9.149,4.6c3.535-3.357,6.537-7.066,9.071-10.968C417.339,310.171,416.638,310.29,415.806,310.29z"/>
<path style="fill:#41479B;" d="M408.944,321c-2.457-2.068-4.399-4.6-9.149-4.6c-8,0-8,7.221-16,7.221  c-7.993,0-7.993-7.221-15.986-7.221c-4.73,0-6.671,2.52-9.116,4.585c6.43,6.11,14.628,11.034,25.133,13.661  C394.323,332.022,402.516,327.104,408.944,321z"/>
<g>
	<path style="fill:#F5F5F5;" d="M399.795,249.741c-8,0-8,7.221-16,7.221c-7.993,0-7.993-7.221-15.986-7.221   s-7.992,7.221-15.983,7.221c-7.994,0-7.994-7.221-15.989-7.221c0,4.555,0,8.511,0,11.074c0,0.625,0.014,1.395,0.044,2.262   c7.944,0.031,7.967,7.217,15.944,7.217c7.992,0,7.992-7.221,15.983-7.221c7.993,0,7.993,7.221,15.986,7.221c8,0,8-7.221,16-7.221   c8.006,0,8.006,7.221,16.011,7.221c7.989,0,8.011-7.186,15.967-7.217c0.03-0.868,0.044-1.638,0.044-2.262c0-2.563,0-6.52,0-11.074   c-8.006,0-8.006,7.221-16.011,7.221C407.801,256.962,407.801,249.741,399.795,249.741z"/>
	<path style="fill:#F5F5F5;" d="M428.126,212.825c2.039,0,3.691,1.653,3.691,3.691v33.224v7.383c0,1.399,0,2.678,0,3.691   c0,0.625-0.014,1.395-0.044,2.262c-0.11,3.192-0.477,7.93-1.412,13.497c-0.742,4.409-1.848,9.327-3.478,14.412   c-2.031,6.339-4.884,12.914-8.866,19.044c-2.535,3.903-5.537,7.613-9.071,10.968c-6.428,6.103-14.621,11.022-25.117,13.646   c-10.505-2.626-18.703-7.551-25.133-13.661c-3.528-3.352-6.524-7.055-9.054-10.951c-3.982-6.131-6.835-12.703-8.866-19.041   c-1.631-5.087-2.738-10.007-3.479-14.418c-0.936-5.567-1.302-10.305-1.412-13.497c-0.03-0.868-0.044-1.638-0.044-2.262   c0-1.013,0-2.293,0-3.691v-7.383v-33.224c0-2.039,1.653-3.691,3.691-3.691h88.596 M428.126,210.057h-88.597   c-3.562,0-6.461,2.898-6.461,6.461v33.224v7.383v3.691c0,0.651,0.014,1.453,0.046,2.358c0.105,3.013,0.441,7.863,1.449,13.86   c0.858,5.106,2.061,10.086,3.573,14.804c2.34,7.299,5.429,13.929,9.181,19.704c2.763,4.253,5.949,8.106,9.468,11.45   c7.342,6.977,16.214,11.801,26.369,14.34l0.672,0.168l0.671-0.168c10.147-2.537,19.013-7.357,26.353-14.325   c3.528-3.349,6.72-7.208,9.487-11.468c3.753-5.777,6.841-12.407,9.181-19.709c1.512-4.714,2.713-9.693,3.572-14.797   c1.009-5.997,1.345-10.848,1.449-13.86c0.031-0.905,0.046-1.707,0.046-2.358v-3.691v-7.383v-33.224   C434.586,212.955,431.688,210.057,428.126,210.057L428.126,210.057z"/>
</g>
<polygon style="fill:#73AF00;" points="383.827,312.322 373.697,319.37 377.271,307.557 367.438,300.103 379.774,299.852   383.827,288.194 387.88,299.852 400.216,300.103 390.384,307.557 393.958,319.37 "/>
<path style="fill:#FFE15A;" d="M383.827,290.473l3.517,10.115l10.708,0.218l-8.535,6.471l3.102,10.251l-8.791-6.118l-8.791,6.118  l3.102-10.251l-8.534-6.47l10.708-0.218L383.827,290.473 M383.827,285.918l-1.412,4.064l-3.175,9.133l-9.667,0.198l-4.301,0.087  l3.428,2.6l7.704,5.842l-2.799,9.255l-1.246,4.118l3.532-2.457l7.936-5.523l7.936,5.523l3.532,2.457l-1.246-4.118l-2.799-9.255  l7.704-5.842l3.428-2.6l-4.301-0.087l-9.667-0.198l-3.175-9.133L383.827,285.918L383.827,285.918z"/>
<polygon style="fill:#73AF00;" points="361.58,283.529 351.45,290.576 355.024,278.764 345.19,271.309 357.528,271.059   361.58,259.401 365.632,271.059 377.97,271.309 368.136,278.764 371.71,290.576 "/>
<path style="fill:#FFE15A;" d="M361.58,261.678l3.517,10.115l10.708,0.218l-8.534,6.47l3.102,10.251l-8.791-6.118l-8.791,6.118  l3.102-10.251l-8.534-6.47l10.708-0.218L361.58,261.678 M361.58,257.123l-1.412,4.064l-3.175,9.133l-9.667,0.198l-4.301,0.087  l3.428,2.6l7.704,5.842l-2.799,9.255l-1.246,4.118l3.532-2.457l7.936-5.523l7.936,5.523l3.532,2.457l-1.246-4.118l-2.799-9.255  l7.704-5.842l3.428-2.6l-4.301-0.087l-9.667-0.198l-3.175-9.133L361.58,257.123L361.58,257.123z"/>
<polygon style="fill:#73AF00;" points="405.878,283.529 395.749,290.576 399.322,278.764 389.489,271.309 401.825,271.059   405.878,259.401 409.931,271.059 422.268,271.309 412.435,278.764 416.008,290.576 "/>
<g>
	<path style="fill:#FFE15A;" d="M405.878,261.678l3.517,10.115l10.707,0.218l-8.534,6.47l3.102,10.251l-8.791-6.118l-8.791,6.118   l3.102-10.251l-8.534-6.47l10.708-0.218L405.878,261.678 M405.878,257.123l-1.412,4.064l-3.175,9.133l-9.667,0.198l-4.301,0.087   l3.428,2.6l7.704,5.842l-2.799,9.255l-1.246,4.118l3.532-2.457l7.936-5.523l7.936,5.523l3.532,2.457l-1.246-4.118l-2.799-9.255   l7.704-5.842l3.428-2.6l-4.301-0.087l-9.667-0.198l-3.175-9.133L405.878,257.123L405.878,257.123z"/>
	<path style="fill:#FFE15A;" d="M442.215,298.429c-9.161,23.326-31.85,39.908-58.388,39.908s-49.227-16.583-58.388-39.908   l-13.738,5.375c11.317,28.814,39.344,49.3,72.126,49.3s60.809-20.485,72.126-49.3L442.215,298.429z"/>
</g>
<g>
	<polygon style="fill:#F5F5F5;" points="391.21,212.825 380.136,212.825 376.444,201.751 387.519,201.751  "/>
	<path style="fill:#F5F5F5;" d="M409.668,212.825h-7.383l-2.461-7.383h3.37c2.397,0,4.524,1.534,5.282,3.807L409.668,212.825z"/>
	<path style="fill:#F5F5F5;" d="M369.061,212.825h-7.383l-0.842-2.525c-0.797-2.39,0.982-4.858,3.502-4.858h2.261L369.061,212.825z"/>
</g>
<g>
	<path style="fill:#41479B;" d="M402.284,212.825H391.21l-3.691-11.074h8.414c1.589,0,2.999,1.016,3.502,2.525L402.284,212.825z"/>
	<path style="fill:#41479B;" d="M380.136,212.825h-11.074l-2.494-7.48c-0.589-1.768,0.727-3.594,2.591-3.594h7.286L380.136,212.825z   "/>
</g>
<path style="fill:#509664;" d="M410.936,187.216c-2.884,4.153-10.959,9.113-24.11,9.113c-10.836,0-17.805-6.543-20.132-9.123  c-0.567-0.628-0.863-1.431-0.863-2.278v-2.518c0-1.084,0.562-2.07,1.498-2.614c2.344-1.364,7.762-3.54,18.458-3.54  C399.055,176.256,410.936,187.216,410.936,187.216z"/>
<g>
</g>
<g>
</g>
<g>
</g>
<g>
</g>
<g>
</g>
<g>
</g>
<g>
</g>
<g>
</g>
<g>
</g>
<g>
</g>
<g>
</g>
<g>
</g>
<g>
</g>
<g>
</g>
<g>
</g>
</svg>
