<?xml version="1.0" encoding="iso-8859-1"?>
<!-- Generator: Adobe Illustrator 19.0.0, SVG Export Plug-In . SVG Version: 6.00 Build 0)  -->
<svg xmlns="http://www.w3.org/2000/svg" xmlns:xlink="http://www.w3.org/1999/xlink" version="1.1" id="Layer_1" x="0px" y="0px" viewBox="0 0 512.001 512.001" style="enable-background:new 0 0 512.001 512.001;" xml:space="preserve">
<path style="fill:#FF4B55;" d="M0,311.908h512v102.988c0,4.875-3.953,8.828-8.828,8.828H8.828c-4.875,0-8.828-3.953-8.828-8.828  V311.908z"/>
<path style="fill:#FFE15A;" d="M8.828,88.276h494.345c4.875,0,8.828,3.953,8.828,8.828v102.988H0V97.103  C0,92.228,3.953,88.276,8.828,88.276z"/>
<rect y="200.09" style="fill:#73AF00;" width="512" height="111.81"/>
<path style="fill:#F5F5F5;" d="M261.032,144.959l26.435,79.263l83.552,0.648c5.097,0.04,7.21,6.543,3.111,9.571l-67.214,49.635  l25.203,79.663c1.537,4.86-3.996,8.879-8.142,5.916L256,321.068l-67.976,48.587c-4.147,2.964-9.679-1.056-8.142-5.916l25.203-79.663  l-67.214-49.635c-4.1-3.028-1.987-9.533,3.111-9.571l83.552-0.648l26.435-79.263C252.58,140.124,259.42,140.124,261.032,144.959z"/>
<g>
</g>
<g>
</g>
<g>
</g>
<g>
</g>
<g>
</g>
<g>
</g>
<g>
</g>
<g>
</g>
<g>
</g>
<g>
</g>
<g>
</g>
<g>
</g>
<g>
</g>
<g>
</g>
<g>
</g>
</svg>
