<?xml version="1.0" encoding="iso-8859-1"?>
<!-- Generator: Adobe Illustrator 19.0.0, SVG Export Plug-In . SVG Version: 6.00 Build 0)  -->
<svg xmlns="http://www.w3.org/2000/svg" xmlns:xlink="http://www.w3.org/1999/xlink" version="1.1" id="Layer_1" x="0px" y="0px" viewBox="0 0 512.001 512.001" style="enable-background:new 0 0 512.001 512.001;" xml:space="preserve">
<path style="fill:#41479B;" d="M503.172,423.724H8.828c-4.875,0-8.828-3.953-8.828-8.828V256h512v158.896  C512,419.772,508.047,423.724,503.172,423.724z"/>
<path style="fill:#FF4B55;" d="M8.828,88.276h494.345c4.875,0,8.828,3.953,8.828,8.828V256H0V97.104  C0,92.229,3.953,88.276,8.828,88.276z"/>
<polygon style="fill:#F5F5F5;" points="255.999,88.276 0,256 255.999,423.724 512,256 "/>
<path style="fill:#FFE15A;" d="M258.647,158.704l21.191,60.962l64.526,1.315c2.656,0.054,3.753,3.43,1.636,5.035l-51.431,38.991  l18.689,61.775c0.769,2.543-2.102,4.63-4.284,3.112l-52.975-36.865l-52.976,36.864c-2.182,1.517-5.053-0.568-4.284-3.112  l18.689-61.775l-51.431-38.991c-2.118-1.606-1.021-4.981,1.636-5.035l64.526-1.315l21.191-60.962  C254.225,156.193,257.775,156.193,258.647,158.704z"/>
<g>
</g>
<g>
</g>
<g>
</g>
<g>
</g>
<g>
</g>
<g>
</g>
<g>
</g>
<g>
</g>
<g>
</g>
<g>
</g>
<g>
</g>
<g>
</g>
<g>
</g>
<g>
</g>
<g>
</g>
</svg>
