<?xml version="1.0" encoding="iso-8859-1"?>
<!-- Generator: Adobe Illustrator 19.0.0, SVG Export Plug-In . SVG Version: 6.00 Build 0)  -->
<svg xmlns="http://www.w3.org/2000/svg" xmlns:xlink="http://www.w3.org/1999/xlink" version="1.1" id="Layer_1" x="0px" y="0px" viewBox="0 0 512 512" style="enable-background:new 0 0 512 512;" xml:space="preserve">
<path style="fill:#41479B;" d="M0,344.276V97.103c0-4.875,3.953-8.828,8.828-8.828h379.586L0,344.276z"/>
<path style="fill:#73AF00;" d="M512,167.724v247.172c0,4.875-3.953,8.828-8.828,8.828H123.586L512,167.724z"/>
<path style="fill:#F5F5F5;" d="M512,172.702V97.103c0-4.875-3.953-8.828-8.828-8.828H383.139L0,339.298v75.598  c0,4.875,3.953,8.828,8.828,8.828h120.033L512,172.702z"/>
<path style="fill:#FF4B55;" d="M512,141.047V97.103c0-4.875-3.953-8.828-8.828-8.828h-71.718L0,370.953v43.944  c0,4.875,3.953,8.828,8.828,8.828h71.718L512,141.047z"/>
<g>
	<path style="fill:#FFE15A;" d="M90.207,145.894c8.691,0,16.557,3.521,22.254,9.214l3.125-21.686l-17.235,13.561l-8.145-20.362   l-8.145,20.362l-17.235-13.561l3.125,21.686C73.65,149.414,81.516,145.894,90.207,145.894z"/>
	<path style="fill:#FFE15A;" d="M67.935,199.634c-5.693-5.697-9.214-13.565-9.214-22.254c0-8.691,3.521-16.557,9.214-22.254   L46.249,152l13.561,17.235l-20.362,8.145l20.362,8.145L46.249,202.76L67.935,199.634z"/>
	<path style="fill:#FFE15A;" d="M140.966,177.379l-20.362-8.145L134.165,152l-21.686,3.125c5.693,5.697,9.214,13.565,9.214,22.254   c0,8.69-3.521,16.557-9.214,22.254l21.686,3.125l-13.561-17.235L140.966,177.379z"/>
	<path style="fill:#FFE15A;" d="M90.207,208.865c-8.691,0-16.557-3.521-22.254-9.214l-3.125,21.686l17.235-13.561l8.145,20.362   l8.145-20.362l17.235,13.561l-3.125-21.686C106.764,205.345,98.898,208.865,90.207,208.865z"/>
	<circle style="fill:#FFE15A;" cx="90.21" cy="177.38" r="25.709"/>
</g>
<g>
</g>
<g>
</g>
<g>
</g>
<g>
</g>
<g>
</g>
<g>
</g>
<g>
</g>
<g>
</g>
<g>
</g>
<g>
</g>
<g>
</g>
<g>
</g>
<g>
</g>
<g>
</g>
<g>
</g>
</svg>
