<?xml version="1.0" encoding="iso-8859-1"?>
<!-- Generator: Adobe Illustrator 19.0.0, SVG Export Plug-In . SVG Version: 6.00 Build 0)  -->
<svg xmlns="http://www.w3.org/2000/svg" xmlns:xlink="http://www.w3.org/1999/xlink" version="1.1" id="Layer_1" x="0px" y="0px" viewBox="0 0 512 512" style="enable-background:new 0 0 512 512;" xml:space="preserve">
<path style="fill:#F5F5F5;" d="M3.256,421.59L256,256L3.256,90.41C1.311,92.029,0,94.375,0,97.103v317.793  C0,417.625,1.311,419.971,3.256,421.59z"/>
<path style="fill:#73AF00;" d="M3.256,421.59c1.53,1.274,3.425,2.134,5.571,2.134h494.345c4.875,0,8.828-3.953,8.828-8.828V256H256  L3.256,421.59z"/>
<path style="fill:#82AFFF;" d="M3.256,90.41c1.53-1.274,3.425-2.134,5.571-2.134h494.345c4.875,0,8.828,3.953,8.828,8.828V256H256  L3.256,90.41z"/>
<path style="fill:#FF4B55;" d="M91.766,216.135l-8.94,26.806l-28.257,0.22c-1.549,0.012-2.191,1.99-0.946,2.91l22.732,16.787  L67.832,289.8c-0.467,1.478,1.215,2.699,2.475,1.798l22.989-16.431l22.989,16.431c1.26,0.9,2.942-0.321,2.475-1.798l-8.523-26.942  l22.729-16.788c1.246-0.92,0.604-2.898-0.946-2.91l-28.257-0.22l-8.94-26.806C94.335,214.665,92.256,214.665,91.766,216.135z"/>
<g>
</g>
<g>
</g>
<g>
</g>
<g>
</g>
<g>
</g>
<g>
</g>
<g>
</g>
<g>
</g>
<g>
</g>
<g>
</g>
<g>
</g>
<g>
</g>
<g>
</g>
<g>
</g>
<g>
</g>
</svg>
