<?xml version="1.0" encoding="iso-8859-1"?>
<!-- Generator: Adobe Illustrator 19.0.0, SVG Export Plug-In . SVG Version: 6.00 Build 0)  -->
<svg xmlns="http://www.w3.org/2000/svg" xmlns:xlink="http://www.w3.org/1999/xlink" version="1.1" id="Layer_1" x="0px" y="0px" viewBox="0 0 512.001 512.001" style="enable-background:new 0 0 512.001 512.001;" xml:space="preserve">
<path style="fill:#41479B;" d="M503.172,88.276H8.828C3.953,88.276,0,92.229,0,97.104v317.792c0,4.875,3.953,8.828,8.828,8.828  h494.345c4.875,0,8.828-3.953,8.828-8.828V97.104C512,92.229,508.047,88.276,503.172,88.276z"/>
<path style="fill:#F5F5F5;" d="M3.256,421.591L508.743,90.41c-1.53-1.273-3.425-2.134-5.571-2.134H8.828  C3.953,88.276,0,92.229,0,97.104v317.792C0,417.625,1.311,419.972,3.256,421.591z"/>
<path style="fill:#FFE15A;" d="M224.779,88.276H8.828C3.953,88.276,0,92.229,0,97.104v138.442L224.779,88.276z"/>
<path style="fill:#464655;" d="M202.274,229.138c-4.006-26.736-25.089-47.82-51.826-51.826l-9.207-18.415l-9.207,18.415  c-26.736,4.006-47.819,25.088-51.826,51.826l-18.415,9.207l18.415,9.207c4.006,26.736,25.089,47.82,51.826,51.826l9.207,18.415  l9.207-18.415c26.736-4.006,47.819-25.088,51.826-51.826l18.415-9.207L202.274,229.138z M141.241,291.31  c-29.252,0-52.965-23.713-52.965-52.965s23.713-52.965,52.965-52.965s52.965,23.713,52.965,52.965S170.493,291.31,141.241,291.31z"/>
<polygon style="fill:#FF4B55;" points="141.241,204.401 150.746,221.883 170.638,221.373 160.25,238.345 170.638,255.317   150.746,254.807 141.241,272.29 131.737,254.807 111.844,255.317 122.232,238.345 111.844,221.373 131.737,221.883 "/>
<g>
</g>
<g>
</g>
<g>
</g>
<g>
</g>
<g>
</g>
<g>
</g>
<g>
</g>
<g>
</g>
<g>
</g>
<g>
</g>
<g>
</g>
<g>
</g>
<g>
</g>
<g>
</g>
<g>
</g>
</svg>
