<?xml version="1.0" encoding="iso-8859-1"?>
<!-- Generator: Adobe Illustrator 19.0.0, SVG Export Plug-In . SVG Version: 6.00 Build 0)  -->
<svg xmlns="http://www.w3.org/2000/svg" xmlns:xlink="http://www.w3.org/1999/xlink" version="1.1" id="Layer_1" x="0px" y="0px" viewBox="0 0 512.001 512.001" style="enable-background:new 0 0 512.001 512.001;" xml:space="preserve">
<path style="fill:#464655;" d="M503.172,88.276H8.828C3.953,88.276,0,92.229,0,97.104v317.792c0,4.875,3.953,8.828,8.828,8.828  h494.345c4.875,0,8.828-3.953,8.828-8.828V97.104C512,92.229,508.047,88.276,503.172,88.276z"/>
<polygon style="fill:#FFE15A;" points="255.999,105.931 267.194,164.413 299.915,114.667 287.878,172.981 337.146,139.543   303.709,188.812 362.023,176.774 312.276,209.496 370.758,220.69 312.276,231.884 362.023,264.606 303.709,252.568 337.146,301.836   287.878,268.399 299.915,326.714 267.194,276.967 255.999,335.448 244.806,276.967 212.083,326.714 224.122,268.399   174.853,301.836 208.291,252.568 149.977,264.606 199.723,231.884 141.241,220.69 199.723,209.496 149.977,176.774 208.291,188.812   174.853,139.543 224.122,172.981 212.083,114.667 244.806,164.413 "/>
<g>
	<path style="fill:#FF4B55;" d="M0,97.104v317.792c0,4.875,3.953,8.828,8.828,8.828H256L2.298,91.289C0.91,92.848,0,94.852,0,97.104   z"/>
	<path style="fill:#FF4B55;" d="M255.999,423.724h247.172c4.875,0,8.828-3.953,8.828-8.828V97.104c0-2.252-0.91-4.256-2.298-5.816   L255.999,423.724z"/>
</g>
<polygon style="fill:#4173CD;" points="154.947,291.31 357.052,291.31 410.946,220.69 101.052,220.69 "/>
<polygon style="fill:#F5F5F5;" points="154.947,291.31 255.999,423.724 357.052,291.31 "/>
<g>
</g>
<g>
</g>
<g>
</g>
<g>
</g>
<g>
</g>
<g>
</g>
<g>
</g>
<g>
</g>
<g>
</g>
<g>
</g>
<g>
</g>
<g>
</g>
<g>
</g>
<g>
</g>
<g>
</g>
</svg>
