<?xml version="1.0" encoding="iso-8859-1"?>
<!-- Generator: Adobe Illustrator 19.0.0, SVG Export Plug-In . SVG Version: 6.00 Build 0)  -->
<svg xmlns="http://www.w3.org/2000/svg" xmlns:xlink="http://www.w3.org/1999/xlink" version="1.1" id="Layer_1" x="0px" y="0px" viewBox="0 0 512.001 512.001" style="enable-background:new 0 0 512.001 512.001;" xml:space="preserve">
<path style="fill:#82AFFF;" d="M503.172,88.276H8.828C3.953,88.276,0,92.228,0,97.103v317.793c0,4.875,3.953,8.828,8.828,8.828  h494.345c4.875,0,8.828-3.953,8.828-8.828V97.103C512,92.228,508.047,88.276,503.172,88.276z"/>
<g>
	<path style="fill:#F5F5F5;" d="M255.25,321.654c44.902,0,81.431-36.532,81.431-81.431s-36.53-81.431-81.431-81.431   s-81.431,36.532-81.431,81.431S210.348,321.654,255.25,321.654z M264.54,167.309l6.999-2.579   c9.877,2.13,19.061,6.133,27.145,11.651c-0.695-0.07-2.532-0.258-2.849-0.364c-0.392-0.13-0.998,2.494-0.998,2.494l3.212,1.278   l0.876-3.226c3.336,2.295,6.451,4.876,9.382,7.654l-4.722,4.722h-0.834l-0.679-2.665l-2.583-4.643l-9.124-3.289l-6.311,3.054   l3.581,7.753c-8.824-5.615-19.177-8.988-30.297-9.369v-10.806l6.43,2.03l-2.673-4.712l-3.757,1.608v-4.825   c2.791,0.075,5.538,0.303,8.247,0.669l-3.158,1.053L264.54,167.309z M306.796,226.912l1.537-0.651l0.387-3.783   c1.647,4.952,2.598,10.206,2.798,15.656h-14.162l0.522-2.262l4.002-0.348l3.313-5.641l-0.094-1.058l-3.393,4.35l-2.072,0.509   l-1.321-1.553l1.554-2.641l-3.381-2.493l-3.037,2.663c-0.818-2.952-1.932-5.78-3.373-8.414l1.647-0.599l1.321-0.788l-0.011-1.554   l0.847-1.053l-0.49-0.301c-0.362,0.172-2.251,0.721-2.251,0.721l-0.655,2.126l-0.94,0.572c-1.386-2.385-3.015-4.604-4.85-6.641   l7.809-7.809l0.067,0.11l1.902-1.143l-0.295-0.643l2.321-2.321c5.233,5.632,9.319,12.319,11.913,19.719l-1.944-2.889l-1.002,0.374   L306.796,226.912z M296.501,278.521l-4.224-4.224l-1.594-4.226l-0.82,1.812l-1.634-1.634l1.675-5.135l-1.085-3.726l-0.077,0.01   c1.148-1.809,2.183-3.695,3.029-5.686l0.02-0.002c0.262,0,1.218-1.218,1.218-1.218l2.349,0.262l6.072-2.4l-2.332-2.211   l-1.373-1.226l-1.064-2.166l-1.903-3.313c0.03-0.372,0.038-0.749,0.057-1.124h16.704   C311.004,256.276,305.408,268.934,296.501,278.521z M215.447,275.849l2.091-3.654l-4.501-15.731l-3.549-8.759l3.219-1.393   l0.87-2.61l2.174-0.063c0.759,8.84,4.437,16.839,10.054,23.075l-9.222,9.222L215.447,275.849z M220.471,237.287l-0.045,0.849   h-0.567c0.019-0.321,0.022-0.647,0.049-0.966L220.471,237.287z M274.079,270.259l-0.714-0.388l-9.109,3.522l-4.721-1.817   l-2.197,0.607v-3.002l2.273-0.686l1.378,0.332l2.901,1.135l-1.749-3.198l3.748,3.142l1.798,0.41l-0.547-2.397l1.219-3.961   l4.247-2.591l0.369,2.385l-5.181,2.816l0.994,1.983l5.388-1.088l0.085,2.688C274.201,270.186,274.138,270.22,274.079,270.259z    M252.611,254.572l-0.162-0.348l-0.978,0.056c-1.258-0.34-2.441-0.839-3.541-1.482l3.635-0.441l1.597-4.286v6.556   C252.98,254.602,252.79,254.605,252.611,254.572z M237.346,245.631l-3.551-0.547l1.811-2.773h1.063   C236.797,243.455,237.021,244.558,237.346,245.631z M257.337,231.183l0.979,0.297l1.231,1.493l-2.21,2.21V231.183L257.337,231.183z    M263.923,257.724l-1.695,1.984l-2.825,1.405l-0.947-1.66l-0.57,3.3l-0.547,0.214v-4.163c0.395-0.044,0.801-0.052,1.19-0.12   l1.352,1.695l1.122-1.397l-0.087-0.934c0.623-0.199,1.259-0.364,1.853-0.625L263.923,257.724z M262.652,235.774l-0.045,2.259   l-0.082,0.103h-2.236L262.652,235.774z M263.993,243.551l2.703-0.086l1.474,1.228l-0.491,0.885l-2.063-1.18l-1.13,0.884   l0.567,1.694l-0.023,0.074l-4.739-4.739h3.157L263.993,243.551z M262.205,250.131l-2.582-0.278l-1.824,4.728   c-0.15,0.026-0.309,0.025-0.46,0.046v-9.364L262.205,250.131z M248.799,238.135l-0.181-0.761l-1.813,0.761h-0.802l0.265-1.101   l1.171-1.134l-0.929-0.211l-0.966,1.373l-1.004,0.46l0.118,0.615h-1.054l0.634-2.467l1.856-1.646l4.114,4.114h-1.409V238.135z    M241.052,242.312l0.428,0.504l0.289-0.504h1.493l-1.942,2.101c-0.206-0.684-0.37-1.379-0.474-2.101H241.052z M243.363,248.668   l2.699-4.662l-0.706-0.631l1.19-0.614l0.149-0.45h1.9l-0.436,0.234l-0.181,0.626l1.471-0.1l-1.095,1.095l-1.113,0.235l-0.231,1.11   l-3.426,3.425C243.514,248.842,243.431,248.762,243.363,248.668z M253.162,226.254l-0.78-0.12l0.604,2.505l0.177,0.138v6.406   l-3.509-3.509l2.463-1.331l-2.225-3.686c1.036-0.41,2.135-0.674,3.271-0.839L253.162,226.254L253.162,226.254z M220.204,242.312   l-0.042,0.794l-0.175,1.06c-0.067-0.611-0.09-1.235-0.127-1.855L220.204,242.312L220.204,242.312z M222.247,247.27l2.598,2.611   l2.131-1.484l5.02,4.212l5.4,0.95l1.51-4.248c0.509,0.91,1.081,1.768,1.729,2.578l-4.639,4.639l0.746-1.901l-2.762-0.449   l0.885,3.243l0.131,0.109l-6.237,6.236c-4.064-4.569-6.996-10.165-8.274-16.374L222.247,247.27z M243.585,254.84   c2.696,2.156,5.97,3.559,9.577,3.964v4.829l-0.047,0.114l0.047-0.015v3.612l-1.216,0.244l-0.705,4.533l1.921-0.223v1.438   l-3.042,0.84l-1.013,0.977c-6.61-1.161-12.582-4.149-17.398-8.434L243.585,254.84z M278.807,272.068l3.064,0.65l3.014,0.093   l1.657,1.657l-5.063-0.184l-3.262-1.774C278.418,272.366,278.61,272.215,278.807,272.068z M281.743,263.764l-0.914-0.914   l1.86-0.142C282.39,263.073,282.057,263.41,281.743,263.764z M286.532,223.479c-1.421,0.02-2.798,0.04-2.921,0.04   c-0.262,0-2.308,1.749-2.308,1.749l-1.564,2.025l-0.471-2.471l1.108-2.524l-0.854-0.782l-3.828,2.436l-0.812-0.41l2.99-2.99   l0.658,0.217l1.906-0.448l-0.969-1.363l2.275-2.276C283.585,218.754,285.21,221.02,286.532,223.479z M275.334,217.187l-0.183-0.585   l-1.24,0.195l-0.77,1.491l-3.405,0.335c0.249,0.499,1.309,2.569,1.405,2.755l-4.225,4.225c-0.898-0.718-1.857-1.346-2.879-1.892   l0.523-0.281l-0.621-2.098l-0.423-0.774l-1.884,2.061c-1.365-0.497-2.802-0.812-4.292-0.98v-16.808   c8.213,0.481,15.67,3.752,21.453,8.897L275.334,217.187z M253.162,221.642c-1.348,0.152-2.646,0.433-3.893,0.855l0.625-1.451   l-3.257,2.56l0.006,0.01c-1.089,0.567-2.106,1.229-3.058,1.991l-11.876-11.876c5.783-5.145,13.24-8.416,21.453-8.897   L253.162,221.642L253.162,221.642L253.162,221.642z M239.962,227.889l-5.614,0.982l0.196-2.133l-4.653-1.606l-7.442,1.556   c1.532-3.697,3.687-7.06,6.306-10.006L239.962,227.889z M221.941,228.076l2.337,0.489l-2.801,0.775   C221.615,228.91,221.786,228.498,221.941,228.076z M215.683,238.135h-0.362l0.38-0.351   C215.694,237.901,215.69,238.018,215.683,238.135z M220.136,278.289l8.621-8.62c4.705,4.237,10.413,7.356,16.736,8.963   l-2.969,2.861l6.391,8.445l4.247,0.235v6.322c-11.153-0.41-21.485-4.038-30.08-10.036l1.38-0.896L220.136,278.289z    M257.337,290.401l5.385,0.297l0.137,1.235l3.276,3.59c-2.858,0.562-5.804,0.861-8.798,0.971V290.401L257.337,290.401z    M291.544,279.468l2.005,2.005c-0.959,0.89-1.923,1.773-2.942,2.598L291.544,279.468z M293.548,198.973l-1.223,1.223l-1.45-3.168   l-2.636-1.402c0,0-2.455-2.166-3.733-3.5C287.752,194.108,290.777,196.398,293.548,198.973z M283.938,191.779l1.845,6.455   l4.31,3.752l0.168,0.275l-8.519,8.518c-6.546-5.897-15.042-9.631-24.405-10.121v-16.704   C267.03,184.311,276.087,187.113,283.938,191.779z M253.162,200.658c-9.363,0.491-17.858,4.225-24.405,10.121l-11.806-11.806   c9.588-8.908,22.247-14.504,36.211-15.019V200.658L253.162,200.658z M225.804,213.731c-4.474,4.968-7.719,11.049-9.236,17.794   l-3.67,6.61h-13.919c0.515-13.964,6.111-26.623,15.018-36.21L225.804,213.731z M210.886,242.312l-3.966,8.524l-5.61-2.087   l-1.053,3.734c-0.734-3.292-1.149-6.694-1.277-10.173h11.905L210.886,242.312L210.886,242.312z M206.705,284.593l0.648,0.574   l-8.111,8.111c-5.6-5.909-10.254-12.696-13.778-20.137l2.157,1.26l14.387,12.801L206.705,284.593z M210.482,287.941l1.964,1.741   l6.37-1.21c9.629,7.289,21.471,11.755,34.346,12.198v16.704c-19.72-0.531-37.59-8.461-50.969-21.142L210.482,287.941z    M257.337,300.669c3.539-0.121,7.014-0.49,10.374-1.197l0.389,2.573l9.952,7.339l11.206-6.217l3.217-6.782l-0.211-4.196   l2.116-4.964l-0.516-0.404c0.915-0.759,1.768-1.586,2.635-2.396l1.926,1.924l0.586,3.637l2.186-0.866l7.111,7.111   c-13.379,12.681-31.25,20.611-50.969,21.142v-16.704H257.337z M302.194,284.214l-0.399-4.754l-0.535,0.024   c8.619-10.086,13.95-23.015,14.436-37.173H332.4c-0.531,19.719-8.461,37.588-21.14,50.967L302.194,284.214z M315.695,238.135   c-0.362-10.537-3.417-20.378-8.515-28.892l7.1,6.641l5.697-4.893l-8.744-13.181l-5.771-4.437l0.015-0.425l5.781-5.781   c12.68,13.379,20.609,31.249,21.14,50.967h-16.703V238.135z M253.162,179.778c-15.115,0.519-28.815,6.582-39.162,16.244   l-11.807-11.806c13.379-12.681,31.25-20.611,50.969-21.142L253.162,179.778L253.162,179.778z M211.047,198.975   c-9.661,10.347-15.723,24.046-16.243,39.16H178.1c0.531-19.719,8.461-37.588,21.14-50.967L211.047,198.975z M194.804,242.312   c0.213,6.208,1.355,12.172,3.309,17.773l-0.63,2.237l-16.32-0.359c-1.841-6.26-2.879-12.847-3.062-19.65L194.804,242.312   L194.804,242.312z"/>
	<path style="fill:#F5F5F5;" d="M198.993,336.966l15.076-2.441c1.347-0.218,1.907-1.846,0.973-2.842   c-3.626-3.874-10.833-11.898-15.006-18.728c-5.742-9.396-15.852-17.142-15.852-17.142s1.933,25.842,21.42,34.716   c0,0-19.314-4.873-31.668-8.178c-12.354-3.306-15.735-6.944-15.735-6.944S167.848,340.098,198.993,336.966z"/>
	<path style="fill:#F5F5F5;" d="M184.029,308.083c-0.522-6.439-5.228-22.899-14.098-36.505c0,0,0.011,33.068,11.752,44.269   c0,0-16.62-15.943-26.538-23.251c-9.286-6.841-13.398-14.616-13.398-14.616s2.495,20.896,16.008,31.319   c9.135,7.047,29.406,12.006,29.406,12.006S184.551,314.52,184.029,308.083z"/>
	<path style="fill:#F5F5F5;" d="M152.188,283.374l10.154,8.782c1.059,0.916,2.709,0.193,2.731-1.207   c0.055-3.532,0.271-8.893,1.035-12.273c1.218-5.394,2.724-22.909-3.423-35.64c0,0-7.431,22.816-1.623,41.817   c0,0-9.122-14.505-18.444-25.491c-4.872-5.742-6.801-12.512-6.801-12.512S135.658,269.629,152.188,283.374z"/>
	<path style="fill:#F5F5F5;" d="M149.401,260.899c0.796,1.073,2.447,0.846,2.902-0.409c1.335-3.683,3.925-10.306,7.366-16.612   c6.264-11.484,3.374-25,3.374-25s-10.056,17.237-12.971,36.392c-0.19-0.854-0.398-1.767-0.647-2.81   c-2.76-11.602-13.495-40.542-13.495-40.542s-3.776,15.893,0.943,28.48C139.298,246.857,146.074,256.409,149.401,260.899z"/>
	<path style="fill:#F5F5F5;" d="M147.33,235.489c0.303,1.155,1.92,1.184,2.264,0.04c0.961-3.19,2.959-7.587,7.117-11.837   c7.83-8.003,13.767-19.115,16.801-29.045c0,0-16.706,13.404-21.974,22.442c0,0,0.521-12.429-1.266-21.411   c-1.523-7.656,1.713-15.032,1.713-15.032s-10.586,10.161-9.021,28.778C143.95,221.139,145.969,230.303,147.33,235.489z"/>
	<path style="fill:#F5F5F5;" d="M157.91,203.577c3.169-2.905,8.719-7.854,14.07-10.856c7.105-3.986,12.724-16.844,13.963-19.705   c0,0-19.797,16.201-25.186,21.401c0,0,3.263-14.485,5.351-20.749c2.088-6.264,1.827-8.352,3.654-10.962   c0,0-9.526,8.352-12.137,15.007c-2.145,5.47-1.734,17.903-2.026,24.767C155.545,203.724,156.993,204.417,157.91,203.577z"/>
	<path style="fill:#F5F5F5;" d="M177.939,174.452c5.568-4.524,14.442-17.748,14.442-17.748c-2.198,1.256-11.136,4.35-18.617,12.006   c-7.482,7.656-9.048,18.095-9.048,18.095S172.371,178.976,177.939,174.452z"/>
	<path style="fill:#F5F5F5;" d="M304.372,340.793c-16.356-3.219-30.362-5.568-46.781-1.297c-0.808,0.21-1.564,0.452-2.342,0.681   c-0.779-0.228-1.534-0.47-2.342-0.681c-16.418-4.27-30.425-1.922-46.781,1.297c-14.742,2.901-28.857,0.391-28.857,0.391   s10.24,10.398,33.556,10.398c10.172,0,22.955-8.562,31.021-9.018c1.986-0.113,3.948,0.008,5.891,0.225   c-17.32,7.065-25.315,17.78-25.472,17.987c-0.695,0.918-0.516,2.227,0.402,2.92c0.377,0.289,0.82,0.428,1.26,0.428   c0.63,0,1.254-0.286,1.664-0.824c0.637-0.837,13.431-14.073,29.658-18.963c16.227,4.89,29.022,18.125,29.658,18.963   c0.409,0.539,1.034,0.824,1.664,0.824c0.44,0,0.883-0.139,1.26-0.428c0.918-0.693,1.097-2.003,0.402-2.92   c-0.157-0.207-8.152-10.922-25.472-17.987c1.943-0.216,3.905-0.337,5.891-0.225c8.066,0.456,20.85,9.018,31.021,9.018   c23.316,0,33.556-10.398,33.556-10.398S319.114,343.694,304.372,340.793z"/>
	<path style="fill:#F5F5F5;" d="M304.894,330.529c19.488-8.874,21.42-34.716,21.42-34.716s-10.111,7.746-15.852,17.142   c-4.173,6.829-11.381,14.854-15.006,18.728c-0.932,0.996-0.374,2.624,0.973,2.842l15.076,2.441   c31.146,3.132,40.791-21.56,40.791-21.56s-3.382,3.639-15.735,6.944C324.207,325.656,304.894,330.529,304.894,330.529z"/>
	<path style="fill:#F5F5F5;" d="M355.353,292.597c-9.918,7.308-26.538,23.251-26.538,23.251   c11.742-11.201,11.752-44.269,11.752-44.269c-8.87,13.607-13.576,30.067-14.098,36.505c-0.522,6.438-3.132,13.224-3.132,13.224   s20.27-4.959,29.406-12.006c13.513-10.424,16.008-31.319,16.008-31.319S364.639,285.754,355.353,292.597z"/>
	<path style="fill:#F5F5F5;" d="M349.438,284.854c5.807-19.001-1.623-41.817-1.623-41.817c-6.147,12.732-4.641,30.247-3.423,35.64   c0.764,3.38,0.98,8.74,1.035,12.273c0.022,1.4,1.672,2.123,2.731,1.207l10.154-8.782c16.53-13.746,16.371-36.523,16.371-36.523   s-1.929,6.77-6.801,12.512C358.56,270.348,349.438,284.854,349.438,284.854z"/>
	<path style="fill:#F5F5F5;" d="M360.426,255.27c-2.915-19.155-12.971-36.392-12.971-36.392s-2.889,13.516,3.374,25   c3.439,6.306,6.03,12.929,7.366,16.612c0.455,1.256,2.106,1.482,2.902,0.409c3.328-4.49,10.103-14.041,12.526-20.502   c4.719-12.587,0.943-28.48,0.943-28.48s-10.735,28.94-13.495,40.542C360.823,253.503,360.616,254.415,360.426,255.27z"/>
	<path style="fill:#F5F5F5;" d="M360.225,195.679c-1.786,8.982-1.266,21.411-1.266,21.411c-5.268-9.038-21.974-22.442-21.974-22.442   c3.034,9.93,8.971,21.041,16.801,29.045c4.158,4.249,6.156,8.647,7.117,11.837c0.344,1.143,1.961,1.114,2.264-0.04   c1.362-5.186,3.38-14.351,4.365-26.065c1.566-18.618-9.021-28.778-9.021-28.778S361.748,188.024,360.225,195.679z"/>
	<path style="fill:#F5F5F5;" d="M349.742,194.418c-5.389-5.201-25.186-21.401-25.186-21.401c1.24,2.861,6.858,15.72,13.963,19.705   c5.351,3.001,10.901,7.95,14.07,10.856c0.916,0.84,2.365,0.147,2.312-1.096c-0.292-6.863,0.119-19.297-2.026-24.767   c-2.61-6.655-12.137-15.007-12.137-15.007c1.827,2.61,1.566,4.698,3.654,10.962C346.479,179.933,349.742,194.418,349.742,194.418z"/>
	<path style="fill:#F5F5F5;" d="M332.559,174.452c5.568,4.524,13.224,12.353,13.224,12.353s-1.566-10.44-9.048-18.095   c-7.481-7.656-16.419-10.75-18.617-12.006C318.118,156.704,326.991,169.928,332.559,174.452z"/>
	<polygon style="fill:#F5F5F5;" points="298.444,217.491 294.895,219.828 298.681,220.42 302.818,224.995 305.135,223.503    302.356,217.82  "/>
	<polygon style="fill:#F5F5F5;" points="304.047,236.98 305.361,237.483 308.689,228.544 307.775,227.304 306.339,228.022    304.056,236.113  "/>
	<polygon style="fill:#F5F5F5;" points="270.648,221.823 269.604,220.714 267.255,223.715 267.839,224.623  "/>
	<polygon style="fill:#F5F5F5;" points="294.692,214.842 295.327,212.8 293.226,213.226 292.632,213.394 292.009,214.228    294.28,216.862 295.2,216.079  "/>
	<polygon style="fill:#F5F5F5;" points="252.509,262.669 252.542,261.399 250.943,263.714 251.4,264.495  "/>
</g>
<g>
</g>
<g>
</g>
<g>
</g>
<g>
</g>
<g>
</g>
<g>
</g>
<g>
</g>
<g>
</g>
<g>
</g>
<g>
</g>
<g>
</g>
<g>
</g>
<g>
</g>
<g>
</g>
<g>
</g>
</svg>
