<?xml version="1.0" encoding="iso-8859-1"?>
<!-- Generator: Adobe Illustrator 19.0.0, SVG Export Plug-In . SVG Version: 6.00 Build 0)  -->
<svg xmlns="http://www.w3.org/2000/svg" xmlns:xlink="http://www.w3.org/1999/xlink" version="1.1" id="Layer_1" x="0px" y="0px" viewBox="0 0 512.001 512.001" style="enable-background:new 0 0 512.001 512.001;" xml:space="preserve">
<path style="fill:#4173CD;" d="M503.172,423.724H8.828c-4.875,0-8.828-3.953-8.828-8.828V97.104c0-4.875,3.953-8.828,8.828-8.828  h494.345c4.875,0,8.828,3.953,8.828,8.828v317.792C512,419.772,508.047,423.724,503.172,423.724z"/>
<polygon style="fill:#FFE15A;" points="512,211.862 229.517,211.862 229.517,88.276 141.241,88.276 141.241,211.862 0,211.862   0,300.138 141.241,300.138 141.241,423.724 229.517,423.724 229.517,300.138 512,300.138 "/>
<polygon style="fill:#FF4B55;" points="512,238.345 203.034,238.345 203.034,88.276 167.724,88.276 167.724,238.345 0,238.345   0,273.655 167.724,273.655 167.724,423.724 203.034,423.724 203.034,273.655 512,273.655 "/>
<g>
</g>
<g>
</g>
<g>
</g>
<g>
</g>
<g>
</g>
<g>
</g>
<g>
</g>
<g>
</g>
<g>
</g>
<g>
</g>
<g>
</g>
<g>
</g>
<g>
</g>
<g>
</g>
<g>
</g>
</svg>
