<?xml version="1.0" encoding="iso-8859-1"?>
<!-- Generator: Adobe Illustrator 19.0.0, SVG Export Plug-In . SVG Version: 6.00 Build 0)  -->
<svg xmlns="http://www.w3.org/2000/svg" xmlns:xlink="http://www.w3.org/1999/xlink" version="1.1" id="Layer_1" x="0px" y="0px" viewBox="0 0 512.001 512.001" style="enable-background:new 0 0 512.001 512.001;" xml:space="preserve">
<path style="fill:#FF4B55;" d="M512,256H0V97.104c0-4.875,3.953-8.828,8.828-8.828h494.345c4.875,0,8.828,3.953,8.828,8.828L512,256  L512,256z"/>
<path style="fill:#73AF00;" d="M0,256h512v158.896c0,4.875-3.953,8.828-8.828,8.828H8.828c-4.875,0-8.828-3.953-8.828-8.828V256z"/>
<path style="fill:#FFE15A;" d="M258.685,207.856l11.106,33.3l35.102,0.273c2.72,0.021,3.847,3.491,1.66,5.107l-28.238,20.853  l10.589,33.469c0.82,2.593-2.132,4.738-4.344,3.156l-28.559-20.413l-28.558,20.413c-2.212,1.581-5.165-0.564-4.344-3.156  l10.589-33.469l-28.238-20.853c-2.188-1.615-1.06-5.086,1.66-5.107l35.102-0.273l11.106-33.3  C254.175,205.276,257.825,205.276,258.685,207.856z"/>
<g>
</g>
<g>
</g>
<g>
</g>
<g>
</g>
<g>
</g>
<g>
</g>
<g>
</g>
<g>
</g>
<g>
</g>
<g>
</g>
<g>
</g>
<g>
</g>
<g>
</g>
<g>
</g>
<g>
</g>
</svg>
