<?xml version="1.0" encoding="iso-8859-1"?>
<!-- Generator: Adobe Illustrator 19.0.0, SVG Export Plug-In . SVG Version: 6.00 Build 0)  -->
<svg xmlns="http://www.w3.org/2000/svg" xmlns:xlink="http://www.w3.org/1999/xlink" version="1.1" id="Layer_1" x="0px" y="0px" viewBox="0 0 512.001 512.001" style="enable-background:new 0 0 512.001 512.001;" xml:space="preserve">
<path style="fill:#F5F5F5;" d="M503.172,423.725H8.828c-4.875,0-8.828-3.953-8.828-8.828V97.104c0-4.875,3.953-8.828,8.828-8.828  h494.345c4.875,0,8.828,3.953,8.828,8.828v317.793C512,419.773,508.047,423.725,503.172,423.725z"/>
<g>
	<rect y="123.591" style="fill:#FF4B55;" width="512" height="35.31"/>
	<rect y="353.101" style="fill:#FF4B55;" width="512" height="35.31"/>
	<path style="fill:#FF4B55;" d="M248.503,228.834l12.427,16.256l19.403-6.495c1.085-0.363,2.008,0.864,1.358,1.805l-11.62,16.842   l12.173,16.447c0.681,0.919-0.201,2.176-1.298,1.849l-19.608-5.847l-11.88,16.66c-0.664,0.931-2.132,0.481-2.159-0.662   l-0.498-20.456l-19.516-6.151c-1.091-0.344-1.117-1.879-0.038-2.259l19.3-6.795l-0.181-20.461   C246.356,228.424,247.808,227.925,248.503,228.834z"/>
	<path style="fill:#FF4B55;" d="M184.489,319.597c-35.095,0-63.564-28.469-63.564-63.596c0-35.062,28.469-63.595,63.564-63.595   c13.057,0,25.099,4.015,35.134,10.813c1.537,1.041,3.29-0.979,2.004-2.316c-14.997-15.593-36.224-25.105-59.758-24.301   c-40.434,1.379-73.906,33.798-76.49,74.172c-2.959,46.244,33.658,84.676,79.25,84.676c22.457,0,42.641-9.389,57.054-24.401   c1.273-1.326-0.484-3.315-2.006-2.283C209.63,315.576,197.569,319.597,184.489,319.597z"/>
</g>
<g>
</g>
<g>
</g>
<g>
</g>
<g>
</g>
<g>
</g>
<g>
</g>
<g>
</g>
<g>
</g>
<g>
</g>
<g>
</g>
<g>
</g>
<g>
</g>
<g>
</g>
<g>
</g>
<g>
</g>
</svg>
