<?xml version="1.0" encoding="iso-8859-1"?>
<!-- Generator: Adobe Illustrator 19.0.0, SVG Export Plug-In . SVG Version: 6.00 Build 0)  -->
<svg xmlns="http://www.w3.org/2000/svg" xmlns:xlink="http://www.w3.org/1999/xlink" version="1.1" id="Layer_1" x="0px" y="0px" viewBox="0 0 512.001 512.001" style="enable-background:new 0 0 512.001 512.001;" xml:space="preserve">
<path style="fill:#FFE15A;" d="M0,125.548h512V97.104c0-4.875-3.953-8.828-8.828-8.828H8.828C3.953,88.276,0,92.229,0,97.104  V125.548z"/>
<rect y="125.55" style="fill:#FF4B55;" width="512" height="37.27"/>
<rect y="162.82" style="fill:#FFE15A;" width="512" height="37.27"/>
<rect y="200.09" style="fill:#FF4B55;" width="512" height="37.27"/>
<g>
	<rect y="237.36" style="fill:#FFE15A;" width="512" height="37.27"/>
	<path style="fill:#FFE15A;" d="M8.828,423.724h494.345c4.875,0,8.828-3.953,8.828-8.828v-28.445H0v28.445   C0,419.772,3.953,423.724,8.828,423.724z"/>
</g>
<rect y="274.641" style="fill:#FF4B55;" width="512" height="37.27"/>
<rect y="311.91" style="fill:#FFE15A;" width="512" height="37.27"/>
<rect y="349.18" style="fill:#FF4B55;" width="512" height="37.27"/>
<path style="fill:#64466E;" d="M247.172,256H8.828C3.953,256,0,252.047,0,247.172V97.104c0-4.875,3.953-8.828,8.828-8.828h238.344  c4.875,0,8.828,3.953,8.828,8.828v150.069C255.999,252.049,252.048,256,247.172,256z"/>
<path style="fill:#F5F5F5;" d="M235.441,162.614h-20.327v-23.231h2.904v-5.807h-2.904h-23.231h-2.904v5.807h2.904v23.231h-11.615  v-23.231h2.903v-5.807h-2.904h-23.231h-2.904v5.807h2.904v23.231h-17.422v-29.038h2.904v-5.807H113.48v5.807h2.904v29.038H98.961  v-23.231h2.904v-5.807h-2.904h-23.23h-2.904v5.807h2.904v23.231H64.116v-23.231h2.904v-5.807h-2.904h-23.23h-2.904v5.807h2.904  v23.231H20.559h-2.904v5.807h2.904v52.268h20.327h20.327v-17.422c0-3.208,2.6-5.807,5.807-5.807c3.208,0,5.807,2.601,5.807,5.807  v17.422h2.904h23.231h2.904v-17.422c0-3.208,2.6-5.807,5.807-5.807c3.208,0,5.807,2.601,5.807,5.807v17.422h2.904h2.904v-20.327  c0-4.811,3.901-8.712,8.712-8.712c4.811,0,8.712,3.901,8.712,8.712v20.327h2.904h2.904v-17.422c0-3.208,2.6-5.807,5.807-5.807  s5.807,2.601,5.807,5.807v17.422h2.904h23.231h2.9v-17.422c0-3.208,2.6-5.807,5.807-5.807c3.208,0,5.807,2.601,5.807,5.807v17.422  h20.327h20.327v-52.268h2.904v-5.807H235.441z M58.308,185.844H46.693v-17.422c0-3.208,2.6-5.807,5.807-5.807  s5.807,2.601,5.807,5.807C58.308,168.422,58.308,185.844,58.308,185.844z M93.154,185.844H81.539v-17.422  c0-3.208,2.6-5.807,5.807-5.807c3.208,0,5.807,2.601,5.807,5.807L93.154,185.844L93.154,185.844z M133.807,168.422h-11.615v-11.615  c0-3.208,2.6-5.807,5.807-5.807s5.807,2.601,5.807,5.807L133.807,168.422L133.807,168.422z M174.46,185.844h-11.615v-17.422  c0-3.208,2.6-5.807,5.807-5.807c3.208,0,5.807,2.601,5.807,5.807L174.46,185.844L174.46,185.844z M209.306,185.844h-11.615v-17.422  c0-3.208,2.6-5.807,5.807-5.807s5.807,2.601,5.807,5.807L209.306,185.844L209.306,185.844z"/>
<g>
</g>
<g>
</g>
<g>
</g>
<g>
</g>
<g>
</g>
<g>
</g>
<g>
</g>
<g>
</g>
<g>
</g>
<g>
</g>
<g>
</g>
<g>
</g>
<g>
</g>
<g>
</g>
<g>
</g>
</svg>
