<?xml version="1.0" encoding="iso-8859-1"?>
<!-- Generator: Adobe Illustrator 19.0.0, SVG Export Plug-In . SVG Version: 6.00 Build 0)  -->
<svg xmlns="http://www.w3.org/2000/svg" xmlns:xlink="http://www.w3.org/1999/xlink" version="1.1" id="Layer_1" x="0px" y="0px" viewBox="0 0 512 512" style="enable-background:new 0 0 512 512;" xml:space="preserve">
<path style="fill:#73AF00;" d="M170.667,423.721H8.828c-4.875,0-8.828-3.953-8.828-8.828V97.101c0-4.875,3.953-8.828,8.828-8.828  h161.839V423.721z"/>
<rect x="170.67" y="88.277" style="fill:#FF4B55;" width="170.67" height="335.45"/>
<g>
	<path style="fill:#FFE15A;" d="M503.172,423.721H341.333V88.273h161.839c4.875,0,8.828,3.953,8.828,8.828v317.792   C512,419.769,508.047,423.721,503.172,423.721z"/>
	<path style="fill:#FFE15A;" d="M257.833,223.641l7.584,22.741l23.971,0.185c1.857,0.014,2.627,2.385,1.133,3.488l-19.284,14.24   l7.231,22.856c0.561,1.771-1.455,3.235-2.967,2.155l-19.502-13.939l-19.502,13.94c-1.511,1.08-3.527-0.385-2.967-2.155   l7.231-22.856l-19.284-14.24c-1.494-1.103-0.724-3.474,1.133-3.488l23.971-0.185l7.584-22.741   C254.754,221.88,257.245,221.88,257.833,223.641z"/>
</g>
<g>
</g>
<g>
</g>
<g>
</g>
<g>
</g>
<g>
</g>
<g>
</g>
<g>
</g>
<g>
</g>
<g>
</g>
<g>
</g>
<g>
</g>
<g>
</g>
<g>
</g>
<g>
</g>
<g>
</g>
</svg>
