<?xml version="1.0" encoding="iso-8859-1"?>
<!-- Generator: Adobe Illustrator 19.0.0, SVG Export Plug-In . SVG Version: 6.00 Build 0)  -->
<svg xmlns="http://www.w3.org/2000/svg" xmlns:xlink="http://www.w3.org/1999/xlink" version="1.1" id="Layer_1" x="0px" y="0px" viewBox="0 0 512.001 512.001" style="enable-background:new 0 0 512.001 512.001;" xml:space="preserve">
<g>
	<path style="fill:#82AFFF;" d="M512,200.093H0V97.104c0-4.875,3.953-8.828,8.828-8.828h494.345c4.875,0,8.828,3.953,8.828,8.828   L512,200.093L512,200.093z"/>
	<path style="fill:#82AFFF;" d="M503.172,423.725H8.828c-4.875,0-8.828-3.953-8.828-8.828V311.909h512v102.988   C512,419.773,508.047,423.725,503.172,423.725z"/>
</g>
<rect y="200.091" style="fill:#FFE15A;" width="512" height="111.81"/>
<path style="fill:#464655;" d="M3.256,421.591l202.841-161.015c2.946-2.338,2.946-6.812,0-9.151L3.256,90.411  C1.311,92.03,0,94.376,0,97.104v317.793C0,417.626,1.311,419.972,3.256,421.591z"/>
<g>
</g>
<g>
</g>
<g>
</g>
<g>
</g>
<g>
</g>
<g>
</g>
<g>
</g>
<g>
</g>
<g>
</g>
<g>
</g>
<g>
</g>
<g>
</g>
<g>
</g>
<g>
</g>
<g>
</g>
</svg>
