<?xml version="1.0" encoding="iso-8859-1"?>
<!-- Generator: Adobe Illustrator 19.0.0, SVG Export Plug-In . SVG Version: 6.00 Build 0)  -->
<svg xmlns="http://www.w3.org/2000/svg" xmlns:xlink="http://www.w3.org/1999/xlink" version="1.1" id="Layer_1" x="0px" y="0px" viewBox="0 0 512.001 512.001" style="enable-background:new 0 0 512.001 512.001;" xml:space="preserve">
<path style="fill:#FFE15A;" d="M503.172,423.725H8.828c-4.875,0-8.828-3.953-8.828-8.828V97.104c0-4.875,3.953-8.828,8.828-8.828  h494.345c4.875,0,8.828,3.953,8.828,8.828v317.793C512,419.773,508.047,423.725,503.172,423.725z"/>
<path style="fill:#FF4B55;" d="M503.172,88.277H8.828c-2.146,0-4.041,0.86-5.571,2.134l505.487,331.181  c1.945-1.619,3.256-3.965,3.256-6.694V97.104C512,92.229,508.047,88.277,503.172,88.277z"/>
<g>
	<path style="fill:#FFBE55;" d="M272.821,232.353c0.988-0.794,1.805-1.777,1.495-2.604c-0.258-0.686-1.533-1.323-2.883-1.997   c-2.506-1.252-5.853-2.97-6.964-7.084c-0.132-0.013-0.255-0.001-0.392-0.026c-1.1-0.204-1.786,0.174-2.582,2.759   c-0.146,0.471-0.456,1.228-0.867,2.094c0.824,0.546,2.882,1.815,4.887,2.271C269.487,228.666,271.933,230.201,272.821,232.353z"/>
	<path style="fill:#FFBE55;" d="M257.407,230.603c1.186,1.082,2.275,2.31,3.346,3.681c0.062,0.079,0.128,0.158,0.191,0.236   c2.661-2.04,6.042-2.052,8.397-1.667c-0.683-0.708-2.013-1.402-4.533-1.976c-2.337-0.53-4.601-1.853-5.72-2.572   C258.569,229.134,258.004,229.921,257.407,230.603z"/>
	<path style="fill:#FFBE55;" d="M270.891,242.313c1.246,0.721,3.751,2.343,5.92,4.683c0.32-1.8,0.225-4.19-1.466-6.293   C273.9,241.502,272.354,242.008,270.891,242.313z"/>
	<path style="fill:#FFBE55;" d="M250.152,221.282l-0.418,0.508c-2.081,2.545-4.442,5.319-6.698,7.581   c1.373-0.648,2.991-1.122,4.669-1.375c0.6-0.961,2.428-3.51,4.674-6.581C251.837,221.07,250.762,220.543,250.152,221.282z"/>
	<path style="fill:#FFBE55;" d="M241.993,234.179c0.01,0.017,0.152,0.191,0.55,0.341c0.691,0.266,1.972,0.358,3.308-0.258   c3.89-1.81,7.818-0.82,11.679,2.916c0.011,0.011,0.007,0.029,0.018,0.04c0.011,0.011,0.029,0.008,0.039,0.019   c0.023,0.022,1.322,1.326,3.665,2.52c-1.126-1.183-2.137-2.389-3.011-3.507c-1.4-1.789-2.611-3.332-4.052-4.252   c-3.657-2.322-10.027-0.287-11.828,1.614C242.063,233.925,241.993,234.13,241.993,234.179z"/>
	<path style="fill:#FFBE55;" d="M272.238,236.489c0,0-0.009,0.001-0.012,0.003c-0.201,0.094-0.419,0.14-0.644,0.145   c-0.01,0-0.02,0.007-0.03,0.007c-0.023,0-0.043-0.021-0.067-0.022c-0.163-0.007-0.329-0.018-0.491-0.077   c-0.054-0.02-4.994-1.76-8.01,0.424c0.844,0.949,1.8,1.825,2.867,2.624c1.482,0.034,6.614-0.054,9.537-2.785   c1.476-1.378,1.601-2.884,1.353-4.068C275.65,234.447,273.719,235.784,272.238,236.489z"/>
	<path style="fill:#FFBE55;" d="M227.19,234.864c-0.249-0.361-0.522-0.674-0.736-1.101c-0.352-0.703-0.537-1.449-0.724-2.193   c-1.135,1.816-2.33,4.642-1.603,7.77C224.982,237.317,226.273,235.779,227.19,234.864z"/>
	<path style="fill:#FFBE55;" d="M254.778,228.775c1.438-1.502,3.208-4.836,3.663-6.315c0.437-1.427,1.768-5.767,6.206-4.963   c0.988,0.183,1.72-0.445,2.167-0.999c-1.079-1.231-2.49-2.03-3.715-2.059c-0.915-0.087-1.966,0.495-2.78,1.589   c-3.992,5.379-7.03,9.535-8.675,11.852C252.75,228.008,253.793,228.331,254.778,228.775z"/>
	<path style="fill:#FFBE55;" d="M244.471,219.093c-2.475,3.304-5.076,5.167-6.973,6.528c-2.5,1.793-3.118,2.401-2.968,3.79   c0.031,0.282,0.152,0.491,0.404,0.691c0.332,0.264,0.811,0.452,1.355,0.591c0.033-0.017,0.054-0.045,0.089-0.06   c2.985-1.215,8.93-8.479,10.886-10.867l0.423-0.516c2.071-2.506,4.988-1.503,6.583-0.415c0.551-0.747,1.106-1.5,1.661-2.25   C253.047,213.108,248.281,214.016,244.471,219.093z"/>
	<path style="fill:#FFBE55;" d="M269.642,218.026c-0.471,0.68-1.146,1.387-2.009,1.917c0.794,2.636,3.011,3.846,5.227,4.95   c1.315,0.655,2.553,1.31,3.446,2.236c0.748-2.678,0.651-4.809-0.384-6.289C274.403,218.669,271.174,218.141,269.642,218.026z"/>
	<path style="fill:#FFBE55;" d="M257.974,313.783l0.348,0.395c4.394,5.001,8.544,9.832,11.308,13.9   c-0.083-2.197-0.233-4.472-0.498-6.053c-0.009-0.05-0.014-0.104-0.017-0.155c-1.41-1.822-2.929-3.52-4.531-4.956   c-4.683-4.185-7.323-8.384-8.8-11.62C255.533,308.078,255.85,311.37,257.974,313.783z"/>
	<path style="fill:#FFBE55;" d="M255.726,297.64c-0.374-0.658-0.714-1.366-0.991-2.155c-0.002-0.007,0-0.013-0.003-0.02   c-0.023-0.009-0.046-0.018-0.07-0.025c-0.957,1.658-2.71,2.801-4.584,2.805c0,0-0.007,0-0.009,0c-0.145,0-0.274-0.056-0.415-0.068   c-0.244,1.078-0.323,2.296,0.359,2.947c0.768,0.74,2.328,0.73,3.144,0.522c0.396-1.688,0.834-2.884,0.89-3.022   C254.318,297.95,254.998,297.557,255.726,297.64z"/>
	<path style="fill:#FFBE55;" d="M252.601,304.936c-0.169,0.011-0.324,0.039-0.501,0.039c-0.477,0-0.973-0.064-1.471-0.162   c-0.294,1.102-0.396,2.346,0.337,3.095c0.458,0.468,1.128,0.649,1.677,0.683C252.523,307.33,252.494,306.089,252.601,304.936z"/>
	<path style="fill:#FFBE55;" d="M193.204,233.805l-0.008,0.004c-3.208,1.074-7.017,0.811-10.349,0.158   c1.943,2.996,2.686,6.607,2.773,9.964c4.185-5.459,8.818-7.959,12.135-9.144C196.049,234.635,194.51,234.319,193.204,233.805z"/>
	<path style="fill:#FFBE55;" d="M268.831,313.216c-0.724-0.056-2.357-0.263-4.296-0.852c0.683,0.722,1.366,1.444,2.179,2.172   c5.342,4.776,9.686,12.049,12.523,17.657c1.011-3.619,3.389-6.723,5.945-9.078C278.044,322.643,272.46,317.672,268.831,313.216z"/>
	<path style="fill:#FFBE55;" d="M232.707,254.765c-1.17-0.258-2.485-0.743-3.765-1.529c-0.855,2.721-1.453,5.241-1.782,7.542   c1.77-0.163,3.108-0.148,4.019-0.074C231.615,258.263,232.218,256.173,232.707,254.765z"/>
	<path style="fill:#FFBE55;" d="M182.295,246.981c0.383-3.775,0.178-9.802-4.01-13.423c-0.013-0.002-0.025,0.003-0.04,0.001   c-0.129-0.017-12.103-1.743-20.095,6.42c-3.006,3.071-4.961,5.475-6.53,7.405c-2.129,2.621-3.657,4.502-6.136,5.958   C152.984,256.015,171.166,260.519,182.295,246.981z"/>
	<path style="fill:#FFBE55;" d="M293.54,198.596c3.345,1.796,8.993,3.911,13.934,1.43c0.007-0.012,0.007-0.025,0.013-0.038   c0.063-0.104,6.234-10.514,1.751-21.023c-1.687-3.953-3.162-6.678-4.348-8.866c-1.605-2.966-2.761-5.101-3.16-7.95   C296.399,168.065,285.282,183.137,293.54,198.596z"/>
	<path style="fill:#FFBE55;" d="M288.972,324.127c-3.01,2.31-7.26,6.583-7.029,12.111c0.01,0.014,0.026,0.021,0.036,0.036   c0.068,0.1,7.023,10.002,18.445,10.231c4.308,0.087,7.391-0.137,9.875-0.32c3.368-0.249,5.783-0.42,8.54,0.378   C315.637,339.276,306.454,322.968,288.972,324.127z"/>
	<path style="fill:#FFBE55;" d="M264.094,306.061c-0.03-0.063-0.004-0.131-0.025-0.195l-2.183,1.863   c1.429,0.889,2.938,1.433,4.228,1.773C264.828,307.529,264.12,306.115,264.094,306.061z"/>
	<path style="fill:#FFBE55;" d="M255.089,284.758c-0.606-0.042-1.207-0.106-1.8-0.211c-0.458,0.74-1.462,2.847,0.021,5.504   c0.552,0.99,1.481,2.23,2.775,2.534c0.772,0.175,1.658-0.084,2.598-0.586C256.768,288.902,255.615,286.173,255.089,284.758z"/>
	<path style="fill:#FFBE55;" d="M287.75,228.559c1.66-1.242,4.687-3.576,8.277-6.645c1.077-6.831,5.062-13.193,8.629-17.72   c-3.628,0.503-7.348-0.387-10.483-1.727c4.195,11.23-4.888,23.672-6.592,25.866C287.635,228.411,287.697,228.479,287.75,228.559z"/>
	<path style="fill:#FFBE55;" d="M259.524,305.543l2.892-2.47c-1.88-0.648-3.682-1.707-5.155-3.317   C257.481,300.773,258.09,302.866,259.524,305.543z"/>
	<path style="fill:#FFBE55;" d="M223.848,261.242c0.365-3.085,1.176-6.521,2.438-10.271c-0.809-0.92-1.518-2.041-2.082-3.38   c-1.493,3.454-3.65,9.106-4.482,14.581C221.238,261.772,222.613,261.465,223.848,261.242z"/>
	<path style="fill:#FFBE55;" d="M279.791,222.317c0.364,2.074,0.127,4.461-0.871,7.223c0.6,1.067,1.107,2.552,1.108,4.166   c1.265-0.269,1.358-1.035,1.75-5.214l0.167-1.727c0.158-1.586-0.127-2.796-0.849-3.591   C280.723,222.762,280.259,222.51,279.791,222.317z"/>
	<path style="fill:#FFBE55;" d="M279.444,249.621c1.038-0.215,2.354-0.666,3.405-1.636c1.591-1.469,3.353-4.58,3.064-5.978   c-0.035-0.174-0.079-0.287-0.383-0.395c-1.154-0.412-1.502-0.263-1.5-0.258c-0.071,0.054-0.202,0.345-0.279,0.516   c-0.2,0.441-0.47,1.041-1.074,1.436c-0.921,0.6-1.791,0.76-2.593,0.764C280.318,246.297,279.878,248.323,279.444,249.621z"/>
	<path style="fill:#FFBE55;" d="M220.897,235.616c0.22-1.465,0.648-2.833,1.226-4.06c-2.906-1.087-9.474-3.208-14.839-2.47   c-7.578,1.02-13.341,0.171-16.998-0.811c1.751,1.805,4.759,3.682,9.468,3.487C211.433,231.529,218.129,234.17,220.897,235.616z"/>
	<path style="fill:#FFBE55;" d="M206.236,235.158c-2.764,2.165-4.802,4.767-6.195,6.988c4.294-2.226,9.806-4.447,13.452-5.842   C211.529,235.807,209.113,235.396,206.236,235.158z"/>
	<path style="fill:#FFBE55;" d="M284.881,238.199c0.494,0.058,1.031,0.166,1.652,0.381c-0.025-0.124-0.045-0.233-0.077-0.382   c-0.195-0.9-0.447-2.144-0.383-3.953c-0.001-0.012-0.008-0.021-0.008-0.033c0-0.011,0.006-0.021,0.006-0.033   c0.001-0.038-0.006-0.058-0.003-0.096c0.077-1.678-0.489-3.037-1.23-4.043c-0.219,2.159-0.501,3.79-1.269,4.937   C284.024,235.699,284.561,236.818,284.881,238.199z"/>
	<path style="fill:#FFBE55;" d="M289.005,231.61c0.053,0.234,0.102,0.47,0.138,0.713c9.359-1.27,16.006-10.684,19.839-18.223   C300.836,222.723,291.684,229.645,289.005,231.61z"/>
	<path style="fill:#FFBE55;" d="M250.071,295.048h0.002c0.799-0.004,1.614-0.605,1.962-1.4c-0.551-0.584-1.07-1.239-1.517-2.04   c-0.299-0.535-0.494-1.049-0.673-1.557c-0.631,0.383-1.33,0.929-1.643,1.631c-0.235,0.52-0.225,1.065,0.029,1.714   C248.527,294.149,249.085,295.048,250.071,295.048z"/>
	<path style="fill:#FFBE55;" d="M216.393,263.146c0.637-5.751,2.733-11.704,4.39-15.682c-1.036,0.789-2.329,1.598-3.927,2.364   c-0.179,0.397-3.405,7.625-4.631,14.783C213.699,264.05,215.09,263.563,216.393,263.146z"/>
	<path style="fill:#FFBE55;" d="M272.985,313.167c1.864,0.195,3.591,0.108,5.092-0.104c-2.844-0.97-5.679-2.255-8.001-3.412   C270.897,310.775,271.87,311.986,272.985,313.167z"/>
	<path style="fill:#FFBE55;" d="M250.147,283.673c-7.686-2.919-13.749-11.19-15.922-21.709c-0.639,4.083-0.68,9.139,1.494,13.675   c2.356,4.918,7.022,8.375,13.716,10.41C249.579,285.099,249.85,284.298,250.147,283.673z"/>
	<path style="fill:#FFBE55;" d="M291.041,235.338c-0.17,0.036-0.354,0.034-0.525,0.066c2.135,2.336,10.717,12.724,13.041,30.852   c1.597,0.611,3.085,1.238,4.346,1.874C307.069,260.754,303.73,242.096,291.041,235.338z"/>
	<path style="fill:#FFBE55;" d="M208.806,265.983c0.666-5.517,2.606-11.189,3.926-14.551c-1.336,0.417-2.823,0.786-4.458,1.097   c-2.88,4.826-4.626,12.064-5.429,16.15C204.966,267.648,206.933,266.772,208.806,265.983z"/>
	<path style="fill:#FFBE55;" d="M260.514,294.688c-0.8,0.467-1.546,0.77-2.232,0.938c1.782,3.527,5.092,4.73,7.903,5.043   C263.913,298.87,262.061,296.778,260.514,294.688z"/>
	<path style="fill:#FFBE55;" d="M237.527,234.924c0.395-0.182,0.886-0.323,1.335-0.484c-0.008-0.083-0.029-0.159-0.03-0.245   c-1.871-0.038-4.317-0.341-5.889-1.593c-0.917-0.733-1.466-1.714-1.589-2.841c-0.372-3.399,1.889-5.022,4.281-6.735   c0.975-0.701,2.082-1.512,3.232-2.541c-3.501-0.239-6.641,0.934-8.59,3.468c-1.929,2.505-2.298,5.717-0.966,8.38   C231.128,235.977,235.049,235.61,237.527,234.924z"/>
	<path style="fill:#FFBE55;" d="M233.21,238.477c-0.932-0.107-1.835-0.397-2.707-0.788c-0.136,1.826-0.023,4.305,1.164,5.76   c0.03-0.817,0.13-1.646,0.37-2.464C232.266,240.204,232.632,239.338,233.21,238.477z"/>
	<path style="fill:#FFBE55;" d="M245.178,239.575c3.802,0.299,6.72-0.668,8.458-1.486c-2.918-2.081-5.038-1.585-6.442-0.93   c-2.255,1.049-4.779,0.983-6.485,0c-0.63,0.286-1.312,0.57-2.109,0.799c-1.783,0.895-2.942,2.167-3.455,3.798   c-0.162,0.513-0.189,1.02-0.227,1.523c0.033-0.028,0.034-0.079,0.07-0.105C238.646,240.553,242.072,239.375,245.178,239.575z"/>
	<path style="fill:#FFBE55;" d="M262.543,283.599c-1.305,0.514-2.653,0.894-4.042,1.081c0.92,2.195,2.738,5.93,5.615,9.436   C265.617,291.589,263.85,286.155,262.543,283.599z"/>
	<path style="fill:#FFBE55;" d="M232.198,247.477c-3.393-1-4.704-4.113-4.945-7.328c-0.73,1.527-1.121,3.436-0.39,5.558   c1.472,4.256,4.687,5.497,6.577,5.891c0.021-0.495,0.043-0.989,0.081-1.481c-0.01-0.011-0.025-0.014-0.035-0.025   C233.045,249.605,232.562,248.662,232.198,247.477z"/>
	<path style="fill:#FFBE55;" d="M220.84,239.189c-0.116-0.05-0.245-0.039-0.35-0.117c-0.018-0.012-0.751-0.5-2.116-1.12   c-4.803,2.592-7.5,7.88-8.733,11.03c8.703-2.109,11.462-6.068,12.001-6.993C221.246,241.048,220.978,240.111,220.84,239.189z"/>
	<path style="fill:#FFBE55;" d="M277.073,274.307c1.614-3.497,1.962-7.502,1.108-11.937c-1.931,8.889-6.652,16.132-12.768,19.818   c0.279,0.561,0.588,1.255,0.91,2.078C268.724,283.215,274.333,280.238,277.073,274.307z"/>
	<path style="fill:#FFBE55;" d="M280.927,240.632c0.194-0.521,0.483-1.06,0.906-1.511c-0.188-0.995-0.584-1.831-0.917-2.368   c-0.476,0.126-1.01,0.218-1.618,0.279c-0.042,0.003-0.083,0.006-0.125,0.007c-0.32,0.596-0.745,1.182-1.293,1.75   c0.487,0.615,0.907,1.231,1.215,1.866c0.084,0.046,0.186,0.018,0.263,0.079C279.488,240.827,280.085,241.182,280.927,240.632z"/>
	<path style="fill:#FFBE55;" d="M285.47,249.866c1.651,4.334,2.68,8.28,3.089,11.762c1.3,0.339,2.686,0.712,4.125,1.117   c-0.825-6.136-3.405-12.589-4.931-16.007C287.075,247.955,286.253,249.048,285.47,249.866z"/>
	<path style="fill:#FFBE55;" d="M285.207,260.779c-0.425-2.691-1.235-5.682-2.424-8.935c-1.353,0.661-2.682,0.943-3.661,1.069   c0.002,0.169,0.018,0.334,0.018,0.504c0,0.406-0.033,0.801-0.044,1.204c0.039,0.065,0.094,0.114,0.124,0.186   c0.695,1.693,1.224,3.336,1.644,4.946C281.367,259.865,282.958,260.226,285.207,260.779z"/>
	<path style="fill:#FFBE55;" d="M296.018,263.713c1.364,0.412,2.731,0.844,4.063,1.292c-2.018-12.932-7.313-21.527-10.268-25.401   c-0.028,0.623-0.159,1.297-0.534,2.077c-0.044,0.093-0.135,0.136-0.193,0.216c0.014,0.175,0.043,0.348,0.039,0.529   c0.118,0.116,0.233,0.236,0.312,0.392C289.666,243.265,295.102,253.941,296.018,263.713z"/>
</g>
<g>
	<path style="fill:#FFD7AA;" d="M256.241,281.643c10.866,0,19.704-12.661,19.704-28.225c0-0.853-0.028-1.694-0.079-2.529   c-2.112-3.175-5.804-5.388-6.898-5.995c-6.514-0.117-10.861-3.017-12.715-4.552c-1.843,1.069-5.842,2.817-11.315,2.421   c-2.218-0.141-4.759,0.728-7.593,2.658c-0.536,2.592-0.809,5.276-0.809,7.997C236.536,268.982,245.376,281.643,256.241,281.643z"/>
	<path style="fill:#FFD7AA;" d="M179.125,301.584c0.291-0.079,3.222-0.874,7.513-1.227c19.873-4.479,43.208-18.734,47.414-21.372   c-0.413-0.657-0.886-1.273-1.224-1.981c-2.091-4.374-2.425-9.044-2.076-13.116c-2.994-0.191-12.125,0.236-29.301,9.059   c-0.231,0.117-0.48,0.174-0.73,0.174c-0.327,0-0.651-0.099-0.926-0.296c-0.487-0.345-0.74-0.936-0.655-1.527   c0.05-0.354,0.863-5.911,2.719-11.819c-9.869,2.069-30.705,23.097-42.175,34.685c-2.167,2.193-4.119,4.164-5.771,5.792   c-0.228,0.225-0.47,0.437-0.714,0.653c-1.45,1.281-2.947,2.604-1.887,10.234c0.978,7.043,10.14,7.764,16.957,7.809h0.499   c2.145,0,7.31,1.785,16.257,4.942c8.687,3.066,18.534,6.54,24.909,7.734c3.05,0.566,5.912,1.078,8.552,1.548   c8.058,1.44,13.881,2.475,16.929,3.736c3.699,1.532,7.778,9.09,11.313,16.055l0.679,1.327c2.082,4.019,2.474,9.049,1.017,13.122   c-0.707,1.985-0.202,3.025,0.05,3.382c0.247,0.35,0.536,0.474,0.71,0.474c0.822,0,1.415,0,2.072-2.08   c0.83-2.625,1.038-2.879,4.529-7.102l0.954-1.152c3.598-4.364-0.007-13.318-1.739-17.624l-0.244-0.604   c-1.231-3.079-0.141-6.312,0.914-9.436c0.717-2.126,1.459-4.323,1.459-6.424c0-0.458-0.122-0.766-0.412-1.041   c-1.677-1.589-7.362-1.286-11.517-1.074c-1.532,0.083-2.983,0.158-4.227,0.158c-6.432,0-16.753-6.428-31.762-16.238   c-7.442-4.855-16.264-5.276-22.251-4.797c-2.479,0.541-4.914,0.936-7.262,1.149c-0.809,0.071-1.567-0.487-1.716-1.302   C177.834,302.6,178.328,301.804,179.125,301.584z"/>
	<path style="fill:#FFD7AA;" d="M362.709,196.66c-2.7,0.57-3.025,0.508-8.457-0.482l-1.431-0.258   c-5.581-1.027-11.608,6.528-14.511,10.143l-0.409,0.508c-2.082,2.58-5.431,3.208-8.669,3.819c-2.207,0.416-4.489,0.844-6.322,1.876   c-0.397,0.221-0.607,0.482-0.705,0.87c-0.566,2.234,2.479,7.048,4.704,10.563c0.82,1.294,1.596,2.526,2.205,3.607   c3.147,5.604,2.592,17.753,1.386,35.647c-0.628,9.341,3.793,17.603,7.237,22.529c1.389,1.568,2.731,3.224,3.998,4.959   c0.493,0.674,0.383,1.614-0.252,2.155c-0.634,0.549-1.581,0.503-2.169-0.087c-0.197-0.2-2.026-2.063-4.202-5.159   c-8.735-9.729-19.46-16.161-23.921-18.601c0.116,1.27,0.161,2.134,0.168,2.316c0.025,0.625-0.318,1.203-0.874,1.485   c-0.228,0.113-0.477,0.171-0.722,0.171c-0.353,0-0.705-0.117-0.994-0.345c-4.235-3.372-19.798-7.471-27.185-9.184   c0.651,4.559,0.114,8.739-1.625,12.487c-1.785,3.846-4.532,6.552-7.116,8.456c13.55,16.742,45.638,23.895,64.958,28.182   c4.974,1.102,9.272,2.056,12.431,2.97c0.31,0.092,0.614,0.195,0.919,0.303c1.828,0.637,3.711,1.298,9.853-3.366   c5.665-4.302,1.862-12.681-1.494-18.61l-0.244-0.433c-1.048-1.868-2.02-7.247-3.645-16.593c-1.579-9.078-3.368-19.368-5.45-25.513   c-1.001-2.95-1.96-5.708-2.846-8.25c-2.684-7.713-4.625-13.289-5.015-16.555c-0.474-3.974,4.115-11.225,8.455-17.711l0.834-1.257   c2.49-3.786,6.684-6.586,10.946-7.31c2.074-0.353,2.735-1.306,2.923-1.697c0.183-0.387,0.152-0.698,0.068-0.849   C365.134,196.735,364.845,196.206,362.709,196.66z"/>
	<path style="fill:#FFD7AA;" d="M154.626,195.577c1.862,2.035,1.976,2.343,3.894,7.485l0.52,1.389   c1.985,5.304,11.55,6.653,16.145,7.297l0.637,0.092c3.281,0.47,5.534,3.025,7.713,5.501c1.485,1.685,3.02,3.424,4.841,4.472   c0.399,0.228,0.73,0.279,1.109,0.162c2.214-0.653,4.793-5.729,6.676-9.436c0.697-1.368,1.356-2.667,1.978-3.744   c3.206-5.562,13.931-11.296,29.929-19.405c8.817-4.472,13.726-13.169,16.064-18.626c0.538-1.789,1.142-3.49,1.822-5.08   c0.331-0.77,1.19-1.132,1.983-0.886c0.79,0.27,1.241,1.102,1.034,1.913c-0.063,0.245-0.62,2.343-1.878,5.309   c-4.28,14.562-4.088,35.19-3.802,43.496c3.226-3.532,6.293-4.332,8.406-4.332c2.333,0,4.468,1.022,6.174,2.814   c1.788-2.318,3.826-2.767,5.311-2.755c2.696,0.066,4.93,1.796,6.353,3.594c1.559,0.079,5.078,0.494,7.642,2.69   c3.533-17.342-4.588-41.982-10.071-58.578c-1.716-5.196-3.2-9.686-4.131-13.263c-0.082-0.312-0.148-0.628-0.212-0.949   c-0.387-1.894-0.787-3.852-7.924-6.744c-6.599-2.692-11.851,4.876-15.236,10.784l-0.249,0.437   c-1.071,1.859-5.203,5.447-12.413,11.625c-6.989,5.991-14.913,12.786-19.128,17.711c-2.016,2.355-3.889,4.577-5.612,6.627   c-5.269,6.265-9.078,10.793-11.693,12.802c-3.179,2.446-11.77,2.205-19.582,1.785l-1.469-0.075   c-2.462-0.108-4.904-0.843-7.096-1.985l-0.182-0.045l-0.107-0.13c-1.713-0.936-3.283-2.091-4.489-3.51   c-0.791-0.931-1.494-1.322-2.046-1.502l-1.756,0.39C153.426,193.543,153.266,194.094,154.626,195.577z"/>
</g>
<path style="fill:#464655;" d="M368.321,195.886c-1.271-2.268-3.208-2.991-6.265-2.355c-2.091,0.441-2.091,0.437-7.231-0.495  l-1.436-0.263c-7.456-1.356-14.285,7.189-17.572,11.287l-0.406,0.503c-1.342,1.664-3.859,2.134-6.773,2.684  c-2.458,0.466-5.003,0.945-7.294,2.23c-1.152,0.649-1.929,1.64-2.24,2.871c-0.9,3.57,2.151,8.392,5.102,13.056  c0.787,1.244,1.533,2.425,2.118,3.466c2.916,5.196,1.934,19.77,0.986,33.867c-0.372,5.529,0.811,10.655,2.563,15.04  c-9.06-7.797-17.748-12.198-19.156-12.887c-1.25-8.465-4.959-23.398-15.756-30.861c14.04-6.222,20.713-27.388,21.031-28.429  c0.228-0.745-0.113-1.544-0.809-1.894c-0.691-0.353-1.542-0.15-2.003,0.479c-3.668,4.979-8.384,9.812-12.836,13.905  c2.725-7.7,8.778-14.423,11.403-17.07c0.462-0.395,0.914-0.836,1.352-1.314c0.574-0.628,0.555-1.598-0.045-2.205  c-0.214-0.216-0.502-0.269-0.779-0.337c1.632-4.508,3.147-11.85-0.097-19.455c-1.743-4.086-3.257-6.886-4.474-9.132  c-2.183-4.032-3.179-5.87-2.879-10.126c0.045-0.649-0.306-1.26-0.888-1.544c-0.583-0.291-1.279-0.195-1.767,0.237  c-0.222,0.196-20.818,18.855-12.996,39.512c-0.236,0.083-0.489,0.131-0.671,0.326c-0.555,0.599-0.57,1.523-0.031,2.138  c8.776,10.013-0.949,24.012-3.177,26.947c-0.05-0.033-0.097-0.076-0.148-0.108c0-1.998-0.541-3.667-1.683-4.93  c-1.004-1.109-2.252-1.695-3.356-2.008c4.168-18.191-3.954-42.866-9.969-61.074c-1.699-5.146-3.168-9.586-4.075-13.068  c-0.066-0.258-0.118-0.516-0.172-0.778c-0.618-3.029-1.785-5.8-9.854-9.07c-9.931-4.019-16.917,8.159-19.209,12.161l-0.244,0.425  c-0.851,1.478-6.38,6.216-11.726,10.796c-7.078,6.066-15.101,12.943-19.478,18.057c-2.02,2.364-3.896,4.597-5.628,6.653  c-4.949,5.882-8.855,10.526-11.196,12.328c-2.507,1.93-13.376,1.344-17.462,1.123l-1.497-0.079  c-3.666-0.162-7.337-1.901-9.583-4.547c-1.641-1.934-3.709-2.921-5.675-2.759c-1.396,0.129-2.611,0.861-3.247,1.964  c-1.298,2.251-0.934,4.286,1.18,6.586c1.441,1.577,1.441,1.577,3.255,6.441l0.522,1.398c2.65,7.081,13.484,8.604,18.691,9.341  l0.628,0.087c2.115,0.303,3.809,2.226,5.771,4.451c1.388,1.572,2.888,3.114,4.653,4.369c-0.108,0.054-0.234,0.058-0.33,0.138  c-0.501,0.416-0.703,1.09-0.51,1.71c0.018,0.054,1.122,3.04,4.082,5.617c-4.668,0.228-10.003-1.558-12.142-2.38  c-0.339-0.15-0.691-0.291-1.053-0.425c-0.811-0.299-1.706,0.113-2.028,0.907c-0.11,0.274-0.113,0.556-0.071,0.829  c-4.79,0.224-12.113,1.646-17.871,7.521c-3.11,3.179-5.118,5.646-6.728,7.63c-2.891,3.558-4.213,5.18-8.258,6.532  c-0.616,0.204-1.046,0.761-1.088,1.41c-0.044,0.649,0.31,1.257,0.895,1.539c0.164,0.079,9.667,4.594,20.705,4.594  c6.974,0,14.558-1.813,20.79-7.673c0.166,0.179,0.301,0.39,0.544,0.48c0.183,0.066,0.371,0.099,0.555,0.099  c0.593,0,1.156-0.333,1.433-0.89c4.612-9.335,10.97-12.692,14.671-13.895c-3.299,4.2-4.75,8.168-4.831,8.403  c-0.237,0.679,0.01,1.436,0.606,1.843s1.391,0.366,1.939-0.104c2.409-2.051,8.275-4.693,13.249-6.723  c-3.008,4.12-4.313,8.491-4.588,9.498c-1.047,1.681-1.95,3.619-2.726,5.629c-9.717,0.351-27.849,17.853-45.619,35.806  c-2.157,2.18-4.1,4.14-5.743,5.758c-0.19,0.188-0.387,0.362-0.589,0.541c-2.313,2.047-4.134,4.439-2.935,13.068  c1.478,10.617,15.523,10.593,20.132,10.563h0.489c1.702,0,8.561,2.421,15.192,4.759c8.798,3.108,18.769,6.624,25.387,7.859  c3.058,0.574,5.931,1.086,8.579,1.556c7.564,1.348,13.538,2.418,16.266,3.544c2.919,1.206,7.834,10.897,9.686,14.546l0.691,1.356  c1.689,3.254,2.014,7.31,0.846,10.577c-0.853,2.388-0.691,4.681,0.445,6.295c0.809,1.144,2.051,1.831,3.322,1.831  c2.599,0,4.178-1.332,5.118-4.31c0.643-2.035,0.643-2.035,3.944-6.028l0.957-1.161c4.81-5.828,0.726-15.972-1.238-20.849  l-0.242-0.599c-0.792-1.985,0.025-4.414,0.973-7.223c0.801-2.371,1.626-4.822,1.626-7.447c0-1.323-0.487-2.484-1.408-3.362  c-2.671-2.534-8.375-2.226-13.884-1.943c-1.471,0.079-2.865,0.155-4.058,0.155c-5.962,0-18.19-7.988-30.014-15.714  c-4.437-2.9-9.247-4.377-13.752-5.043c17.908-6.13,35.383-16.947,38.743-19.081c2.622,2.986,6.122,5.357,10.622,6.983  c-0.501,0.499-0.957,1.098-1.278,1.805c-0.59,1.306-0.604,2.759-0.038,4.206c0.351,0.897,0.868,1.602,1.457,2.193  c-1.024,3.583-0.02,5.561,1.034,6.606c-1.15,3.567-0.154,5.665,0.934,6.783c1.142,1.17,2.728,1.668,4.125,1.668  c0.184,0,0.334-0.057,0.51-0.074c0.476,1.459,1.14,2.888,2.257,4.159l0.348,0.391c4.824,5.487,12.896,14.67,13.848,18.955  c0.179,0.799,0.93,1.314,1.727,1.244c0.807-0.083,1.423-0.761,1.431-1.572c0.002-0.237,0.035-3.927-0.134-7.689  c3.544,5.75,5.991,11.454,6.81,13.46c0.099,0.27,0.21,0.545,0.329,0.82c0.26,0.604,0.849,0.966,1.466,0.966  c0.2,0,0.404-0.038,0.601-0.117c0.267-0.109,0.469-0.296,0.634-0.509c3.448,3.335,9.503,7.691,17.728,7.855  c4.441,0.071,7.62-0.146,10.171-0.329c4.57-0.337,6.655-0.487,10.41,1.532c0.237,0.129,0.498,0.191,0.757,0.191  c0.364,0,0.724-0.125,1.017-0.366c0.501-0.412,0.701-1.09,0.508-1.706c-0.09-0.283-8.65-26.692-30.685-28.074  c0.022-0.252,0.081-0.503-0.024-0.75c-0.318-0.757-1.152-1.156-1.937-0.907c-5.452,1.668-10.194-0.075-13.961-2.867  c4.874-0.303,8.257-1.981,8.434-2.068c0.632-0.32,0.98-1.02,0.851-1.714c-0.127-0.698-0.698-1.227-1.405-1.302  c-7.142-0.753-18.034-7.277-18.142-7.343c-0.043-0.025-0.095-0.01-0.14-0.031c0.021-0.024,0.041-0.051,0.06-0.076  c0.611,0.057,1.213,0.086,1.791,0.086c1.354,0,2.592-0.141,3.593-0.353c0.668-0.141,1.171-0.691,1.255-1.365  c0.085-0.679-0.268-1.332-0.879-1.635c-2.178-1.071-4.064-2.519-5.707-4.116c1.967-2.388,1.783-5.993,0.966-9.178  c0.716-0.296,1.688-0.759,2.86-1.425c14.127,17.779,45.855,24.849,66.955,29.535c4.921,1.09,9.172,2.035,12.238,2.921  c0.254,0.075,0.501,0.162,0.755,0.249c1.005,0.35,2.016,0.628,3.193,0.628c2.242,0,5.09-1.011,9.642-4.465  c8.542-6.49,1.629-18.714-0.644-22.729l-0.237-0.425c-0.832-1.481-2.078-8.646-3.283-15.573c-1.6-9.195-3.412-19.613-5.575-25.991  c-1.003-2.963-1.966-5.729-2.852-8.275c-2.521-7.243-4.512-12.96-4.86-15.889c-0.376-3.128,5.663-12.157,7.936-15.552l0.849-1.278  c2.018-3.071,5.393-5.334,8.81-5.912c2.5-0.428,4.423-1.694,5.271-3.478C368.953,198.407,368.943,196.992,368.321,195.886z   M365.468,198.298c-0.188,0.391-0.849,1.344-2.923,1.697c-4.263,0.724-8.456,3.524-10.946,7.31l-0.834,1.257  c-4.34,6.486-8.928,13.738-8.455,17.711c0.391,3.266,2.332,8.841,5.015,16.555c0.886,2.542,1.845,5.301,2.846,8.25  c2.082,6.145,3.871,16.434,5.45,25.513c1.624,9.345,2.596,14.724,3.645,16.593l0.244,0.433c3.356,5.929,7.158,14.308,1.494,18.61  c-6.141,4.664-8.023,4.002-9.853,3.366c-0.306-0.108-0.609-0.212-0.919-0.303c-3.16-0.915-7.458-1.868-12.431-2.97  c-19.319-4.287-51.407-11.441-64.958-28.182c2.584-1.903,5.33-4.61,7.116-8.456c1.739-3.747,2.275-7.927,1.625-12.487  c7.386,1.713,22.949,5.811,27.185,9.184c0.289,0.228,0.641,0.345,0.994,0.345c0.245,0,0.493-0.058,0.722-0.171  c0.555-0.282,0.898-0.861,0.874-1.485c-0.007-0.182-0.052-1.046-0.168-2.316c4.46,2.44,15.186,8.872,23.921,18.601  c2.176,3.095,4.004,4.959,4.202,5.159c0.589,0.59,1.535,0.637,2.169,0.087c0.634-0.541,0.745-1.481,0.252-2.155  c-1.267-1.735-2.609-3.391-3.998-4.959c-3.445-4.926-7.865-13.188-7.237-22.529c1.206-17.895,1.762-30.044-1.386-35.647  c-0.609-1.081-1.386-2.313-2.205-3.607c-2.223-3.516-5.269-8.33-4.704-10.563c0.098-0.387,0.308-0.649,0.705-0.87  c1.833-1.032,4.115-1.46,6.322-1.876c3.236-0.611,6.586-1.24,8.669-3.819l0.409-0.508c2.904-3.616,8.93-11.171,14.511-10.143  l1.431,0.258c5.431,0.99,5.756,1.053,8.457,0.482c2.136-0.454,2.425,0.075,2.827,0.79  C365.619,197.6,365.651,197.912,365.468,198.298z M310.301,346.185c-2.484,0.183-5.567,0.408-9.875,0.32  c-11.423-0.228-18.377-10.131-18.445-10.231c-0.01-0.014-0.026-0.022-0.036-0.036c-0.231-5.528,4.019-9.802,7.029-12.111  c17.482-1.159,26.665,15.148,29.868,22.436C316.084,345.764,313.668,345.935,310.301,346.185z M279.239,332.193  c-2.837-5.609-7.181-12.881-12.523-17.657c-0.813-0.727-1.496-1.45-2.179-2.172c1.939,0.589,3.572,0.796,4.296,0.852  c3.629,4.456,9.213,9.427,16.352,9.899C282.627,325.47,280.249,328.574,279.239,332.193z M250.631,304.813  c0.497,0.098,0.994,0.162,1.471,0.162c0.177,0,0.331-0.028,0.501-0.039c-0.107,1.153-0.078,2.395,0.043,3.656  c-0.548-0.034-1.219-0.216-1.677-0.683C250.234,307.158,250.337,305.915,250.631,304.813z M253.159,301.645  c-0.815,0.209-2.376,0.217-3.144-0.522c-0.681-0.651-0.602-1.87-0.359-2.947c0.141,0.013,0.27,0.068,0.415,0.068  c0.002,0,0.004,0,0.004,0c1.877-0.003,3.631-1.145,4.588-2.805c0.023,0.009,0.046,0.018,0.07,0.025c0.002,0.007,0,0.013,0.003,0.02  c0.277,0.789,0.617,1.497,0.991,2.155c-0.727-0.083-1.408,0.31-1.677,0.982C253.993,298.761,253.555,299.957,253.159,301.645z   M179.7,304.713c2.348-0.212,4.782-0.607,7.262-1.149c5.987-0.479,14.809-0.059,22.251,4.797  c15.009,9.811,25.33,16.238,31.762,16.238c1.244,0,2.696-0.075,4.227-0.158c4.154-0.212,9.839-0.516,11.517,1.074  c0.289,0.275,0.412,0.583,0.412,1.041c0,2.101-0.74,4.298-1.459,6.424c-1.055,3.125-2.145,6.357-0.914,9.436l0.244,0.604  c1.732,4.306,5.338,13.26,1.739,17.624l-0.954,1.152c-3.49,4.223-3.699,4.477-4.529,7.102c-0.658,2.08-1.25,2.08-2.072,2.08  c-0.172,0-0.462-0.125-0.71-0.474c-0.252-0.358-0.757-1.398-0.05-3.382c1.457-4.073,1.065-9.103-1.017-13.122l-0.679-1.327  c-3.534-6.965-7.614-14.525-11.313-16.055c-3.048-1.26-8.871-2.296-16.929-3.736c-2.639-0.47-5.502-0.982-8.552-1.548  c-6.376-1.194-16.222-4.668-24.909-7.734c-8.947-3.158-14.112-4.942-16.257-4.942h-0.499c-6.817-0.045-15.979-0.766-16.957-7.809  c-1.06-7.63,0.437-8.953,1.887-10.234c0.244-0.216,0.484-0.428,0.714-0.653c1.652-1.626,3.603-3.598,5.771-5.792  c11.47-11.587,32.306-32.616,42.175-34.685c-1.856,5.908-2.669,11.464-2.719,11.819c-0.085,0.59,0.169,1.182,0.655,1.527  c0.275,0.195,0.599,0.296,0.926,0.296c0.249,0,0.499-0.058,0.73-0.174c17.176-8.823,26.307-9.25,29.301-9.059  c-0.35,4.073-0.015,8.743,2.076,13.116c0.339,0.708,0.811,1.324,1.224,1.981c-4.206,2.637-27.541,16.893-47.414,21.372  c-4.291,0.353-7.223,1.149-7.513,1.227c-0.797,0.221-1.292,1.015-1.142,1.826C178.133,304.226,178.89,304.783,179.7,304.713z   M185.62,243.931c-0.087-3.358-0.83-6.969-2.773-9.964c3.332,0.653,7.142,0.916,10.349-0.158l0.008-0.004  c1.306,0.514,2.845,0.83,4.551,0.982C194.438,235.972,189.805,238.473,185.62,243.931z M151.62,247.385  c1.568-1.93,3.524-4.335,6.53-7.405c7.992-8.163,19.967-6.436,20.095-6.42c0.013,0.002,0.025-0.003,0.04-0.001  c4.189,3.622,4.393,9.649,4.01,13.423c-11.129,13.537-29.311,9.034-36.812,6.361C147.962,251.886,149.492,250.006,151.62,247.385z   M309.24,178.965c4.483,10.509-1.689,20.919-1.751,21.023c-0.008,0.012-0.007,0.025-0.013,0.038  c-4.941,2.481-10.59,0.367-13.934-1.43c-8.258-15.459,2.859-30.531,8.191-36.448c0.399,2.85,1.554,4.984,3.16,7.95  C306.078,172.287,307.553,175.012,309.24,178.965z M294.173,202.467c3.135,1.34,6.855,2.23,10.483,1.727  c-3.567,4.529-7.552,10.89-8.629,17.72c-3.59,3.069-6.617,5.401-8.277,6.645c-0.052-0.081-0.115-0.148-0.169-0.226  C289.284,226.141,298.368,213.697,294.173,202.467z M259.524,305.543c-1.434-2.676-2.044-4.769-2.263-5.786  c1.473,1.61,3.275,2.669,5.155,3.317L259.524,305.543z M264.068,305.865c0.022,0.064-0.004,0.134,0.025,0.195  c0.026,0.054,0.734,1.469,2.02,3.439c-1.29-0.34-2.799-0.884-4.228-1.773L264.068,305.865z M264.585,316.916  c1.602,1.436,3.121,3.133,4.531,4.956c0.002,0.05,0.009,0.104,0.017,0.154c0.264,1.581,0.414,3.857,0.498,6.054  c-2.764-4.07-6.915-8.899-11.308-13.9l-0.348-0.395c-2.124-2.413-2.44-5.704-2.188-8.488  C257.262,308.532,259.902,312.73,264.585,316.916z M256.085,292.585c-1.294-0.303-2.223-1.544-2.775-2.534  c-1.483-2.657-0.479-4.764-0.021-5.504c0.593,0.105,1.194,0.17,1.8,0.211c0.526,1.415,1.679,4.145,3.593,7.241  C257.743,292.501,256.857,292.76,256.085,292.585z M263.1,214.437c1.225,0.029,2.636,0.828,3.715,2.059  c-0.447,0.553-1.18,1.182-2.167,0.999c-4.437-0.803-5.769,3.537-6.206,4.963c-0.456,1.479-2.226,4.813-3.663,6.315  c-0.985-0.444-2.028-0.767-3.134-0.895c1.645-2.318,4.682-6.473,8.675-11.852C261.133,214.933,262.184,214.35,263.1,214.437z   M254.186,231.999c1.441,0.919,2.653,2.463,4.052,4.252c0.874,1.118,1.886,2.324,3.011,3.507c-2.343-1.195-3.641-2.498-3.665-2.52  c-0.011-0.011-0.028-0.008-0.039-0.019s-0.006-0.029-0.018-0.04c-3.861-3.736-7.788-4.726-11.679-2.916  c-1.335,0.616-2.617,0.524-3.308,0.258c-0.397-0.15-0.538-0.324-0.55-0.341c0-0.05,0.071-0.254,0.364-0.566  C244.159,231.712,250.528,229.677,254.186,231.999z M243.036,229.369c2.257-2.261,4.617-5.036,6.698-7.581l0.418-0.508  c0.61-0.739,1.685-0.211,2.226,0.131c-2.247,3.072-4.074,5.62-4.674,6.581C246.026,228.247,244.408,228.722,243.036,229.369z   M264.808,230.875c2.52,0.574,3.85,1.268,4.533,1.976c-2.355-0.385-5.737-0.373-8.397,1.667c-0.062-0.079-0.128-0.158-0.191-0.236  c-1.07-1.372-2.159-2.599-3.346-3.681c0.597-0.682,1.162-1.468,1.679-2.298C260.205,229.024,262.47,230.346,264.808,230.875z   M260.628,225.493c0.412-0.866,0.723-1.622,0.867-2.094c0.794-2.583,1.481-2.963,2.582-2.759c0.137,0.024,0.259,0.012,0.392,0.026  c1.111,4.114,4.458,5.832,6.964,7.084c1.351,0.674,2.625,1.311,2.883,1.997c0.31,0.828-0.508,1.81-1.495,2.604  c-0.888-2.151-3.332-3.687-7.306-4.589C263.51,227.308,261.452,226.04,260.628,225.493z M237.346,245.421  c2.834-1.931,5.375-2.801,7.593-2.658c5.473,0.395,9.471-1.352,11.315-2.421c1.854,1.535,6.201,4.435,12.715,4.552  c1.095,0.607,4.787,2.82,6.898,5.995c0.052,0.836,0.079,1.677,0.079,2.529c0,15.564-8.839,28.225-19.704,28.225  s-19.704-12.661-19.704-28.225C236.536,250.697,236.809,248.013,237.346,245.421z M276.811,246.996  c-2.169-2.34-4.674-3.964-5.92-4.683c1.462-0.305,3.009-0.811,4.454-1.609C277.036,242.807,277.132,245.197,276.811,246.996z   M275.388,236.804c-2.923,2.731-8.055,2.819-9.537,2.785c-1.067-0.798-2.022-1.675-2.867-2.624c3.016-2.184,7.957-0.444,8.01-0.424  c0.162,0.061,0.327,0.071,0.491,0.077c0.023,0.001,0.043,0.022,0.067,0.022c0.01,0,0.02-0.007,0.03-0.007  c0.225-0.004,0.444-0.051,0.644-0.145c0.004-0.002,0.009-0.001,0.009-0.001c1.485-0.706,3.416-2.044,4.507-3.754  C276.989,233.92,276.864,235.426,275.388,236.804z M276.307,227.128c-0.893-0.926-2.131-1.58-3.446-2.236  c-2.217-1.106-4.433-2.314-5.227-4.95c0.862-0.53,1.537-1.237,2.009-1.917c1.532,0.115,4.761,0.644,6.281,2.815  C276.957,222.32,277.055,224.45,276.307,227.128z M254.268,218.836c-1.596-1.088-4.511-2.091-6.583,0.415l-0.423,0.516  c-1.955,2.388-7.901,9.653-10.886,10.867c-0.034,0.014-0.056,0.043-0.089,0.06c-0.544-0.14-1.023-0.328-1.355-0.591  c-0.252-0.2-0.372-0.408-0.404-0.691c-0.15-1.389,0.468-1.997,2.968-3.79c1.897-1.361,4.498-3.224,6.973-6.528  c3.81-5.078,8.576-5.985,11.457-2.507C255.373,217.336,254.818,218.089,254.268,218.836z M240.157,217.347  c-4.993-0.683-9.583,0.983-12.412,4.654c-1.174,1.526-1.849,3.258-2.168,5.027c-0.192,0.079-0.409,0.083-0.565,0.239  c-0.401,0.408-0.824,0.924-1.246,1.494c-2.803-1.1-10.389-3.731-16.911-2.846c-7.541,1.021-13.11,0.024-16.356-0.92  c3.474-1.118,6.036-6.14,8.511-11.008c0.668-1.314,1.3-2.559,1.895-3.595c2.973-5.155,16.003-11.762,28.606-18.153  c5.302-2.688,9.29-6.678,12.23-10.705C239.449,195.981,239.896,211.752,240.157,217.347z M225.729,231.571  c0.188,0.743,0.373,1.49,0.724,2.193c0.214,0.427,0.488,0.74,0.736,1.101c-0.916,0.915-2.207,2.452-3.063,4.477  C223.399,236.214,224.594,233.387,225.729,231.571z M224.203,247.592c0.564,1.337,1.273,2.46,2.082,3.38  c-1.261,3.75-2.072,7.187-2.438,10.271c-1.235,0.223-2.61,0.529-4.127,0.93C220.553,256.697,222.71,251.045,224.203,247.592z   M227.16,260.778c0.329-2.3,0.926-4.82,1.782-7.542c1.28,0.787,2.595,1.271,3.765,1.529c-0.488,1.407-1.092,3.498-1.527,5.939  C230.269,260.631,228.93,260.615,227.16,260.778z M220.782,247.464c-1.656,3.978-3.753,9.931-4.39,15.682  c-1.303,0.417-2.693,0.904-4.169,1.463c1.227-7.157,4.452-14.386,4.631-14.783C218.453,249.063,219.746,248.254,220.782,247.464z   M209.641,248.982c1.233-3.15,3.929-8.438,8.733-11.03c1.364,0.62,2.099,1.108,2.116,1.12c0.105,0.079,0.234,0.067,0.35,0.117  c0.138,0.922,0.407,1.858,0.802,2.801C221.102,242.914,218.344,246.873,209.641,248.982z M233.44,251.6  c-1.889-0.395-5.105-1.635-6.577-5.891c-0.733-2.122-0.341-4.032,0.39-5.558c0.242,3.215,1.553,6.327,4.945,7.328  c0.364,1.184,0.847,2.129,1.288,2.616c0.01,0.011,0.024,0.014,0.035,0.025C233.483,250.611,233.461,251.105,233.44,251.6z   M230.504,237.689c0.872,0.391,1.774,0.68,2.707,0.788c-0.578,0.861-0.945,1.727-1.173,2.509c-0.238,0.818-0.34,1.649-0.37,2.464  C230.479,241.994,230.367,239.517,230.504,237.689z M229.312,232.332c-1.333-2.663-0.963-5.875,0.966-8.38  c1.95-2.536,5.089-3.708,8.59-3.468c-1.15,1.028-2.257,1.839-3.232,2.541c-2.392,1.714-4.653,3.337-4.281,6.735  c0.122,1.128,0.672,2.11,1.589,2.841c1.571,1.252,4.018,1.556,5.889,1.593c0.001,0.085,0.022,0.162,0.03,0.245  c-0.449,0.16-0.94,0.302-1.335,0.484C235.049,235.61,231.128,235.977,229.312,232.332z M235.145,241.755  c0.514-1.631,1.673-2.904,3.455-3.798c0.797-0.228,1.479-0.513,2.109-0.799c1.705,0.983,4.228,1.049,6.485,0  c1.404-0.654,3.526-1.151,6.442,0.93c-1.738,0.819-4.657,1.785-8.458,1.486c-3.106-0.2-6.532,0.978-10.191,3.598  c-0.035,0.025-0.036,0.077-0.07,0.105C234.956,242.775,234.983,242.269,235.145,241.755z M258.502,284.681  c1.389-0.188,2.737-0.567,4.042-1.081c1.306,2.556,3.073,7.99,1.575,10.516C261.239,290.611,259.422,286.875,258.502,284.681z   M278.18,262.37c0.854,4.436,0.506,8.44-1.108,11.937c-2.74,5.931-8.349,8.908-10.751,9.959c-0.322-0.823-0.63-1.518-0.91-2.078  C271.529,278.503,276.25,271.259,278.18,262.37z M279.096,254.622c0.011-0.403,0.044-0.798,0.044-1.204  c0-0.17-0.017-0.334-0.018-0.504c0.979-0.126,2.308-0.408,3.661-1.069c1.19,3.253,1.999,6.243,2.424,8.935  c-2.249-0.553-3.84-0.913-4.344-1.025c-0.42-1.61-0.949-3.253-1.644-4.946C279.19,254.735,279.134,254.686,279.096,254.622z   M279.095,240.656c-0.308-0.634-0.728-1.251-1.215-1.866c0.548-0.569,0.973-1.155,1.293-1.75c0.042-0.001,0.083-0.003,0.125-0.007  c0.608-0.061,1.142-0.154,1.618-0.279c0.333,0.537,0.728,1.373,0.917,2.368c-0.423,0.45-0.712,0.99-0.906,1.511  c-0.843,0.55-1.44,0.195-1.568,0.104C279.283,240.674,279.179,240.703,279.095,240.656z M292.683,262.744  c-1.44-0.405-2.826-0.778-4.125-1.117c-0.408-3.481-1.437-7.427-3.089-11.762c0.785-0.818,1.605-1.912,2.282-3.128  C289.278,250.155,291.858,256.608,292.683,262.744z M289.084,241.897c0.058-0.079,0.149-0.124,0.193-0.216  c0.375-0.78,0.507-1.453,0.534-2.077c2.955,3.874,8.249,12.469,10.268,25.401c-1.332-0.448-2.698-0.881-4.063-1.292  c-0.916-9.773-6.351-20.448-6.582-20.897c-0.079-0.156-0.194-0.276-0.312-0.392C289.127,242.243,289.099,242.072,289.084,241.897z   M303.556,266.255c-2.324-18.129-10.905-28.516-13.041-30.852c0.171-0.032,0.356-0.03,0.525-0.066  c12.689,6.759,16.028,25.415,16.861,32.791C306.641,267.493,305.153,266.868,303.556,266.255z M289.143,232.324  c-0.036-0.243-0.085-0.479-0.138-0.713c2.679-1.966,11.831-8.887,19.977-17.511C305.149,221.641,298.503,231.053,289.143,232.324z   M286.066,234.083c-0.002,0.038,0.004,0.058,0.003,0.096c0,0.011-0.006,0.021-0.006,0.033c0,0.012,0.007,0.022,0.008,0.033  c-0.063,1.809,0.189,3.052,0.383,3.953c0.032,0.149,0.053,0.258,0.077,0.382c-0.621-0.215-1.158-0.322-1.652-0.381  c-0.321-1.383-0.856-2.5-1.314-3.222c0.768-1.146,1.05-2.778,1.269-4.937C285.577,231.047,286.143,232.406,286.066,234.083z   M283.753,241.868c0.077-0.171,0.209-0.462,0.279-0.516c-0.002-0.004,0.345-0.154,1.5,0.258c0.303,0.108,0.348,0.221,0.383,0.395  c0.289,1.398-1.473,4.51-3.064,5.978c-1.052,0.97-2.367,1.421-3.405,1.636c0.433-1.298,0.873-3.324,0.642-5.554  c0.802-0.003,1.672-0.162,2.593-0.764C283.283,242.907,283.553,242.309,283.753,241.868z M281.778,228.492  c-0.392,4.179-0.484,4.945-1.75,5.214c-0.002-1.613-0.509-3.098-1.108-4.165c0.999-2.762,1.235-5.149,0.871-7.223  c0.468,0.194,0.931,0.445,1.305,0.857c0.722,0.794,1.006,2.005,0.849,3.591L281.778,228.492z M207.284,229.087  c5.366-0.738,11.933,1.383,14.839,2.47c-0.578,1.227-1.006,2.594-1.226,4.06c-2.769-1.446-9.464-4.086-21.144-3.853  c-4.707,0.195-7.715-1.681-9.468-3.487C193.943,229.258,199.705,230.106,207.284,229.087z M206.236,235.158  c2.878,0.237,5.293,0.649,7.257,1.146c-3.647,1.395-9.159,3.616-13.452,5.842C201.433,239.925,203.471,237.323,206.236,235.158z   M212.732,251.432c-1.32,3.362-3.26,9.034-3.926,14.551c-1.873,0.789-3.84,1.665-5.961,2.696c0.804-4.086,2.549-11.324,5.429-16.15  C209.909,252.217,211.395,251.849,212.732,251.432z M235.719,275.639c-2.175-4.536-2.134-9.592-1.494-13.675  c2.173,10.519,8.236,18.791,15.922,21.709c-0.297,0.625-0.568,1.427-0.712,2.375C242.741,284.014,238.074,280.557,235.719,275.639z   M248.203,291.682c0.313-0.703,1.012-1.248,1.643-1.631c0.178,0.508,0.374,1.022,0.673,1.557c0.447,0.801,0.967,1.457,1.517,2.04  c-0.348,0.796-1.163,1.396-1.962,1.4h-0.002c-0.986,0-1.544-0.898-1.839-1.652C247.978,292.747,247.968,292.202,248.203,291.682z   M272.985,313.167c-1.114-1.182-2.089-2.392-2.909-3.516c2.322,1.156,5.158,2.442,8.001,3.412  C276.576,313.275,274.849,313.363,272.985,313.167z M258.282,295.626c0.686-0.168,1.432-0.471,2.232-0.938  c1.547,2.09,3.399,4.182,5.671,5.981C263.374,300.357,260.064,299.154,258.282,295.626z M154.628,192.37  c0.178-0.015,0.508,0.017,0.907,0.146c0.552,0.18,1.254,0.57,2.046,1.502c1.206,1.419,2.776,2.574,4.489,3.51  c0.099,0.054,0.189,0.122,0.289,0.175c2.191,1.142,4.633,1.877,7.096,1.985l1.469,0.075c7.811,0.42,16.403,0.662,19.582-1.785  c2.615-2.009,6.424-6.536,11.693-12.802c1.725-2.051,3.597-4.273,5.612-6.627c4.215-4.926,12.138-11.72,19.128-17.711  c7.21-6.178,11.341-9.764,12.413-11.625l0.249-0.437c3.384-5.908,8.638-13.476,15.236-10.784c7.137,2.891,7.537,4.851,7.924,6.744  c0.064,0.32,0.131,0.637,0.212,0.949c0.932,3.578,2.415,8.067,4.131,13.263c5.483,16.596,13.604,41.236,10.071,58.578  c-2.564-2.195-6.083-2.611-7.642-2.69c-1.421-1.798-3.657-3.528-6.353-3.594c-1.485-0.012-3.523,0.437-5.311,2.755  c-1.707-1.792-3.842-2.814-6.174-2.814c-2.113,0-5.18,0.8-8.406,4.332c-0.286-8.307-0.479-28.934,3.802-43.496  c1.259-2.966,1.816-5.064,1.878-5.309c0.209-0.811-0.244-1.643-1.034-1.913c-0.792-0.245-1.652,0.117-1.983,0.886  c-0.68,1.589-1.283,3.29-1.822,5.08c-2.338,5.459-7.247,14.154-16.064,18.626c-15.998,8.109-26.723,13.842-29.929,19.405  c-0.622,1.078-1.281,2.376-1.978,3.744c-1.882,3.706-4.462,8.782-6.676,9.436c-0.378,0.117-0.71,0.066-1.109-0.162  c-1.821-1.048-3.356-2.787-4.841-4.472c-2.18-2.475-4.433-5.031-7.713-5.501l-0.637-0.092c-4.596-0.644-14.161-1.993-16.145-7.297  l-0.52-1.389c-1.918-5.142-2.033-5.45-3.894-7.485c-1.361-1.483-1.201-2.036-0.847-2.671c0.029-0.053,0.049-0.104,0.079-0.158  C153.945,192.599,154.199,192.411,154.628,192.37z"/>
<g>
</g>
<g>
</g>
<g>
</g>
<g>
</g>
<g>
</g>
<g>
</g>
<g>
</g>
<g>
</g>
<g>
</g>
<g>
</g>
<g>
</g>
<g>
</g>
<g>
</g>
<g>
</g>
<g>
</g>
</svg>
