<?xml version="1.0" encoding="iso-8859-1"?>
<!-- Generator: Adobe Illustrator 19.0.0, SVG Export Plug-In . SVG Version: 6.00 Build 0)  -->
<svg xmlns="http://www.w3.org/2000/svg" xmlns:xlink="http://www.w3.org/1999/xlink" version="1.1" id="Layer_1" x="0px" y="0px" viewBox="0 0 512 512" style="enable-background:new 0 0 512 512;" xml:space="preserve">
<path style="fill:#73AF00;" d="M503.172,423.724H8.828c-4.875,0-8.828-3.953-8.828-8.828v-79.448h512v79.448  C512,419.772,508.047,423.724,503.172,423.724z"/>
<path style="fill:#FF4B55;" d="M503.172,88.276H8.828C3.953,88.276,0,92.229,0,97.104v238.344h512V97.104  C512,92.229,508.047,88.276,503.172,88.276z"/>
<path style="fill:#F5F5F5;" d="M70.621,423.724H8.828c-4.875,0-8.828-3.953-8.828-8.828V97.104c0-4.875,3.953-8.828,8.828-8.828  h61.793V423.724z"/>
<path style="fill:#FF4B55;" d="M8.833,409.063h3.122v-8.75H8.833V409.063z M33.751,409.063h3.123v-8.75h-3.123V409.063z   M58.685,409.063h3.108v-8.75h-3.108V409.063z M21.308,385.603h3.091v-7.292h-3.091V385.603z M46.241,385.603h3.108v-7.292h-3.108  V385.603z M8.833,366.581h3.122v-8.75H8.833V366.581z M33.751,366.581h3.123v-8.75h-3.123V366.581z M58.685,366.581h3.108v-8.75  h-3.108V366.581z M15.094,378.311h3.091v-7.357h3.123v-7.292h3.091v7.292h3.139v7.357h3.091v7.292h-3.091v7.354h-3.139v7.354h-3.091  v-7.354h-3.123v-7.354h-3.091V378.311z M40.013,378.311h3.122v-7.357h3.107v-7.292h3.108v7.292h3.107v7.357h3.122v7.292h-3.122  v7.354H49.35v7.354h-3.108v-7.354h-3.107v-7.354h-3.122V378.311z M46.241,349.017v7.292h-3.137v7.354h-3.091v7.292h-3.139v7.357  h-3.123v-7.357h-3.123v-7.292h-3.091v-7.354h-3.139v-7.292h-3.091v7.292h-3.123v7.354h-3.091v7.292h-3.139v7.357H8.833v7.292h3.122  v7.354h3.139v7.354h3.091v7.292h3.123v7.293h3.123v-7.293h3.107v-7.292h3.091v-7.354h3.123v-7.354h3.123v7.354h3.139v7.354h3.122  v7.292h3.107v7.293h3.108v-7.293h3.107v-7.292h3.122v-7.354h3.123v-7.354h3.091v-7.292h-3.108v-7.357H55.58v-7.292h-3.122v-7.354  h-3.107v-7.292H46.241L46.241,349.017z M53.961,341.727h1.554v-2.916h1.569v2.916h1.569v2.915h-1.569v2.98h-1.569v-2.98h-1.554  V341.727z M53.961,331.517v4.313h-1.537v4.438h-1.569v5.834h1.569v4.374h1.537v4.374h4.693v-4.374h1.554v-4.374h1.537v-5.834h-1.537  v-4.438h-1.554v-4.313H53.961z M11.955,341.662h1.569v-2.915h1.569v2.915h1.521v2.98h-1.521v2.916h-1.569v-2.916h-1.569V341.662z   M11.955,331.453v4.376h-1.554v4.374H8.833v5.897h1.568v4.374h1.554v4.374h4.66v-4.374h1.569V346.1h1.523v-5.897h-1.523v-4.374  h-1.569v-4.376H11.955z M29.09,341.662h1.537v-2.915h1.586v2.915h1.537v2.98h-1.537v2.916h-1.586v-2.916H29.09V341.662z   M36.874,341.662h1.569v-2.915h1.569v2.915h1.537v2.98h-1.537v2.916h-1.569v-2.916h-1.569V341.662z M36.874,331.453v4.376h-3.123  v-4.376h-4.66v4.376h-1.554v4.374h-1.569v5.897h1.569v4.374h1.554v4.374h4.66v-4.374h3.123v4.374h4.676v-4.374h1.585V346.1h1.523  v-5.897h-1.523v-4.374H41.55v-4.376H36.874z M8.833,328.473h3.122v-8.749H8.833V328.473z M33.751,328.473h3.123v-8.749h-3.123  V328.473z M58.685,328.473h3.108v-8.749h-3.108V328.473z M8.833,291.887h3.122v-5.832H8.833V291.887z M58.685,291.887h3.108v-5.832  h-3.108V291.887z M33.751,271.407h3.123v-7.292h-3.123V271.407z M8.833,251.626V256v0.063v4.374h3.122v-4.374V256v-4.374H8.833z   M25.967,251.626V256v0.063v4.374h3.123v-4.374V256v-4.374H25.967z M41.55,251.626V256v0.063v4.374h3.107v-4.374V256v-4.374H41.55z   M58.685,251.626V256v0.063v4.374h3.108v-4.374V256v-4.374H58.685z M38.443,246.491v2.916h-1.569v2.219h-3.123v-2.219h-1.537v-2.916  h-3.123v4.374h1.537v2.219h1.586V256v0.063v2.854h-1.586v2.219h-1.537v4.374h3.123v-2.915h1.537v-2.157h3.123v2.157h1.569v2.915  h3.107v-4.374h-1.537v-2.219h-1.569v-2.854V256v-2.916h1.569v-2.219h1.537v-4.374L38.443,246.491L38.443,246.491z M33.751,247.947  h3.123v-7.292h-3.123V247.947z M8.833,226.008h3.122v-5.832H8.833V226.008z M58.685,226.008h3.108v-5.832h-3.108V226.008z   M8.833,192.34h3.122v-8.812H8.833V192.34z M33.751,192.34h3.123v-8.812h-3.123V192.34z M58.685,192.34h3.108v-8.812h-3.108V192.34z   M21.308,256.127v-0.19l0,0v-2.854h3.091v-5.073h3.139v-5.897h4.676v-6.91h1.537v-3.361h1.57h1.553v3.297h1.569v6.975h4.691v2.916  v2.98h3.107v5.073h3.108V256v2.916h-3.108v5.199h-3.107v2.916v2.916h-4.691v6.912h-1.569v3.297h-1.553h-1.57v-3.297h-1.537v-6.912  h-4.676v-5.834h-3.139v-5.199h-3.091V256.127z M46.241,174.714v7.354h-3.137v7.292h-3.091v7.357h-3.139v5.832v1.459h-3.123v-7.292  h-3.123v-7.357h-3.091v-7.292h-3.139v-7.354h-3.091v7.354h-3.123v7.292h-3.123v7.357h-3.107v5.832v1.459H8.833v7.354h3.122v7.354  h3.107v7.292h3.123v7.293h3.123v-7.293h3.091v-7.292h3.139v-7.354h-3.139v-8.814h3.139v1.459v4.438h3.091v11.731h1.586v7.228  l-4.676,0.063v5.834H24.4v4.374h-3.091v7.354h-3.123v-7.354h-3.123V233.3h-3.107v-4.376H8.833v13.188h3.122v5.897h3.107v5.073h3.123  V256v0.063v2.854h-3.123v5.199h-3.107v5.834H8.833v13.188h3.122v-4.439h3.107v-4.374h3.123v-7.292h3.123v7.292h3.091v4.374h3.139  v5.897l4.676,0.063v7.228h-1.586v11.731h-3.091v4.374v1.523h-3.139v-8.877h3.139v-7.292h-3.139v-7.292h-3.091v-7.357h-3.123v7.357  h-3.123v7.292h-3.107v7.292H8.833v7.354h3.122v1.523v5.769h3.139v7.357h3.091v7.354h3.123v7.292l0,0l0,0h3.091v-7.292h3.139v-7.354  h3.091v-7.357h3.123v-7.292h3.123v1.523v5.769h3.139v7.357h3.122v7.354h3.107v7.292h3.108v-7.292h3.107v-7.354h3.122v-7.357h3.106  v-7.292h3.107v-7.354h-3.108v-7.292h-3.106v-7.292h-3.122v-7.357H49.35v7.357h-3.108v7.292h-3.137v7.292h3.137v7.354v1.523h-3.137  v-1.523v-4.374h-3.091v-11.731h-0.445h-1.124v-7.292h1.124h0.841h1.141h1.585v-5.897h3.107v-4.374h3.108v-7.292h3.107v7.292h3.122  v4.374h3.123v4.439h3.091v-13.188h-3.092v-5.834h-3.123v-5.199h-3.122v-2.853V256v-2.916h3.122v-5.073h3.123v-5.897h3.092v-13.188  h-3.092v4.376h-3.123v4.374h-3.122v7.354H49.35v-7.354h-3.108v-4.374h-3.107v-5.834H41.55h-1.141h-0.841h-1.124v-7.292h1.124h0.445  v-11.731h3.091v-4.438v-1.459h3.137v1.459v7.354h-3.137v7.354h3.137v7.292h3.108v7.293h3.107v-7.293h3.122v-7.292h3.106v-7.354h3.11  v-7.354h-3.108v-7.292H55.58v-7.357h-3.122v-7.292h-3.107v-7.354h-3.11V174.714z M11.955,167.422h1.539v-2.916h1.6v2.916h1.521  v2.916h-1.521v2.98h-1.6v-2.98h-1.539V167.422z M11.955,161.525h-1.554v4.438H8.833v5.834h1.568v4.438h1.554v4.376h4.66v-4.376  h1.569v-4.438h1.523v-5.834h-1.523v-4.438h-1.569v-4.311h-4.66C11.955,157.214,11.955,161.525,11.955,161.525z M29.09,167.422h1.537  v-2.916h1.586v2.916h1.537v2.916h-1.537v2.98h-1.586v-2.98H29.09V167.422z M36.874,167.422h1.569v-2.916h1.569v2.916h1.537v2.916  h-1.537v2.98h-1.569v-2.98h-1.569V167.422z M29.09,161.525h-1.554v4.438h-1.569v5.834h1.569v4.438h1.554v4.376h4.66v-4.376h3.123  v4.376h4.676v-4.376h1.585v-4.438h1.523v-5.834h-1.523v-4.438h-1.585v-4.311h-4.676v4.311H33.75v-4.311h-4.66V161.525z   M53.961,167.359h1.554v-2.854h1.569v2.854h1.569v2.98h-1.569v2.915h-1.569v-2.915h-1.554V167.359z M53.961,157.151v4.374h-1.537  v4.438h-1.569v5.834h1.569v4.374h1.537v4.376h4.693v-4.376h1.554v-4.374h1.537v-5.834h-1.537v-4.438h-1.554v-4.374H53.961z   M8.833,154.234h3.122v-8.75H8.833V154.234z M33.751,154.234h3.123v-8.75h-3.123V154.234z M58.685,154.234h3.108v-8.75h-3.108  V154.234z M21.308,133.754h3.091v-7.357h-3.091V133.754z M46.241,133.754h3.108v-7.357h-3.108V133.754z M8.833,111.752h3.122v-8.75  H8.833V111.752z M33.751,111.752h3.123v-8.75h-3.123V111.752z M58.685,111.752h3.108v-8.75h-3.108V111.752z M15.094,126.398h3.091  v-7.292h3.123v-7.354h3.091v7.354h3.139v7.292h3.091v7.357h-3.091v7.292h-3.139v7.354h-3.091v-7.354h-3.123v-7.292h-3.091V126.398z   M40.013,126.398h3.122v-7.292h3.107v-7.354h3.108v7.354h3.107v7.292h3.122v7.357h-3.122v7.292H49.35v7.354h-3.108v-7.354h-3.107  v-7.292h-3.122V126.398z M46.241,97.104v7.357h-3.107v7.292h-3.122v7.354h-3.139v7.292H33.75v-7.292h-3.123v-7.354h-3.091v-7.292  H24.43v-7.357h-3.123v7.357h-3.123v7.292h-3.091v7.354h-3.139v7.292H8.833v7.357h3.122v7.292h3.139v7.354h3.091v7.354h3.123v7.292  h3.091v-7.292h3.139v-7.354h3.091v-7.354h3.123v-7.292h3.123v7.292h3.139v7.354h3.091v7.354h3.137v7.292h3.108v-7.292h3.107v-7.354  h3.122v-7.354h3.106v-7.292h3.108v-7.357h-3.092v-7.292h-3.123v-7.354h-3.122v-7.292h-3.107v-7.357  C49.349,97.104,46.241,97.104,46.241,97.104z"/>
<g>
</g>
<g>
</g>
<g>
</g>
<g>
</g>
<g>
</g>
<g>
</g>
<g>
</g>
<g>
</g>
<g>
</g>
<g>
</g>
<g>
</g>
<g>
</g>
<g>
</g>
<g>
</g>
<g>
</g>
</svg>
