<?xml version="1.0" encoding="iso-8859-1"?>
<!-- Generator: Adobe Illustrator 19.0.0, SVG Export Plug-In . SVG Version: 6.00 Build 0)  -->
<svg xmlns="http://www.w3.org/2000/svg" xmlns:xlink="http://www.w3.org/1999/xlink" version="1.1" id="Layer_1" x="0px" y="0px" viewBox="0 0 511.999 511.999" style="enable-background:new 0 0 511.999 511.999;" xml:space="preserve">
<path style="fill:#F5F5F5;" d="M211.862,423.724H8.828c-4.875,0-8.828-3.953-8.828-8.828V97.104c0-4.875,3.953-8.828,8.828-8.828  h203.034V423.724z"/>
<path style="fill:#FF4B55;" d="M141.241,88.277l70.621,20.965l-70.621,20.965l70.621,20.965l-70.621,20.965l70.621,20.965  l-70.621,20.965l70.621,20.965l-70.621,20.965l70.621,20.965l-70.621,20.965l70.621,20.965l-70.621,20.965l70.621,20.965  l-70.621,20.965l70.621,20.965l-70.621,20.965h361.93c4.875,0,8.828-3.953,8.828-8.828V97.104c0-4.875-3.953-8.828-8.828-8.828  h-361.93V88.277z"/>
<g>
</g>
<g>
</g>
<g>
</g>
<g>
</g>
<g>
</g>
<g>
</g>
<g>
</g>
<g>
</g>
<g>
</g>
<g>
</g>
<g>
</g>
<g>
</g>
<g>
</g>
<g>
</g>
<g>
</g>
</svg>
