<?xml version="1.0" encoding="iso-8859-1"?>
<!-- Generator: Adobe Illustrator 19.0.0, SVG Export Plug-In . SVG Version: 6.00 Build 0)  -->
<svg xmlns="http://www.w3.org/2000/svg" xmlns:xlink="http://www.w3.org/1999/xlink" version="1.1" id="Layer_1" x="0px" y="0px" viewBox="0 0 512.001 512.001" style="enable-background:new 0 0 512.001 512.001;" xml:space="preserve">
<path style="fill:#FF4B55;" d="M503.172,88.276H8.828C3.953,88.276,0,92.228,0,97.103v317.793c0,4.875,3.953,8.828,8.828,8.828  h494.345c4.875,0,8.828-3.953,8.828-8.828V97.103C512,92.228,508.047,88.276,503.172,88.276z"/>
<path style="fill:#FFE15A;" d="M3.495,421.751l283.868-160.268c4.268-2.41,4.268-8.556,0-10.965L3.495,90.249  C1.42,91.864,0,94.271,0,97.103v317.793C0,417.729,1.421,420.136,3.495,421.751z"/>
<path style="fill:#464655;" d="M2.741,421.244l192.932-159.171c3.817-3.149,3.817-8.996,0-12.146L2.741,90.756  C1.065,92.364,0,94.598,0,97.103v317.793C0,417.402,1.065,419.637,2.741,421.244z"/>
<path style="fill:#F5F5F5;" d="M55.132,214.545l0.841,31.772l-29.789,11.081c-2.857,1.063-2.717,5.15,0.206,6.015l30.477,9.018  l1.334,31.755c0.128,3.046,4.058,4.175,5.784,1.663L81.98,279.65l30.613,8.544c2.935,0.82,5.225-2.57,3.369-4.987l-19.357-25.21  l17.586-26.474c1.686-2.539-0.829-5.763-3.702-4.745l-29.956,10.618L60.789,212.49C58.894,210.101,55.051,211.498,55.132,214.545z"/>
<g>
</g>
<g>
</g>
<g>
</g>
<g>
</g>
<g>
</g>
<g>
</g>
<g>
</g>
<g>
</g>
<g>
</g>
<g>
</g>
<g>
</g>
<g>
</g>
<g>
</g>
<g>
</g>
<g>
</g>
</svg>
