<?xml version="1.0" encoding="iso-8859-1"?>
<!-- Generator: Adobe Illustrator 19.0.0, SVG Export Plug-In . SVG Version: 6.00 Build 0)  -->
<svg xmlns="http://www.w3.org/2000/svg" xmlns:xlink="http://www.w3.org/1999/xlink" version="1.1" id="Layer_1" x="0px" y="0px" viewBox="0 0 511.999 511.999" style="enable-background:new 0 0 511.999 511.999;" xml:space="preserve">
<path style="fill:#73AF00;" d="M255.999,423.723H8.828c-4.875,0-8.828-3.953-8.828-8.828V97.103c0-4.875,3.953-8.828,8.828-8.828  H256v335.448H255.999z"/>
<path style="fill:#F5F5F5;" d="M255.999,88.276h247.172c4.875,0,8.828,3.953,8.828,8.828v317.792c0,4.875-3.953,8.828-8.828,8.828  H255.999V88.276z"/>
<g>
	<path style="fill:#FF4B55;" d="M298.608,223.906l-15.305,20.021l-23.897-7.999c-1.336-0.447-2.473,1.064-1.673,2.223l14.312,20.743   l-14.993,20.256c-0.839,1.132,0.247,2.68,1.598,2.277l24.15-7.202l14.632,20.519c0.818,1.148,2.626,0.593,2.66-0.815l0.613-25.194   l24.035-7.575c1.344-0.424,1.375-2.314,0.046-2.782l-23.77-8.369l0.223-25.201C301.252,223.4,299.463,222.787,298.608,223.906z"/>
	<path style="fill:#FF4B55;" d="M271.866,316.629c-33.459,0-60.6-27.141-60.6-60.63c0-33.428,27.141-60.63,60.6-60.63   c12.448,0,23.928,3.829,33.495,10.308c1.465,0.992,3.137-0.932,1.91-2.208c-14.298-14.866-34.535-23.934-56.971-23.168   c-38.548,1.315-70.459,32.222-72.922,70.713c-2.822,44.089,32.089,80.728,75.554,80.728c21.41,0,40.652-8.951,54.393-23.262   c1.214-1.265-0.462-3.16-1.912-2.177C295.835,312.796,284.336,316.629,271.866,316.629z"/>
</g>
<g>
</g>
<g>
</g>
<g>
</g>
<g>
</g>
<g>
</g>
<g>
</g>
<g>
</g>
<g>
</g>
<g>
</g>
<g>
</g>
<g>
</g>
<g>
</g>
<g>
</g>
<g>
</g>
<g>
</g>
</svg>
