<?xml version="1.0" encoding="iso-8859-1"?>
<!-- Generator: Adobe Illustrator 19.0.0, SVG Export Plug-In . SVG Version: 6.00 Build 0)  -->
<svg xmlns="http://www.w3.org/2000/svg" xmlns:xlink="http://www.w3.org/1999/xlink" version="1.1" id="Layer_1" x="0px" y="0px" viewBox="0 0 512 512" style="enable-background:new 0 0 512 512;" xml:space="preserve">
<path style="fill:#41479B;" d="M341.333,88.273h161.839c4.875,0,8.828,3.953,8.828,8.828v317.793c0,4.875-3.953,8.828-8.828,8.828  H341.333V88.273z"/>
<rect x="170.67" y="88.277" style="fill:#FFE15A;" width="170.67" height="335.45"/>
<path style="fill:#41479B;" d="M8.828,88.273h161.839v335.448H8.828c-4.875,0-8.828-3.953-8.828-8.828V97.1  C0,92.225,3.953,88.273,8.828,88.273z"/>
<polygon style="fill:#FF4B55;" points="300.138,233.928 278.069,233.928 278.069,211.859 291.31,194.204 278.069,194.204   233.931,194.204 220.69,194.204 233.931,211.859 233.931,233.928 211.862,233.928 194.207,220.687 194.207,233.928 194.207,278.066   194.207,291.307 211.862,278.066 233.931,278.066 233.931,300.135 220.69,317.79 233.931,317.79 278.069,317.79 291.31,317.79   278.069,300.135 278.069,278.066 300.138,278.066 317.793,291.307 317.793,278.066 317.793,233.928 317.793,220.687 "/>
<polygon style="fill:#F5F5F5;" points="300.138,247.169 264.828,247.169 264.828,211.859 247.172,211.859 247.172,247.169   211.862,247.169 211.862,264.825 247.172,264.825 247.172,300.135 264.828,300.135 264.828,264.825 300.138,264.825 "/>
<g>
</g>
<g>
</g>
<g>
</g>
<g>
</g>
<g>
</g>
<g>
</g>
<g>
</g>
<g>
</g>
<g>
</g>
<g>
</g>
<g>
</g>
<g>
</g>
<g>
</g>
<g>
</g>
<g>
</g>
</svg>
