<?xml version="1.0" encoding="iso-8859-1"?>
<!-- Generator: Adobe Illustrator 19.0.0, SVG Export Plug-In . SVG Version: 6.00 Build 0)  -->
<svg xmlns="http://www.w3.org/2000/svg" xmlns:xlink="http://www.w3.org/1999/xlink" version="1.1" id="Layer_1" x="0px" y="0px" viewBox="0 0 512.001 512.001" style="enable-background:new 0 0 512.001 512.001;" xml:space="preserve">
<path style="fill:#41479B;" d="M503.172,423.724H8.828c-4.875,0-8.828-3.953-8.828-8.828V97.104c0-4.875,3.953-8.828,8.828-8.828  h494.345c4.875,0,8.828,3.953,8.828,8.828v317.792C512,419.772,508.047,423.724,503.172,423.724z"/>
<rect y="167.72" style="fill:#FF4B55;" width="512" height="176.55"/>
<polygon style="fill:#F5F5F5;" points="372.816,322.934 372.816,310.416 368.644,310.416 368.644,302.072 364.471,302.072   364.471,293.729 360.299,293.729 360.299,285.385 347.783,285.385 347.783,260.353 347.782,260.353 351.955,256.181   351.955,243.665 347.783,243.665 347.783,235.321 343.611,235.321 343.611,222.805 339.44,222.805 339.44,214.461 335.268,214.461   335.268,206.117 331.096,206.117 331.096,201.945 322.751,201.945 322.751,206.117 318.579,206.117 318.579,214.461   314.407,214.461 314.407,222.805 310.236,222.805 310.236,235.321 306.064,235.321 306.064,243.665 281.031,243.665   281.031,231.149 276.86,231.149 276.86,218.633 272.688,218.633 272.688,206.117 268.516,206.117 268.516,197.773 264.344,197.773   264.344,189.429 260.172,189.429 260.172,185.257 258.086,185.257 258.086,181.085 253.914,181.085 253.914,185.257   251.827,185.257 251.827,189.429 247.656,189.429 247.656,197.773 243.484,197.773 243.484,206.117 239.312,206.117   239.312,218.633 235.14,218.633 235.14,231.149 230.968,231.149 230.968,243.665 205.936,243.665 205.936,235.321 201.764,235.321   201.764,222.805 197.592,222.805 197.592,214.461 193.42,214.461 193.42,206.117 189.248,206.117 189.248,201.945 180.904,201.945   180.904,206.117 176.732,206.117 176.732,214.461 172.56,214.461 172.56,222.805 168.388,222.805 168.388,235.321 164.216,235.321   164.216,243.665 160.044,243.665 160.044,256.181 164.214,260.353 164.216,260.353 164.216,285.385 151.701,285.385   151.701,293.729 147.529,293.729 147.529,302.072 143.356,302.072 143.356,310.416 139.184,310.416 139.184,322.934   135.012,322.934 135.012,335.448 376.987,335.448 376.987,322.934 "/>
<g>
</g>
<g>
</g>
<g>
</g>
<g>
</g>
<g>
</g>
<g>
</g>
<g>
</g>
<g>
</g>
<g>
</g>
<g>
</g>
<g>
</g>
<g>
</g>
<g>
</g>
<g>
</g>
<g>
</g>
</svg>
