<?xml version="1.0" encoding="iso-8859-1"?>
<!-- Generator: Adobe Illustrator 19.0.0, SVG Export Plug-In . SVG Version: 6.00 Build 0)  -->
<svg xmlns="http://www.w3.org/2000/svg" xmlns:xlink="http://www.w3.org/1999/xlink" version="1.1" id="Layer_1" x="0px" y="0px" viewBox="0 0 512.001 512.001" style="enable-background:new 0 0 512.001 512.001;" xml:space="preserve">
<path style="fill:#464655;" d="M503.172,423.724H8.828c-4.875,0-8.828-3.953-8.828-8.828V97.104c0-4.875,3.953-8.828,8.828-8.828  h494.345c4.875,0,8.828,3.953,8.828,8.828v317.792C512,419.772,508.047,423.724,503.172,423.724z"/>
<polygon style="fill:#FFE15A;" points="512,247.172 249.444,247.172 0,109.545 0,129.714 228.897,256 0,382.286 0,402.456   249.444,264.828 512,264.828 "/>
<path style="fill:#73AF00;" d="M3.531,421.776c1.491,1.149,3.27,1.948,5.297,1.948h494.345c4.875,0,8.828-3.953,8.828-8.828V282.483  H255.999L3.531,421.776z"/>
<path style="fill:#FF4B55;" d="M503.172,88.276H8.828c-2.027,0-3.807,0.8-5.297,1.949l252.468,139.292h255.999V97.104  C512,92.229,508.047,88.276,503.172,88.276z"/>
<g>
	<path style="fill:#FFE15A;" d="M76.452,206.487c-25.205-7.929-44.234,10.386-48.583,19.812   c-3.683,7.987-10.525,44.167,23.581,49.936c34.104,5.77,33.72-26.412,33.72-26.412c-1.538,5.129-4.296,19.745-28.914,19.745   c-9.234,0-22.501-13.719-20.001-28.848c2.353-14.236,15.07-21.518,24.682-21.924c9.102-0.384,30.322,5.898,30.322,31.734   c0,29.039-29.93,32.31-29.93,32.31v17.535c26.053-2.554,40.797-16.986,44.699-40.103C109.916,237.259,102.08,214.55,76.452,206.487   z"/>
	<path style="fill:#FFE15A;" d="M48.544,249.549c-0.595,0.755-0.911,1.694-0.927,2.655l-0.074,4.716l-0.918,1.601   c-0.331,0.578-0.135,1.316,0.441,1.652c0.583,0.341,1.331,0.141,1.666-0.446l0.941-1.646l3.766-1.364   c1.141-0.413,2.058-1.271,2.554-2.378c0.984-2.197,3.097-6.231,6.521-10.44c3.424,4.209,5.537,8.243,6.521,10.44   c0.495,1.107,1.412,1.964,2.553,2.378l3.767,1.364l0.941,1.646c0.334,0.587,1.084,0.787,1.666,0.446   c0.576-0.337,0.772-1.074,0.441-1.652l-0.918-1.601l-0.074-4.716c-0.015-0.961-0.332-1.9-0.927-2.655   c-3.155-4.007-6.511-7.158-9.818-9.945c2.643-2.484,5.631-4.855,9.394-6.686c0.871-0.424,1.326-1.401,1.101-2.343   c-0.307-1.286-1.713-1.961-2.911-1.401c-2.522,1.175-6.859,3.49-11.737,7.047c-4.879-3.556-9.215-5.87-11.737-7.047   c-1.198-0.558-2.604,0.117-2.911,1.401c-0.224,0.942,0.231,1.919,1.1,2.343c3.764,1.831,6.752,4.203,9.395,6.686   C55.055,242.391,51.699,245.543,48.544,249.549z"/>
</g>
<g>
</g>
<g>
</g>
<g>
</g>
<g>
</g>
<g>
</g>
<g>
</g>
<g>
</g>
<g>
</g>
<g>
</g>
<g>
</g>
<g>
</g>
<g>
</g>
<g>
</g>
<g>
</g>
<g>
</g>
</svg>
