<?xml version="1.0" encoding="iso-8859-1"?>
<!-- Generator: Adobe Illustrator 19.0.0, SVG Export Plug-In . SVG Version: 6.00 Build 0)  -->
<svg xmlns="http://www.w3.org/2000/svg" xmlns:xlink="http://www.w3.org/1999/xlink" version="1.1" id="Layer_1" x="0px" y="0px" viewBox="0 0 512.001 512.001" style="enable-background:new 0 0 512.001 512.001;" xml:space="preserve">
<path style="fill:#73AF00;" d="M512,200.093H0V97.104c0-4.875,3.953-8.828,8.828-8.828h494.345c4.875,0,8.828,3.953,8.828,8.828  L512,200.093L512,200.093z"/>
<path style="fill:#FF4B55;" d="M503.172,423.725H8.828c-4.875,0-8.828-3.953-8.828-8.828V311.909h512v102.988  C512,419.773,508.047,423.725,503.172,423.725z"/>
<rect y="200.091" style="fill:#F5F5F5;" width="512" height="111.81"/>
<path style="fill:#4173CD;" d="M128.095,261.471c2.532-3.207,2.532-7.733,0-10.94L2.335,91.234C0.92,92.8,0,94.828,0,97.104v317.793  c0,2.276,0.92,4.305,2.335,5.87L128.095,261.471z"/>
<path style="fill:#B46446;" d="M253.881,263.897c0,0.216-0.071,20.968-5.378,31.177h14.913c-5.308-10.208-5.378-30.961-5.378-31.177  c0-7.15,7.411-12.832,7.486-12.888l-2.497-3.322c-0.194,0.146-2.664,2.039-4.988,5.114v-5.53h-4.157v5.53  c-2.324-3.075-4.793-4.969-4.988-5.114l-2.497,3.322C246.472,251.065,253.881,256.746,253.881,263.897z"/>
<path style="fill:#73AF00;" d="M276.745,238.956c-0.127,0-0.244,0.033-0.37,0.041c-0.847-2.438-3.14-4.198-5.866-4.198  c-0.983,0-1.9,0.248-2.727,0.653c-0.881-1.619-2.575-2.731-4.547-2.731c-0.567,0-1.102,0.114-1.613,0.281  c-1.106-2.609-3.689-4.438-6.7-4.438c-3.701,0-6.722,2.774-7.181,6.349c-0.372-0.058-0.745-0.114-1.132-0.114  c-4.018,0-7.275,3.257-7.275,7.275c0,0.472,0.053,0.931,0.139,1.378c-1.841,0.606-3.289,2.029-3.925,3.855  c-0.124-0.011-0.244-0.038-0.371-0.038c-2.296,0-4.157,1.862-4.157,4.157c0,2.296,1.862,4.157,4.157,4.157  c1.06,0,2.018-0.409,2.752-1.064c0.994,0.671,2.193,1.064,3.484,1.064c1.142,0,2.197-0.329,3.117-0.865  c0.92,0.535,1.976,0.865,3.117,0.865c3.444,0,6.236-2.792,6.236-6.236c0-0.264-0.046-0.514-0.077-0.769  c0.968,0.477,2.042,0.769,3.196,0.769c1.446,0,2.784-0.434,3.916-1.161c1.063,1.922,3.085,3.239,5.437,3.239  c0.505,0,0.991-0.076,1.461-0.19c1.144,1.375,2.846,2.269,4.774,2.269c1.863,0,3.517-0.833,4.659-2.129  c3.204-0.259,5.734-2.913,5.734-6.185C282.98,241.748,280.189,238.956,276.745,238.956z"/>
<path style="fill:#5FA000;" d="M270.509,244.152c0-0.216,0.045-0.42,0.064-0.631c-1.112,1.028-2.586,1.671-4.221,1.671  c-2.172,0-4.079-1.112-5.196-2.796c-1.117,1.684-3.025,2.796-5.196,2.796c-1.67,0-3.177-0.665-4.297-1.734  c-0.648,3.354-3.592,5.89-7.135,5.89c-0.36,0-0.704-0.055-1.049-0.106c0.001,0.036,0.011,0.07,0.011,0.106  c0,2.718-1.749,5.005-4.175,5.859c0.657,0.235,1.358,0.376,2.097,0.376c1.142,0,2.197-0.329,3.117-0.865  c0.92,0.535,1.976,0.865,3.117,0.865c3.444,0,6.236-2.792,6.236-6.236c0-0.264-0.046-0.514-0.077-0.769  c0.968,0.477,2.042,0.769,3.196,0.769c1.446,0,2.784-0.434,3.916-1.161c1.063,1.922,3.085,3.239,5.437,3.239  c0.505,0,0.991-0.076,1.461-0.19c1.144,1.375,2.846,2.269,4.773,2.269c1.863,0,3.517-0.833,4.659-2.129l0.013-0.002  C273.491,251.099,270.509,247.99,270.509,244.152z"/>
<path style="fill:#464655;" d="M255.96,308.322c-0.334,0-0.63-0.213-0.739-0.527c-0.079-0.234-2.036-5.706-9.653-5.706h-10.392  c-6.161,0-11.171-5.012-11.171-11.171V222.33c0-0.43,0.349-0.779,0.779-0.779h64.431c0.43,0,0.779,0.349,0.779,0.779v68.588  c0,6.161-5.012,11.171-11.171,11.171h-12.471c-7.663,0-9.634,5.644-9.652,5.702c-0.107,0.319-0.403,0.532-0.738,0.532  L255.96,308.322L255.96,308.322z M225.562,223.107v67.809c0,5.3,4.312,9.613,9.613,9.613h10.392c6.169,0,9.155,3.313,10.392,5.303  c1.237-1.992,4.223-5.303,10.392-5.303h12.471c5.301,0,9.613-4.313,9.613-9.613v-67.809L225.562,223.107L225.562,223.107z"/>
<g>
	<polygon style="fill:#FFE15A;" points="247.983,203.796 249.959,206.957 253.684,207.086 251.933,210.377 253.684,213.668    249.959,213.797 247.983,216.959 246.009,213.797 242.284,213.668 244.034,210.377 242.284,207.086 246.009,206.957  "/>
	<polygon style="fill:#FFE15A;" points="230.425,206.663 233.084,209.275 236.736,208.531 235.802,212.139 238.273,214.931    234.681,215.926 233.5,219.461 230.841,216.848 227.189,217.593 228.122,213.984 225.652,211.193 229.244,210.198  "/>
	<polygon style="fill:#FFE15A;" points="213.578,211.648 216.738,213.626 220.143,212.11 220.011,215.835 223.026,218.027    219.734,219.775 219.343,223.482 216.183,221.504 212.778,223.02 212.91,219.295 209.895,217.103 213.187,215.355  "/>
	<polygon style="fill:#FFE15A;" points="264.017,203.796 262.041,206.957 258.316,207.086 260.067,210.377 258.316,213.668    262.041,213.797 264.017,216.959 265.991,213.797 269.716,213.668 267.966,210.377 269.716,207.086 265.991,206.957  "/>
	<polygon style="fill:#FFE15A;" points="281.575,206.663 278.916,209.275 275.264,208.531 276.198,212.139 273.727,214.931    277.319,215.926 278.5,219.461 281.159,216.848 284.811,217.593 283.878,213.984 286.348,211.193 282.756,210.198  "/>
	<polygon style="fill:#FFE15A;" points="298.422,211.648 295.262,213.626 291.857,212.11 291.989,215.835 288.974,218.027    292.266,219.775 292.657,223.482 295.817,221.504 299.222,223.02 299.09,219.295 302.105,217.103 298.813,215.355  "/>
</g>
<g>
</g>
<g>
</g>
<g>
</g>
<g>
</g>
<g>
</g>
<g>
</g>
<g>
</g>
<g>
</g>
<g>
</g>
<g>
</g>
<g>
</g>
<g>
</g>
<g>
</g>
<g>
</g>
<g>
</g>
</svg>
