<?xml version="1.0" encoding="iso-8859-1"?>
<!-- Generator: Adobe Illustrator 19.0.0, SVG Export Plug-In . SVG Version: 6.00 Build 0)  -->
<svg xmlns="http://www.w3.org/2000/svg" xmlns:xlink="http://www.w3.org/1999/xlink" version="1.1" id="Layer_1" x="0px" y="0px" viewBox="0 0 512.001 512.001" style="enable-background:new 0 0 512.001 512.001;" xml:space="preserve">
<path style="fill:#FF4B55;" d="M503.172,423.724H8.828c-4.875,0-8.828-3.953-8.828-8.828V97.104c0-4.875,3.953-8.828,8.828-8.828  h494.345c4.875,0,8.828,3.953,8.828,8.828v317.792C512,419.772,508.047,423.724,503.172,423.724z"/>
<path style="fill:#F5F5F5;" d="M194.206,256H8.828C3.953,256,0,252.047,0,247.172V97.104c0-4.875,3.953-8.828,8.828-8.828h185.379  c4.875,0,8.828,3.953,8.828,8.828v150.069C203.034,252.049,199.081,256,194.206,256z"/>
<polygon style="fill:#FF4B55;" points="167.724,150.069 123.586,150.069 123.586,105.931 79.448,105.931 79.448,150.069   35.31,150.069 35.31,194.207 79.448,194.207 79.448,238.345 123.586,238.345 123.586,194.207 167.724,194.207 "/>
<g>
</g>
<g>
</g>
<g>
</g>
<g>
</g>
<g>
</g>
<g>
</g>
<g>
</g>
<g>
</g>
<g>
</g>
<g>
</g>
<g>
</g>
<g>
</g>
<g>
</g>
<g>
</g>
<g>
</g>
</svg>
