<?xml version="1.0" encoding="iso-8859-1"?>
<!-- Generator: Adobe Illustrator 19.0.0, SVG Export Plug-In . SVG Version: 6.00 Build 0)  -->
<svg xmlns="http://www.w3.org/2000/svg" xmlns:xlink="http://www.w3.org/1999/xlink" version="1.1" id="Layer_1" x="0px" y="0px" viewBox="0 0 512.001 512.001" style="enable-background:new 0 0 512.001 512.001;" xml:space="preserve">
<g>
	<path style="fill:#4173CD;" d="M512,256H0V97.103c0-4.875,3.953-8.828,8.828-8.828h494.345c4.875,0,8.828,3.953,8.828,8.828   L512,256L512,256z"/>
	<path style="fill:#4173CD;" d="M0,256h512v158.897c0,4.875-3.953,8.828-8.828,8.828H8.828c-4.875,0-8.828-3.953-8.828-8.828V256z"/>
</g>
<rect y="256" style="fill:#FFE15A;" width="512" height="83.86"/>
<path style="fill:#73AF00;" d="M8.828,423.724h494.345c4.875,0,8.828-3.953,8.828-8.828v-75.034H0v75.034  C0,419.772,3.953,423.724,8.828,423.724z"/>
<g>
	<path style="fill:#FFE15A;" d="M458.211,178.12l36.134-5.982l-36.134-5.982l31.094-19.354l-35.672,8.301l21.321-29.78   l-29.78,21.321l8.301-35.672l-19.354,31.094l-5.983-36.135l-5.982,36.134l-19.354-31.094l8.301,35.672l-29.78-21.321l21.321,29.78   l-35.672-8.301l31.094,19.354l-36.135,5.983l36.134,5.982l-31.094,19.354l35.672-8.301l-21.321,29.78l29.78-21.321l-8.301,35.672   l19.354-31.094l5.983,36.135l5.982-36.134l19.354,31.094l-8.301-35.672l29.78,21.321l-21.321-29.78l35.672,8.301L458.211,178.12z    M428.138,194.207c-12.189,0-22.069-9.88-22.069-22.069s9.88-22.069,22.069-22.069s22.069,9.88,22.069,22.069   S440.327,194.207,428.138,194.207z"/>
	<circle style="fill:#FFE15A;" cx="428.14" cy="172.14" r="16.552"/>
</g>
<g>
</g>
<g>
</g>
<g>
</g>
<g>
</g>
<g>
</g>
<g>
</g>
<g>
</g>
<g>
</g>
<g>
</g>
<g>
</g>
<g>
</g>
<g>
</g>
<g>
</g>
<g>
</g>
<g>
</g>
</svg>
