<?xml version="1.0" encoding="iso-8859-1"?>
<!-- Generator: Adobe Illustrator 19.0.0, SVG Export Plug-In . SVG Version: 6.00 Build 0)  -->
<svg xmlns="http://www.w3.org/2000/svg" xmlns:xlink="http://www.w3.org/1999/xlink" version="1.1" id="Layer_1" x="0px" y="0px" viewBox="0 0 512.001 512.001" style="enable-background:new 0 0 512.001 512.001;" xml:space="preserve">
<path style="fill:#41479B;" d="M503.172,423.724H8.828c-4.875,0-8.828-3.953-8.828-8.828V97.104c0-4.875,3.953-8.828,8.828-8.828  h494.345c4.875,0,8.828,3.953,8.828,8.828v317.792C512,419.772,508.047,423.724,503.172,423.724z"/>
<path style="fill:#3CC8FF;" d="M255.999,167.724c-33.549,17.651-56.175,59.69-56.175,88.276s22.626,70.626,56.175,88.276  c33.549-17.651,56.175-59.69,56.175-88.276S289.549,185.375,255.999,167.724z"/>
<path style="fill:#73AF00;" d="M263.244,225.773c5.42-2.857,14.674-6.001,25.189-2.142c0,0-10.127-11.281-24.181-2.09  c3.781-4.585,9.459-10.261,15.608-11.842c0,0-12.237-4.57-19.641,11.749c1.434-8.231,1.173-21.191-12.094-28.714  c0,0,7.418,15.919,8.147,29.129c-0.431-2.344-1.294-4.794-3.572-7.17c-7.015-7.319-13.114-7.929-13.114-7.929  s9.726,10.778,14.505,20.975c-2.753-3.294-7.605-7.512-15.42-7.252c-18.3,0.61-22.264,11.589-22.264,11.589  c7.586-3.194,19.625-4.785,28.958-3.996c-12.049,2.123-16.33,17.134-16.33,17.134c9.675-12.064,20.235-14.024,24.451-14.311  c-7.702,6.371-7.233,18.104-7.233,18.104c1.79-6.605,8.724-14.133,12.103-17.507c9.098,9.843,10.175,20.907,10.175,20.907  s1.991-3.329,1.073-10.104c-0.868-6.396-4.882-10.595-7.945-13.062c16.064,2.214,26.546,13.866,26.546,13.866  C282.95,227.775,269.797,225.778,263.244,225.773z"/>
<path style="fill:#FF4B55;" d="M494.344,105.931v300.137H17.655V105.931H494.344 M503.172,88.276H8.828  C3.953,88.276,0,92.229,0,97.104v317.792c0,4.875,3.953,8.828,8.828,8.828h494.345c4.875,0,8.828-3.953,8.828-8.828V97.104  C512,92.229,508.047,88.276,503.172,88.276L503.172,88.276z"/>
<polygon style="fill:#FF965A;" points="238.068,277.335 246.161,263.357 312.644,261.886 308.23,280.276 "/>
<path style="fill:#4173CD;" d="M202.249,273.655c6.664,26.153,26.631,56.353,53.75,70.621c27.119-14.268,47.086-44.468,53.75-70.621  H202.249z"/>
<g>
	<path style="fill:#FFE15A;" d="M211.862,300.138c0,0,19.255-0.953,30.823,3.797c2.89,1.186,3.264,5.09,0.654,6.807   c-5.635,3.708-13.822,10.09-13.822,15.879L211.862,300.138z"/>
	<path style="fill:#FFE15A;" d="M245.701,335.448c-0.736-7.357,5.773-12.707,14.712-16.184c11.586-4.505,5.241-11.678-0.552-16.367   c-6.909-5.592,2.023-7.172,39.54-7.908l-18.391,28.69l-25.011,20.598L245.701,335.448z"/>
</g>
<path style="fill:#FF4B55;" d="M255.999,349.268l-2.056-1.086c-35.012-18.414-58.535-62.534-58.535-92.181  c0-29.646,23.521-73.768,58.535-92.181l2.056-1.086l2.056,1.086c35.013,18.414,58.534,62.534,58.534,92.181  c0,29.646-23.521,73.768-58.534,92.181L255.999,349.268z M255.999,172.751c-31.056,17.535-51.763,56.759-51.763,83.249  s20.707,65.716,51.763,83.249c31.056-17.535,51.763-56.759,51.763-83.249S287.056,190.285,255.999,172.751z"/>
<g>
	<path style="fill:#A54B37;" d="M274.758,306.389c-0.405,0-0.81-0.108-1.173-0.337c-11.996-7.539-18.874-20.018-18.874-34.237   v-40.642c0-1.219,0.988-2.207,2.207-2.207s2.207,0.988,2.207,2.207v40.642c0,12.668,6.125,23.785,16.805,30.496   c1.035,0.651,1.345,2.013,0.698,3.043C276.207,306.023,275.491,306.389,274.758,306.389z"/>
	<circle style="fill:#A54B37;" cx="256.92" cy="231.31" r="4.828"/>
</g>
<g>
</g>
<g>
</g>
<g>
</g>
<g>
</g>
<g>
</g>
<g>
</g>
<g>
</g>
<g>
</g>
<g>
</g>
<g>
</g>
<g>
</g>
<g>
</g>
<g>
</g>
<g>
</g>
<g>
</g>
</svg>
