<?xml version="1.0" encoding="iso-8859-1"?>
<!-- Generator: Adobe Illustrator 19.0.0, SVG Export Plug-In . SVG Version: 6.00 Build 0)  -->
<svg xmlns="http://www.w3.org/2000/svg" xmlns:xlink="http://www.w3.org/1999/xlink" version="1.1" id="Layer_1" x="0px" y="0px" viewBox="0 0 512.001 512.001" style="enable-background:new 0 0 512.001 512.001;" xml:space="preserve">
<path style="fill:#FF4B55;" d="M503.172,423.724H8.828c-4.875,0-8.828-3.953-8.828-8.828V97.104c0-4.875,3.953-8.828,8.828-8.828  h494.345c4.875,0,8.828,3.953,8.828,8.828v317.792C512,419.772,508.047,423.724,503.172,423.724z"/>
<path style="fill:#FFE15A;" d="M459.033,141.242v229.517H52.965V141.242H459.033"/>
<g>
	<polygon style="fill:#73AF00;" points="52.965,141.242 255.999,256 52.965,370.758  "/>
	<polygon style="fill:#73AF00;" points="459.033,141.242 255.999,256 459.033,370.758  "/>
</g>
<circle style="fill:#FF4B55;" cx="256" cy="256" r="35.31"/>
<g>
	<path style="fill:#FFE15A;" d="M258.231,230.129l5.523,16.558l17.454,0.136c2.26,0.018,3.197,2.901,1.379,4.244l-14.041,10.369   l5.266,16.642c0.682,2.155-1.771,3.937-3.611,2.623L256,270.55l-14.2,10.151c-1.838,1.314-4.291-0.468-3.61-2.623l5.266-16.642   l-14.041-10.369c-1.818-1.343-0.881-4.226,1.379-4.244l17.454-0.136l5.523-16.558C254.483,227.985,257.516,227.985,258.231,230.129   z"/>
	<path style="fill:#FFE15A;" d="M257.318,99.993l3.263,9.783l10.313,0.079c1.335,0.01,1.889,1.715,0.814,2.507l-8.297,6.126   l3.111,9.833c0.403,1.273-1.047,2.326-2.133,1.549L256,123.876l-8.391,5.997c-1.086,0.777-2.536-0.277-2.133-1.549l3.111-9.833   l-8.297-6.126c-1.074-0.793-0.521-2.497,0.814-2.507l10.313-0.079l3.263-9.783C255.103,98.726,256.895,98.726,257.318,99.993z"/>
	<path style="fill:#FFE15A;" d="M373.456,99.993l3.263,9.783l10.313,0.079c1.335,0.01,1.889,1.715,0.814,2.507l-8.297,6.126   l3.111,9.833c0.403,1.273-1.047,2.326-2.133,1.549l-8.391-5.997l-8.391,5.997c-1.086,0.777-2.536-0.277-2.133-1.549l3.111-9.833   l-8.297-6.126c-1.074-0.793-0.521-2.497,0.814-2.507l10.313-0.079l3.263-9.783C371.242,98.726,373.033,98.726,373.456,99.993z"/>
	<path style="fill:#FFE15A;" d="M141.18,99.993l3.263,9.783l10.313,0.079c1.335,0.01,1.889,1.715,0.814,2.507l-8.297,6.126   l3.111,9.833c0.403,1.273-1.047,2.326-2.133,1.549l-8.391-5.997l-8.391,5.997c-1.086,0.777-2.536-0.277-2.133-1.549l3.111-9.833   l-8.297-6.126c-1.074-0.793-0.521-2.497,0.814-2.507l10.313-0.079l3.263-9.783C138.966,98.726,140.758,98.726,141.18,99.993z"/>
	<path style="fill:#FFE15A;" d="M257.318,381.993l3.263,9.783l10.313,0.079c1.335,0.01,1.889,1.715,0.814,2.507l-8.297,6.126   l3.111,9.833c0.403,1.273-1.047,2.326-2.133,1.549L256,405.876l-8.391,5.997c-1.086,0.777-2.536-0.277-2.133-1.549l3.111-9.833   l-8.297-6.126c-1.074-0.793-0.521-2.497,0.814-2.507l10.313-0.079l3.263-9.783C255.103,380.727,256.895,380.727,257.318,381.993z"/>
	<path style="fill:#FFE15A;" d="M373.456,381.993l3.263,9.783l10.313,0.079c1.335,0.01,1.889,1.715,0.814,2.507l-8.297,6.126   l3.111,9.833c0.403,1.273-1.047,2.326-2.133,1.549l-8.391-5.997l-8.391,5.997c-1.086,0.777-2.536-0.277-2.133-1.549l3.111-9.833   l-8.297-6.126c-1.074-0.793-0.521-2.497,0.814-2.507l10.313-0.079l3.263-9.783C371.242,380.727,373.033,380.727,373.456,381.993z"/>
	<path style="fill:#FFE15A;" d="M141.18,381.993l3.263,9.783l10.313,0.079c1.335,0.01,1.889,1.715,0.814,2.507l-8.297,6.126   l3.111,9.833c0.403,1.273-1.047,2.326-2.133,1.549l-8.391-5.997l-8.391,5.997c-1.086,0.777-2.536-0.277-2.133-1.549l3.111-9.833   l-8.297-6.126c-1.074-0.793-0.521-2.497,0.814-2.507l10.313-0.079l3.263-9.783C138.966,380.727,140.758,380.727,141.18,381.993z"/>
	<path style="fill:#FFE15A;" d="M118.069,233.931H96V256c0,12.189,9.88,22.069,22.069,22.069s22.069-9.88,22.069-22.069   S130.257,233.931,118.069,233.931z"/>
</g>
<polygon style="fill:#FF4B55;" points="140.138,278.069 128.006,275.717 118.069,256 137.786,265.939 "/>
<g>
</g>
<g>
</g>
<g>
</g>
<g>
</g>
<g>
</g>
<g>
</g>
<g>
</g>
<g>
</g>
<g>
</g>
<g>
</g>
<g>
</g>
<g>
</g>
<g>
</g>
<g>
</g>
<g>
</g>
</svg>
