<?xml version="1.0" encoding="iso-8859-1"?>
<!-- Generator: Adobe Illustrator 19.0.0, SVG Export Plug-In . SVG Version: 6.00 Build 0)  -->
<svg xmlns="http://www.w3.org/2000/svg" xmlns:xlink="http://www.w3.org/1999/xlink" version="1.1" id="Layer_1" x="0px" y="0px" viewBox="0 0 512.001 512.001" style="enable-background:new 0 0 512.001 512.001;" xml:space="preserve">
<path style="fill:#41479B;" d="M503.172,423.724H8.828c-4.875,0-8.828-3.953-8.828-8.828V97.104c0-4.875,3.953-8.828,8.828-8.828  h494.345c4.875,0,8.828,3.953,8.828,8.828v317.792C512,419.772,508.047,423.724,503.172,423.724z"/>
<path style="fill:#F5F5F5;" d="M247.172,88.276h-15.333l-81.77,53.573V88.276h-44.138v53.573l-81.77-53.573H8.828  C3.953,88.276,0,92.229,0,97.104v7.002l70.155,45.963H0v44.138h70.155L0,240.171v7.001C0,252.047,3.953,256,8.828,256h15.333  l81.77-53.573V256h44.138v-53.573L231.838,256h15.333c4.875,0,8.828-3.953,8.828-8.828v-7.002l-70.154-45.963h70.154v-44.138  h-70.155l70.155-45.963v-7.002C255.999,92.229,252.048,88.276,247.172,88.276z"/>
<g>
	<polygon style="fill:#FF4B55;" points="255.999,158.897 141.241,158.897 141.241,88.276 114.758,88.276 114.758,158.897 0,158.897    0,185.379 114.758,185.379 114.758,256 141.241,256 141.241,185.379 255.999,185.379  "/>
	<path style="fill:#FF4B55;" d="M97.103,150.069L4.207,89.768C1.735,91.333,0,93.961,0,97.104v0.458l80.889,52.507H97.103z"/>
	<path style="fill:#FF4B55;" d="M166.283,150.069l88.374-57.366c-1.536-2.599-4.246-4.427-7.485-4.427h-1.909l-95.194,61.793   H166.283z"/>
	<path style="fill:#FF4B55;" d="M89.474,194.207L1.269,251.463C2.79,254.125,5.542,256,8.828,256h1.665l95.195-61.793H89.474z"/>
	<path style="fill:#FF4B55;" d="M255.859,247.867l-82.666-53.659H156.98l93.873,60.934   C253.666,253.837,255.594,251.102,255.859,247.867z"/>
</g>
<path style="fill:#E67346;" d="M330.706,352.392l-4.143-9.669l2.071,4.835l-2.095-4.823c0.873-0.385,21.38-9.741,21.38-37.253  h10.519C358.438,340.108,331.839,351.905,330.706,352.392z"/>
<path style="fill:#EB7D4B;" d="M334.819,328.867l-7.437-7.437c14.219-14.219,21.608-18.119,22.404-18.518l4.705,9.409l-2.353-4.705  l2.393,4.684C354.464,312.336,347.804,315.882,334.819,328.867z"/>
<path style="fill:#E67346;" d="M438.795,352.392l4.143-9.669l-2.071,4.835l2.095-4.823c-0.873-0.385-21.38-9.741-21.38-37.253  h-10.519C411.063,340.108,437.662,351.905,438.795,352.392z"/>
<path style="fill:#EB7D4B;" d="M434.683,328.867l7.437-7.437c-14.219-14.219-21.608-18.119-22.404-18.518l-4.705,9.409l2.353-4.705  l-2.393,4.684C415.037,312.336,421.697,315.882,434.683,328.867z"/>
<path style="fill:#4173CD;" d="M384.735,168.734h-56.101c0,0,0,66.621,0,84.152s3.507,63.114,56.101,80.645  c52.595-17.532,56.101-63.114,56.101-80.645s0-84.152,0-84.152L384.735,168.734L384.735,168.734z"/>
<path style="fill:#C8C8C8;" d="M409.279,189.772h-30.144c-3.185,0-6.274-1.084-8.761-3.073l-11.769-9.416  c-1.244-0.994-2.788-1.537-4.381-1.537h-1.046c-3.873,0-7.012,3.139-7.012,7.012h-5.259c-2.904,0-5.259,2.355-5.259,5.259  s2.355,5.259,5.259,5.259h5.259c1.937,0,3.507,1.57,3.507,3.507v17.532c0,6.528,4.48,11.966,10.519,13.529v11.015h7.012l2.63-10.519  h32.434l3.507,3.507v7.012h3.507V228.34h3.507v10.519h3.507v-11.491c2.088-1.215,3.507-3.45,3.507-6.04V200.29  C419.798,194.482,415.089,189.772,409.279,189.772z"/>
<polygon style="fill:#73AF00;" points="346.165,235.355 353.179,256.392 416.293,256.392 423.305,235.355 "/>
<path style="fill:#F5F5F5;" d="M422.091,249.379c-9.348,0-9.348,7.012-18.696,7.012c-9.345,0-9.345-7.012-18.691-7.012  c-9.344,0-9.344,7.012-18.689,7.012c-9.347,0-9.347-7.012-18.695-7.012c-9.327,0-9.351,6.98-18.638,7.01  c0.113,3.906,0.447,8.683,1.31,13.963c7.992-0.653,8.466-6.947,17.329-6.947c9.347,0,9.347,7.012,18.695,7.012  c9.344,0,9.344-7.012,18.689-7.012s9.345,7.012,18.691,7.012c9.348,0,9.348-7.012,18.696-7.012c8.887,0,9.354,6.307,17.385,6.948  c0.862-5.279,1.197-10.057,1.31-13.963C431.456,256.374,431.444,249.379,422.091,249.379z"/>
<path style="fill:#4173CD;" d="M422.091,263.405c-9.348,0-9.348,7.012-18.696,7.012c-9.345,0-9.345-7.012-18.691-7.012  c-9.344,0-9.344,7.012-18.689,7.012c-9.347,0-9.347-7.012-18.695-7.012c-8.863,0-9.336,6.294-17.329,6.947  c0.686,4.202,1.717,8.722,3.225,13.367c5.114-1.786,6.607-6.29,14.103-6.29c9.347,0,9.347,7.012,18.695,7.012  c9.344,0,9.344-7.012,18.689-7.012s9.345,7.012,18.691,7.012c9.348,0,9.348-7.012,18.696-7.012c7.523,0,9.01,4.522,14.156,6.301  c1.51-4.649,2.541-9.172,3.229-13.377C431.446,269.711,430.979,263.405,422.091,263.405z"/>
<path style="fill:#F5F5F5;" d="M422.091,277.43c-9.348,0-9.348,7.012-18.696,7.012c-9.345,0-9.345-7.012-18.691-7.012  c-9.344,0-9.344,7.012-18.689,7.012c-9.347,0-9.347-7.012-18.695-7.012c-7.496,0-8.989,4.503-14.103,6.29  c1.209,3.724,2.74,7.527,4.655,11.317c2.371-1.778,4.707-3.582,9.448-3.582c9.347,0,9.347,7.012,18.695,7.012  c9.344,0,9.344-7.012,18.689-7.012s9.345,7.012,18.691,7.012c9.348,0,9.348-7.012,18.696-7.012c4.768,0,7.109,1.818,9.494,3.604  c1.919-3.794,3.452-7.601,4.662-11.328C431.101,281.952,429.615,277.43,422.091,277.43z"/>
<path style="fill:#4173CD;" d="M422.091,291.456c-9.348,0-9.348,7.012-18.696,7.012c-9.345,0-9.345-7.012-18.691-7.012  c-9.344,0-9.344,7.012-18.689,7.012c-9.347,0-9.347-7.012-18.695-7.012c-4.74,0-7.078,1.803-9.448,3.582  c1.825,3.612,4.007,7.206,6.613,10.705c0.847-0.16,1.774-0.26,2.835-0.26c9.347,0,9.347,7.012,18.695,7.012  c9.344,0,9.344-7.012,18.689-7.012s9.345,7.012,18.691,7.012c9.348,0,9.348-7.012,18.696-7.012c1.081,0,2.026,0.102,2.887,0.267  c2.603-3.493,4.783-7.082,6.607-10.689C429.201,293.274,426.86,291.456,422.091,291.456z"/>
<path style="fill:#F5F5F5;" d="M424.978,305.748c-0.86-0.165-1.805-0.267-2.887-0.267c-9.348,0-9.348,7.012-18.696,7.012  c-9.345,0-9.345-7.012-18.691-7.012c-9.344,0-9.344,7.012-18.689,7.012c-9.347,0-9.347-7.012-18.695-7.012  c-1.06,0-1.987,0.1-2.835,0.26c5.683,7.628,13.391,14.781,23.823,20.6c7.104-1.048,7.894-6.835,16.394-6.835  c8.52,0,9.294,5.812,16.442,6.841C411.582,320.53,419.293,313.378,424.978,305.748z"/>
<g>
	<rect x="382.98" y="249.38" style="fill:#FF965A;" width="3.507" height="59.61"/>
	<rect x="374.21" y="258.141" style="fill:#FF965A;" width="21.04" height="3.507"/>
	<rect x="374.21" y="279.18" style="fill:#FF965A;" width="21.04" height="3.507"/>
</g>
<rect x="374.21" y="261.641" style="fill:#FFE15A;" width="21.04" height="13.87"/>
<polygon style="fill:#FF4B55;" points="382.982,249.379 382.982,256.392 372.463,252.886 "/>
<g>
	<rect x="406.36" y="249.38" style="fill:#FF965A;" width="3.507" height="41.2"/>
	<rect x="397.59" y="258.141" style="fill:#FF965A;" width="21.04" height="3.507"/>
	<rect x="397.59" y="279.18" style="fill:#FF965A;" width="21.04" height="3.507"/>
</g>
<rect x="397.59" y="261.641" style="fill:#FFE15A;" width="21.04" height="13.87"/>
<polygon style="fill:#FF4B55;" points="406.357,249.379 406.357,256.392 395.838,252.886 "/>
<g>
	<rect x="359.46" y="249.38" style="fill:#FF965A;" width="3.507" height="40.905"/>
	<rect x="350.7" y="258.141" style="fill:#FF965A;" width="21.04" height="3.507"/>
	<rect x="350.7" y="279.18" style="fill:#FF965A;" width="21.04" height="3.507"/>
</g>
<rect x="350.7" y="261.641" style="fill:#FFE15A;" width="21.04" height="13.87"/>
<polygon style="fill:#FF4B55;" points="359.461,249.379 359.461,256.392 348.942,252.886 "/>
<path style="fill:#FF965A;" d="M402.267,287.949c0,9.666-7.865,17.532-17.532,17.532s-17.532-7.865-17.532-17.532h-3.507h-3.478  l-23.747-5.363l-0.773,3.421l10.467,2.364v3.084l7.717,3.086c3.042,14.244,15.714,24.963,30.852,24.963  c14.987,0,27.543-10.513,30.744-24.544h11.331v-10.519L402.267,287.949z"/>
<path style="fill:#F5F5F5;" d="M440.837,168.734c0,0,0,66.621,0,84.152S437.33,316,384.735,333.531  c-52.595-17.532-56.101-63.114-56.101-80.645s0-84.152,0-84.152h56.101L440.837,168.734 M444.342,165.228h-3.507h-56.101h-56.101  h-3.507v3.507v84.152c0,41.576,20.776,71.397,58.499,83.972l1.109,0.37l1.109-0.37c37.724-12.575,58.499-42.397,58.499-83.972  v-84.152V165.228L444.342,165.228z"/>
<path style="fill:#FF965A;" d="M384.735,351.063c-25.807,0-49.741-8.645-64.021-23.127l9.985-9.848  c11.702,11.864,31.903,18.949,54.037,18.949s42.335-7.084,54.037-18.949l9.985,9.848  C434.476,342.417,410.543,351.063,384.735,351.063z"/>
<g>
</g>
<g>
</g>
<g>
</g>
<g>
</g>
<g>
</g>
<g>
</g>
<g>
</g>
<g>
</g>
<g>
</g>
<g>
</g>
<g>
</g>
<g>
</g>
<g>
</g>
<g>
</g>
<g>
</g>
</svg>
