<?xml version="1.0" encoding="iso-8859-1"?>
<!-- Generator: Adobe Illustrator 19.0.0, SVG Export Plug-In . SVG Version: 6.00 Build 0)  -->
<svg xmlns="http://www.w3.org/2000/svg" xmlns:xlink="http://www.w3.org/1999/xlink" version="1.1" id="Layer_1" x="0px" y="0px" viewBox="0 0 512.001 512.001" style="enable-background:new 0 0 512.001 512.001;" xml:space="preserve">
<path style="fill:#FF4B55;" d="M503.172,423.725H8.828c-4.875,0-8.828-3.953-8.828-8.828V97.104c0-4.875,3.953-8.828,8.828-8.828  h494.345c4.875,0,8.828,3.953,8.828,8.828v317.793C512,419.773,508.047,423.725,503.172,423.725z"/>
<path style="fill:#73AF00;" d="M441.379,158.898v194.207H70.621V158.898H441.379"/>
<path style="fill:#F5F5F5;" d="M238.378,256.027c0-33.425,22.767-61.417,53.587-69.525c1.026-0.27,0.952-1.754-0.1-1.889  c-2.796-0.36-5.64-0.566-8.533-0.566c-39.785,0-71.992,32.202-71.992,71.98c0,39.606,32.207,71.896,71.992,71.896  c2.898,0,5.745-0.209,8.544-0.569c1.052-0.136,1.125-1.619,0.1-1.889C261.15,317.344,238.378,289.311,238.378,256.027z"/>
<g>
</g>
<g>
</g>
<g>
</g>
<g>
</g>
<g>
</g>
<g>
</g>
<g>
</g>
<g>
</g>
<g>
</g>
<g>
</g>
<g>
</g>
<g>
</g>
<g>
</g>
<g>
</g>
<g>
</g>
</svg>
