<?xml version="1.0" encoding="iso-8859-1"?>
<!-- Generator: Adobe Illustrator 19.0.0, SVG Export Plug-In . SVG Version: 6.00 Build 0)  -->
<svg xmlns="http://www.w3.org/2000/svg" xmlns:xlink="http://www.w3.org/1999/xlink" version="1.1" id="Layer_1" x="0px" y="0px" viewBox="0 0 512.001 512.001" style="enable-background:new 0 0 512.001 512.001;" xml:space="preserve">
<path style="fill:#41479B;" d="M503.172,423.724H8.828c-4.875,0-8.828-3.953-8.828-8.828V97.104c0-4.875,3.953-8.828,8.828-8.828  h494.345c4.875,0,8.828,3.953,8.828,8.828v317.792C512,419.772,508.047,423.724,503.172,423.724z"/>
<rect y="238.34" style="fill:#FFE15A;" width="512" height="35.31"/>
<polygon style="fill:#F5F5F5;" points="119.172,308.965 124.313,329.505 139.034,314.287 133.217,334.645 153.574,328.827   138.358,343.55 158.896,348.689 138.358,353.83 153.574,368.551 133.217,362.734 139.034,383.092 124.313,367.875 119.172,388.414   114.031,367.875 99.31,383.092 105.128,362.734 84.77,368.551 99.987,353.83 79.448,348.689 99.987,343.55 84.77,328.827   105.128,334.645 99.31,314.287 114.031,329.505 "/>
<g>
</g>
<g>
</g>
<g>
</g>
<g>
</g>
<g>
</g>
<g>
</g>
<g>
</g>
<g>
</g>
<g>
</g>
<g>
</g>
<g>
</g>
<g>
</g>
<g>
</g>
<g>
</g>
<g>
</g>
</svg>
