<?xml version="1.0" encoding="iso-8859-1"?>
<!-- Generator: Adobe Illustrator 19.0.0, SVG Export Plug-In . SVG Version: 6.00 Build 0)  -->
<svg xmlns="http://www.w3.org/2000/svg" xmlns:xlink="http://www.w3.org/1999/xlink" version="1.1" id="Layer_1" x="0px" y="0px" viewBox="0 0 512.001 512.001" style="enable-background:new 0 0 512.001 512.001;" xml:space="preserve">
<path style="fill:#73AF00;" d="M503.172,423.721H8.828c-4.875,0-8.828-3.953-8.828-8.828V97.101c0-4.875,3.953-8.828,8.828-8.828  h494.345c4.875,0,8.828,3.953,8.828,8.828v317.792C512,419.77,508.047,423.721,503.172,423.721z"/>
<rect x="70.62" y="88.277" style="fill:#FF4B55;" width="88.28" height="335.45"/>
<polygon style="fill:#F5F5F5;" points="150.069,126.526 132.414,141.239 97.103,141.239 79.448,126.526 79.448,111.813   97.103,97.101 132.414,97.101 150.069,111.813 "/>
<g>
	<polygon style="fill:#73AF00;" points="150.069,250.112 132.414,264.826 97.103,264.826 79.448,250.112 79.448,235.4    97.103,220.687 132.414,220.687 150.069,235.4  "/>
	<polygon style="fill:#73AF00;" points="150.069,188.319 132.414,203.032 97.103,203.032 79.448,188.319 79.448,173.607    97.103,158.894 132.414,158.894 150.069,173.607  "/>
	<polygon style="fill:#73AF00;" points="150.069,311.905 132.414,326.618 97.103,326.618 79.448,311.905 79.448,297.194    97.103,282.48 132.414,282.48 150.069,297.194  "/>
</g>
<g>
	<polygon style="fill:#FFB400;" points="70.621,132.411 88.276,150.066 70.621,167.721  "/>
	<polygon style="fill:#FFB400;" points="158.896,167.721 141.241,150.066 158.896,132.411  "/>
	<polygon style="fill:#FFB400;" points="70.621,194.204 88.276,211.859 70.621,229.514  "/>
	<polygon style="fill:#FFB400;" points="158.896,229.514 141.241,211.859 158.896,194.204  "/>
	<polygon style="fill:#FFB400;" points="70.621,255.997 88.276,273.652 70.621,291.307  "/>
	<polygon style="fill:#FFB400;" points="158.896,291.307 141.241,273.652 158.896,255.997  "/>
	<polygon style="fill:#FFB400;" points="70.621,317.79 88.276,335.445 70.621,353.1  "/>
	<polygon style="fill:#FFB400;" points="158.896,353.1 141.241,335.445 158.896,317.79  "/>
	<polygon style="fill:#FFB400;" points="70.621,88.273 88.276,88.273 70.621,105.928  "/>
	<polygon style="fill:#FFB400;" points="158.896,105.928 141.241,88.273 158.896,88.273  "/>
	<rect x="110.34" y="158.897" style="fill:#FFB400;" width="8.828" height="44.14"/>
</g>
<rect x="97.1" y="176.547" style="fill:#FF4B55;" width="35.31" height="8.828"/>
<g>
	<polygon style="fill:#FFB400;" points="141.241,166.25 132.414,158.894 132.414,203.032 141.241,195.675  "/>
	<polygon style="fill:#FFB400;" points="88.276,195.675 97.103,203.032 97.103,158.895 88.276,166.25  "/>
	<polygon style="fill:#FFB400;" points="114.758,97.101 97.104,97.101 79.448,111.813 79.448,119.17 114.758,119.17  "/>
	<polygon style="fill:#FFB400;" points="114.758,141.239 132.414,141.239 150.069,126.526 150.069,119.17 114.758,119.17  "/>
</g>
<polygon style="fill:#FF4B55;" points="114.758,132.411 97.103,119.222 114.758,105.928 132.414,119.222 "/>
<g>
	<polygon style="fill:#73AF00;" points="114.758,132.411 132.414,119.222 132.345,119.17 114.758,119.17  "/>
	<polygon style="fill:#73AF00;" points="114.758,119.17 114.758,105.928 97.173,119.17  "/>
</g>
<rect x="97.1" y="229.517" style="fill:#FF4B55;" width="35.31" height="26.483"/>
<rect x="132.41" y="238.337" style="fill:#FFB400;" width="8.828" height="8.828"/>
<rect x="110.34" y="238.337" style="fill:#F5F5F5;" width="8.828" height="8.828"/>
<rect x="110.34" y="291.307" style="fill:#FF4B55;" width="8.828" height="8.828"/>
<g>
	<rect x="123.59" y="300.138" style="fill:#FFB400;" width="8.828" height="8.828"/>
	<rect x="97.1" y="300.138" style="fill:#FFB400;" width="8.828" height="8.828"/>
</g>
<rect x="110.34" y="308.957" style="fill:#FF4B55;" width="8.828" height="8.828"/>
<rect x="88.28" y="238.337" style="fill:#FFB400;" width="8.828" height="8.828"/>
<polygon style="fill:#F5F5F5;" points="150.069,373.698 132.414,388.411 97.103,388.411 79.448,373.698 79.448,358.987   97.103,344.273 132.414,344.273 150.069,358.987 "/>
<g>
	<polygon style="fill:#FFB400;" points="114.758,344.273 97.104,344.273 79.448,358.986 79.448,366.342 114.758,366.342  "/>
	<polygon style="fill:#FFB400;" points="114.758,388.411 132.414,388.411 150.069,373.698 150.069,366.342 114.758,366.342  "/>
</g>
<polygon style="fill:#FF4B55;" points="132.414,370.755 114.758,379.583 97.103,370.755 97.103,361.928 114.758,353.1   132.414,361.928 "/>
<g>
	<path style="fill:#F5F5F5;" d="M280.01,136.34c-0.94-0.462-1.791,0.761-1.028,1.48c9.99,9.427,16.303,22.666,16.303,37.433   c0,29.007-23.316,52.279-51.986,52.279c-5.292,0-10.389-0.825-15.197-2.328c-0.996-0.311-1.641,1.025-0.783,1.621   c8.382,5.827,18.485,9.31,29.514,9.31c29.049,0,52.787-23.275,52.787-52.703C309.619,162.75,297.48,144.929,280.01,136.34z"/>
	<path style="fill:#F5F5F5;" d="M208.173,170.4l-2.159,6.109l5.08,4.021c0.658,0.521,0.275,1.579-0.564,1.557l-6.477-0.167   l-2.254,6.074c-0.292,0.787-1.417,0.749-1.655-0.055l-1.843-6.211l-6.474-0.267c-0.839-0.034-1.15-1.116-0.459-1.591l5.338-3.672   l-1.747-6.24c-0.226-0.808,0.706-1.439,1.372-0.928l5.142,3.942l5.395-3.59C207.564,168.917,208.452,169.609,208.173,170.4z"/>
	<path style="fill:#F5F5F5;" d="M234.407,183.65l-2.159,6.109l5.08,4.021c0.658,0.521,0.275,1.579-0.564,1.557l-6.477-0.167   l-2.254,6.074c-0.292,0.787-1.417,0.749-1.655-0.055l-1.843-6.211l-6.474-0.267c-0.839-0.034-1.15-1.116-0.459-1.591l5.338-3.672   l-1.747-6.24c-0.226-0.808,0.706-1.439,1.372-0.928l5.142,3.942l5.395-3.59C233.799,182.168,234.686,182.86,234.407,183.65z"/>
	<path style="fill:#F5F5F5;" d="M234.142,156.355l-2.159,6.109l5.08,4.021c0.658,0.521,0.275,1.579-0.564,1.557l-6.477-0.167   l-2.254,6.074c-0.292,0.787-1.417,0.749-1.655-0.055l-1.843-6.211l-6.474-0.267c-0.839-0.034-1.15-1.116-0.459-1.591l5.338-3.672   l-1.747-6.24c-0.226-0.808,0.706-1.439,1.372-0.928l5.142,3.942l5.395-3.59C233.534,154.873,234.422,155.565,234.142,156.355z"/>
	<path style="fill:#F5F5F5;" d="M235.036,130.01l-2.159,6.109l5.08,4.021c0.658,0.521,0.275,1.579-0.564,1.557l-6.477-0.167   l-2.254,6.074c-0.292,0.787-1.417,0.749-1.655-0.055l-1.843-6.211l-6.474-0.267c-0.839-0.034-1.15-1.116-0.459-1.591l5.338-3.672   l-1.747-6.24c-0.226-0.808,0.706-1.439,1.372-0.928l5.142,3.942l5.395-3.59C234.427,128.527,235.315,129.219,235.036,130.01z"/>
	<path style="fill:#F5F5F5;" d="M260.741,143.26l-2.159,6.109l5.08,4.021c0.658,0.521,0.275,1.579-0.564,1.557l-6.477-0.167   l-2.254,6.074c-0.292,0.787-1.417,0.749-1.655-0.055l-1.843-6.211l-6.474-0.267c-0.839-0.034-1.15-1.116-0.459-1.591l5.338-3.672   l-1.747-6.24c-0.226-0.808,0.706-1.439,1.372-0.928l5.142,3.942l5.395-3.59C260.132,141.777,261.02,142.469,260.741,143.26z"/>
</g>
<g>
</g>
<g>
</g>
<g>
</g>
<g>
</g>
<g>
</g>
<g>
</g>
<g>
</g>
<g>
</g>
<g>
</g>
<g>
</g>
<g>
</g>
<g>
</g>
<g>
</g>
<g>
</g>
<g>
</g>
</svg>
