<?xml version="1.0" encoding="iso-8859-1"?>
<!-- Generator: Adobe Illustrator 19.0.0, SVG Export Plug-In . SVG Version: 6.00 Build 0)  -->
<svg xmlns="http://www.w3.org/2000/svg" xmlns:xlink="http://www.w3.org/1999/xlink" version="1.1" id="Layer_1" x="0px" y="0px" viewBox="0 0 512.001 512.001" style="enable-background:new 0 0 512.001 512.001;" xml:space="preserve">
<rect x="114.76" y="88.277" style="fill:#FFE15A;" width="282.48" height="335.45"/>
<path style="fill:#73AF00;" d="M503.172,423.721h-105.93V88.273h105.931c4.875,0,8.828,3.953,8.828,8.828v317.792  C512,419.769,508.047,423.721,503.172,423.721z"/>
<path style="fill:#4173CD;" d="M8.828,88.273h105.931v335.448H8.828c-4.875,0-8.828-3.953-8.828-8.828V97.101  C0,92.226,3.953,88.273,8.828,88.273z"/>
<g>
	<polygon style="fill:#73AF00;" points="191.886,251.475 220.521,308.746 249.157,251.475 220.521,194.204  "/>
	<polygon style="fill:#73AF00;" points="262.843,251.475 291.479,308.746 320.114,251.475 291.479,194.204  "/>
	<polygon style="fill:#73AF00;" points="227.364,320.327 255.999,377.597 284.635,320.327 255.999,263.056  "/>
</g>
<g>
</g>
<g>
</g>
<g>
</g>
<g>
</g>
<g>
</g>
<g>
</g>
<g>
</g>
<g>
</g>
<g>
</g>
<g>
</g>
<g>
</g>
<g>
</g>
<g>
</g>
<g>
</g>
<g>
</g>
</svg>
