<?xml version="1.0" encoding="iso-8859-1"?>
<!-- Generator: Adobe Illustrator 19.0.0, SVG Export Plug-In . SVG Version: 6.00 Build 0)  -->
<svg xmlns="http://www.w3.org/2000/svg" xmlns:xlink="http://www.w3.org/1999/xlink" version="1.1" id="Layer_1" x="0px" y="0px" viewBox="0 0 512.001 512.001" style="enable-background:new 0 0 512.001 512.001;" xml:space="preserve">
<path style="fill:#73AF00;" d="M512,200.093H0V97.104c0-4.875,3.953-8.828,8.828-8.828h494.345c4.875,0,8.828,3.953,8.828,8.828  L512,200.093L512,200.093z"/>
<path style="fill:#FF4B55;" d="M503.172,423.724H8.828c-4.875,0-8.828-3.953-8.828-8.828V311.908h512v102.988  C512,419.772,508.047,423.724,503.172,423.724z"/>
<rect y="200.09" style="fill:#F5F5F5;" width="512" height="111.81"/>
<path style="fill:#464655;" d="M258.225,230.485l5.507,16.513l17.407,0.135c2.253,0.018,3.188,2.893,1.375,4.232l-14.003,10.34  l5.25,16.597c0.68,2.148-1.767,3.926-3.601,2.615l-14.162-10.121l-14.162,10.122c-1.834,1.311-4.28-0.467-3.601-2.615l5.25-16.597  l-14.003-10.34c-1.813-1.338-0.878-4.215,1.375-4.232l17.407-0.135l5.507-16.513C254.488,228.348,257.512,228.348,258.225,230.485z"/>
<g>
	<path style="fill:#F5F5F5;" d="M136.486,133.861c0.693,4.441,3.378,5.835,5.713,5.654c2.752-0.214,5.166-2.731,5.166-5.388v-15.243   c0-0.764,0.621-1.386,1.386-1.386s1.386,0.622,1.386,1.386v15.308c0,1.841,0.909,3.556,2.434,4.587   c0.931,0.63,2.015,0.956,3.107,0.956c0.695,0,1.394-0.132,2.06-0.398l1.385-0.554c0.128,12.794-0.651,24.04-0.665,24.246   c-0.108,1.526,1.041,2.852,2.567,2.961c0.067,0.006,0.134,0.008,0.201,0.008c1.441,0,2.658-1.116,2.762-2.574   c0.064-0.902,0.918-13.216,0.662-26.851l0.838-0.334c0.735-0.292,1.559-0.257,2.265,0.095c3.053,1.521,6.725,0.928,9.139-1.483   l0.5-0.498c2.24-2.243,3.009-5.502,2.007-8.509l-2.36-7.08c1.276,0.384,2.678-0.181,3.294-1.41c0.685-1.369,0.13-3.034-1.239-3.719   l-5.543-2.772c-1.003-0.503-2.206-0.349-3.055,0.384c-0.847,0.736-1.167,1.908-0.813,2.972l4.459,13.378   c0.334,1.002,0.077,2.09-0.669,2.836l-0.498,0.498c-0.723,0.723-1.823,0.898-2.743,0.444c-1.796-0.897-3.841-1.066-5.76-0.576   c-0.39-8.895-1.347-17.753-3.389-23.876c-0.483-1.451-2.05-2.238-3.507-1.751c-1.452,0.482-2.237,2.051-1.752,3.505   c1.996,5.988,2.867,15.115,3.176,24.19l-3.317,1.327v-15.308c0-3.821-3.108-6.929-6.929-6.929c-3.82,0-6.929,3.107-6.929,6.929   v13.416l-2.827-13.965c-0.301-1.502-1.762-2.482-3.265-2.168c-1.501,0.306-2.471,1.768-2.166,3.266L136.486,133.861z"/>
	<path style="fill:#F5F5F5;" d="M141.821,110.569c1.53,0,2.772-1.239,2.772-2.772v-2.771c0-1.532-1.241-2.772-2.772-2.772   c-1.53,0-2.772,1.239-2.772,2.772v2.772C139.051,109.33,140.291,110.569,141.821,110.569z"/>
	<path style="fill:#F5F5F5;" d="M169.536,107.797h2.772c1.53,0,2.772-1.239,2.772-2.772c0-1.533-1.241-2.772-2.772-2.772h-2.772   c-1.53,0-2.772,1.239-2.772,2.772C166.764,106.558,168.005,107.797,169.536,107.797z"/>
	<path style="fill:#F5F5F5;" d="M151.481,144.221l-13.857,8.314c-1.313,0.788-1.738,2.49-0.95,3.802   c0.52,0.866,1.437,1.345,2.379,1.345c0.486,0,0.977-0.127,1.423-0.395l13.857-8.314c1.313-0.788,1.738-2.49,0.95-3.802   S152.795,143.434,151.481,144.221z"/>
	<path style="fill:#F5F5F5;" d="M188.845,149.124l0.065-0.044c0.233,0.937,0.632,1.843,1.279,2.604   c1.126,1.326,2.815,1.992,4.723,1.835c2.707-0.198,4.547-1.434,5.764-3.031c0.185,0.127,0.381,0.244,0.585,0.346   c1.498,0.755,3.23,0.698,4.879-0.157c4.189-2.157,5.091-7.148,4.963-9.757c-0.074-1.521-1.368-2.595-2.886-2.625   c-1.523,0.065-2.707,1.356-2.653,2.877c0.001,0.035,0.064,3.324-1.948,4.544c-0.328-0.458-0.717-1.486-0.863-2.336   c-0.234-1.427-1.544-2.42-2.954-2.306c-1.437,0.114-2.547,1.321-2.552,2.763c-0.001,0.403-0.09,3.959-2.836,4.257   c-0.319-0.436-0.324-2.271-0.011-3.627c0.265-1.112-0.181-2.273-1.122-2.923c-0.943-0.652-2.187-0.652-3.133-0.011l-1.547,1.053   c-0.735-16.072-2.426-34.8-2.447-35.04c-0.138-1.521-1.478-2.655-3.011-2.509c-1.525,0.138-2.648,1.486-2.51,3.012   c0.024,0.256,1.982,21.924,2.585,38.473c-0.141,0.135-0.288,0.282-0.427,0.41c-1.096-2.763-3.268-4.503-6.067-4.769   c-3.949-0.349-8.227,2.338-9.761,6.176c-1.322,3.302-0.49,6.547,2.119,8.266c1.876,1.237,4.706,1.626,8.266,0.378   c-0.868,3.053-2.451,6.149-4.508,8.544c-1.842,2.146-4.918,4.622-8.854,4.512c-2.291-0.089-4.052-0.839-5.382-2.295   c-3.209-3.505-2.933-9.849-2.93-9.917c0.079-1.526-1.089-2.828-2.614-2.912c-1.536-0.162-2.836,1.086-2.921,2.614   c-0.019,0.352-0.42,8.687,4.352,13.93c2.349,2.584,5.471,3.968,9.278,4.117c0.185,0.008,0.371,0.011,0.557,0.011   c4.637,0,9.134-2.273,12.717-6.45c3.371-3.925,5.66-9.256,6.346-14.205c-0.009,9.481-5.721,20.174-13.298,24.885   c-3.217,1.997-8.232,3.8-13.881,1.015c-6.964-3.437-6.134-11.396-6.098-11.722c0.191-1.518-0.887-2.904-2.406-3.093   c-1.512-0.184-2.905,0.885-3.093,2.406c-0.062,0.495-1.394,12.179,9.145,17.378c2.707,1.337,5.537,2.001,8.391,2.001   c3.665,0,7.363-1.096,10.869-3.277c9.223-5.732,15.917-18.187,15.917-29.614C188.936,153.128,188.902,151.176,188.845,149.124z    M172.134,151.98c-0.495-0.328-0.108-1.375-0.024-1.583c0.584-1.461,2.409-2.726,3.868-2.726c0.074,0,0.15,0.002,0.223,0.011   c0.354,0.032,1.295,0.121,1.699,2.214c0.043,0.222,0.079,0.449,0.108,0.682C174.919,152.392,172.849,152.449,172.134,151.98z"/>
	<path style="fill:#F5F5F5;" d="M143.221,177.47c-1.313-0.771-3.009-0.33-3.789,0.982c-0.127,0.214-0.297,0.447-0.468,0.658   c-0.03-0.071-0.06-0.146-0.089-0.227c-1.155-3.083-0.333-7.832,0.083-9.402c0.391-1.478-0.489-2.994-1.966-3.389   c-1.475-0.378-2.993,0.482-3.389,1.96c-0.202,0.749-1.906,7.478,0.082,12.777c1.272,3.389,3.224,4.244,4.64,4.36   c0.126,0.011,0.25,0.017,0.373,0.017c2.984,0,4.969-3.007,5.522-3.959C144.984,179.925,144.536,178.245,143.221,177.47z"/>
	<path style="fill:#F5F5F5;" d="M194.365,127.198c0.599,0,1.203-0.192,1.71-0.593l13.972-10.969c0.193-0.151,0.316-0.35,0.457-0.536   c2.012-1.214,3.374-3.399,3.374-5.916c0-3.821-3.108-6.929-6.929-6.929c-3.82,0-6.929,3.107-6.929,6.929   c0,2.138,0.993,4.029,2.519,5.3l-9.889,7.764c-1.203,0.945-1.412,2.688-0.468,3.89C192.73,126.835,193.543,127.198,194.365,127.198   z M206.95,107.797c0.765,0,1.386,0.622,1.386,1.386c0,0.764-0.621,1.386-1.386,1.386s-1.386-0.622-1.386-1.386   C205.564,108.42,206.185,107.797,206.95,107.797z"/>
	<path style="fill:#F5F5F5;" d="M203.67,124.57c-1.46-0.487-3.023,0.3-3.507,1.751c-0.297,0.887-1.636,5.459,1.08,8.173   c1.054,1.056,2.44,1.583,4.141,1.58c1.137,0,2.414-0.233,3.828-0.706c1.452-0.482,2.237-2.051,1.752-3.505   c-0.484-1.451-2.051-2.241-3.507-1.751c-1.548,0.514-2.204,0.43-2.262,0.484c-0.163-0.412-0.055-1.649,0.228-2.534   C205.903,126.615,205.118,125.052,203.67,124.57z"/>
	<path style="fill:#F5F5F5;" d="M235.388,113.114c0.259,0.076,0.521,0.111,0.778,0.111c1.201,0,2.306-0.785,2.659-1.995l1.618-5.543   c0.429-1.47-0.415-3.009-1.884-3.437c-1.474-0.425-3.008,0.414-3.437,1.884l-1.617,5.543   C233.075,111.145,233.921,112.686,235.388,113.114z"/>
	<path style="fill:#F5F5F5;" d="M219.235,112.788c0.44,0.257,0.921,0.378,1.397,0.378c0.952,0,1.879-0.49,2.396-1.373   c0.772-1.321,0.328-3.02-0.993-3.791c-0.557-0.324-0.482-1.242-0.461-1.423c0.083-0.728,0.516-1.615,1.272-1.852   c1.461-0.455,2.278-2.008,1.823-3.469c-0.458-1.464-2.008-2.273-3.471-1.824c-2.763,0.861-4.777,3.418-5.131,6.515   C215.736,108.831,216.951,111.452,219.235,112.788z"/>
	<path style="fill:#F5F5F5;" d="M197.25,157.683c-1.53,0-2.772,1.239-2.772,2.772c0,1.353,0.969,2.479,2.252,2.722   c0.146,0.214,0.52,0.947,0.52,2.82c0,1.532,1.241,2.772,2.772,2.772s2.772-1.239,2.772-2.772   C202.793,157.778,197.476,157.683,197.25,157.683z"/>
	<path style="fill:#F5F5F5;" d="M244.269,146.208c0.348,0.057,0.694,0.084,1.042,0.084c2.177,0,4.377-1.099,6.557-3.277   c1.082-1.082,1.082-2.836,0-3.919c-1.082-1.082-2.836-1.082-3.919,0c-1.657,1.66-2.549,1.694-2.778,1.643   c-0.53-0.076-1.009-0.766-1.116-0.956c-0.695-1.347-2.344-1.887-3.701-1.207c-1.369,0.685-1.924,2.349-1.239,3.719   C239.286,142.639,240.887,145.659,244.269,146.208z"/>
	<path style="fill:#F5F5F5;" d="M291.377,126.732c-0.018-0.043-0.034-0.084-0.047-0.121c-0.491-1.44-2.061-2.222-3.498-1.732   c-1.453,0.482-2.238,2.051-1.753,3.505c0.216,0.65,1.451,3.908,4.509,4.32c0.204,0.028,0.407,0.041,0.609,0.041   c1.92,0,3.721-1.242,5.361-3.7c0.849-1.272,0.504-2.994-0.769-3.843c-1.274-0.847-2.996-0.506-3.843,0.769   C291.725,126.297,291.536,126.546,291.377,126.732z"/>
	<path style="fill:#F5F5F5;" d="M285.936,177.084c0-11.819-0.52-22.906-1.24-32.62c3.936,6.825,7.476,13.721,9.731,19.737   c0.418,1.112,1.474,1.798,2.595,1.798c0.323,0,0.652-0.057,0.973-0.175c1.433-0.538,2.159-2.135,1.622-3.57   c-3.508-9.352-9.813-20.489-16.028-30.376c-1.515-14.93-3.211-24.405-3.242-24.574c-0.274-1.507-1.714-2.525-3.222-2.23   c-1.506,0.274-2.505,1.716-2.231,3.221c0.022,0.12,0.896,5.002,1.939,13.217c-2.129-3.159-4.107-6.01-5.768-8.356l0.136,0.043   c1.46,0.487,3.021-0.3,3.507-1.751c0.484-1.453-0.3-3.023-1.752-3.505l-8.314-2.772c-1.153-0.39-2.419,0.022-3.125,1.006   c-0.189,0.263-0.319,0.551-0.405,0.85c-1.66-1.227-3.787-2.223-5.784-1.388c-1.208,0.501-2.648,1.762-2.648,4.931   c0,2.433,0.928,5.064,1.912,7.851c1.632,4.622,2.654,8.022,0.926,9.643c-0.956,0.896-1.909,1.234-2.84,0.999   c-1.709-0.433-3.401-2.709-4.527-6.09c-0.049-0.147-0.151-0.253-0.221-0.385c0.583-4.294,0.329-9.465-0.845-15.333   c-0.299-1.502-1.756-2.479-3.262-2.174c-1.501,0.3-2.474,1.759-2.174,3.262c1.81,9.05,1.267,16.434-1.452,19.749   c-1.052,1.283-2.368,1.878-4.145,1.878c-0.562,0-0.945-0.179-1.326-0.617c-2.187-2.52-2.177-10.65-1.472-15.621   c0.113-0.793-0.126-1.6-0.652-2.206s-1.29-0.956-2.092-0.956c-4.769,0-6.577,5.423-8.172,10.209c-0.7,2.103-2.004,6.014-2.913,6.42   c-1.678,0-2.762-4.926-2.772-8.317c-0.004-1.529-1.244-2.766-2.772-2.766h-0.004c-1.529,0-2.767,1.239-2.767,2.769   c0,6.392,2.177,13.857,8.314,13.857c4.569,0,6.421-4.98,7.97-9.608c0.269,3.681,1.1,7.495,3.144,9.849   c1.436,1.656,3.342,2.53,5.514,2.53c3.421,0,6.336-1.351,8.43-3.905c0.38-0.462,0.706-0.993,1.03-1.529   c1.61,2.287,3.583,3.796,5.807,4.358c0.652,0.166,1.309,0.249,1.959,0.249c2.14,0,4.231-0.883,6.036-2.579   c0.375-0.353,0.64-0.738,0.926-1.118c0.678,0.194,1.365,0.309,2.047,0.309c2.246,0,4.406-0.904,5.747-1.764   c1.283-0.823,1.654-2.522,0.839-3.81c-0.817-1.286-2.524-1.67-3.816-0.863c-0.023,0.011-1.875,1.075-3.137,0.825   c0.003-3.038-1.096-6.265-2.1-9.108c-0.572-1.619-1.158-3.277-1.433-4.633c0.228,0.192,0.452,0.393,0.651,0.587   c1.08,1.082,2.835,1.082,3.917,0c0.179-0.179,0.282-0.396,0.403-0.606c2.873,3.958,8.781,12.274,14.859,21.86   c1.16,11.783,2.179,26.815,2.179,43.3c0,1.532,1.241,2.772,2.772,2.772C284.695,179.855,285.936,178.615,285.936,177.084z"/>
	<path style="fill:#F5F5F5;" d="M288.707,116.112c0,1.532,1.241,2.772,2.772,2.772c1.53,0,2.772-1.239,2.772-2.772   c0-3.262-2.552-8.531-3.064-9.554c-0.685-1.367-2.348-1.919-3.719-1.239c-1.369,0.685-1.924,2.349-1.239,3.719   C287.228,111.037,288.707,114.666,288.707,116.112z"/>
	<path style="fill:#F5F5F5;" d="M276.096,177.386c-1.358-0.693-3.029-0.143-3.72,1.22c-0.298,0.582-0.759,1.229-1.149,1.645   c-0.124-1.101,0.171-3.302,0.729-5.126c0.372-1.218-0.132-2.534-1.224-3.188c-1.087-0.658-2.487-0.487-3.385,0.414l-5.543,5.543   c-1.082,1.082-1.082,2.836,0,3.919c1.082,1.084,2.836,1.082,3.919,0l0.141-0.141c0.239,1.112,0.698,2.127,1.483,2.912   c1.039,1.039,2.295,1.589,3.601,1.589c0.253,0,0.508-0.022,0.761-0.062c3.139-0.509,5.094-3.97,5.619-5.017   C278.011,179.728,277.459,178.074,276.096,177.386z"/>
	<path style="fill:#F5F5F5;" d="M275.023,155.085h-19.532c0.173-0.69,0.352-1.347,0.533-1.973c7.789-1.619,12.418-4.132,13.78-7.489   c0.471-1.164,0.962-3.516-1.042-6.219c-1.806-2.435-4.358-3.529-7.006-2.988c-3.938,0.799-7.447,5.042-9.965,11.836   c-7.823,1.34-12.832,4.148-16.002,6.92c-1.124-11.357-5.534-18.103-5.747-18.424c-0.85-1.274-2.571-1.619-3.843-0.769   c-1.273,0.85-1.617,2.569-0.769,3.843c0.05,0.076,5.077,7.765,5.077,20.634c0,12.65-10.087,22.172-16.629,22.172   c-3.112,0-4.473-3.699-5.073-6.826c6.404-4.489,12.056-9.683,13.304-14.674c1.689-6.753-0.437-11.73-1.843-15.023   c-0.066-0.151-0.136-0.314-0.205-0.482c0.06,0.054,0.116,0.111,0.173,0.166c1.08,1.082,2.835,1.082,3.917,0s1.082-2.836,0-3.919   c-1.62-1.621-4.766-4.168-7.626-2.972c-1.208,0.501-2.648,1.762-2.648,4.931c0,1.432,0.598,2.831,1.291,4.455   c1.248,2.921,2.799,6.556,1.562,11.502c-0.732,2.927-4.328,6.479-9.071,10.005c-0.509-0.608-1.244-1.017-2.097-1.017h-0.004   c-1.529,0.002-2.767,1.239-2.767,2.769c0,0.499,0.022,1.032,0.054,1.579c-5.931,3.841-12.642,7.396-17.831,9.757   c-1.393,0.633-2.008,2.276-1.375,3.67c0.465,1.021,1.471,1.624,2.524,1.624c0.384,0,0.774-0.078,1.145-0.249   c1.558-0.708,8.954-4.154,16.553-8.863c1.399,4.751,4.364,9.112,10.016,9.112c6.648,0,14.191-5.437,18.543-13.554   c0.525,0.928,1.13,1.816,1.849,2.646c6.976,8.044,20.601,8.136,21.178,8.136c1.493,0,2.716-1.18,2.77-2.671   c0.053-1.491-1.084-2.758-2.571-2.863c-0.022-0.002-2.23-0.246-3.459-1.681c-0.742-0.866-1.038-2.057-0.907-3.64   c0.285-3.415,11.3-5.967,21.011-6.12c1.158-0.019,2.182-0.753,2.57-1.843l2.772-7.795c0.301-0.847,0.172-1.792-0.348-2.525   C276.769,155.524,275.923,155.085,275.023,155.085z M262.857,141.851c0.053-0.011,0.124-0.028,0.211-0.028   c0.265,0,0.683,0.13,1.241,0.883c0.106,0.141,0.443,0.622,0.358,0.833c-0.318,0.785-2.231,2.081-6.218,3.256   C260.202,143.375,261.917,142.039,262.857,141.851z M246.121,178.282c-2.816-0.915-5.685-2.366-7.671-4.663   c-2.183-2.525-2.989-5.719-2.461-9.76c0.079-0.212,0.26-0.631,0.578-1.175c3.903-0.358,14.328,1.181,15.051,4.167   c-3.215,1.642-5.585,3.949-5.858,7.231C245.623,175.728,245.79,177.121,246.121,178.282z"/>
	<path style="fill:#F5F5F5;" d="M305.193,115.236l-2.772-8.314c-0.447-1.337-1.834-2.135-3.209-1.832   c-1.382,0.295-2.319,1.58-2.178,2.985c1.912,19.124,5.529,56.419,5.529,60.695c0,3.84-6.831,11.402-17.868,16.921   c-1.369,0.685-1.924,2.349-1.239,3.719c0.486,0.972,1.464,1.532,2.482,1.532c0.415,0,0.839-0.095,1.237-0.292   c10.081-5.042,20.931-14.038,20.931-21.879c0-4.095-2.833-33.558-4.455-50.107C304.968,118.101,305.653,116.615,305.193,115.236z"/>
	<path style="fill:#F5F5F5;" d="M328.319,140.243c0.533,0.533,1.242,0.812,1.961,0.812c0.468,0,0.94-0.119,1.369-0.363   c1.084-0.617,1.622-1.884,1.315-3.093c-0.497-1.949-0.662-4.384-0.399-5.38c1.388,0.043,2.677-0.945,2.881-2.377   c0.216-1.516-0.836-2.921-2.35-3.137c-1.833-0.249-3.442,0.289-4.566,1.54c-0.728,0.812-1.161,1.854-1.397,2.975l-3.21-3.21   c-1.082-1.082-2.836-1.082-3.919,0c-1.082,1.082-1.082,2.836,0,3.919L328.319,140.243z"/>
	<path style="fill:#F5F5F5;" d="M334.554,143.133l-10.393,7.448c-1.244,0.89-1.53,2.623-0.639,3.868   c0.542,0.755,1.393,1.155,2.255,1.155c0.559,0,1.123-0.168,1.612-0.52l10.393-7.448c1.244-0.89,1.53-2.623,0.639-3.868   C337.528,142.525,335.793,142.235,334.554,143.133z"/>
	<path style="fill:#F5F5F5;" d="M333.633,153.556c-0.872,1.123-0.747,2.703,0.243,3.676c0.119,0.201,0.659,1.261,0.562,3.989   c-0.054,1.532,1.142,2.815,2.671,2.869c0.034,0.002,0.067,0.002,0.1,0.002c1.486,0,2.714-1.177,2.769-2.671   c0.202-5.656-1.65-7.724-2.455-8.35C336.317,152.127,334.573,152.349,333.633,153.556z"/>
	<path style="fill:#F5F5F5;" d="M357.82,173.965c1.53,0,2.772-1.239,2.772-2.772c0-4.089-0.21-8.654-0.554-13.404   c2.748,4.503,5.031,8.654,6.495,12.069c0.449,1.053,1.472,1.681,2.548,1.681c0.364,0,0.735-0.071,1.09-0.225   c1.406-0.604,2.058-2.232,1.454-3.637c-2.537-5.921-7.279-13.764-12.68-21.863c-1.087-10.173-2.507-20.139-3.61-27.289   c0.587,0.06,1.196-0.084,1.731-0.43c0.875-0.561,1.286-1.535,1.227-2.504c0.071,0.273,0.148,0.546,0.307,0.797   c0.019,0.028,1.8,2.969,1.01,6.785c-0.31,1.496,0.653,2.964,2.153,3.275c0.19,0.038,0.378,0.057,0.564,0.057   c1.287,0,2.44-0.902,2.712-2.211c1.251-6.055-1.639-10.688-1.762-10.882c-0.823-1.289-2.536-1.667-3.827-0.85   c-0.879,0.561-1.294,1.535-1.237,2.506c-0.072-0.274-0.151-0.55-0.312-0.801l-4.676-7.275c-0.715-1.11-2.112-1.559-3.34-1.082   c-1.23,0.482-1.95,1.762-1.721,3.061c0.039,0.217,2.156,12.38,4.034,27.038c-2.125-3-4.249-5.934-6.31-8.734   c-0.335-4.193-0.671-8.07-0.961-11.275c0.153-0.046,0.303-0.106,0.45-0.179c1.369-0.685,1.924-2.349,1.239-3.719l-2.772-5.543   c-0.598-1.196-1.963-1.792-3.249-1.423c-1.284,0.373-2.121,1.608-1.988,2.94c0.331,3.307,0.674,6.969,1.013,10.815   c-1.753-2.311-3.375-4.426-4.762-6.217c0.27-0.233,0.502-0.522,0.672-0.863c0.685-1.369,0.13-3.034-1.239-3.719l-5.543-2.772   c-1.162-0.579-2.574-0.276-3.395,0.736c-0.818,1.012-0.821,2.457-0.008,3.475c0.15,0.186,6.973,8.74,15.136,19.781   c1.416,18.312,2.358,37.359,1.027,41.353c-0.244,0.73-0.669,1.591-1.068,1.621c-1.675,0.233-5.673-3.513-7.681-7.527   c-1.158-2.312-2.822-2.552-3.712-2.511c-2.978,0.184-4.141,3.462-6.253,9.41c-1.514,4.263-3.395,9.562-5.507,11.73   c-1.144-1.398-2.624-6.09-3.446-10.912c0.386,1.066,1.384,1.837,2.583,1.837c1.53,0,2.772-1.239,2.772-2.772   c0-4.132-2.891-35.609-4.505-52.859c1.347-0.542,2.057-2.049,1.591-3.445l-2.772-8.314c-0.446-1.337-1.813-2.124-3.203-1.835   c-1.379,0.292-2.319,1.572-2.186,2.975c1.884,19.77,5.416,57.958,5.525,63.23c-0.007-0.047-0.017-0.095-0.023-0.141   c-0.215-1.516-1.63-2.554-3.135-2.351c-1.516,0.22-2.567,1.621-2.35,3.137c0.809,5.665,2.877,15.405,7.64,16.991   c0.376,0.127,0.883,0.241,1.476,0.241c1.092,0,2.481-0.387,3.9-1.807c3.019-3.018,5.061-8.771,6.863-13.846   c0.407-1.148,0.889-2.506,1.344-3.67c2.542,3.713,6.978,8.335,11.473,7.973c1.58-0.114,4.455-0.963,5.932-5.397   c1.474-4.422,0.892-19.84-0.102-34.601c2.335,3.273,4.672,6.623,6.902,9.933c0.864,8.299,1.483,16.615,1.483,23.444   C355.048,172.726,356.289,173.965,357.82,173.965z"/>
	<path style="fill:#F5F5F5;" d="M378.852,159.389c-1.963-14.626-4.698-31.568-6.431-41.966c0.782,0.192,1.634,0.035,2.322-0.492   c1.218-0.928,1.451-2.668,0.522-3.884l-5.023-6.582c-0.776-1.012-2.142-1.369-3.313-0.858c-1.171,0.512-1.839,1.757-1.621,3.015   c0.05,0.285,4.992,28.735,8.049,51.504c1.167,8.702-0.537,16.477-4.563,20.797c-2.588,2.774-6.016,4.03-10.165,3.789   c-1.524-0.082-2.845,1.066-2.941,2.593s1.064,2.841,2.592,2.94c0.468,0.03,0.929,0.043,1.387,0.043   c5.226,0,9.762-1.917,13.182-5.586C378.07,179.096,380.258,169.871,378.852,159.389z"/>
	<path style="fill:#F5F5F5;" d="M348.363,177.658c-1.018,1.107-0.94,2.85,0.137,3.894c0.15,0.146,0.33,0.433,0.331,0.574   c0.001,0.078-0.111,0.311-0.419,0.62c-1.082,1.082-1.082,2.836,0,3.919c0.542,0.542,1.25,0.812,1.96,0.812s1.418-0.27,1.96-0.812   c1.758-1.757,2.08-3.54,2.04-4.728c-0.085-2.558-1.827-4.209-2.175-4.514C351.066,176.436,349.381,176.555,348.363,177.658z"/>
</g>
<g>
</g>
<g>
</g>
<g>
</g>
<g>
</g>
<g>
</g>
<g>
</g>
<g>
</g>
<g>
</g>
<g>
</g>
<g>
</g>
<g>
</g>
<g>
</g>
<g>
</g>
<g>
</g>
<g>
</g>
</svg>
