<?xml version="1.0" encoding="iso-8859-1"?>
<!-- Generator: Adobe Illustrator 19.0.0, SVG Export Plug-In . SVG Version: 6.00 Build 0)  -->
<svg xmlns="http://www.w3.org/2000/svg" xmlns:xlink="http://www.w3.org/1999/xlink" version="1.1" id="Layer_1" x="0px" y="0px" viewBox="0 0 512.001 512.001" style="enable-background:new 0 0 512.001 512.001;" xml:space="preserve">
<path style="fill:#82AFFF;" d="M503.172,423.725H8.828c-4.875,0-8.828-3.953-8.828-8.828V97.104c0-4.875,3.953-8.828,8.828-8.828  h494.345c4.875,0,8.828,3.953,8.828,8.828v317.793C512,419.773,508.047,423.725,503.172,423.725z"/>
<g>
	<path style="fill:#FFE15A;" d="M503.172,88.277h-25.305L0,335.449v17.655L508.367,90.156   C506.893,89.053,505.155,88.277,503.172,88.277z"/>
	<path style="fill:#FFE15A;" d="M8.828,423.725h25.305L512,176.553v-17.655L3.633,421.846   C5.107,422.949,6.845,423.725,8.828,423.725z"/>
</g>
<path style="fill:#FF4B55;" d="M508.367,90.156L0,353.104v61.793c0,2.893,1.483,5.339,3.633,6.948L512,158.898V97.104  C512,94.211,510.517,91.766,508.367,90.156z"/>
<path style="fill:#FFE15A;" d="M92.619,122.979l12.718,38.135l40.199,0.311c2.248,0.018,3.18,2.886,1.372,4.222l-32.339,23.881  l12.126,38.328c0.678,2.143-1.762,3.916-3.591,2.609l-32.705-23.377l-32.705,23.377c-1.828,1.308-4.269-0.466-3.591-2.609  l12.126-38.328L33.89,165.647c-1.809-1.335-0.876-4.204,1.372-4.222l40.199-0.311l12.718-38.135  C88.892,120.847,91.907,120.847,92.619,122.979z"/>
<g>
</g>
<g>
</g>
<g>
</g>
<g>
</g>
<g>
</g>
<g>
</g>
<g>
</g>
<g>
</g>
<g>
</g>
<g>
</g>
<g>
</g>
<g>
</g>
<g>
</g>
<g>
</g>
<g>
</g>
</svg>
