<?xml version="1.0" encoding="iso-8859-1"?>
<!-- Generator: Adobe Illustrator 19.0.0, SVG Export Plug-In . SVG Version: 6.00 Build 0)  -->
<svg xmlns="http://www.w3.org/2000/svg" xmlns:xlink="http://www.w3.org/1999/xlink" version="1.1" id="Layer_1" x="0px" y="0px" viewBox="0 0 512.001 512.001" style="enable-background:new 0 0 512.001 512.001;" xml:space="preserve">
<path style="fill:#73AF00;" d="M8.828,423.724h494.345c4.875,0,8.828-3.953,8.828-8.828V311.908L4.85,422.664  C6.059,423.288,7.373,423.724,8.828,423.724z"/>
<path style="fill:#41479B;" d="M170.667,88.276H8.828C3.953,88.276,0,92.229,0,97.104v317.792c0,1.972,0.769,3.699,1.862,5.169  L170.667,88.276z"/>
<path style="fill:#FFE15A;" d="M2.613,421.158l338.72-332.881H170.667L1.862,420.065C2.126,420.421,2.298,420.845,2.613,421.158z"/>
<path style="fill:#FF4B55;" d="M503.172,88.276H341.333L2.613,421.158c0.367,0.364,0.858,0.569,1.284,0.865L512,200.092V97.104  C512,92.229,508.047,88.276,503.172,88.276z"/>
<path style="fill:#F5F5F5;" d="M4.85,422.664l507.149-110.757V200.092L3.896,422.022C4.213,422.242,4.505,422.488,4.85,422.664z"/>
<g>
</g>
<g>
</g>
<g>
</g>
<g>
</g>
<g>
</g>
<g>
</g>
<g>
</g>
<g>
</g>
<g>
</g>
<g>
</g>
<g>
</g>
<g>
</g>
<g>
</g>
<g>
</g>
<g>
</g>
</svg>
