<?xml version="1.0" encoding="iso-8859-1"?>
<!-- Generator: Adobe Illustrator 19.0.0, SVG Export Plug-In . SVG Version: 6.00 Build 0)  -->
<svg xmlns="http://www.w3.org/2000/svg" xmlns:xlink="http://www.w3.org/1999/xlink" version="1.1" id="Layer_1" x="0px" y="0px" viewBox="0 0 512.001 512.001" style="enable-background:new 0 0 512.001 512.001;" xml:space="preserve">
<path style="fill:#41479B;" d="M503.172,88.276H8.828C3.953,88.276,0,92.228,0,97.103v317.793c0,4.875,3.953,8.828,8.828,8.828  h494.345c4.875,0,8.828-3.953,8.828-8.828V97.103C512,92.228,508.047,88.276,503.172,88.276z"/>
<g>
	<path style="fill:#F5F5F5;" d="M353.582,253.845l-25.316-5.626c-3.636-33.916-30.566-60.832-64.481-64.471l-5.629-25.33   c-0.448-2.017-3.862-2.017-4.31,0l-5.615,25.27c-33.93,3.629-60.855,30.604-64.493,64.531l-25.319,5.626   c-1.01,0.224-1.729,1.121-1.729,2.155s0.719,1.931,1.728,2.155l25.319,5.626c3.637,33.921,30.563,60.865,64.486,64.499   l5.622,25.301c0.225,1.01,1.122,1.729,2.156,1.729s1.931-0.719,2.155-1.728l5.631-25.34c33.912-3.639,60.842-30.547,64.479-64.46   l25.318-5.626c1.009-0.225,1.728-1.121,1.728-2.156S354.591,254.069,353.582,253.845z M323.797,247.225l-48.291-10.731   L264.78,188.23C295.482,192.191,319.841,216.522,323.797,247.225z M247.222,188.222l-10.728,48.274l-48.276,10.728   C192.178,216.522,216.521,192.181,247.222,188.222z M237.642,240.762L252.879,256h-83.81L237.642,240.762z M188.22,264.779   l48.276,10.728l10.73,48.286C216.521,319.835,192.178,295.48,188.22,264.779z M256,342.931l-15.238-68.574L256,259.121V342.931z    M256,252.879v-83.81l15.238,68.574L256,252.879z M264.788,323.733l10.717-48.228l48.29-10.731   C319.84,295.471,295.484,319.767,264.788,323.733z M274.358,271.238L259.121,256h83.81L274.358,271.238z"/>
	<path style="fill:#F5F5F5;" d="M141.241,258.207H17.655c-1.219,0-2.207-0.988-2.207-2.207s0.988-2.207,2.207-2.207h123.586   c1.219,0,2.207,0.988,2.207,2.207S142.461,258.207,141.241,258.207z"/>
	<path style="fill:#F5F5F5;" d="M494.345,258.207H370.759c-1.219,0-2.207-0.988-2.207-2.207s0.988-2.207,2.207-2.207h123.586   c1.219,0,2.207,0.988,2.207,2.207S495.564,258.207,494.345,258.207z"/>
	<path style="fill:#F5F5F5;" d="M256,143.448c-1.219,0-2.207-0.988-2.207-2.207v-35.31c0-1.219,0.988-2.207,2.207-2.207   s2.207,0.988,2.207,2.207v35.31C258.207,142.461,257.219,143.448,256,143.448z"/>
	<path style="fill:#F5F5F5;" d="M256,408.276c-1.219,0-2.207-0.988-2.207-2.207v-35.31c0-1.219,0.988-2.207,2.207-2.207   s2.207,0.988,2.207,2.207v35.31C258.207,407.288,257.219,408.276,256,408.276z"/>
</g>
<g>
</g>
<g>
</g>
<g>
</g>
<g>
</g>
<g>
</g>
<g>
</g>
<g>
</g>
<g>
</g>
<g>
</g>
<g>
</g>
<g>
</g>
<g>
</g>
<g>
</g>
<g>
</g>
<g>
</g>
</svg>
