<?xml version="1.0" encoding="iso-8859-1"?>
<!-- Generator: Adobe Illustrator 19.0.0, SVG Export Plug-In . SVG Version: 6.00 Build 0)  -->
<svg xmlns="http://www.w3.org/2000/svg" xmlns:xlink="http://www.w3.org/1999/xlink" version="1.1" id="Layer_1" x="0px" y="0px" viewBox="0 0 512.001 512.001" style="enable-background:new 0 0 512.001 512.001;" xml:space="preserve">
<path style="fill:#F5F5F5;" d="M503.172,423.724H8.828c-4.875,0-8.828-3.953-8.828-8.828V97.104c0-4.875,3.953-8.828,8.828-8.828  h494.345c4.875,0,8.828,3.953,8.828,8.828v317.792C512,419.772,508.047,423.724,503.172,423.724z"/>
<polygon style="fill:#FF4B55;" points="512,238.345 273.655,238.345 273.655,88.276 238.344,88.276 238.344,238.345 0,238.345   0,273.655 238.344,273.655 238.344,423.724 273.655,423.724 273.655,273.655 512,273.655 "/>
<g>
	<path style="fill:#464655;" d="M165.137,167.355c1.482-2.965-6.714-12.568-6.28-14.744c0.435-2.176,1.406-5.51-2.076-18.13   c-3.481-12.62-13.94-15.669-26.56-16.974c-12.62-1.305-29.304,7.745-33.072,17.624c-2.274,5.962-0.736,12.622,1.65,18.961   c-1.071,0.116-3.122,0.175-4.634-0.942c-1.204-0.897-1.863-2.421-1.978-4.522c-0.422-8.003,3.944-21.112,3.991-21.241l0.327-0.979   l-13.707-4.834l0.806,6.432l-10.577-2.258l0.646,1.774c0.931,2.557,9.124,25.035,10.227,27.02c1.809,3.243,4.264,5.318,7.296,6.161   c1.088,0.306,2.162,0.422,3.182,0.422c0.131,0,0.241-0.034,0.37-0.038c-0.621,1.143-1.877,2.584-5.075,4.07   c-3.752,1.729-7.55,3.593-7.966,10.596l-0.113,0.058c0.034,0.065,0.073,0.1,0.107,0.164c-0.09,1.85-0.006,3.965,0.437,6.622   c1.101,6.568,3.338,13.014,3.434,13.285l0.217,0.619l0.653,0.075c0.047,0,4.352,0.516,5.671,5.038   c0.761,2.617,3.161,4.604,5.521,4.604c0.061,0,0.122-0.007,0.183-0.007c1.02-0.047,3.488-0.578,4.29-4.576l0.116-0.578   l-6.483-5.965l2.173-7.165l-1.034-0.279c-0.061-0.015-4.354-1.308-8.798-6.154c-0.412-1.996-0.363-3.438,0.169-4.256   c0.605-0.918,1.89-1.176,3.379-1.475c1.387-0.279,2.822-0.564,3.985-1.469c3.737-2.921,5.828-7.944,6.888-11.383   c0.574,1.3,1.124,2.563,1.611,3.767c3.699,9.139-6.527,19.582-6.527,19.582c6.527,2.611,7.18,4.133,16.319,15.448   s17.406,6.527,17.406,6.527s-1.176-7.244,4.83-10.302c6.007-3.058,6.143-6.989,6.143-6.989c14.99,3.522,15.891-2.621,15.235-4.751   c-0.655-2.129,0.164-5.487,0.164-5.487s1.51,0.095,2.621-0.655c1.761-1.187,0.574-4.013,0.574-4.013   c1.72-0.82,2.376-2.621,1.065-4.014c-1.311-1.393-1.229-2.948-1.229-2.948S164.155,169.32,165.137,167.355z M91.759,158.689   c-2.475-0.686-4.508-2.428-6.038-5.167c-0.727-1.305-5.821-15.02-9.444-24.947l7.601,1.62l1.429,11.407l2.067-0.258l-2.088-16.672   l8.595,3.026c-1.034,3.271-4.161,13.857-3.774,21.037c0.142,2.754,1.088,4.8,2.808,6.085c1.557,1.163,3.427,1.434,4.855,1.434   c0.842,0,1.415-0.082,1.802-0.15c0.213,0.524,0.433,1.039,0.652,1.557C99.017,158.255,95.476,159.743,91.759,158.689z    M99.926,201.783c-0.292,1.026-0.911,2.284-2.202,2.339c-0.028,0-0.061,0-0.095,0c-1.421,0-3.019-1.394-3.516-3.094   c-0.025-0.087-0.077-0.132-0.105-0.217l1.06-3.5L99.926,201.783z M95.316,189.313l-2.656,8.743   c-1.722-2.338-4.137-3.165-5.306-3.438c-0.572-1.72-2.271-7.079-3.155-12.361c-0.185-1.116-0.276-2.066-0.361-3.004   C88.238,185.693,93.198,188.472,95.316,189.313z M94.329,172.648c-0.768,0.598-1.903,0.823-3.107,1.067   c-1.707,0.34-3.63,0.727-4.718,2.38c-0.397,0.605-0.594,1.363-0.695,2.207c-0.694-0.981-1.405-1.811-2.055-3.005   c0.46-5.318,3.354-6.664,6.795-8.253c4.961-2.296,6.112-4.743,6.603-6.205c1.768-0.345,3.093-0.893,3.879-1.265   c0.039,0.09,0.078,0.174,0.118,0.265C100.602,162.251,98.72,169.219,94.329,172.648z M105.998,163.259l-4.259-9.174l50.13-23.263   c3.277,6.226,3.605,13.597,3.605,13.597L105.998,163.259z"/>
	<path style="fill:#464655;" d="M438.793,167.355c1.482-2.965-6.714-12.568-6.28-14.744c0.435-2.176,1.406-5.51-2.076-18.13   c-3.481-12.62-13.94-15.669-26.56-16.974c-12.62-1.305-29.304,7.745-33.072,17.624c-2.274,5.962-0.736,12.622,1.65,18.961   c-1.071,0.116-3.122,0.175-4.634-0.942c-1.204-0.897-1.863-2.421-1.978-4.522c-0.422-8.003,3.944-21.112,3.991-21.241l0.327-0.979   l-13.707-4.834l0.806,6.432l-10.577-2.258l0.646,1.774c0.931,2.557,9.124,25.035,10.227,27.02c1.809,3.243,4.264,5.318,7.296,6.161   c1.088,0.306,2.163,0.422,3.182,0.422c0.131,0,0.241-0.034,0.37-0.038c-0.621,1.143-1.877,2.584-5.075,4.07   c-3.752,1.729-7.55,3.593-7.966,10.596l-0.113,0.058c0.034,0.065,0.073,0.1,0.107,0.164c-0.09,1.85-0.006,3.965,0.437,6.622   c1.101,6.568,3.339,13.014,3.434,13.285l0.217,0.619l0.653,0.075c0.047,0,4.352,0.516,5.671,5.038   c0.761,2.617,3.161,4.604,5.521,4.604c0.061,0,0.122-0.007,0.183-0.007c1.02-0.047,3.488-0.578,4.29-4.576l0.116-0.578   l-6.483-5.965l2.173-7.165l-1.034-0.279c-0.061-0.015-4.354-1.308-8.798-6.154c-0.412-1.996-0.363-3.438,0.169-4.256   c0.605-0.918,1.89-1.176,3.379-1.475c1.387-0.279,2.822-0.564,3.985-1.469c3.737-2.921,5.828-7.944,6.888-11.383   c0.574,1.3,1.124,2.563,1.611,3.767c3.699,9.139-6.527,19.582-6.527,19.582c6.527,2.611,7.18,4.133,16.319,15.448   c9.139,11.314,17.407,6.527,17.407,6.527s-1.176-7.244,4.83-10.302c6.007-3.058,6.143-6.989,6.143-6.989   c14.99,3.522,15.891-2.621,15.235-4.751c-0.655-2.129,0.164-5.487,0.164-5.487s1.51,0.095,2.621-0.655   c1.761-1.187,0.574-4.013,0.574-4.013c1.72-0.82,2.376-2.621,1.065-4.014c-1.311-1.393-1.229-2.948-1.229-2.948   S437.81,169.32,438.793,167.355z M365.414,158.689c-2.475-0.686-4.508-2.428-6.038-5.167c-0.727-1.305-5.821-15.02-9.444-24.947   l7.601,1.62l1.429,11.407l2.067-0.258l-2.088-16.672l8.595,3.026c-1.034,3.271-4.161,13.857-3.774,21.037   c0.142,2.754,1.088,4.8,2.808,6.085c1.557,1.163,3.427,1.434,4.855,1.434c0.842,0,1.415-0.082,1.802-0.15   c0.213,0.524,0.433,1.039,0.652,1.557C372.671,158.255,369.131,159.743,365.414,158.689z M373.58,201.783   c-0.292,1.026-0.911,2.284-2.202,2.339c-0.028,0-0.061,0-0.095,0c-1.421,0-3.019-1.394-3.516-3.094   c-0.025-0.087-0.077-0.132-0.105-0.217l1.06-3.5L373.58,201.783z M368.97,189.313l-2.656,8.743   c-1.723-2.338-4.137-3.165-5.306-3.438c-0.572-1.72-2.271-7.079-3.155-12.361c-0.185-1.116-0.276-2.066-0.361-3.004   C361.893,185.693,366.853,188.472,368.97,189.313z M367.985,172.648c-0.768,0.598-1.903,0.823-3.107,1.067   c-1.707,0.34-3.63,0.727-4.718,2.38c-0.397,0.605-0.594,1.363-0.695,2.207c-0.694-0.981-1.405-1.811-2.055-3.005   c0.46-5.318,3.354-6.664,6.795-8.253c4.961-2.296,6.112-4.743,6.603-6.205c1.768-0.345,3.093-0.893,3.879-1.265   c0.039,0.09,0.078,0.174,0.118,0.265C374.257,162.251,372.375,169.219,367.985,172.648z M379.653,163.259l-4.259-9.174   l50.13-23.263c3.277,6.226,3.605,13.597,3.605,13.597L379.653,163.259z"/>
	<path style="fill:#464655;" d="M165.137,352.734c1.482-2.965-6.714-12.568-6.28-14.744c0.435-2.176,1.406-5.51-2.076-18.13   c-3.481-12.62-13.94-15.669-26.56-16.974s-29.304,7.745-33.072,17.624c-2.274,5.962-0.736,12.622,1.65,18.961   c-1.071,0.116-3.122,0.175-4.634-0.942c-1.204-0.897-1.863-2.421-1.978-4.522c-0.422-8.003,3.944-21.112,3.991-21.241l0.327-0.979   l-13.707-4.834l0.806,6.432l-10.577-2.258l0.646,1.774c0.931,2.557,9.124,25.035,10.227,27.02c1.809,3.243,4.264,5.318,7.296,6.161   c1.088,0.306,2.162,0.422,3.182,0.422c0.131,0,0.241-0.034,0.37-0.038c-0.621,1.143-1.877,2.584-5.075,4.069   c-3.752,1.729-7.55,3.593-7.966,10.596l-0.113,0.059c0.034,0.065,0.073,0.1,0.107,0.164c-0.09,1.85-0.006,3.965,0.437,6.622   c1.101,6.568,3.338,13.014,3.434,13.285l0.217,0.619l0.653,0.075c0.047,0,4.352,0.516,5.671,5.038   c0.761,2.617,3.161,4.604,5.521,4.604c0.061,0,0.122-0.007,0.183-0.007c1.02-0.047,3.488-0.578,4.29-4.576l0.116-0.578   l-6.483-5.965l2.173-7.165l-1.034-0.279c-0.061-0.015-4.354-1.308-8.798-6.154c-0.412-1.996-0.363-3.438,0.169-4.256   c0.605-0.918,1.89-1.176,3.379-1.475c1.387-0.279,2.822-0.564,3.985-1.469c3.737-2.921,5.828-7.944,6.888-11.383   c0.574,1.3,1.124,2.563,1.611,3.767c3.699,9.139-6.527,19.582-6.527,19.582c6.527,2.611,7.18,4.133,16.319,15.448   s17.406,6.527,17.406,6.527s-1.176-7.244,4.83-10.302c6.007-3.058,6.143-6.989,6.143-6.989c14.99,3.522,15.891-2.621,15.235-4.751   c-0.655-2.129,0.164-5.487,0.164-5.487s1.51,0.095,2.621-0.655c1.761-1.187,0.574-4.013,0.574-4.013   c1.72-0.819,2.376-2.621,1.065-4.014s-1.229-2.948-1.229-2.948S164.155,354.699,165.137,352.734z M91.759,344.068   c-2.475-0.686-4.508-2.428-6.038-5.167c-0.727-1.305-5.821-15.02-9.444-24.947l7.601,1.62l1.429,11.407l2.067-0.258l-2.088-16.672   l8.595,3.026c-1.034,3.271-4.161,13.857-3.774,21.037c0.142,2.754,1.088,4.8,2.808,6.086c1.557,1.163,3.427,1.434,4.855,1.434   c0.842,0,1.415-0.082,1.802-0.15c0.213,0.524,0.433,1.039,0.652,1.557C99.017,343.633,95.476,345.122,91.759,344.068z    M99.926,387.162c-0.292,1.026-0.911,2.284-2.202,2.339c-0.028,0-0.061,0-0.095,0c-1.421,0-3.019-1.394-3.516-3.094   c-0.025-0.087-0.077-0.132-0.105-0.217l1.06-3.5L99.926,387.162z M95.316,374.692l-2.656,8.743   c-1.722-2.338-4.137-3.165-5.306-3.438c-0.572-1.72-2.271-7.079-3.155-12.361c-0.185-1.116-0.276-2.066-0.361-3.004   C88.238,371.072,93.198,373.852,95.316,374.692z M94.329,358.029c-0.768,0.598-1.903,0.823-3.107,1.067   c-1.707,0.34-3.63,0.727-4.718,2.38c-0.397,0.605-0.594,1.363-0.695,2.207c-0.694-0.981-1.405-1.811-2.055-3.005   c0.46-5.318,3.354-6.664,6.795-8.253c4.961-2.296,6.112-4.743,6.603-6.205c1.768-0.345,3.093-0.893,3.879-1.265   c0.039,0.09,0.078,0.174,0.118,0.265C100.602,347.63,98.72,354.598,94.329,358.029z M105.998,348.638l-4.259-9.174l50.13-23.263   c3.277,6.226,3.605,13.597,3.605,13.597L105.998,348.638z"/>
	<path style="fill:#464655;" d="M438.793,352.734c1.482-2.965-6.714-12.568-6.28-14.744c0.435-2.176,1.406-5.51-2.076-18.13   c-3.481-12.62-13.94-15.669-26.56-16.974s-29.304,7.745-33.072,17.624c-2.274,5.962-0.736,12.622,1.65,18.961   c-1.071,0.116-3.122,0.175-4.634-0.942c-1.204-0.897-1.863-2.421-1.978-4.522c-0.422-8.003,3.944-21.112,3.991-21.241l0.327-0.979   l-13.707-4.834l0.806,6.432l-10.577-2.258l0.646,1.774c0.931,2.557,9.124,25.035,10.227,27.02c1.809,3.243,4.264,5.318,7.296,6.161   c1.088,0.306,2.163,0.422,3.182,0.422c0.131,0,0.241-0.034,0.37-0.038c-0.621,1.143-1.877,2.584-5.075,4.069   c-3.752,1.729-7.55,3.593-7.966,10.596l-0.113,0.059c0.034,0.065,0.073,0.1,0.107,0.164c-0.09,1.85-0.006,3.965,0.437,6.622   c1.101,6.568,3.339,13.014,3.434,13.285l0.217,0.619l0.653,0.075c0.047,0,4.352,0.516,5.671,5.038   c0.761,2.617,3.161,4.604,5.521,4.604c0.061,0,0.122-0.007,0.183-0.007c1.02-0.047,3.488-0.578,4.29-4.576l0.116-0.578   l-6.483-5.965l2.173-7.165l-1.034-0.279c-0.061-0.015-4.354-1.308-8.798-6.154c-0.412-1.996-0.363-3.438,0.169-4.256   c0.605-0.918,1.89-1.176,3.379-1.475c1.387-0.279,2.822-0.564,3.985-1.469c3.737-2.921,5.828-7.944,6.888-11.383   c0.574,1.3,1.124,2.563,1.611,3.767c3.699,9.139-6.527,19.582-6.527,19.582c6.527,2.611,7.18,4.133,16.319,15.448   c9.139,11.314,17.407,6.527,17.407,6.527s-1.176-7.244,4.83-10.302c6.007-3.058,6.143-6.989,6.143-6.989   c14.99,3.522,15.891-2.621,15.235-4.751c-0.655-2.129,0.164-5.487,0.164-5.487s1.51,0.095,2.621-0.655   c1.761-1.187,0.574-4.013,0.574-4.013c1.72-0.819,2.376-2.621,1.065-4.014s-1.229-2.948-1.229-2.948   S437.81,354.699,438.793,352.734z M365.414,344.068c-2.475-0.686-4.508-2.428-6.038-5.167c-0.727-1.305-5.821-15.02-9.444-24.947   l7.601,1.62l1.429,11.407l2.067-0.258l-2.088-16.672l8.595,3.026c-1.034,3.271-4.161,13.857-3.774,21.037   c0.142,2.754,1.088,4.8,2.808,6.086c1.557,1.163,3.427,1.434,4.855,1.434c0.842,0,1.415-0.082,1.802-0.15   c0.213,0.524,0.433,1.039,0.652,1.557C372.671,343.633,369.131,345.122,365.414,344.068z M373.58,387.162   c-0.292,1.026-0.911,2.284-2.202,2.339c-0.028,0-0.061,0-0.095,0c-1.421,0-3.019-1.394-3.516-3.094   c-0.025-0.087-0.077-0.132-0.105-0.217l1.06-3.5L373.58,387.162z M368.97,374.692l-2.656,8.743   c-1.723-2.338-4.137-3.165-5.306-3.438c-0.572-1.72-2.271-7.079-3.155-12.361c-0.185-1.116-0.276-2.066-0.361-3.004   C361.893,371.072,366.853,373.852,368.97,374.692z M367.985,358.029c-0.768,0.598-1.903,0.823-3.107,1.067   c-1.707,0.34-3.63,0.727-4.718,2.38c-0.397,0.605-0.594,1.363-0.695,2.207c-0.694-0.981-1.405-1.811-2.055-3.005   c0.46-5.318,3.354-6.664,6.795-8.253c4.961-2.296,6.112-4.743,6.603-6.205c1.768-0.345,3.093-0.893,3.879-1.265   c0.039,0.09,0.078,0.174,0.118,0.265C374.257,347.63,372.375,354.598,367.985,358.029z M379.653,348.638l-4.259-9.174l50.13-23.263   c3.277,6.226,3.605,13.597,3.605,13.597L379.653,348.638z"/>
</g>
<g>
</g>
<g>
</g>
<g>
</g>
<g>
</g>
<g>
</g>
<g>
</g>
<g>
</g>
<g>
</g>
<g>
</g>
<g>
</g>
<g>
</g>
<g>
</g>
<g>
</g>
<g>
</g>
<g>
</g>
</svg>
