<?xml version="1.0" encoding="iso-8859-1"?>
<!-- Generator: Adobe Illustrator 19.0.0, SVG Export Plug-In . SVG Version: 6.00 Build 0)  -->
<svg xmlns="http://www.w3.org/2000/svg" xmlns:xlink="http://www.w3.org/1999/xlink" version="1.1" id="Layer_1" x="0px" y="0px" viewBox="0 0 512.002 512.002" style="enable-background:new 0 0 512.002 512.002;" xml:space="preserve">
<path style="fill:#FF4B55;" d="M503.172,423.724H8.828c-4.875,0-8.828-3.953-8.828-8.828V97.104c0-4.875,3.953-8.828,8.828-8.828  h494.345c4.875,0,8.828,3.953,8.828,8.828v317.792C512,419.773,508.047,423.724,503.172,423.724z"/>
<path style="fill:#FFE15A;" d="M305.466,258.78c-2.239-1.926-4.779-3.328-7.328-4.353c14.409-2.841,25.997-15.016,25.997-15.016  c-7.005,3.073-10.261,3.695-21.41,0.031c-2.805-0.922-5.688-1.246-8.435-1.217c12.224-8.14,18.272-23.82,18.272-23.82  c-5.295,5.519-8.066,7.341-19.768,8.222c-2.945,0.222-5.732,1.026-8.26,2.104c8.18-12.197,7.766-29.001,7.766-29.001  c-2.78,7.126-4.642,9.869-15.117,15.16c-2.636,1.332-4.904,3.143-6.826,5.105c2.888-14.399-3.924-29.763-3.924-29.763  c0.159,7.647-0.513,10.894-8.164,19.792c-1.926,2.239-3.328,4.779-4.353,7.328c-2.841-14.409-15.016-25.997-15.016-25.997  c3.073,7.005,3.695,10.261,0.031,21.41c-0.922,2.805-1.246,5.688-1.217,8.435c-8.14-12.224-23.82-18.272-23.82-18.272  c5.519,5.295,7.341,8.066,8.222,19.768c0.222,2.945,1.026,5.732,2.103,8.259c-12.199-8.179-29-7.765-29-7.765  c7.126,2.78,9.869,4.642,15.16,15.117c1.332,2.636,3.143,4.903,5.106,6.826c-14.4-2.889-29.765,3.924-29.765,3.924  c7.648-0.159,10.894,0.513,19.793,8.164c2.239,1.926,4.779,3.327,7.328,4.353c-14.409,2.841-25.997,15.016-25.997,15.016  c7.005-3.073,10.261-3.695,21.41-0.031c2.806,0.922,5.689,1.246,8.436,1.217c-12.224,8.139-18.273,23.821-18.273,23.821  c5.295-5.519,8.066-7.341,19.768-8.222c2.945-0.222,5.732-1.026,8.259-2.103c-8.179,12.199-7.765,29-7.765,29  c2.78-7.127,4.642-9.869,15.117-15.161c2.636-1.332,4.903-3.143,6.826-5.105c-2.889,14.4,3.924,29.764,3.924,29.764  c-0.159-7.648,0.513-10.894,8.164-19.793c1.926-2.239,3.328-4.779,4.353-7.328c2.841,14.408,15.016,25.997,15.016,25.997  c-3.073-7.005-3.695-10.262-0.031-21.41c0.922-2.805,1.246-5.688,1.217-8.435c8.14,12.224,23.82,18.272,23.82,18.272  c-5.519-5.295-7.341-8.066-8.222-19.768c-0.222-2.944-1.026-5.732-2.103-8.259c12.197,8.179,29,7.765,29,7.765  c-7.126-2.781-9.869-4.642-15.161-15.117c-1.332-2.636-3.143-4.904-5.105-6.826c14.4,2.888,29.764-3.924,29.764-3.924  C317.611,267.103,314.364,266.434,305.466,258.78z"/>
<path style="fill:#FFD25A;" d="M291.406,263.044l35.214-7.043l-35.214-7.043l29.839-19.982l-35.229,6.968l19.921-29.88  l-29.88,19.921l6.969-35.229l-19.982,29.838L256,185.382l-7.042,35.214l-19.982-29.838l6.969,35.229l-29.88-19.921l19.921,29.88  l-35.229-6.968l29.839,19.982l-35.216,7.042l35.214,7.043l-29.839,19.982l35.229-6.969l-19.921,29.88l29.88-19.921l-6.969,35.229  l19.982-29.838L256,326.621l7.043-35.214l19.982,29.838l-6.969-35.229l29.88,19.921l-19.921-29.88l35.229,6.969L291.406,263.044z"/>
<circle style="fill:#FFE15A;" cx="256" cy="256" r="35.31"/>
<g>
	<path style="fill:#41479B;" d="M102.265,361.931c25.61,0,25.61,8.828,51.221,8.828c25.629,0,25.629-8.828,51.256-8.828   c25.627,0,25.629,8.828,51.256,8.828c25.571,0,25.571-8.828,51.143-8.828c25.585,0,25.585,8.828,51.169,8.828   c25.596,0,25.596-8.828,51.191-8.828s25.595,8.828,51.19,8.828c25.596,0,25.596-8.828,51.192-8.828   c0.041,0,0.075,0.002,0.116,0.002v-26.483c-0.041,0-0.075-0.002-0.116-0.002c-25.596,0-25.596,8.828-51.192,8.828   c-25.594,0-25.594-8.828-51.19-8.828s-25.596,8.828-51.191,8.828c-25.585,0-25.585-8.828-51.169-8.828   c-25.571,0-25.571,8.828-51.143,8.828c-25.629,0-25.629-8.828-51.256-8.828c-25.627,0-25.629,8.828-51.256,8.828   c-25.611,0-25.611-8.828-51.221-8.828c-25.588,0-25.588,8.828-51.177,8.828c-25.561,0-25.609-8.797-51.088-8.825v26.483   c25.48,0.029,25.527,8.825,51.088,8.825C76.677,370.759,76.677,361.931,102.265,361.931z"/>
	<path style="fill:#41479B;" d="M0,308.969c25.48,0.028,25.527,8.824,51.088,8.824c25.589,0,25.589-8.828,51.177-8.828   c25.61,0,25.61,8.828,51.221,8.828c25.629,0,25.629-8.828,51.256-8.828c25.627,0,25.629,8.828,51.256,8.828   c25.571,0,25.571-8.828,51.143-8.828c25.585,0,25.585,8.828,51.169,8.828c25.596,0,25.596-8.828,51.191-8.828   s25.595,8.828,51.19,8.828c25.596,0,25.596-8.828,51.192-8.828c0.041,0,0.075,0.002,0.116,0.002v-26.483   c-0.041,0-0.075-0.002-0.116-0.002c-25.596,0-25.596,8.828-51.192,8.828c-25.594,0-25.594-8.828-51.19-8.828   s-25.596,8.828-51.191,8.828c-25.585,0-25.585-8.828-51.169-8.828c-25.571,0-25.571,8.828-51.143,8.828   c-25.629,0-25.629-8.828-51.256-8.828c-25.627,0-25.629,8.828-51.256,8.828c-25.611,0-25.611-8.828-51.221-8.828   c-25.588,0-25.588,8.828-51.177,8.828c-25.561,0-25.609-8.797-51.088-8.825L0,308.969L0,308.969z"/>
</g>
<g>
	<path style="fill:#F5F5F5;" d="M0,388.417c25.48,0.028,25.527,8.824,51.088,8.824c25.589,0,25.589-8.828,51.177-8.828   c25.61,0,25.61,8.828,51.221,8.828c25.629,0,25.629-8.828,51.256-8.828c25.627,0,25.629,8.828,51.256,8.828   c25.571,0,25.571-8.828,51.143-8.828c25.585,0,25.585,8.828,51.169,8.828c25.596,0,25.596-8.828,51.191-8.828   s25.595,8.828,51.19,8.828c25.596,0,25.596-8.828,51.192-8.828c0.041,0,0.075,0.002,0.116,0.002v-26.483   c-0.041,0-0.075-0.002-0.116-0.002c-25.596,0-25.596,8.828-51.192,8.828c-25.594,0-25.594-8.828-51.19-8.828   s-25.596,8.828-51.191,8.828c-25.585,0-25.585-8.828-51.169-8.828c-25.571,0-25.571,8.828-51.143,8.828   c-25.629,0-25.629-8.828-51.256-8.828c-25.627,0-25.629,8.828-51.256,8.828c-25.611,0-25.611-8.828-51.221-8.828   c-25.588,0-25.588,8.828-51.177,8.828c-25.561,0-25.609-8.797-51.088-8.825L0,388.417L0,388.417z"/>
	<path style="fill:#F5F5F5;" d="M0,335.452c25.48,0.028,25.527,8.824,51.088,8.824c25.589,0,25.589-8.828,51.177-8.828   c25.61,0,25.61,8.828,51.221,8.828c25.629,0,25.629-8.828,51.256-8.828c25.627,0,25.629,8.828,51.256,8.828   c25.571,0,25.571-8.828,51.143-8.828c25.585,0,25.585,8.828,51.169,8.828c25.596,0,25.596-8.828,51.191-8.828   s25.595,8.828,51.19,8.828c25.596,0,25.596-8.828,51.192-8.828c0.041,0,0.075,0.002,0.116,0.002v-26.483   c-0.041,0-0.075-0.002-0.116-0.002c-25.596,0-25.596,8.828-51.192,8.828c-25.594,0-25.594-8.828-51.19-8.828   s-25.596,8.828-51.191,8.828c-25.585,0-25.585-8.828-51.169-8.828c-25.571,0-25.571,8.828-51.143,8.828   c-25.629,0-25.629-8.828-51.256-8.828c-25.627,0-25.629,8.828-51.256,8.828c-25.611,0-25.611-8.828-51.221-8.828   c-25.588,0-25.588,8.828-51.177,8.828c-25.561,0-25.609-8.797-51.088-8.825L0,335.452L0,335.452z"/>
	<path style="fill:#F5F5F5;" d="M0,282.487c25.48,0.028,25.527,8.824,51.088,8.824c25.589,0,25.589-8.828,51.177-8.828   c25.61,0,25.61,8.828,51.221,8.828c25.629,0,25.629-8.828,51.256-8.828c25.627,0,25.629,8.828,51.256,8.828   c25.571,0,25.571-8.828,51.143-8.828c25.585,0,25.585,8.828,51.169,8.828c25.596,0,25.596-8.828,51.191-8.828   s25.595,8.828,51.19,8.828c25.596,0,25.596-8.828,51.192-8.828c0.041,0,0.075,0.002,0.116,0.002v-26.483   c-0.041,0-0.075-0.002-0.116-0.002c-25.596,0-25.596,8.828-51.192,8.828c-25.594,0-25.594-8.828-51.19-8.828   s-25.596,8.828-51.191,8.828c-25.585,0-25.585-8.828-51.169-8.828c-25.571,0-25.571,8.828-51.143,8.828   c-25.629,0-25.629-8.828-51.256-8.828c-25.627,0-25.629,8.828-51.256,8.828c-25.611,0-25.611-8.828-51.221-8.828   c-25.588,0-25.588,8.828-51.177,8.828c-25.561,0-25.609-8.797-51.088-8.825L0,282.487L0,282.487z"/>
</g>
<path style="fill:#41479B;" d="M460.692,397.242c-25.594,0-25.594-8.828-51.19-8.828s-25.596,8.828-51.191,8.828  c-25.585,0-25.585-8.828-51.169-8.828c-25.571,0-25.571,8.828-51.142,8.828c-25.629,0-25.629-8.828-51.256-8.828  c-25.627,0-25.629,8.828-51.256,8.828c-25.611,0-25.611-8.828-51.221-8.828c-25.588,0-25.588,8.828-51.177,8.828  c-25.561,0-25.609-8.797-51.088-8.825v26.48c0,4.875,3.953,8.828,8.828,8.828h494.345c4.813,0,8.693-3.863,8.792-8.652  c0.011-15.532,0.023-26.655,0.035-26.655l0,0c-0.041,0-0.075-0.002-0.116-0.002C486.288,388.414,486.288,397.242,460.692,397.242z"/>
<path style="fill:#FFE15A;" d="M274.38,135.165c42.927-1.66,64.746-20.396,64.746-20.396c-3.083,1.185-51.227,5.217-64.983,6.403  c-8.687,0.748-19.524,10.653-26.349,17.865c-1.838-4.994-5.431-10.174-12.546-11.224c-14.467-2.134-52.888-4.505-62.374-9.013l0,0  c0,0,6.123,9.465,37.769,13.756c15.162,2.056,23.522,7.256,27.503,10.796l-3.609-0.124c0,0,0,0-6.166-3.084  c-6.166-3.083-12.333,2.134-12.333,2.134h-9.822c-1.23,0-1.932,1.405-1.194,2.388l0.945,1.26c0.964,1.287,2.479,2.044,4.087,2.044  h10.015c3.558,6.166,17.076,12.57,28.223,12.57c11.146,0,45.299-15.178,48.619-15.178l-30.894-1.057L274.38,135.165z"/>
<g>
</g>
<g>
</g>
<g>
</g>
<g>
</g>
<g>
</g>
<g>
</g>
<g>
</g>
<g>
</g>
<g>
</g>
<g>
</g>
<g>
</g>
<g>
</g>
<g>
</g>
<g>
</g>
<g>
</g>
</svg>
