<?xml version="1.0" encoding="iso-8859-1"?>
<!-- Generator: Adobe Illustrator 19.0.0, SVG Export Plug-In . SVG Version: 6.00 Build 0)  -->
<svg xmlns="http://www.w3.org/2000/svg" xmlns:xlink="http://www.w3.org/1999/xlink" version="1.1" id="Layer_1" x="0px" y="0px" viewBox="0 0 512.001 512.001" style="enable-background:new 0 0 512.001 512.001;" xml:space="preserve">
<path style="fill:#F5F5F5;" d="M512,130.208H0V97.104c0-4.875,3.953-8.828,8.828-8.828h494.345c4.875,0,8.828,3.953,8.828,8.828  L512,130.208L512,130.208z"/>
<rect y="130.211" style="fill:#FF4B55;" width="512" height="41.931"/>
<rect y="172.141" style="fill:#41479B;" width="512" height="41.931"/>
<rect y="214.071" style="fill:#F5F5F5;" width="512" height="41.931"/>
<polygon style="fill:#FF4B55;" points="512,297.932 0,297.932 0,247.173 11.034,247.173 11.034,256.001 512,256.001 "/>
<rect y="339.861" style="fill:#F5F5F5;" width="512" height="41.931"/>
<path style="fill:#FF4B55;" d="M503.172,423.725H8.828c-4.875,0-8.828-3.953-8.828-8.828v-33.103h512v33.103  C512,419.773,508.047,423.725,503.172,423.725z"/>
<g>
	<rect y="297.931" style="fill:#41479B;" width="512" height="41.931"/>
	<path style="fill:#41479B;" d="M247.172,256.001H8.828c-4.875,0-8.828-3.953-8.828-8.828V97.104c0-4.875,3.953-8.828,8.828-8.828   h238.345c4.875,0,8.828,3.953,8.828,8.828v150.069C256,252.048,252.047,256.001,247.172,256.001z"/>
</g>
<path style="fill:#F5F5F5;" d="M247.172,88.277h-15.334l-81.77,53.574V88.277H105.93v53.574L24.16,88.277H8.828  C3.953,88.277,0,92.229,0,97.104v7.002l70.155,45.963H0v44.138h70.155L0,240.171v7.002c0,4.875,3.953,8.828,8.828,8.828h15.334  l81.77-53.574v53.574h44.138v-53.574l81.769,53.574h15.334c4.875,0,8.828-3.953,8.828-8.828v-7.002l-70.155-45.963H256V150.07  h-70.155L256,104.107v-7.002C256,92.229,252.047,88.277,247.172,88.277z"/>
<g>
	<polygon style="fill:#FF4B55;" points="256,158.898 141.241,158.898 141.241,88.277 114.759,88.277 114.759,158.898 0,158.898    0,185.38 114.759,185.38 114.759,256.001 141.241,256.001 141.241,185.38 256,185.38  "/>
	<path style="fill:#FF4B55;" d="M97.103,150.07L4.207,89.769C1.735,91.333,0,93.962,0,97.104v0.458l80.889,52.508H97.103z"/>
	<path style="fill:#FF4B55;" d="M166.283,150.07l88.374-57.366c-1.536-2.599-4.246-4.427-7.485-4.427h-1.909l-95.194,61.793H166.283   z"/>
	<path style="fill:#FF4B55;" d="M89.474,194.208L1.269,251.464c1.521,2.662,4.273,4.537,7.559,4.537h1.665l95.196-61.793H89.474z"/>
	<path style="fill:#FF4B55;" d="M255.86,247.866l-82.666-53.658H156.98l93.874,60.935   C253.666,253.838,255.595,251.103,255.86,247.866z"/>
</g>
<g>
</g>
<g>
</g>
<g>
</g>
<g>
</g>
<g>
</g>
<g>
</g>
<g>
</g>
<g>
</g>
<g>
</g>
<g>
</g>
<g>
</g>
<g>
</g>
<g>
</g>
<g>
</g>
<g>
</g>
</svg>
