<?xml version="1.0" encoding="iso-8859-1"?>
<!-- Generator: Adobe Illustrator 19.0.0, SVG Export Plug-In . SVG Version: 6.00 Build 0)  -->
<svg xmlns="http://www.w3.org/2000/svg" xmlns:xlink="http://www.w3.org/1999/xlink" version="1.1" id="Layer_1" x="0px" y="0px" viewBox="0 0 512.001 512.001" style="enable-background:new 0 0 512.001 512.001;" xml:space="preserve">
<path style="fill:#F5F5F5;" d="M503.172,423.725H8.828c-4.875,0-8.828-3.953-8.828-8.828V97.104c0-4.875,3.953-8.828,8.828-8.828  h494.345c4.875,0,8.828,3.953,8.828,8.828v317.793C512,419.773,508.047,423.725,503.172,423.725z"/>
<g>
	<polygon style="fill:#FF4B55;" points="512,229.518 282.483,229.518 282.483,88.277 229.517,88.277 229.517,229.518 0,229.518    0,282.484 229.517,282.484 229.517,423.725 282.483,423.725 282.483,282.484 512,282.484  "/>
	<path style="fill:#FF4B55;" d="M150.069,146.834c-8.744,0.879-17.31,1.76-25.888,2.642c0.882-8.579,1.762-17.145,2.643-25.888   c-8.019,1.037-16.11,1.037-24.129,0c0.879,8.743,1.76,17.31,2.643,25.888c-8.579-0.881-17.146-1.762-25.888-2.642   c1.037,8.018,1.037,16.11,0,24.128c8.744-0.879,17.31-1.76,25.888-2.642c-0.882,8.579-1.763,17.145-2.643,25.888   c8.019-1.037,16.11-1.037,24.129,0c-0.879-8.743-1.761-17.31-2.643-25.888c8.579,0.881,17.145,1.762,25.888,2.642   C149.033,162.944,149.033,154.851,150.069,146.834z"/>
	<path style="fill:#FF4B55;" d="M432.552,146.834c-8.744,0.879-17.31,1.76-25.888,2.642c0.882-8.579,1.762-17.145,2.643-25.888   c-8.019,1.037-16.11,1.037-24.129,0c0.879,8.743,1.76,17.31,2.643,25.888c-8.579-0.881-17.146-1.762-25.888-2.642   c1.037,8.018,1.037,16.11,0,24.128c8.744-0.879,17.31-1.76,25.888-2.642c-0.882,8.579-1.763,17.145-2.643,25.888   c8.019-1.037,16.11-1.037,24.129,0c-0.879-8.743-1.761-17.31-2.643-25.888c8.579,0.881,17.145,1.762,25.888,2.642   C431.516,162.944,431.516,154.851,432.552,146.834z"/>
	<path style="fill:#FF4B55;" d="M150.069,341.04c-8.744,0.879-17.31,1.76-25.888,2.642c0.882-8.579,1.762-17.145,2.643-25.888   c-8.019,1.037-16.11,1.037-24.129,0c0.879,8.743,1.76,17.31,2.643,25.888c-8.579-0.881-17.146-1.762-25.888-2.642   c1.037,8.018,1.037,16.11,0,24.128c8.744-0.879,17.31-1.76,25.888-2.642c-0.882,8.579-1.763,17.145-2.643,25.888   c8.019-1.037,16.11-1.037,24.129,0c-0.879-8.743-1.761-17.31-2.643-25.888c8.579,0.881,17.145,1.762,25.888,2.642   C149.033,357.151,149.033,349.058,150.069,341.04z"/>
	<path style="fill:#FF4B55;" d="M432.552,341.04c-8.744,0.879-17.31,1.76-25.888,2.642c0.882-8.579,1.762-17.145,2.643-25.888   c-8.019,1.037-16.11,1.037-24.129,0c0.879,8.743,1.76,17.31,2.643,25.888c-8.579-0.881-17.146-1.762-25.888-2.642   c1.037,8.018,1.037,16.11,0,24.128c8.744-0.879,17.31-1.76,25.888-2.642c-0.882,8.579-1.763,17.145-2.643,25.888   c8.019-1.037,16.11-1.037,24.129,0c-0.879-8.743-1.761-17.31-2.643-25.888c8.579,0.881,17.145,1.762,25.888,2.642   C431.516,357.151,431.516,349.058,432.552,341.04z"/>
</g>
<g>
</g>
<g>
</g>
<g>
</g>
<g>
</g>
<g>
</g>
<g>
</g>
<g>
</g>
<g>
</g>
<g>
</g>
<g>
</g>
<g>
</g>
<g>
</g>
<g>
</g>
<g>
</g>
<g>
</g>
</svg>
