<?xml version="1.0" encoding="iso-8859-1"?>
<!-- Generator: Adobe Illustrator 19.0.0, SVG Export Plug-In . SVG Version: 6.00 Build 0)  -->
<svg xmlns="http://www.w3.org/2000/svg" xmlns:xlink="http://www.w3.org/1999/xlink" version="1.1" id="Layer_1" x="0px" y="0px" viewBox="0 0 512.001 512.001" style="enable-background:new 0 0 512.001 512.001;" xml:space="preserve">
<path style="fill:#73AF00;" d="M503.172,423.725H8.828c-4.875,0-8.828-3.953-8.828-8.828V97.104c0-4.875,3.953-8.828,8.828-8.828  h494.345c4.875,0,8.828,3.953,8.828,8.828v317.793C512,419.773,508.047,423.725,503.172,423.725z"/>
<path style="fill:#FFE15A;" d="M251.41,135.209L65.354,248.46c-5.651,3.439-5.651,11.641,0,15.081L251.41,376.793  c2.819,1.716,6.36,1.716,9.18,0l186.057-113.251c5.651-3.439,5.651-11.641,0-15.081L260.59,135.209  C257.771,133.493,254.229,133.493,251.41,135.209z"/>
<circle style="fill:#41479B;" cx="256" cy="256.001" r="70.62"/>
<g>
	<path style="fill:#F5F5F5;" d="M195.401,219.874c-3.332,5.578-5.905,11.64-7.605,18.077c39.149-2.946,97.062,8.006,133.922,43.773   c2.406-6.141,3.994-12.683,4.59-19.522C288.247,230.169,235.628,218.778,195.401,219.874z"/>
	<path style="fill:#F5F5F5;" d="M258.925,280.1l1.88,5.638l5.943,0.046c0.769,0.006,1.088,0.988,0.47,1.445l-4.781,3.531   l1.793,5.666c0.232,0.734-0.604,1.341-1.229,0.893l-4.835-3.456l-4.835,3.456c-0.626,0.448-1.461-0.159-1.229-0.893l1.793-5.666   l-4.781-3.531c-0.619-0.457-0.3-1.439,0.469-1.445l5.943-0.046l1.88-5.638C257.649,279.37,258.681,279.37,258.925,280.1z"/>
	<path style="fill:#F5F5F5;" d="M282.024,294.685l0.809,2.426l2.558,0.02c0.331,0.002,0.469,0.425,0.202,0.622l-2.058,1.519   l0.771,2.439c0.1,0.316-0.259,0.577-0.529,0.384l-2.081-1.487l-2.081,1.487c-0.269,0.193-0.629-0.068-0.529-0.384l0.771-2.439   l-2.058-1.519c-0.266-0.196-0.129-0.619,0.202-0.622l2.558-0.02l0.809-2.426C281.474,294.37,281.919,294.37,282.024,294.685z"/>
	<path style="fill:#F5F5F5;" d="M248.938,269.39l0.809,2.426l2.558,0.02c0.331,0.002,0.469,0.425,0.202,0.622l-2.058,1.519   l0.771,2.439c0.1,0.316-0.259,0.577-0.529,0.384l-2.081-1.487l-2.081,1.487c-0.269,0.193-0.629-0.068-0.529-0.384l0.771-2.439   l-2.058-1.519c-0.266-0.196-0.129-0.619,0.202-0.622l2.558-0.02l0.809-2.426C248.388,269.076,248.833,269.076,248.938,269.39z"/>
	<path style="fill:#F5F5F5;" d="M204.13,266.448l0.809,2.426l2.558,0.02c0.331,0.002,0.469,0.425,0.202,0.622l-2.058,1.519   l0.771,2.439c0.1,0.316-0.259,0.577-0.529,0.384l-2.081-1.487l-2.081,1.487c-0.269,0.193-0.629-0.068-0.529-0.384l0.771-2.439   l-2.058-1.519c-0.266-0.196-0.129-0.619,0.202-0.622l2.558-0.02l0.809-2.426C203.581,266.134,204.025,266.134,204.13,266.448z"/>
	<path style="fill:#F5F5F5;" d="M241.614,293.847l0.809,2.426l2.558,0.02c0.331,0.002,0.469,0.425,0.202,0.622l-2.058,1.519   l0.771,2.439c0.1,0.316-0.259,0.577-0.529,0.384l-2.081-1.487l-2.081,1.487c-0.269,0.193-0.629-0.068-0.529-0.384l0.771-2.439   l-2.058-1.519c-0.266-0.196-0.129-0.619,0.202-0.622l2.558-0.02l0.809-2.426C241.065,293.534,241.51,293.534,241.614,293.847z"/>
	<path style="fill:#F5F5F5;" d="M220.99,264.755l0.662,1.984l2.092,0.017c0.27,0.002,0.383,0.348,0.166,0.509l-1.683,1.242   l0.631,1.994c0.082,0.258-0.212,0.472-0.433,0.314l-1.702-1.216l-1.702,1.216c-0.221,0.158-0.514-0.056-0.433-0.314l0.631-1.994   l-1.683-1.242c-0.217-0.161-0.106-0.507,0.166-0.509l2.092-0.017l0.662-1.984C220.541,264.498,220.904,264.498,220.99,264.755z"/>
	<path style="fill:#F5F5F5;" d="M283.819,223.794l0.828,2.482l2.616,0.02c0.339,0.002,0.479,0.435,0.206,0.636l-2.104,1.554   l0.789,2.495c0.103,0.323-0.266,0.59-0.541,0.393l-2.129-1.522l-2.129,1.522c-0.276,0.198-0.643-0.071-0.541-0.393l0.789-2.495   l-2.104-1.554c-0.273-0.201-0.132-0.633,0.206-0.636l2.616-0.02l0.828-2.482C283.257,223.472,283.712,223.472,283.819,223.794z"/>
	<path style="fill:#F5F5F5;" d="M207.012,252.617l0.662,1.984l2.092,0.017c0.27,0.002,0.383,0.348,0.166,0.509l-1.683,1.242   l0.631,1.994c0.082,0.258-0.212,0.472-0.433,0.314l-1.702-1.216l-1.702,1.216c-0.221,0.158-0.514-0.056-0.433-0.314l0.631-1.994   l-1.683-1.242c-0.217-0.161-0.106-0.506,0.166-0.509l2.092-0.017l0.662-1.984C206.563,252.36,206.926,252.36,207.012,252.617z"/>
	<path style="fill:#F5F5F5;" d="M217.112,280.581l1.002,3.006l3.168,0.024c0.41,0.003,0.58,0.526,0.25,0.77l-2.549,1.882l0.956,3.02   c0.124,0.391-0.321,0.715-0.655,0.476l-2.578-1.842l-2.578,1.842c-0.333,0.238-0.779-0.085-0.655-0.476l0.956-3.02l-2.549-1.882   c-0.33-0.244-0.16-0.767,0.25-0.77l3.168-0.024l1.002-3.006C216.433,280.193,216.983,280.193,217.112,280.581z"/>
	<path style="fill:#F5F5F5;" d="M294.903,295.315l0.63,1.891l1.993,0.015c0.258,0.002,0.365,0.331,0.158,0.484l-1.603,1.184   l0.601,1.9c0.078,0.246-0.202,0.449-0.413,0.299l-1.621-1.159l-1.622,1.159c-0.21,0.15-0.49-0.053-0.413-0.299l0.601-1.9   l-1.603-1.184c-0.207-0.153-0.1-0.482,0.158-0.484l1.993-0.015l0.63-1.891C294.475,295.07,294.822,295.07,294.903,295.315z"/>
	<path style="fill:#F5F5F5;" d="M301.877,280.885l0.809,2.426l2.558,0.02c0.331,0.002,0.469,0.425,0.202,0.622l-2.058,1.519   l0.771,2.439c0.1,0.316-0.259,0.577-0.529,0.384l-2.081-1.487l-2.081,1.487c-0.269,0.193-0.629-0.068-0.529-0.384l0.771-2.439   l-2.058-1.519c-0.266-0.196-0.129-0.619,0.202-0.622l2.558-0.02l0.809-2.426C301.327,280.57,301.772,280.57,301.877,280.885z"/>
</g>
<g>
</g>
<g>
</g>
<g>
</g>
<g>
</g>
<g>
</g>
<g>
</g>
<g>
</g>
<g>
</g>
<g>
</g>
<g>
</g>
<g>
</g>
<g>
</g>
<g>
</g>
<g>
</g>
<g>
</g>
</svg>
