<?xml version="1.0" encoding="utf-8"?>
<!-- Generator: Adobe Illustrator 24.0.0, SVG Export Plug-In . SVG Version: 6.00 Build 0)  -->
<svg version="1.1" id="Layer_1" xmlns="http://www.w3.org/2000/svg" xmlns:xlink="http://www.w3.org/1999/xlink" x="0px" y="0px"
	 viewBox="0 0 262.1 64" style="enable-background:new 0 0 262.1 64;" xml:space="preserve">
<style type="text/css">
	.st0{fill:#020203;}
	.st1{fill:#FF0F2F;}
</style>
<path class="st0" d="M72.6,54.7h-7.5V8h7.5V54.7z"/>
<path class="st0" d="M78.9,46.2c0-2.7,0.9-4.8,2.6-6.4c1.7-1.6,4-2.6,6.9-3.1l8.1-1.2c1.5-0.2,2.3-1,2.3-2.3c0-1.4-0.5-2.6-1.5-3.4
	c-1-0.9-2.5-1.3-4.4-1.3s-3.4,0.5-4.5,1.6s-1.8,2.4-1.9,4.1l-6.8-1.5c0.3-2.8,1.7-5.3,4.1-7.3s5.5-3,9.2-3c4.6,0,7.9,1.1,10.1,3.3
	s3.3,5,3.3,8.4v15.6c0,2.1,0.1,3.7,0.4,5h-7c-0.2-0.6-0.3-2-0.3-4c-2.1,3.3-5.3,5-9.7,5c-3.2,0-5.7-0.9-7.7-2.8
	C79.9,51,78.9,48.8,78.9,46.2z M91,49.8c2.3,0,4.2-0.6,5.6-1.9c1.4-1.3,2.2-3.3,2.2-6.2v-1.4l-8.2,1.2c-2.8,0.5-4.2,1.9-4.2,4.3
	c0,1.1,0.4,2.1,1.2,2.9C88.5,49.4,89.6,49.8,91,49.8z"/>
<path class="st0" d="M141.9,23.3l-12.3,31.4h-7.5l-12.8-31.4h8.3l8.3,22.4l8.1-22.4C134,23.3,141.9,23.3,141.9,23.3z"/>
<path class="st0" d="M144,46.2c0-2.7,0.9-4.8,2.6-6.4c1.7-1.6,4-2.6,6.9-3.1l8.1-1.2c1.5-0.2,2.3-1,2.3-2.3c0-1.4-0.5-2.6-1.5-3.4
	c-1-0.9-2.5-1.3-4.4-1.3s-3.4,0.5-4.5,1.6s-1.8,2.4-1.9,4.1l-6.8-1.5c0.3-2.8,1.7-5.3,4.1-7.3c2.4-2,5.5-3,9.2-3
	c4.6,0,7.9,1.1,10.1,3.3c2.2,2.2,3.3,5,3.3,8.4v15.6c0,2.1,0.1,3.7,0.4,5h-7c-0.2-0.6-0.3-2-0.3-4c-2.1,3.3-5.3,5-9.7,5
	c-3.2,0-5.7-0.9-7.7-2.8C145,51,144,48.8,144,46.2z M156.1,49.8c2.3,0,4.2-0.6,5.6-1.9c1.4-1.3,2.2-3.3,2.2-6.2v-1.4l-8.2,1.2
	c-2.8,0.5-4.2,1.9-4.2,4.3c0,1.1,0.4,2.1,1.2,2.9C153.5,49.4,154.6,49.8,156.1,49.8z"/>
<path class="st0" d="M186.4,54.7h-7.5V8h7.5V54.7z"/>
<path class="st0" d="M202.2,54.7h-7.4V23.3h7.4V54.7z"/>
<path class="st0" d="M220.1,13.7v9.6h6.5V30h-6.5v14.6c0,1.4,0.3,2.4,1,3c0.6,0.6,1.7,0.9,3,0.9c0.9,0,1.7-0.1,2.6-0.3v6.2
	c-1.1,0.5-2.6,0.7-4.6,0.7c-2.9,0-5.2-0.8-6.9-2.5s-2.5-3.9-2.5-6.9V30h-5.8v-6.6h1.6c1.6,0,2.8-0.5,3.6-1.4s1.2-2.1,1.2-3.5v-4.7
	h6.8V13.7z"/>
<path class="st0" d="M254.1,43.8l6.3,2c-0.9,2.9-2.6,5.3-5.1,7.1c-2.5,1.9-5.5,2.8-9.1,2.8c-4.5,0-8.3-1.5-11.4-4.6
	c-3.1-3.1-4.7-7.1-4.7-12.2c0-4.8,1.5-8.8,4.5-11.9s6.6-4.6,10.7-4.6c4.8,0,8.6,1.5,11.3,4.4c2.7,2.9,4.1,6.9,4.1,11.9
	c0,1.3-0.1,2.1-0.2,2.4h-23c0.1,2.4,1,4.3,2.6,5.9c1.7,1.5,3.6,2.3,6,2.3C250.3,49.2,252.9,47.4,254.1,43.8z M237.9,35.6h15.4
	c-0.1-2-0.8-3.6-2.1-5c-1.3-1.3-3.2-2-5.6-2c-2.2,0-4,0.7-5.4,2.1C238.8,32.1,238,33.7,237.9,35.6z"/>
<circle class="st1" cx="198.5" cy="12.6" r="4.7"/>
<path class="st1" d="M13.5,61.8L13.5,61.8c-6.2,0-11.2-5-11.2-11.2V13.7c0-6.2,5-11.2,11.2-11.2l0,0c6.2,0,11.2,5,11.2,11.2v36.9
	C24.7,56.7,19.7,61.8,13.5,61.8z"/>
<circle class="st1" cx="40.2" cy="49.6" r="12.2"/>
</svg>
