<?xml version="1.0" encoding="utf-8"?>
<!-- Generator: Adobe Illustrator 16.0.0, SVG Export Plug-In . SVG Version: 6.00 Build 0)  -->
<!DOCTYPE svg PUBLIC "-//W3C//DTD SVG 1.1//EN" "http://www.w3.org/Graphics/SVG/1.1/DTD/svg11.dtd">
<svg version="1.1" id="Layer_1" xmlns="http://www.w3.org/2000/svg" xmlns:xlink="http://www.w3.org/1999/xlink" x="0px" y="0px"
	 width="148px" height="36px" viewBox="0 0 148 36" enable-background="new 0 0 148 36" xml:space="preserve">
<g>
	<polygon id="path0" fill="#FFFFFF" points="0.691,0.761 3.983,3.318 3.979,27.525 3.979,31.409 0.691,28.866 	"/>
	<polygon id="path1" fill="#FFFFFF" points="5.022,4.1 8.314,6.655 8.312,30.861 23.101,23.533 23.101,18.139 26.393,20.701 
		26.393,25.613 8.312,34.747 5.022,32.204 	"/>
	<polygon id="path2" fill="#FFFFFF" points="9.332,25.409 18.792,20.859 18.792,14.787 22.083,17.343 22.083,22.939 9.332,29.238 	
		"/>
</g>
<g>
	<path fill="#FFFFFF" d="M49.129,27.63v2.755H35.452V7.654h3.18V27.63H49.129z"/>
	<path fill="#FFFFFF" d="M57.788,12.902c1.223,0,2.257,0.16,3.099,0.478c0.842,0.317,1.521,0.766,2.034,1.342
		c0.514,0.582,0.879,1.271,1.099,2.069c0.22,0.798,0.328,1.676,0.328,2.641v10.655c-0.263,0.048-0.629,0.104-1.099,0.185
		c-0.471,0.076-1.001,0.146-1.591,0.213c-0.592,0.064-1.23,0.127-1.918,0.179c-0.689,0.058-1.373,0.086-2.05,0.086
		c-0.962,0-1.849-0.101-2.657-0.296c-0.809-0.196-1.509-0.51-2.098-0.938c-0.592-0.422-1.051-0.988-1.379-1.687
		c-0.327-0.701-0.491-1.543-0.491-2.526c0-0.939,0.19-1.75,0.574-2.429c0.382-0.679,0.902-1.226,1.558-1.64
		c0.657-0.418,1.421-0.723,2.297-0.918c0.874-0.197,1.792-0.297,2.754-0.297c0.306,0,0.624,0.018,0.952,0.049
		c0.327,0.035,0.639,0.078,0.935,0.135c0.294,0.053,0.553,0.104,0.771,0.146c0.218,0.043,0.371,0.078,0.458,0.101v-0.854
		c0-0.502-0.054-1-0.163-1.493c-0.11-0.491-0.307-0.929-0.592-1.311c-0.284-0.384-0.671-0.688-1.164-0.918
		c-0.493-0.23-1.132-0.345-1.919-0.345c-1.007,0-1.886,0.07-2.64,0.211c-0.754,0.144-1.317,0.291-1.689,0.442l-0.36-2.524
		c0.394-0.173,1.049-0.344,1.967-0.507C55.722,12.984,56.716,12.902,57.788,12.902z M58.049,28.188c0.723,0,1.361-0.018,1.919-0.051
		c0.557-0.031,1.022-0.092,1.394-0.18v-5.085c-0.218-0.108-0.573-0.202-1.066-0.276c-0.492-0.076-1.087-0.113-1.787-0.113
		c-0.461,0-0.946,0.031-1.46,0.096c-0.515,0.066-0.984,0.201-1.411,0.41c-0.425,0.209-0.782,0.49-1.066,0.855
		c-0.284,0.359-0.425,0.836-0.425,1.426c0,1.094,0.35,1.854,1.048,2.277C55.897,27.977,56.847,28.188,58.049,28.188z"/>
	<path fill="#FFFFFF" d="M82.223,13.329c-0.853,3.192-1.854,6.254-3,9.185c-1.147,2.932-2.259,5.557-3.328,7.871h-2.756
		c-1.072-2.314-2.18-4.939-3.328-7.871c-1.148-2.931-2.148-5.993-3.002-9.185h3.281c0.261,1.073,0.574,2.216,0.934,3.427
		c0.362,1.215,0.743,2.418,1.147,3.609c0.404,1.193,0.816,2.346,1.231,3.459c0.415,1.115,0.809,2.111,1.181,2.986
		c0.371-0.875,0.766-1.871,1.18-2.986c0.416-1.113,0.827-2.266,1.23-3.459c0.404-1.191,0.787-2.395,1.146-3.609
		c0.362-1.211,0.674-2.354,0.937-3.427H82.223z"/>
	<path fill="#FFFFFF" d="M90.882,12.902c1.224,0,2.259,0.16,3.099,0.478c0.845,0.317,1.521,0.766,2.035,1.342
		c0.514,0.582,0.879,1.271,1.098,2.069c0.221,0.798,0.328,1.676,0.328,2.641v10.655c-0.262,0.048-0.629,0.104-1.099,0.185
		c-0.471,0.076-1.001,0.146-1.592,0.213c-0.59,0.064-1.229,0.127-1.918,0.179c-0.688,0.058-1.371,0.086-2.05,0.086
		c-0.963,0-1.848-0.101-2.657-0.296c-0.81-0.196-1.508-0.51-2.099-0.938c-0.59-0.422-1.049-0.988-1.377-1.687
		c-0.327-0.701-0.491-1.543-0.491-2.526c0-0.939,0.19-1.75,0.573-2.429s0.9-1.226,1.559-1.64c0.656-0.418,1.421-0.723,2.297-0.918
		c0.874-0.197,1.792-0.297,2.754-0.297c0.307,0,0.624,0.018,0.952,0.049c0.326,0.035,0.64,0.078,0.935,0.135
		c0.295,0.053,0.554,0.104,0.771,0.146s0.371,0.078,0.461,0.101v-0.854c0-0.502-0.057-1-0.165-1.493
		c-0.108-0.491-0.31-0.929-0.593-1.311c-0.282-0.384-0.671-0.688-1.164-0.918c-0.491-0.229-1.13-0.345-1.918-0.345
		c-1.008,0-1.887,0.07-2.641,0.211c-0.754,0.144-1.316,0.291-1.688,0.442l-0.358-2.524c0.393-0.173,1.049-0.344,1.967-0.507
		C88.816,12.984,89.811,12.902,90.882,12.902z M91.143,28.188c0.725,0,1.361-0.018,1.922-0.051c0.558-0.031,1.022-0.092,1.396-0.18
		v-5.085c-0.223-0.108-0.574-0.202-1.066-0.276c-0.492-0.076-1.088-0.113-1.787-0.113c-0.461,0-0.946,0.031-1.459,0.096
		c-0.517,0.066-0.984,0.201-1.412,0.41c-0.426,0.209-0.781,0.49-1.064,0.855c-0.285,0.359-0.427,0.836-0.427,1.426
		c0,1.094,0.351,1.854,1.05,2.277C88.991,27.977,89.941,28.188,91.143,28.188z"/>
	<path fill="#FFFFFF" d="M107.607,30.714c-1.879-0.045-3.215-0.45-4-1.216c-0.789-0.764-1.183-1.955-1.183-3.573V5.457l3.052-0.523
		v20.5c0,0.502,0.043,0.918,0.131,1.244c0.088,0.328,0.229,0.594,0.427,0.786c0.196,0.198,0.459,0.345,0.786,0.444
		c0.33,0.099,0.732,0.181,1.215,0.244L107.607,30.714z"/>
	<path fill="#FFFFFF" d="M112.955,10.246c-0.547,0-1.012-0.179-1.395-0.542c-0.385-0.361-0.576-0.846-0.576-1.458
		c0-0.614,0.191-1.1,0.576-1.46c0.383-0.361,0.848-0.542,1.395-0.542c0.546,0,1.009,0.181,1.395,0.542
		c0.383,0.36,0.572,0.846,0.572,1.46c0,0.611-0.189,1.097-0.572,1.458C113.964,10.067,113.501,10.246,112.955,10.246z
		 M114.496,30.385h-3.051V13.329h3.051V30.385z"/>
	<path fill="#FFFFFF" d="M122.598,13.329h6.463v2.56h-6.463v7.871c0,0.852,0.064,1.559,0.197,2.115
		c0.131,0.557,0.327,0.995,0.59,1.311c0.264,0.318,0.59,0.545,0.983,0.676c0.396,0.132,0.853,0.197,1.378,0.197
		c0.919,0,1.658-0.104,2.214-0.312c0.558-0.208,0.946-0.354,1.165-0.441l0.589,2.523c-0.304,0.154-0.842,0.347-1.604,0.572
		c-0.767,0.231-1.642,0.349-2.623,0.349c-1.159,0-2.116-0.147-2.87-0.442c-0.755-0.295-1.36-0.738-1.819-1.326
		c-0.461-0.596-0.781-1.318-0.968-2.187c-0.188-0.858-0.278-1.862-0.278-3V8.572l3.051-0.523v5.28H122.598z"/>
	<path fill="#FFFFFF" d="M131.648,21.889c0-1.507,0.219-2.824,0.656-3.95c0.437-1.127,1.018-2.06,1.736-2.805
		c0.725-0.742,1.555-1.3,2.494-1.674c0.938-0.371,1.9-0.558,2.886-0.558c2.297,0,4.058,0.718,5.281,2.149
		c1.224,1.433,1.836,3.613,1.836,6.544c0,0.131,0,0.301,0,0.508s-0.015,0.4-0.033,0.574H134.83c0.132,1.77,0.646,3.117,1.541,4.034
		c0.898,0.918,2.298,1.377,4.199,1.377c1.072,0,1.973-0.094,2.707-0.28c0.729-0.184,1.283-0.365,1.656-0.537l0.424,2.557
		c-0.371,0.197-1.021,0.406-1.949,0.625c-0.93,0.218-1.984,0.324-3.167,0.324c-1.486,0-2.771-0.225-3.853-0.67
		c-1.082-0.446-1.975-1.066-2.675-1.854c-0.698-0.788-1.22-1.721-1.558-2.804C131.818,24.365,131.648,23.182,131.648,21.889z
		 M143.359,20.219c0.021-1.378-0.323-2.51-1.034-3.397c-0.712-0.885-1.688-1.328-2.937-1.328c-0.699,0-1.316,0.138-1.854,0.41
		c-0.538,0.272-0.99,0.627-1.36,1.065c-0.37,0.438-0.661,0.943-0.868,1.508c-0.209,0.572-0.347,1.151-0.412,1.742H143.359z"/>
</g>
</svg>
