<?xml version="1.0" encoding="iso-8859-1"?>
<!-- Generator: Adobe Illustrator 19.0.0, SVG Export Plug-In . SVG Version: 6.00 Build 0)  -->
<svg xmlns="http://www.w3.org/2000/svg" xmlns:xlink="http://www.w3.org/1999/xlink" version="1.1" id="Layer_1" x="0px" y="0px" viewBox="0 0 512 512" style="enable-background:new 0 0 512 512;" xml:space="preserve">
<path style="fill:#73AF00;" d="M0,344.276V97.103c0-4.875,3.953-8.828,8.828-8.828h379.586L0,344.276z"/>
<path style="fill:#4173CD;" d="M512,167.724v247.172c0,4.875-3.953,8.828-8.828,8.828H123.586L512,167.724z"/>
<path style="fill:#FFE15A;" d="M512,172.702V97.103c0-4.875-3.953-8.828-8.828-8.828H383.139L0,339.298v75.598  c0,4.875,3.953,8.828,8.828,8.828h120.033L512,172.702z"/>
<path style="fill:#464655;" d="M512,141.047V97.103c0-4.875-3.953-8.828-8.828-8.828h-71.718L0,370.953v43.944  c0,4.875,3.953,8.828,8.828,8.828h71.718L512,141.047z"/>
<g>
</g>
<g>
</g>
<g>
</g>
<g>
</g>
<g>
</g>
<g>
</g>
<g>
</g>
<g>
</g>
<g>
</g>
<g>
</g>
<g>
</g>
<g>
</g>
<g>
</g>
<g>
</g>
<g>
</g>
</svg>
