<?xml version="1.0" encoding="iso-8859-1"?>
<!-- Generator: Adobe Illustrator 19.0.0, SVG Export Plug-In . SVG Version: 6.00 Build 0)  -->
<svg xmlns="http://www.w3.org/2000/svg" xmlns:xlink="http://www.w3.org/1999/xlink" version="1.1" id="Layer_1" x="0px" y="0px" viewBox="0 0 512.001 512.001" style="enable-background:new 0 0 512.001 512.001;" xml:space="preserve">
<path style="fill:#F5F5F5;" d="M503.172,423.724H8.828c-4.875,0-8.828-3.953-8.828-8.828V97.104c0-4.875,3.953-8.828,8.828-8.828  h494.345c4.875,0,8.828,3.953,8.828,8.828v317.792C512,419.772,508.047,423.724,503.172,423.724z"/>
<g>
	<path style="fill:#464655;" d="M255.999,256V88.276H8.828c-2.146,0-4.041,0.86-5.571,2.134L255.999,256z"/>
	<path style="fill:#464655;" d="M508.743,90.41L255.999,256h255.999V97.104C512,94.375,510.689,92.028,508.743,90.41z"/>
	<path style="fill:#464655;" d="M3.256,421.591L255.999,256H0v158.896C0,417.625,1.311,419.972,3.256,421.591z"/>
	<path style="fill:#464655;" d="M255.999,256v167.724h247.172c2.146,0,4.041-0.86,5.571-2.134L255.999,256z"/>
</g>
<path style="fill:#FF4B55;" d="M277.186,243.641v28.248c0,11.682-9.504,21.186-21.186,21.186s-21.186-9.504-21.186-21.186v-28.248  H277.186 M284.248,229.517h-56.496c-3.901,0-7.062,3.161-7.062,7.062v35.31c0,19.501,15.809,35.31,35.31,35.31  s35.31-15.809,35.31-35.31v-35.31C291.31,232.68,288.148,229.517,284.248,229.517L284.248,229.517z"/>
<path style="fill:#F5F5F5;" d="M277.186,243.641v28.248c0,11.682-9.504,21.186-21.186,21.186s-21.186-9.504-21.186-21.186v-28.248  H277.186"/>
<g>
	<circle style="fill:#FFE15A;" cx="227.7" cy="236.58" r="3.531"/>
	<circle style="fill:#FFE15A;" cx="284.19" cy="236.58" r="3.531"/>
	<circle style="fill:#FFE15A;" cx="227.7" cy="264.83" r="3.531"/>
	<circle style="fill:#FFE15A;" cx="284.19" cy="264.83" r="3.531"/>
	<circle style="fill:#FFE15A;" cx="255.94" cy="236.58" r="3.531"/>
	<circle style="fill:#FFE15A;" cx="255.94" cy="300.41" r="3.531"/>
	<circle style="fill:#FFE15A;" cx="277.14" cy="290.87" r="3.531"/>
	<circle style="fill:#FFE15A;" cx="235.16" cy="290.87" r="3.531"/>
</g>
<g>
	<path style="fill:#41479B;" d="M260.561,263.038v6.081c0,2.515-2.046,4.561-4.561,4.561s-4.561-2.046-4.561-4.561v-6.081H260.561"/>
	<path style="fill:#41479B;" d="M260.561,248.619v6.081c0,2.515-2.046,4.561-4.561,4.561s-4.561-2.046-4.561-4.561v-6.081   L260.561,248.619"/>
	<path style="fill:#41479B;" d="M260.561,277.603v6.081c0,2.515-2.046,4.561-4.561,4.561s-4.561-2.046-4.561-4.561v-6.081H260.561"/>
	<path style="fill:#41479B;" d="M272.846,263.038v6.081c0,2.515-2.046,4.561-4.561,4.561s-4.562-2.046-4.562-4.561v-6.081H272.846"/>
	<path style="fill:#41479B;" d="M248.275,263.038v6.081c0,2.515-2.046,4.561-4.561,4.561s-4.561-2.046-4.561-4.561v-6.081H248.275"/>
</g>
<path style="fill:#FFE15A;" d="M290.186,229.517h-68.024c-2.294,0-4.154-1.86-4.154-4.154v-2.596c0-2.294,1.86-4.154,4.154-4.154  h68.024c2.294,0,4.154,1.86,4.154,4.154v2.596C294.341,227.658,292.48,229.517,290.186,229.517z"/>
<polygon style="fill:#FF4B55;" points="256.174,221.339 250.722,224.065 256.174,226.792 261.627,224.065 "/>
<g>
	<ellipse style="fill:#4173CD;" cx="273.9" cy="224.07" rx="4.089" ry="2.727"/>
	<ellipse style="fill:#4173CD;" cx="238.46" cy="224.07" rx="4.089" ry="2.727"/>
</g>
<g>
	<circle style="fill:#F5F5F5;" cx="265.72" cy="224.07" r="1.363"/>
	<circle style="fill:#F5F5F5;" cx="282.07" cy="224.07" r="1.363"/>
	<circle style="fill:#F5F5F5;" cx="246.63" cy="224.07" r="1.363"/>
	<circle style="fill:#F5F5F5;" cx="230.28" cy="224.07" r="1.363"/>
</g>
<g>
	<polygon style="fill:#FF4B55;" points="218.008,222.702 218.008,225.428 220.734,226.792 226.187,224.065 220.734,221.339  "/>
	<polygon style="fill:#FF4B55;" points="294.341,225.428 294.341,222.702 291.614,221.339 286.162,224.065 291.614,226.792  "/>
</g>
<g>
	<path style="fill:#F5F5F5;" d="M238.032,200.88c-0.87-0.428-1.903-0.164-2.774,0.509c0.447-0.661,0.703-1.543,0.654-2.502   c-0.099-1.95-1.399-3.469-2.902-3.392c-1.504,0.076-2.642,1.719-2.543,3.669c0.053,1.036,0.457,1.928,1.038,2.546   c-1.174-0.573-2.458-0.518-3.243,0.268c-1.065,1.064-0.809,3.047,0.573,4.427c1.38,1.382,3.363,1.637,4.428,0.573   c0.297-0.297,0.468-0.673,0.563-1.081c0.217,0.57,0.552,1.065,1.082,1.326c1.351,0.665,3.145-0.215,4.008-1.966   C239.778,203.505,239.383,201.545,238.032,200.88z M234.024,202.846c-0.2,0.406-0.317,0.822-0.386,1.231   c-0.203-0.537-0.489-1.067-0.949-1.528c-0.079-0.079-0.175-0.117-0.259-0.19c0.299,0.124,0.61,0.212,0.939,0.195   c0.441-0.023,0.833-0.211,1.19-0.47C234.37,202.325,234.169,202.553,234.024,202.846z"/>
	<path style="fill:#F5F5F5;" d="M273.084,205.256c0.863,1.751,2.657,2.632,4.008,1.966c0.531-0.262,0.865-0.757,1.082-1.326   c0.096,0.407,0.266,0.783,0.563,1.081c1.065,1.065,3.047,0.809,4.428-0.573c1.38-1.38,1.636-3.363,0.573-4.427   c-0.786-0.786-2.069-0.841-3.243-0.268c0.582-0.618,0.985-1.51,1.038-2.546c0.099-1.95-1.039-3.593-2.543-3.669   s-2.803,1.442-2.902,3.392c-0.049,0.96,0.207,1.841,0.654,2.502c-0.871-0.673-1.905-0.937-2.774-0.509   C272.616,201.545,272.221,203.505,273.084,205.256z M277.44,202.085c0.356,0.26,0.748,0.448,1.19,0.47   c0.329,0.017,0.64-0.072,0.939-0.195c-0.083,0.072-0.18,0.11-0.259,0.19c-0.46,0.46-0.746,0.991-0.949,1.528   c-0.068-0.409-0.185-0.826-0.386-1.231C277.831,202.553,277.63,202.325,277.44,202.085z"/>
</g>
<path style="fill:#FFE15A;" d="M305.754,192.872c-3.927-1.398-12.188-2.146-15.332,4.992c-0.607,1.379,0.018,2.987,1.395,3.594  c1.332,0.588,2.862,0.006,3.513-1.281l1.027,1.217c-0.86,2.415-1.205,4.578-1.302,5.322c-1.402,5.814-6.801,6.445-9.069,6.445  c-3.659,0-5.728-3.922-5.748-3.961c-0.373-0.722-1.054-1.246-1.849-1.419c-0.798-0.173-1.63,0.011-2.269,0.511  c-1.494,1.174-6.141,4.345-9.646,4.904c-1.69,0.271-3.07-0.011-4.001-0.809c-0.755-0.644-1.022-1.453-1.022-1.951  c0-1.222,1.503-2.727,2.727-2.727c0.927,0,1.282,0.594,1.282,0.594c0.647,1.368,2.273,1.946,3.633,1.304  c1.362-0.647,1.942-2.271,1.298-3.631c-0.529-1.118-1.986-2.842-4.38-3.467c1.454-2.308,2.791-5.113,3.62-8.43l-8.179-2.727  c0,0,2.727-8.179-5.452-8.179c-8.179,0-5.452,8.179-5.452,8.179l-8.179,2.727c0.83,3.317,2.165,6.123,3.62,8.43  c-2.393,0.625-3.851,2.349-4.38,3.467c-0.644,1.361-0.064,2.985,1.298,3.631c1.359,0.641,2.986,0.064,3.63-1.299  c0,0,0.359-0.599,1.284-0.599c1.224,0,2.727,1.504,2.727,2.727c0,0.498-0.267,1.308-1.022,1.951  c-0.931,0.799-2.311,1.081-4.001,0.809c-3.507-0.559-8.153-3.73-9.646-4.904c-0.639-0.501-1.471-0.684-2.269-0.511  c-0.794,0.173-1.476,0.697-1.849,1.419c-0.02,0.04-2.089,3.961-5.748,3.961c-2.269,0-7.666-0.631-9.069-6.445  c-0.096-0.744-0.441-2.905-1.301-5.322l1.027-1.217c0.651,1.288,2.182,1.869,3.513,1.281c1.378-0.607,2.002-2.215,1.395-3.594  c-3.144-7.137-11.405-6.389-15.332-4.992c-1.124,0.399-1.859,1.483-1.813,2.676c0.045,1.193,0.863,2.215,2.015,2.527  c3.34,0.897,4.839,7.282,5.1,9.445c0.012,0.093,0.03,0.192,0.05,0.285c1.524,6.666,7.049,10.809,14.414,10.809  c4.223,0,7.142-2.391,8.836-4.372c2.388,1.574,6.231,3.767,9.818,4.337c0.689,0.109,1.362,0.166,2.019,0.166  c2.463,0,4.679-0.759,6.379-2.21c1.838-1.568,2.935-3.85,2.935-6.099c0,2.25,1.097,4.531,2.935,6.099  c1.699,1.451,3.916,2.21,6.379,2.21c0.658,0,1.331-0.056,2.019-0.166c3.587-0.569,7.431-2.763,9.818-4.337  c1.695,1.981,4.613,4.372,8.836,4.372c7.367,0,12.89-4.142,14.415-10.809c0.02-0.093,0.038-0.192,0.05-0.285  c0.26-2.165,1.76-8.548,5.099-9.445c1.153-0.311,1.97-1.334,2.015-2.527C307.613,194.354,306.878,193.271,305.754,192.872z"/>
<g>
	
		<ellipse transform="matrix(-0.9237 0.3831 -0.3831 -0.9237 481.8699 308.5331)" style="fill:#4173CD;" cx="210.213" cy="202.248" rx="2.727" ry="4.089"/>
	
		<ellipse transform="matrix(0.9237 0.3831 -0.3831 0.9237 100.513 -100.1811)" style="fill:#4173CD;" cx="301.78" cy="202.267" rx="2.727" ry="4.089"/>
	<ellipse style="fill:#4173CD;" cx="256" cy="199.53" rx="4.089" ry="5.452"/>
</g>
<g>
</g>
<g>
</g>
<g>
</g>
<g>
</g>
<g>
</g>
<g>
</g>
<g>
</g>
<g>
</g>
<g>
</g>
<g>
</g>
<g>
</g>
<g>
</g>
<g>
</g>
<g>
</g>
<g>
</g>
</svg>
