<?xml version="1.0" encoding="iso-8859-1"?>
<!-- Generator: Adobe Illustrator 19.0.0, SVG Export Plug-In . SVG Version: 6.00 Build 0)  -->
<svg xmlns="http://www.w3.org/2000/svg" xmlns:xlink="http://www.w3.org/1999/xlink" version="1.1" id="Layer_1" x="0px" y="0px" viewBox="0 0 512.001 512.001" style="enable-background:new 0 0 512.001 512.001;" xml:space="preserve">
<path style="fill:#FF4B55;" d="M512,200.093H0V97.104c0-4.875,3.953-8.828,8.828-8.828h494.345c4.875,0,8.828,3.953,8.828,8.828  L512,200.093L512,200.093z"/>
<path style="fill:#464655;" d="M503.172,423.725H8.828c-4.875,0-8.828-3.953-8.828-8.828V311.909h512v102.988  C512,419.773,508.047,423.725,503.172,423.725z"/>
<rect y="200.091" style="fill:#F5F5F5;" width="512" height="111.81"/>
<g>
	<path style="fill:#73AF00;" d="M150.03,223.315l7.36,22.068l23.262,0.18c3.011,0.023,4.26,3.866,1.837,5.656l-18.713,13.82   l7.017,22.179c0.908,2.871-2.361,5.247-4.811,3.496l-18.925-13.527l-18.925,13.527c-2.451,1.751-5.719-0.625-4.811-3.496   l7.017-22.179l-18.713-13.82c-2.423-1.789-1.174-5.633,1.837-5.656l23.262-0.18l7.36-22.068   C145.036,220.458,149.077,220.458,150.03,223.315z"/>
	<path style="fill:#73AF00;" d="M367.917,223.315l7.36,22.068l23.262,0.18c3.011,0.023,4.26,3.866,1.837,5.656l-18.713,13.82   l7.017,22.179c0.908,2.871-2.361,5.247-4.811,3.496l-18.925-13.527l-18.925,13.527c-2.451,1.751-5.72-0.625-4.811-3.496   l7.017-22.179l-18.713-13.82c-2.423-1.789-1.174-5.633,1.837-5.656l23.262-0.18l7.36-22.068   C362.923,220.458,366.964,220.458,367.917,223.315z"/>
</g>
<g>
</g>
<g>
</g>
<g>
</g>
<g>
</g>
<g>
</g>
<g>
</g>
<g>
</g>
<g>
</g>
<g>
</g>
<g>
</g>
<g>
</g>
<g>
</g>
<g>
</g>
<g>
</g>
<g>
</g>
</svg>
