<?xml version="1.0" encoding="iso-8859-1"?>
<!-- Generator: Adobe Illustrator 19.0.0, SVG Export Plug-In . SVG Version: 6.00 Build 0)  -->
<svg xmlns="http://www.w3.org/2000/svg" xmlns:xlink="http://www.w3.org/1999/xlink" version="1.1" id="Layer_1" x="0px" y="0px" viewBox="0 0 512.001 512.001" style="enable-background:new 0 0 512.001 512.001;" xml:space="preserve">
<path style="fill:#73AF00;" d="M503.172,423.724H8.828c-4.875,0-8.828-3.953-8.828-8.828V97.104c0-4.875,3.953-8.828,8.828-8.828  h494.345c4.875,0,8.828,3.953,8.828,8.828v317.792C512,419.772,508.047,423.724,503.172,423.724z"/>
<g>
	<path style="fill:#FFE15A;" d="M283.615,307.645c-28.522,0-51.645-23.122-51.645-51.645c0-28.523,23.122-51.645,51.645-51.645   c3.785,0,7.452,0.454,10.987,1.265c1.409,0.323,2.156-1.568,0.927-2.329c-10.816-6.706-23.841-10.184-37.744-9.053   c-30.263,2.462-54.593,27.134-56.653,57.428c-2.462,36.189,26.164,66.308,61.826,66.308c11.955,0,23.109-3.396,32.574-9.265   c1.229-0.762,0.486-2.654-0.925-2.329C291.07,307.191,287.401,307.645,283.615,307.645z"/>
	<path style="fill:#FFE15A;" d="M328.629,212.272l3.879,9.824l10.099-3.093c0.561-0.172,1.043,0.433,0.75,0.941l-5.262,9.158   l8.715,5.967c0.484,0.331,0.312,1.085-0.268,1.173l-10.441,1.596l0.768,10.533c0.043,0.585-0.653,0.92-1.084,0.522l-7.756-7.168   l-7.756,7.168c-0.431,0.398-1.127,0.063-1.084-0.522l0.768-10.533l-10.441-1.596c-0.58-0.088-0.751-0.842-0.268-1.173l8.715-5.967   l-5.262-9.158c-0.292-0.509,0.189-1.112,0.75-0.941l10.099,3.093l3.879-9.824C327.642,211.726,328.414,211.726,328.629,212.272z"/>
	<path style="fill:#FFE15A;" d="M469.87,185.789l3.879,9.824l10.099-3.093c0.561-0.172,1.043,0.433,0.75,0.941l-5.262,9.158   l8.715,5.967c0.484,0.331,0.312,1.085-0.268,1.173l-10.441,1.596l0.768,10.534c0.043,0.585-0.653,0.92-1.084,0.522l-7.756-7.168   l-7.756,7.168c-0.431,0.398-1.127,0.063-1.084-0.522l0.768-10.534l-10.441-1.596c-0.58-0.088-0.751-0.842-0.268-1.173l8.715-5.967   l-5.262-9.158c-0.292-0.509,0.189-1.112,0.75-0.941l10.099,3.093l3.879-9.824C468.883,185.244,469.655,185.244,469.87,185.789z"/>
	<path style="fill:#FFE15A;" d="M399.25,122.103l3.879,9.824l10.099-3.093c0.561-0.172,1.043,0.433,0.75,0.941l-5.262,9.158   l8.715,5.967c0.484,0.331,0.312,1.085-0.268,1.173l-10.441,1.596l0.768,10.533c0.043,0.585-0.653,0.92-1.084,0.522l-7.756-7.168   l-7.756,7.168c-0.431,0.398-1.127,0.063-1.084-0.522l0.768-10.533l-10.441-1.596c-0.58-0.088-0.751-0.842-0.268-1.173l8.715-5.967   l-5.262-9.158c-0.292-0.509,0.19-1.112,0.75-0.941l10.099,3.093l3.879-9.824C398.262,121.557,399.035,121.557,399.25,122.103z"/>
	<path style="fill:#FFE15A;" d="M399.25,353.513l3.879,9.824l10.099-3.093c0.561-0.172,1.043,0.433,0.75,0.941l-5.262,9.158   l8.715,5.967c0.484,0.331,0.312,1.085-0.268,1.173l-10.441,1.596l0.768,10.533c0.043,0.585-0.653,0.92-1.084,0.522l-7.756-7.168   l-7.756,7.168c-0.431,0.398-1.127,0.063-1.084-0.522l0.768-10.533l-10.441-1.596c-0.58-0.088-0.751-0.842-0.268-1.173l8.715-5.967   l-5.262-9.158c-0.292-0.509,0.19-1.112,0.75-0.941l10.099,3.093l3.879-9.824C398.262,352.968,399.035,352.968,399.25,353.513z"/>
	<path style="fill:#FFE15A;" d="M428.157,221.162l2.708,8.118l8.557,0.066c0.663,0.006,0.938,0.851,0.405,1.245l-6.884,5.084   l2.581,8.159c0.2,0.632-0.52,1.155-1.059,0.769l-6.963-4.977l-6.963,4.977c-0.54,0.385-1.259-0.137-1.059-0.769l2.581-8.159   l-6.884-5.084c-0.533-0.394-0.258-1.24,0.405-1.245l8.557-0.066l2.708-8.118C427.057,220.533,427.946,220.533,428.157,221.162z"/>
	<circle style="fill:#FFE15A;" cx="92.69" cy="180.97" r="57.38"/>
</g>
<path style="fill:#964B50;" d="M86.788,225.67h15.496c0,0,8.804-39.444,0.704-53.531l-4.93,3.169  C98.058,175.308,106.158,202.425,86.788,225.67z"/>
<path style="fill:#73AF00;" d="M87.375,173.899c0,0-8.921,6.104-6.104,24.183c0,0,6.808-5.635,10.565-18.079  c0,0-5.4,10.33,2.113,18.548c0,0,7.982-11.27,6.808-21.131c0,0,26.539,27.714,20.896,20.661c-0.939-1.174,1.409-12.914-7.748-22.539  c0,0,15.027,3.756,20.661,2.348c0,0,0.47-11.975-13.853-14.088l3.287-9.391c0,0-11.034-0.704-16.905,4.93  c0,0-1.409-14.557,4.461-21.6c0,0-17.374-2.583-18.079,20.192c0,0-6.339-14.557-25.826-11.034c0,0,11.034,7.982,12.914,11.505  c0,0-15.496-10.565-22.774,4.226c0,0,12.444-3.287,16.905,2.583c0,0-19.957-2.113-21.6,15.027  C53.097,180.239,71.645,171.551,87.375,173.899z"/>
<g>
</g>
<g>
</g>
<g>
</g>
<g>
</g>
<g>
</g>
<g>
</g>
<g>
</g>
<g>
</g>
<g>
</g>
<g>
</g>
<g>
</g>
<g>
</g>
<g>
</g>
<g>
</g>
<g>
</g>
</svg>
