<?xml version="1.0" encoding="iso-8859-1"?>
<!-- Generator: Adobe Illustrator 19.0.0, SVG Export Plug-In . SVG Version: 6.00 Build 0)  -->
<svg xmlns="http://www.w3.org/2000/svg" xmlns:xlink="http://www.w3.org/1999/xlink" version="1.1" id="Layer_1" x="0px" y="0px" viewBox="0 0 512.001 512.001" style="enable-background:new 0 0 512.001 512.001;" xml:space="preserve">
<path style="fill:#FFE15A;" d="M8.828,88.276h494.345c4.875,0,8.828,3.953,8.828,8.828v75.034H0V97.104  C0,92.229,3.953,88.276,8.828,88.276z"/>
<rect y="172.14" style="fill:#F5F5F5;" width="512" height="83.86"/>
<rect y="256" style="fill:#FF4B55;" width="512" height="83.86"/>
<path style="fill:#4173CD;" d="M0,339.862h512v75.034c0,4.875-3.953,8.828-8.828,8.828H8.828c-4.875,0-8.828-3.953-8.828-8.828  V339.862z"/>
<path style="fill:#73AF00;" d="M3.256,421.591l247.383-162.079c2.53-1.658,2.53-5.366,0-7.025L3.256,90.41  C1.311,92.028,0,94.375,0,97.104v317.792C0,417.625,1.311,419.972,3.256,421.591z"/>
<g>
	<path style="fill:#F5F5F5;" d="M48.833,256c0-31.919,20.865-58.927,49.689-68.229c1.515-0.489,1.304-2.701-0.275-2.908   c-2.967-0.388-5.99-0.598-9.064-0.598c-39.618,0-71.735,32.117-71.735,71.735s32.117,71.735,71.735,71.735   c3.074,0,6.097-0.21,9.064-0.598c1.579-0.207,1.79-2.419,0.275-2.908C69.698,314.928,48.833,287.921,48.833,256z"/>
	<path style="fill:#F5F5F5;" d="M98.89,201.208l1.975,5.921l6.241,0.049c0.808,0.007,1.143,1.037,0.493,1.517l-5.021,3.708   l1.882,5.951c0.244,0.77-0.633,1.408-1.291,0.938l-5.078-3.629l-5.078,3.629c-0.658,0.47-1.535-0.168-1.291-0.938l1.882-5.951   l-5.021-3.708c-0.65-0.48-0.314-1.512,0.493-1.517l6.241-0.049l1.975-5.921C97.549,200.441,98.634,200.441,98.89,201.208z"/>
	<path style="fill:#F5F5F5;" d="M98.89,231.214l1.975,5.921l6.241,0.049c0.808,0.007,1.143,1.037,0.493,1.517l-5.021,3.708   l1.882,5.951c0.244,0.77-0.633,1.408-1.291,0.938l-5.078-3.629l-5.078,3.629c-0.658,0.47-1.535-0.168-1.291-0.938l1.882-5.951   l-5.021-3.708c-0.65-0.48-0.314-1.512,0.493-1.517l6.241-0.049l1.975-5.921C97.549,230.448,98.634,230.448,98.89,231.214z"/>
	<path style="fill:#F5F5F5;" d="M98.89,261.22l1.975,5.921l6.241,0.049c0.808,0.007,1.143,1.037,0.493,1.517l-5.021,3.708   l1.882,5.951c0.244,0.77-0.633,1.408-1.291,0.938l-5.078-3.629l-5.078,3.629c-0.658,0.47-1.535-0.168-1.291-0.938l1.882-5.951   l-5.021-3.708c-0.65-0.48-0.314-1.512,0.493-1.517l6.241-0.049l1.975-5.921C97.549,260.453,98.634,260.453,98.89,261.22z"/>
	<path style="fill:#F5F5F5;" d="M98.89,291.227l1.975,5.921l6.241,0.049c0.808,0.007,1.143,1.037,0.493,1.517l-5.021,3.708   l1.882,5.951c0.244,0.77-0.633,1.408-1.291,0.938l-5.078-3.629l-5.078,3.629c-0.658,0.47-1.535-0.168-1.291-0.938l1.882-5.951   l-5.021-3.708c-0.65-0.48-0.314-1.512,0.493-1.517l6.241-0.049l1.975-5.921C97.549,290.46,98.634,290.46,98.89,291.227z"/>
</g>
<g>
</g>
<g>
</g>
<g>
</g>
<g>
</g>
<g>
</g>
<g>
</g>
<g>
</g>
<g>
</g>
<g>
</g>
<g>
</g>
<g>
</g>
<g>
</g>
<g>
</g>
<g>
</g>
<g>
</g>
</svg>
