<?xml version="1.0" encoding="iso-8859-1"?>
<!-- Generator: Adobe Illustrator 19.0.0, SVG Export Plug-In . SVG Version: 6.00 Build 0)  -->
<svg xmlns="http://www.w3.org/2000/svg" xmlns:xlink="http://www.w3.org/1999/xlink" version="1.1" id="Layer_1" x="0px" y="0px" viewBox="0 0 512.001 512.001" style="enable-background:new 0 0 512.001 512.001;" xml:space="preserve">
<path style="fill:#FFE15A;" d="M503.172,423.721H8.828c-4.875,0-8.828-3.953-8.828-8.828v-75.034h512v75.034  C512,419.77,508.047,423.721,503.172,423.721z"/>
<rect y="255.997" style="fill:#73AF00;" width="512" height="83.86"/>
<rect y="172.137" style="fill:#F5F5F5;" width="512" height="83.86"/>
<path style="fill:#41479B;" d="M512,172.135H0V97.101c0-4.875,3.953-8.828,8.828-8.828h494.345c4.875,0,8.828,3.953,8.828,8.828  L512,172.135L512,172.135z"/>
<rect x="214.07" y="88.277" style="fill:#FF4B55;" width="83.86" height="335.45"/>
<path style="fill:#FFE15A;" d="M76.5,99.571l7.366,22.087l23.282,0.181c1.804,0.014,2.551,2.316,1.1,3.388l-18.73,13.83  l7.022,22.198c0.544,1.719-1.414,3.143-2.881,2.093L74.718,149.81l-18.941,13.538c-1.468,1.049-3.425-0.374-2.881-2.093  l7.022-22.198l-18.727-13.83c-1.451-1.071-0.703-3.373,1.1-3.388l23.282-0.181l7.366-22.087C73.509,97.86,75.929,97.86,76.5,99.571z  "/>
<g>
</g>
<g>
</g>
<g>
</g>
<g>
</g>
<g>
</g>
<g>
</g>
<g>
</g>
<g>
</g>
<g>
</g>
<g>
</g>
<g>
</g>
<g>
</g>
<g>
</g>
<g>
</g>
<g>
</g>
</svg>
