<?xml version="1.0" encoding="iso-8859-1"?>
<!-- Generator: Adobe Illustrator 19.0.0, SVG Export Plug-In . SVG Version: 6.00 Build 0)  -->
<svg xmlns="http://www.w3.org/2000/svg" xmlns:xlink="http://www.w3.org/1999/xlink" version="1.1" id="Layer_1" x="0px" y="0px" viewBox="0 0 512.001 512.001" style="enable-background:new 0 0 512.001 512.001;" xml:space="preserve">
<path style="fill:#41479B;" d="M503.172,423.725H8.828c-4.875,0-8.828-3.953-8.828-8.828V97.104c0-4.875,3.953-8.828,8.828-8.828  h494.345c4.875,0,8.828,3.953,8.828,8.828v317.793C512,419.773,508.047,423.725,503.172,423.725z"/>
<path style="fill:#F5F5F5;" d="M247.172,88.277h-15.334l-81.77,53.574V88.277H105.93v53.574L24.16,88.277H8.828  C3.953,88.277,0,92.229,0,97.104v7.002l70.155,45.963H0v44.138h70.155L0,240.171v7.002c0,4.875,3.953,8.828,8.828,8.828h15.334  l81.77-53.574v53.574h44.138v-53.574l81.769,53.574h15.334c4.875,0,8.828-3.953,8.828-8.828v-7.002l-70.155-45.963H256V150.07  h-70.155L256,104.107v-7.002C256,92.229,252.047,88.277,247.172,88.277z"/>
<g>
	<polygon style="fill:#FF4B55;" points="256,158.898 141.241,158.898 141.241,88.277 114.759,88.277 114.759,158.898 0,158.898    0,185.38 114.759,185.38 114.759,256.001 141.241,256.001 141.241,185.38 256,185.38  "/>
	<path style="fill:#FF4B55;" d="M97.103,150.07L4.207,89.769C1.735,91.333,0,93.962,0,97.104v0.458l80.889,52.508H97.103z"/>
	<path style="fill:#FF4B55;" d="M166.283,150.07l88.374-57.366c-1.536-2.599-4.246-4.427-7.485-4.427h-1.909l-95.194,61.793H166.283   z"/>
	<path style="fill:#FF4B55;" d="M89.474,194.208L1.269,251.464c1.521,2.662,4.273,4.537,7.559,4.537h1.665l95.196-61.793H89.474z"/>
	<path style="fill:#FF4B55;" d="M255.86,247.866l-82.666-53.658H156.98l93.874,60.935   C253.666,253.838,255.595,251.103,255.86,247.866z"/>
</g>
<rect x="325.36" y="187.241" style="fill:#82AFFF;" width="117.27" height="90.63"/>
<path style="fill:#C86464;" d="M325.362,277.869c0,30.913,34.649,55.972,58.638,55.972l0,0c21.323,0,58.638-25.06,58.638-55.972  H325.362L325.362,277.869z"/>
<path style="fill:#73AF00;" d="M399.659,220.342c1.888,0.333,5.109,0.778,5.442,5.331s-1.333,20.768-2.998,22.766  c0,0,5.442,12.328,5.664,19.657c0.222,7.33-0.777,29.263-0.111,32.761c0.667,3.498,3.165,10.662,3.165,10.662  s-7.663-4.498-10.661-1.666c-2.998,2.831-13.993,6.664-18.325,2.166c0,0,5.164-14.659,5.164-31.318s0-57.805,0-57.805  s2.166-1.721,4.997-1.777C394.828,221.064,399.659,220.342,399.659,220.342z"/>
<g>
	<path style="fill:#FFF5E1;" d="M400.769,308.41c0.333,2.11,1.221,3.665,0.777,4.442c-0.445,0.778-3.331,7.885-1.666,7.885   s4.553-0.888,5.331-2.443c0.777-1.555,1.11-3.887,1.555-4.553s-0.778-3.998-1.777-4.553   C403.99,308.632,400.769,308.41,400.769,308.41z"/>
	<path style="fill:#FFF5E1;" d="M381.557,225.006l-6.108,0.778c0,0,0.777-3.998,0.888-6.775c0.111-2.776,0.333-7.885,0.333-7.885   s4.331-2.665,4.442-3.11c0.055-0.222,0.569-1.61,0.167-2.332s-1.721-0.778-1.721-0.778s-5.109,2.665-5.109,3.11s0,3.11-0.555,4.109   c-0.555,1-3.665,9.329-3.887,11.55c-0.222,2.221-0.555,6.886,0.333,7.108s10.106,1.222,11.106,0.777   C382.445,231.114,381.557,225.006,381.557,225.006z"/>
</g>
<polygon style="fill:#464655;" points="409.229,203.072 386.998,203.072 386.998,192.577 379.336,192.577 379.336,203.072   357.105,203.072 357.105,210.735 379.336,210.735 379.336,311.52 386.998,311.52 386.998,210.735 409.229,210.735 "/>
<path style="fill:#963C3C;" d="M396.105,216.676c0,0,7.441,2.143,8.44-0.333c1.166-2.888-2.721-3.276-3.443-6.33  c-0.081-0.342-0.777-4.442-3.776-5.219c-2.998-0.778-5.775,0-5.886,1.999C391.33,208.792,396.105,216.676,396.105,216.676z"/>
<path style="fill:#FFF5E1;" d="M392.107,226.116c-0.22,0.036-0.555-2.221-0.111-4.998c0.445-2.776,0-3.665,0-3.665  s-3.109,0.333-3.109-0.888s0.666-6.886,2.554-9.773c0,0,1.333,1.666,3.776,1.666c0,0-0.111,1.999,1.222,3.331  c0,0-1.666,1.443-0.888,2.443s2.221,2.221,2.221,2.221s0.111,2.333,1.888,3.887C399.659,220.342,397.438,225.228,392.107,226.116z"/>
<g>
	<rect x="361.68" y="274.321" style="fill:#464655;" width="0.666" height="13.215"/>
	<rect x="364.36" y="271.761" style="fill:#464655;" width="0.666" height="18.333"/>
	<rect x="367.04" y="269.421" style="fill:#464655;" width="0.666" height="23.01"/>
	<rect x="369.72" y="266.071" style="fill:#464655;" width="0.666" height="29.688"/>
	<rect x="372.4" y="261.701" style="fill:#464655;" width="0.666" height="38.424"/>
	<rect x="375.08" y="261.701" style="fill:#464655;" width="0.666" height="40.22"/>
</g>
<path style="fill:#FFE15A;" d="M387.109,282.755c-2.945-15.315-11.106-24.211-13.993-24.654c-2.888-0.444-4.997,1.888-5.219,3.554  c-0.222,1.666-1.777,6.664-4.998,8.995c-3.221,2.333-9.218,3.665-10.55,7.996c-1.333,4.331,2.221,6.219,4.331,5.774  c0.158-0.033,0.313-0.095,0.471-0.147l22.703,27.927c0.824,1.014,2.43,0.849,3.005-0.327  C385.192,307.105,389.621,295.813,387.109,282.755z M359.057,283.065c0.89-0.956,1.266-2.273,0.289-3.641  c-1.666-2.333-3.554,1-3.554,1s-0.555-2.888,3.776-4.331s9.218-3.886,11.439-9.107c2.221-5.219,2.11-4.221,2.11-4.221  s8.885,4.998,10.106,20.657c1.222,15.659-3.109,21.99-3.109,21.99L359.057,283.065z"/>
<g>
	<path style="fill:#FFF5E1;" d="M379.336,249.25c-1.02,0.652-1.939,1.214-2.582,1.549c-2.082,1.082-4.582,2.166-4.831,3.165   c-0.249,1-1.666,1.833-1.582,2.998c0.084,1.166,0,4.664,0,4.664c1.249-0.249,3.748-0.667,4.582-2.166   c0.833-1.5,1.582-4.415,4.248-5.664c0.047-0.022,0.117-0.045,0.167-0.067v-4.479L379.336,249.25L379.336,249.25z"/>
	<path style="fill:#FFF5E1;" d="M401.408,227.977c-1.249,0.583-4.997,5.081-5.58,7.164c-0.583,2.082-2.415,6.997-2.415,6.997   s-3.785,0.494-6.413,1.965v7.274c1.457-0.422,2.745-0.838,3.498-1.242c2.166-1.166,5.247-3.331,6.83-3.748   c1.582-0.416,2.915-3.082,3.498-4.664c0.583-1.582,2.415-6.247,2.665-9.412C403.741,229.143,402.657,227.394,401.408,227.977z"/>
</g>
<path style="fill:#F5F5F5;" d="M384,335.732l-0.291-0.046c-59.529-9.399-60.213-60.958-60.213-63.146v-87.159h121.009v87.158  c0,2.189-0.684,53.747-60.213,63.146L384,335.732z M327.229,189.113v83.425c0,2.057,0.644,50.387,56.771,59.414  c56.128-9.027,56.771-57.357,56.771-59.414v-83.425L327.229,189.113L327.229,189.113z"/>
<g>
</g>
<g>
</g>
<g>
</g>
<g>
</g>
<g>
</g>
<g>
</g>
<g>
</g>
<g>
</g>
<g>
</g>
<g>
</g>
<g>
</g>
<g>
</g>
<g>
</g>
<g>
</g>
<g>
</g>
</svg>
