<?xml version="1.0" encoding="iso-8859-1"?>
<!-- Generator: Adobe Illustrator 19.0.0, SVG Export Plug-In . SVG Version: 6.00 Build 0)  -->
<svg xmlns="http://www.w3.org/2000/svg" xmlns:xlink="http://www.w3.org/1999/xlink" version="1.1" id="Layer_1" x="0px" y="0px" viewBox="0 0 512.001 512.001" style="enable-background:new 0 0 512.001 512.001;" xml:space="preserve">
<path style="fill:#FF4B55;" d="M512,200.093H0V97.104c0-4.875,3.953-8.828,8.828-8.828h494.345c4.875,0,8.828,3.953,8.828,8.828  L512,200.093L512,200.093z"/>
<path style="fill:#73AF00;" d="M503.172,423.725H8.828c-4.875,0-8.828-3.953-8.828-8.828V311.909h512v102.988  C512,419.773,508.047,423.725,503.172,423.725z"/>
<rect y="200.091" style="fill:#FFE15A;" width="512" height="111.81"/>
<path style="fill:#464655;" d="M259.722,213.91l9.213,27.623l29.118,0.226c3.769,0.029,5.333,4.84,2.301,7.08l-23.424,17.298  l8.783,27.763c1.138,3.594-2.955,6.568-6.023,4.375L256,281.341l-23.69,16.932c-3.066,2.193-7.159-0.781-6.023-4.375l8.783-27.763  l-23.424-17.298c-3.032-2.24-1.47-7.05,2.301-7.08l29.118-0.226l9.213-27.623C253.471,210.334,258.529,210.334,259.722,213.91z"/>
<g>
</g>
<g>
</g>
<g>
</g>
<g>
</g>
<g>
</g>
<g>
</g>
<g>
</g>
<g>
</g>
<g>
</g>
<g>
</g>
<g>
</g>
<g>
</g>
<g>
</g>
<g>
</g>
<g>
</g>
</svg>
