<?xml version="1.0" encoding="iso-8859-1"?>
<!-- Generator: Adobe Illustrator 19.0.0, SVG Export Plug-In . SVG Version: 6.00 Build 0)  -->
<svg xmlns="http://www.w3.org/2000/svg" xmlns:xlink="http://www.w3.org/1999/xlink" version="1.1" id="Layer_1" x="0px" y="0px" viewBox="0 0 512.001 512.001" style="enable-background:new 0 0 512.001 512.001;" xml:space="preserve">
<path style="fill:#FFE15A;" d="M512,256H0V97.103c0-4.875,3.953-8.828,8.828-8.828h494.345c4.875,0,8.828,3.953,8.828,8.828L512,256  L512,256z"/>
<path style="fill:#73AF00;" d="M0,256h512v158.897c0,4.875-3.953,8.828-8.828,8.828H8.828c-4.875,0-8.828-3.953-8.828-8.828V256z"/>
<path style="fill:#FF4B55;" d="M167.724,88.276v335.448H8.828c-4.875,0-8.828-3.953-8.828-8.828V97.103  c0-4.875,3.953-8.828,8.828-8.828h158.896V88.276z"/>
<path style="fill:#464655;" d="M82.197,211.959l-9.731,29.18l-30.759,0.238c-1.686,0.013-2.386,2.165-1.028,3.167l24.744,18.272  l-9.278,29.326c-0.509,1.608,1.322,2.937,2.694,1.958l25.024-17.886l25.024,17.887c1.372,0.981,3.202-0.35,2.694-1.957  l-9.278-29.326l24.744-18.272c1.356-1.002,0.658-3.154-1.028-3.167l-30.759-0.238l-9.731-29.18  C84.993,210.36,82.731,210.36,82.197,211.959z"/>
<g>
</g>
<g>
</g>
<g>
</g>
<g>
</g>
<g>
</g>
<g>
</g>
<g>
</g>
<g>
</g>
<g>
</g>
<g>
</g>
<g>
</g>
<g>
</g>
<g>
</g>
<g>
</g>
<g>
</g>
</svg>
