<?xml version="1.0" encoding="iso-8859-1"?>
<!-- Generator: Adobe Illustrator 19.0.0, SVG Export Plug-In . SVG Version: 6.00 Build 0)  -->
<svg xmlns="http://www.w3.org/2000/svg" xmlns:xlink="http://www.w3.org/1999/xlink" version="1.1" id="Layer_1" x="0px" y="0px" viewBox="0 0 512.001 512.001" style="enable-background:new 0 0 512.001 512.001;" xml:space="preserve">
<path style="fill:#82AFFF;" d="M503.172,423.725H8.828c-4.875,0-8.828-3.953-8.828-8.828V97.104c0-4.875,3.953-8.828,8.828-8.828  h494.345c4.875,0,8.828,3.953,8.828,8.828v317.793C512,419.773,508.047,423.725,503.172,423.725z"/>
<path style="fill:#41479B;" d="M247.172,256.001H8.828c-4.875,0-8.828-3.953-8.828-8.828V97.104c0-4.875,3.953-8.828,8.828-8.828  h238.345c4.875,0,8.828,3.953,8.828,8.828v150.069C256,252.048,252.047,256.001,247.172,256.001z"/>
<path style="fill:#F5F5F5;" d="M247.172,88.277h-15.334l-81.77,53.574V88.277H105.93v53.574L24.16,88.277H8.828  C3.953,88.277,0,92.229,0,97.104v7.002l70.155,45.963H0v44.138h70.155L0,240.171v7.002c0,4.875,3.953,8.828,8.828,8.828h15.334  l81.77-53.574v53.574h44.138v-53.574l81.769,53.574h15.334c4.875,0,8.828-3.953,8.828-8.828v-7.002l-70.155-45.963H256V150.07  h-70.155L256,104.107v-7.002C256,92.229,252.047,88.277,247.172,88.277z"/>
<g>
	<polygon style="fill:#FF4B55;" points="256,158.898 141.241,158.898 141.241,88.277 114.759,88.277 114.759,158.898 0,158.898    0,185.38 114.759,185.38 114.759,256.001 141.241,256.001 141.241,185.38 256,185.38  "/>
	<path style="fill:#FF4B55;" d="M97.103,150.07L4.207,89.769C1.735,91.333,0,93.962,0,97.104v0.458l80.889,52.508H97.103z"/>
	<path style="fill:#FF4B55;" d="M166.283,150.07l88.374-57.366c-1.536-2.599-4.246-4.427-7.485-4.427h-1.909l-95.194,61.793H166.283   z"/>
	<path style="fill:#FF4B55;" d="M89.474,194.208L1.269,251.464c1.521,2.662,4.273,4.537,7.559,4.537h1.665l95.196-61.793H89.474z"/>
	<path style="fill:#FF4B55;" d="M255.86,247.866l-82.666-53.658H156.98l93.874,60.935   C253.666,253.838,255.595,251.103,255.86,247.866z"/>
</g>
<g>
	<path style="fill:#FFE15A;" d="M218.666,353.364l-4.726,14.169l-14.936,0.116c-1.432,0.011-2.026,1.839-0.874,2.69l12.015,8.873   l-4.505,14.241c-0.433,1.366,1.123,2.495,2.289,1.663l12.152-8.685l12.152,8.685c1.165,0.833,2.72-0.297,2.289-1.663l-4.505-14.241   l12.015-8.873c1.152-0.851,0.558-2.679-0.874-2.69l-14.936-0.116l-4.726-14.169C221.042,352.004,219.119,352.004,218.666,353.364z"/>
	<path style="fill:#FFE15A;" d="M448.735,243.019l-4.726,14.169l-14.936,0.116c-1.432,0.011-2.026,1.839-0.874,2.69l12.015,8.873   l-4.505,14.241c-0.433,1.366,1.123,2.495,2.289,1.663l12.152-8.685l12.152,8.685c1.165,0.833,2.72-0.297,2.289-1.663l-4.505-14.241   l12.015-8.873c1.152-0.851,0.558-2.679-0.874-2.69l-14.936-0.116l-4.726-14.169C451.111,241.659,449.188,241.659,448.735,243.019z"/>
	<path style="fill:#FFE15A;" d="M448.735,123.847l-4.726,14.169l-14.936,0.116c-1.432,0.011-2.026,1.839-0.874,2.69l12.015,8.873   l-4.505,14.241c-0.433,1.366,1.123,2.495,2.289,1.663l12.152-8.685l12.152,8.685c1.165,0.833,2.72-0.297,2.289-1.663l-4.505-14.241   l12.015-8.873c1.152-0.851,0.558-2.679-0.874-2.69l-14.936-0.116l-4.726-14.169C451.111,122.487,449.188,122.487,448.735,123.847z"/>
	<path style="fill:#FFE15A;" d="M277.812,278.817l4.665,14.189l-11.915,9.007c-1.142,0.864-0.529,2.685,0.904,2.68l14.936-0.052   l4.885,14.115c0.469,1.354,2.39,1.332,2.828-0.032l4.566-14.222l14.934-0.284c1.432-0.028,2.005-1.862,0.844-2.699l-12.115-8.738   l4.345-14.291c0.417-1.37-1.151-2.483-2.306-1.636l-12.053,8.822l-12.248-8.548C278.906,276.309,277.364,277.456,277.812,278.817z"/>
	<path style="fill:#FFE15A;" d="M276.708,340.058l4.665,14.189l-11.915,9.007c-1.142,0.864-0.529,2.685,0.904,2.68l14.936-0.052   l4.885,14.115c0.469,1.354,2.39,1.332,2.828-0.032l4.566-14.222l14.934-0.284c1.432-0.028,2.005-1.862,0.844-2.699l-12.115-8.738   l4.345-14.291c0.417-1.37-1.151-2.483-2.306-1.636l-12.053,8.822l-12.248-8.548C277.803,337.55,276.26,338.698,276.708,340.058z"/>
	<path style="fill:#FFE15A;" d="M341.26,324.61l4.665,14.189l-11.915,9.007c-1.142,0.864-0.529,2.685,0.904,2.68l14.936-0.052   l4.885,14.115c0.469,1.354,2.39,1.332,2.828-0.032l4.566-14.222l14.934-0.284c1.432-0.028,2.005-1.862,0.844-2.699l-12.115-8.737   l4.345-14.291c0.417-1.371-1.151-2.483-2.306-1.636l-12.053,8.822l-12.248-8.548C342.355,322.102,340.812,323.25,341.26,324.61z"/>
	<path style="fill:#FFE15A;" d="M340.157,191.093l4.665,14.189l-11.915,9.007c-1.142,0.864-0.529,2.685,0.904,2.68l14.936-0.052   l4.885,14.115c0.469,1.354,2.39,1.332,2.828-0.032l4.566-14.222l14.934-0.284c1.432-0.028,2.005-1.862,0.844-2.699l-12.115-8.737   l4.345-14.291c0.417-1.37-1.151-2.483-2.306-1.636l-12.053,8.822l-12.248-8.548C341.251,188.585,339.709,189.732,340.157,191.093z"/>
	<path style="fill:#FFE15A;" d="M394.777,172.886l4.665,14.189l-11.915,9.007c-1.142,0.864-0.529,2.685,0.904,2.68l14.936-0.052   l4.885,14.115c0.469,1.354,2.39,1.332,2.828-0.032l4.566-14.222l14.934-0.284c1.432-0.028,2.005-1.862,0.844-2.699l-12.115-8.738   l4.345-14.291c0.417-1.37-1.151-2.483-2.306-1.636l-12.053,8.822l-12.248-8.548C395.872,170.378,394.329,171.525,394.777,172.886z"/>
</g>
<g>
</g>
<g>
</g>
<g>
</g>
<g>
</g>
<g>
</g>
<g>
</g>
<g>
</g>
<g>
</g>
<g>
</g>
<g>
</g>
<g>
</g>
<g>
</g>
<g>
</g>
<g>
</g>
<g>
</g>
</svg>
