<?xml version="1.0" encoding="iso-8859-1"?>
<!-- Generator: Adobe Illustrator 19.0.0, SVG Export Plug-In . SVG Version: 6.00 Build 0)  -->
<svg xmlns="http://www.w3.org/2000/svg" xmlns:xlink="http://www.w3.org/1999/xlink" version="1.1" id="Layer_1" x="0px" y="0px" viewBox="0 0 512.001 512.001" style="enable-background:new 0 0 512.001 512.001;" xml:space="preserve">
<path style="fill:#F5F5F5;" d="M512,200.093H0V97.104c0-4.875,3.953-8.828,8.828-8.828h494.345c4.875,0,8.828,3.953,8.828,8.828  L512,200.093L512,200.093z"/>
<path style="fill:#FF4B55;" d="M503.172,423.725H8.828c-4.875,0-8.828-3.953-8.828-8.828V311.909h512v102.988  C512,419.773,508.047,423.725,503.172,423.725z"/>
<rect y="200.091" style="fill:#41479B;" width="512" height="111.81"/>
<path style="fill:#FF4B55;" d="M130.225,339.286c-2.613-1.501-64.018-37.216-64.018-92.113v-75.034h132.414v75.034  c0,54.897-61.405,90.612-64.018,92.113l-2.189,1.249L130.225,339.286z"/>
<polygon style="fill:#F5F5F5;" points="167.094,233.932 146.285,236.673 139.35,236.673 139.35,224.255 143.511,224.255   160.157,226.996 157.903,217.319 160.157,207.642 143.511,210.382 139.35,210.382 139.35,206.188 142.09,185.38 132.414,188.199   122.738,185.38 125.478,206.188 125.478,210.382 121.315,210.382 104.67,207.642 106.924,217.319 104.67,226.996 121.315,224.255   125.478,224.255 125.478,236.673 118.542,236.673 97.734,233.932 100.552,243.608 97.734,253.285 118.542,250.544 125.478,250.544   125.478,282.484 139.35,282.484 139.35,250.544 146.285,250.544 167.094,253.285 164.276,243.608 "/>
<path style="fill:#41479B;" d="M132.414,269.242c-9.118,0-16.938,5.532-20.302,13.419c-0.594-0.049-1.162-0.178-1.767-0.178  c-11.751,0-21.266,9.21-21.94,20.791c17.875,22.004,40.264,35.116,41.82,36.011l2.189,1.25l2.189-1.25  c1.556-0.895,23.945-14.006,41.82-36.011c-0.674-11.581-10.189-20.791-21.94-20.791c-0.605,0-1.173,0.129-1.767,0.178  C149.352,274.774,141.532,269.242,132.414,269.242z"/>
<path style="fill:#F5F5F5;" d="M194.207,176.553c0,0,0,52.966,0,70.621c0,52.966-61.793,88.276-61.793,88.276  s-61.793-35.31-61.793-88.276c0-17.655,0-70.621,0-70.621H194.207 M203.034,167.725h-8.828H70.621h-8.828v8.828v70.621  c0,57.428,63.537,94.394,66.241,95.94l4.38,2.503l4.38-2.503c2.705-1.546,66.241-38.513,66.241-95.94v-70.621v-8.828H203.034z"/>
<g>
</g>
<g>
</g>
<g>
</g>
<g>
</g>
<g>
</g>
<g>
</g>
<g>
</g>
<g>
</g>
<g>
</g>
<g>
</g>
<g>
</g>
<g>
</g>
<g>
</g>
<g>
</g>
<g>
</g>
</svg>
