<?xml version="1.0" encoding="iso-8859-1"?>
<!-- Generator: Adobe Illustrator 19.0.0, SVG Export Plug-In . SVG Version: 6.00 Build 0)  -->
<svg xmlns="http://www.w3.org/2000/svg" xmlns:xlink="http://www.w3.org/1999/xlink" version="1.1" id="Layer_1" x="0px" y="0px" viewBox="0 0 512.001 512.001" style="enable-background:new 0 0 512.001 512.001;" xml:space="preserve">
<path style="fill:#FF4B55;" d="M503.172,423.724H8.828c-4.875,0-8.828-3.953-8.828-8.828V97.104c0-4.875,3.953-8.828,8.828-8.828  h494.345c4.875,0,8.828,3.953,8.828,8.828v317.792C512,419.772,508.047,423.724,503.172,423.724z"/>
<path style="fill:#73AF00;" d="M512,97.104c0-4.875-3.953-8.828-8.828-8.828h-31.438L255.999,229.619L40.266,88.276H8.828  C3.953,88.276,0,92.229,0,97.104v17.554L215.734,256L0,397.343v17.554c0,4.875,3.953,8.828,8.828,8.828h31.438L256,282.382  l215.734,141.343h31.438c4.875,0,8.828-3.953,8.828-8.828v-17.554L296.265,256l215.734-141.343L512,97.104L512,97.104z"/>
<polygon style="fill:#F5F5F5;" points="512,233.931 278.068,233.931 278.068,88.276 233.931,88.276 233.931,233.931 0,233.931   0,278.069 233.931,278.069 233.931,423.724 278.068,423.724 278.068,278.069 512,278.069 "/>
<g>
</g>
<g>
</g>
<g>
</g>
<g>
</g>
<g>
</g>
<g>
</g>
<g>
</g>
<g>
</g>
<g>
</g>
<g>
</g>
<g>
</g>
<g>
</g>
<g>
</g>
<g>
</g>
<g>
</g>
</svg>
