<?xml version="1.0" encoding="iso-8859-1"?>
<!-- Generator: Adobe Illustrator 19.0.0, SVG Export Plug-In . SVG Version: 6.00 Build 0)  -->
<svg xmlns="http://www.w3.org/2000/svg" xmlns:xlink="http://www.w3.org/1999/xlink" version="1.1" id="Layer_1" x="0px" y="0px" viewBox="0 0 512.001 512.001" style="enable-background:new 0 0 512.001 512.001;" xml:space="preserve">
<path style="fill:#41479B;" d="M503.172,423.724H8.828c-4.875,0-8.828-3.953-8.828-8.828V97.104c0-4.875,3.953-8.828,8.828-8.828  h494.345c4.875,0,8.828,3.953,8.828,8.828v317.792C512,419.772,508.047,423.724,503.172,423.724z"/>
<path style="fill:#F5F5F5;" d="M247.172,88.276h-15.333l-81.77,53.573V88.276h-44.138v53.573l-81.77-53.573H8.828  C3.953,88.276,0,92.229,0,97.104v7.002l70.155,45.963H0v44.138h70.155L0,240.171v7.001C0,252.047,3.953,256,8.828,256h15.333  l81.77-53.573V256h44.138v-53.573L231.838,256h15.333c4.875,0,8.828-3.953,8.828-8.828v-7.002l-70.154-45.963h70.154v-44.138  h-70.155l70.155-45.963v-7.002C255.999,92.229,252.048,88.276,247.172,88.276z"/>
<g>
	<polygon style="fill:#FF4B55;" points="255.999,158.897 141.241,158.897 141.241,88.276 114.758,88.276 114.758,158.897 0,158.897    0,185.379 114.758,185.379 114.758,256 141.241,256 141.241,185.379 255.999,185.379  "/>
	<path style="fill:#FF4B55;" d="M97.103,150.069L4.207,89.768C1.735,91.333,0,93.961,0,97.104v0.458l80.889,52.507H97.103z"/>
	<path style="fill:#FF4B55;" d="M166.283,150.069l88.374-57.366c-1.536-2.599-4.246-4.427-7.485-4.427h-1.909l-95.194,61.793   H166.283z"/>
	<path style="fill:#FF4B55;" d="M89.474,194.207L1.269,251.463C2.79,254.125,5.542,256,8.828,256h1.665l95.195-61.793H89.474z"/>
	<path style="fill:#FF4B55;" d="M255.859,247.867l-82.666-53.659H156.98l93.873,60.934   C253.666,253.837,255.594,251.102,255.859,247.867z"/>
</g>
<g>
	<path style="fill:#73AF00;" d="M387.206,177.365c-0.199,0-0.402-0.063-0.575-0.193c-0.138-0.106-13.838-10.783-5.769-28.879   c0.214-0.48,0.777-0.692,1.259-0.482c0.48,0.216,0.695,0.777,0.482,1.259c-7.443,16.687,4.662,26.19,5.181,26.586   c0.418,0.318,0.499,0.915,0.18,1.333C387.776,177.235,387.494,177.365,387.206,177.365z"/>
	<path style="fill:#73AF00;" d="M379.315,161.734c-0.038,0-0.074-0.002-0.111-0.006c-0.523-0.062-0.896-0.534-0.836-1.056   c0.396-3.422,1.683-5.81,3.828-7.096c3.449-2.073,7.76-0.417,7.941-0.344c0.489,0.192,0.729,0.742,0.537,1.231   c-0.192,0.49-0.746,0.733-1.231,0.541c-0.038-0.014-3.638-1.382-6.276,0.209c-1.604,0.969-2.583,2.879-2.905,5.679   C380.204,161.377,379.791,161.734,379.315,161.734z"/>
	<path style="fill:#73AF00;" d="M381.902,149.46c-0.082-0.21-2.141-5.098-11.447-3.018c-10.539,2.361-10.661,16.264-10.661,16.403   c0,0.478,0.355,0.884,0.831,0.945c0.041,0.006,0.082,0.008,0.121,0.008c0.428,0,0.811-0.288,0.92-0.711   c3.928-14.962,18.557-12.449,19.178-12.34c0.352,0.063,0.69-0.067,0.907-0.331C381.972,150.148,382.031,149.781,381.902,149.46z"/>
	<path style="fill:#73AF00;" d="M379.709,157.211c0,0-6.348-4.046-8.967,1.111c-2.618,5.158-0.634,10.712,0.397,12.933   c0,0,3.784-4.183,7.38-4.761c4.444-0.714,5.555-6.269,2.46-9.046C377.281,154.131,379.709,157.211,379.709,157.211z"/>
	<path style="fill:#73AF00;" d="M386.644,147.731c-0.09,5.554,3.005,6.282,3.005,6.282   C391.65,148.914,386.644,147.731,386.644,147.731z"/>
	<path style="fill:#73AF00;" d="M385.675,159.397c0.042-5.27,3.616-5.863,3.616-5.863   C391.457,158.433,385.675,159.397,385.675,159.397z"/>
</g>
<path style="fill:#FF4B55;" d="M406.291,155.147c0,0-5.054-0.747-6.993-1.663c-1.613-0.761-3.719-2.599-6.444-2.24  c-2.083,0-3.772,1.688-3.772,3.772s1.431,4.579,8.917,4.025c3.629-0.269,6.721,1.389,6.721,1.389  C404.245,158.447,406.291,155.147,406.291,155.147z"/>
<path style="fill:#FFE15A;" d="M401.046,156.801c0,0-7.752,0.537-9.454-0.717c-1.571-1.158-1.161-3.002,0.448-3.181  C394.46,152.634,401.046,156.801,401.046,156.801z"/>
<path style="fill:#B49B91;" d="M416.13,165.581l-17.14,10.712l-1.964-1.905l9.402-9.106l2.201,0.893l2.143-2.857l-5.118-2.678  c0,0-13.569,12.794-25.113,13.866c-3.884,0.361-7.842,0.107-10.929-1.164l-6.925,9.972l14.52,12.378l21.305-0.833l17.615-23.924  l3.094,1.428l2.618-3.094L416.13,165.581z"/>
<path style="fill:#9B8278;" d="M368.364,194.424c-4.768,0-8.648-3.88-8.648-8.646c0-4.768,3.88-8.648,8.648-8.648  c4.767,0,8.645,3.88,8.645,8.648C377.011,190.545,373.131,194.424,368.364,194.424z M368.364,179.987  c-3.193,0-5.791,2.598-5.791,5.791s2.598,5.79,5.791,5.79s5.79-2.596,5.79-5.79S371.558,179.987,368.364,179.987z"/>
<g>
	<path style="fill:#73AF00;" d="M404.386,202.439c0,0,1.587-1.032,3.174-5.871l-3.253,0.476c0,0,0.634-2.698-0.079-4.682   l-3.65,2.857c0,0-1.666-3.491-2.38-3.967c0,0-2.539,3.571-3.967,4.046c0,0-1.428-5.158-2.857-6.189l-2.46,3.491l-3.65-2.857   c0,0,0,2.46-0.079,3.016c-0.079,0.555-4.761-4.919-4.761-4.919s-2.063,0.873-4.84,5.316l-3.491-3.571l-1.428,4.682l-4.84-1.27   l0.793,2.777l-4.205-0.318c0,0,0.714,4.126,2.777,5.555L404.386,202.439z"/>
	<path style="fill:#73AF00;" d="M362.332,220.094c0,0-13.092,16.663-37.849,14.759l26.899,3.69l13.806-13.092L362.332,220.094z"/>
</g>
<g>
	<path style="fill:#FFE15A;" d="M319.603,232.353c2.618,1.905,18.806,6.547,30.469,0.952c0,0,0.238,2.738-1.071,4.285   c0,0,8.569-3.452,13.212-9.879c4.642-6.428-9.641,13.806-9.641,13.806l-21.9,4.046l-8.927-7.38L319.603,232.353z"/>
	<path style="fill:#FFE15A;" d="M317.882,172.349c-2.908,0.244-6.053,1.995-7.662,4.122c-0.876-0.372-2.823-0.537-4.436,0.537   c-2.148,1.432-6.118,6.604-9.45,5.236c0,0-0.298,4.879,4.879,4.702c0,0-1.31,2.024-1.071,5.237   c0.238,3.213-2.083,5.356-2.083,5.356s10.474,1.487,10.891-6.665c0.051-0.996,0.102-1.874,0.15-2.657   c5.466,2.952,7.617-1.215,7.617-1.215s-3.285-3.103,0.058-7.52c3.343-4.418,12.533,5.996,12.533,5.996   C329.488,181.311,329.114,171.405,317.882,172.349z"/>
</g>
<g>
	<path style="fill:#73AF00;" d="M358.364,199.82c0,0-3.015,2.063-12.378,0.159c0,0,2.063-4.602,1.111-7.3   c0,0-2.539,2.38-8.728,4.761s-13.806,9.998-16.029,14.917c0,0,13.92-32.088,2.738-35.35c-3.836-1.119-7.135,0.695-8.302,2.474   c0.564,0.666,1.106,1.615,1.161,2.882c0.119,2.738-2.618,21.186-6.665,33.921c0,0-1.191-4.404-3.094-6.547   c-1.903-2.143-3.332-5.594-3.332-5.594s-3.213,2.143-2.738,6.07c0,0-1.785-1.428-5.237-0.476s-4.761-1.31-4.761-1.31   s-2.857,7.617,5.594,11.545c0,0-2.261,1.071-3.332,1.905c-1.071,0.833-2.738,0.833-2.738,0.833s2.976,5.475,9.283,6.07   c6.308,0.595,9.207,2.393,11.188,5.633c6.428,10.514,18.727,18.488,38.802,6.189c0,0-28.565,8.887-29.835-9.363   c-1.111-15.965,16.345-19.202,18.091-15.711s-0.159,6.507-0.159,6.507s9.522-2.221,4.919-10.951   C343.923,211.088,353.286,212.517,358.364,199.82z"/>
	<path style="fill:#73AF00;" d="M450.051,232.353c-2.618,1.905-19.162,9.046-30.589-2.38   c-11.426-11.426-15.882-28.581-15.235-26.661h-11.426l3.809,34.279l42.372,7.975l8.927-7.38L450.051,232.353z"/>
	<path style="fill:#73AF00;" d="M451.773,172.349c2.908,0.244,6.053,1.995,7.662,4.122c0.876-0.372,2.823-0.537,4.436,0.537   c2.148,1.432,6.117,6.604,9.45,5.236c0,0,0.298,4.879-4.879,4.702c0,0,1.31,2.024,1.071,5.237   c-0.238,3.213,2.083,5.356,2.083,5.356s-10.474,1.487-10.891-6.665c-0.051-0.996-0.102-1.874-0.15-2.657   c-5.466,2.952-7.617-1.215-7.617-1.215s3.284-3.103-0.059-7.52c-3.343-4.418-12.533,5.996-12.533,5.996   C440.167,181.311,440.541,171.405,451.773,172.349z"/>
</g>
<path style="fill:#FFE15A;" d="M411.29,199.82c0,0,3.015,2.063,12.378,0.159c0,0-2.063-4.602-1.111-7.3c0,0,2.539,2.38,8.728,4.761  s13.806,9.998,16.029,14.917c0,0-13.92-32.088-2.738-35.35c3.836-1.119,7.135,0.695,8.302,2.474  c-0.564,0.666-1.106,1.615-1.161,2.882c-0.119,2.738,2.618,21.186,6.665,33.921c0,0,1.191-4.404,3.094-6.547  c1.903-2.143,3.332-5.594,3.332-5.594s3.213,2.143,2.738,6.07c0,0,1.785-1.428,5.237-0.476s4.761-1.31,4.761-1.31  s2.857,7.617-5.594,11.545c0,0,2.261,1.071,3.332,1.905c1.071,0.833,2.738,0.833,2.738,0.833s-2.976,5.475-9.283,6.07  c-6.308,0.595-9.207,2.393-11.188,5.633c-6.428,10.514-18.727,18.488-38.802,6.189c0,0,28.565,8.887,29.835-9.363  c1.111-15.965-16.345-19.202-18.091-15.711s0.159,6.507,0.159,6.507s-9.522-2.221-4.919-10.951  C425.732,211.088,416.368,212.517,411.29,199.82z"/>
<g>
	<path style="fill:#73AF00;" d="M403.196,226.482c4.682,6.824,11.188,13.013,30.073,18.884s23.933,6.744,33.829,14.749   c0,0,1.88,1.985,2.6,5.167c0.845,3.738-4.919,14.52-4.919,14.52s0.555-2.539-2.936-7.458s-24.122-13.806-34.913-16.504   c-10.792-2.698-29.439-15.215-24.28-24.598L403.196,226.482z"/>
	<path style="fill:#73AF00;" d="M467.081,260.086c0.008,0.01,0.011,0.02,0.019,0.03c-0.012-0.013-0.022-0.026-0.034-0.039   L467.081,260.086z"/>
</g>
<g>
	<path style="fill:#FFE15A;" d="M466.604,283.296c0,0,0.476,3.452-2.38,6.428c-2.857,2.976-4.879,5.118-4.761,7.617   c0,0-4.285-3.094-3.571-9.998c0,0-5.594,4.642-14.045,0.119c0,0,0.833-8.45,11.784-9.522c0,0-4.285-3.332,1.31-8.45   c0,0,0.65,2.289,5.713,3.452c4.404,1.012,12.239-4.511,6.445-12.824C477.078,271.393,471.96,279.129,466.604,283.296z"/>
	<path style="fill:#FFE15A;" d="M399.11,220.213c0,0,2.413,3.945,8.689,7.776c7.538,4.602,8.213,6.744,8.213,6.744l-5.118-0.119   c0,0,6.547,3.571,8.332,8.094c0,0-2.738,0.476-5.832-0.358c0,0,2.499,2.261,1.31,9.522h-12.736L399.11,220.213z"/>
</g>
<path style="fill:#73AF00;" d="M373.758,252.825v-30.469c0,0-10.342,17.693-19.275,30.469H373.758z"/>
<path style="fill:#FFE15A;" d="M364.862,221.72c-2.539,4.602-10.474,19.758-29.359,25.63c-18.885,5.871-22.337,4.761-32.234,12.765  c0,0-1.88,1.985-2.6,5.167c-0.845,3.738,4.919,14.52,4.919,14.52s-0.555-2.539,2.936-7.458s24.005-14.324,34.913-16.504  c15.085-3.016,28.733-19.202,26.511-29.676C367.728,215.69,364.862,221.72,364.862,221.72z"/>
<g>
	<path style="fill:#73AF00;" d="M303.288,260.086c-0.008,0.01-0.011,0.02-0.019,0.03c0.012-0.013,0.022-0.026,0.034-0.039   L303.288,260.086z"/>
	<path style="fill:#73AF00;" d="M303.764,283.296c0,0-0.476,3.452,2.38,6.428c2.857,2.976,4.879,5.118,4.761,7.617   c0,0,4.285-3.094,3.571-9.998c0,0,5.594,4.642,14.045,0.119c0,0-0.833-8.45-11.784-9.522c0,0,4.285-3.332-1.309-8.45   c0,0-0.65,2.289-5.713,3.452c-4.404,1.012-12.239-4.511-6.445-12.824C293.29,271.393,298.408,279.129,303.764,283.296z"/>
</g>
<path style="fill:#FFE15A;" d="M330.117,334.078c0,0,2.698,12.14,2.857,24.677c0,0,11.823,0.397,17.536-8.49  c0,0-11.426-5.951-17.536-17.457L330.117,334.078z"/>
<path style="fill:#73AF00;" d="M327.578,307.258c-0.476-5.713,2.063-20.154,13.647-30.628l0.284-12.826c0,0-3.451,0.359-6.511,3.038  l-6.547,10.145l-6.07,22.972L327.578,307.258z"/>
<path style="fill:#FFE15A;" d="M327.894,311.384c0,0,0,12.22,5.078,21.424l-2.857,1.269c0,0-10.236-8.054-12.378-24.598  c0,0-9.165,6.07-12.537-6.348c0,0,9.839,3.968,13.013-5.078c2.863-8.162,5.758-23.02,16.783-31.212  c-5.241,8.055-13.133,28.673-7.023,35.973c1.618,1.933,6.269,3.571,11.359,1.397C339.001,308.272,337.064,314.477,327.894,311.384z"/>
<path style="fill:#FFCE5A;" d="M329.377,336.245l-1.672-3.072c-0.292-0.537-0.094-1.21,0.444-1.503l3.051-1.658  c0.537-0.292,1.209-0.094,1.502,0.444l1.672,3.072c0.292,0.537,0.094,1.21-0.444,1.503l-3.051,1.658  C330.342,336.981,329.67,336.783,329.377,336.245z"/>
<g>
	<path style="fill:#FFE15A;" d="M432.635,334.078c0,0-2.698,12.14-2.857,24.677c0,0-11.823,0.397-17.536-8.49   c0,0,11.426-5.951,17.536-17.457L432.635,334.078z"/>
	<path style="fill:#FFE15A;" d="M435.174,307.258c0.476-5.713-2.063-20.154-13.647-30.628l-0.284-12.826   c0,0,3.451,0.359,6.511,3.038l6.547,10.145l6.07,22.972L435.174,307.258z"/>
</g>
<path style="fill:#73AF00;" d="M423.419,304.212c5.09,2.174,9.741,0.536,11.359-1.397c6.11-7.3-1.782-27.918-7.023-35.973  c11.026,8.192,13.919,23.05,16.783,31.212c3.174,9.046,13.013,5.078,13.013,5.078c-3.372,12.418-12.537,6.348-12.537,6.348  c-2.143,16.544-12.378,24.598-12.378,24.598l-2.857-1.269c5.078-9.205,5.078-21.425,5.078-21.425  C425.687,314.477,423.751,308.272,423.419,304.212z"/>
<path style="fill:#FFCE5A;" d="M433.374,336.245l1.672-3.072c0.292-0.537,0.094-1.21-0.444-1.503l-3.051-1.658  c-0.537-0.292-1.209-0.094-1.502,0.444l-1.672,3.072c-0.292,0.537-0.094,1.21,0.444,1.503l3.051,1.658  C432.41,336.981,433.082,336.783,433.374,336.245z"/>
<path style="fill:#4173CD;" d="M343.289,249.016c-2.103,0-3.809,1.705-3.809,3.809v41.896c0,11.426,3.809,53.322,41.896,68.557  c38.088-15.235,41.896-57.131,41.896-68.557v-41.896c0-2.103-1.705-3.809-3.809-3.809H343.289z"/>
<path style="fill:#FFE15A;" d="M379.067,249.016l-36.121,69.231c0.904,3.202,2.031,6.516,3.446,9.864l34.984-67.053l34.984,67.053  c1.415-3.349,2.542-6.663,3.446-9.864l-36.121-69.231H379.067L379.067,249.016z"/>
<path style="fill:#73AF00;" d="M416.359,328.112l-34.984-67.053l-34.984,67.053l0,0c5.762,13.639,16.188,27.649,34.984,35.167  C400.171,355.76,410.598,341.75,416.359,328.112L416.359,328.112z"/>
<path style="fill:#FFE15A;" d="M395.539,332.451l2.304,1.105c-0.966,1.428-2.977,3.738-6.823,5.831  c-2.905,1.581-5.713,3.452-7.741,4.885v-31.433l9.522-0.979v-3.809l-9.522-0.979v-4.734c0-1.052-0.853-1.905-1.905-1.905  c-0.897,0-1.614,0.633-1.816,1.469c-0.633-0.454-1.367-0.777-2.202-0.777c-2.131,0-3.866,1.735-3.866,3.866  c0,1.003,0.407,1.9,1.037,2.589l-4.578,0.471v3.809l9.522,0.979v31.433c-2.027-1.433-4.835-3.305-7.741-4.885  c-3.847-2.092-5.857-4.403-6.823-5.831l2.304-1.105l-8.689-11.069v15.235l2.929-1.405c1.159,1.867,3.608,4.881,8.46,7.519  c4.059,2.209,7.998,5.079,9.559,6.254l1.905,1.476l1.905-1.476c1.561-1.175,5.501-4.045,9.559-6.254  c4.852-2.638,7.301-5.652,8.46-7.519l2.929,1.405v-15.235L395.539,332.451z M377.356,306.955c-1.082,0-1.962-0.879-1.962-1.962  c0-1.082,0.879-1.962,1.962-1.962c1.082,0,1.962,0.879,1.962,1.962S378.439,306.955,377.356,306.955z"/>
<path style="fill:#F5F5F5;" d="M384.318,298.53h-5.885c-1.53,0-2.771-1.24-2.771-2.771v-9.694c0-1.53,1.24-2.771,2.771-2.771h5.885  c1.53,0,2.771,1.24,2.771,2.771v9.694C387.089,297.29,385.849,298.53,384.318,298.53z"/>
<path style="fill:#B49B91;" d="M408.037,249.016c-7.617-11.426-7.617-34.279-7.617-34.279s0-15.235-19.043-15.235  c-9.647,0-14.398,3.91-16.746,7.767c-9.14,3.672-13.724,11.276-13.724,11.276c3.896,1.949,7.339,2.877,10.463,3.115  c6.209,7.389,8.275,14.524,8.824,19.656c-3.576,3.652-5.559,12.46-0.243,19.125c0,0,11.267-2.618,20.779-11.426h17.306v0.001  H408.037z"/>
<g>
	<path style="fill:#9B8278;" d="M390.728,249.016h14.215C404.228,241.994,397.324,243.125,390.728,249.016z"/>
	<path style="fill:#9B8278;" d="M404.588,241.826c-4.163-11.818-4.169-27.088-4.169-27.088s-0.001-0.248-0.04-0.675   c-4.959-0.673-10.035-0.308-19.956,3.532c-10.563,4.088-15.734,4.205-19.055,4.067c6.209,7.389,8.275,14.524,8.824,19.656   l0.153,8.096c0,0,5.951,0.873,19.043-6.666C395.92,238.988,401.456,238.666,404.588,241.826z"/>
	<path style="fill:#9B8278;" d="M384.311,213.072c7.725-1.931,12.654-1.732,15.83-0.605c-0.851-4.243-4.349-12.964-18.765-12.964   c-9.647,0-14.398,3.91-16.746,7.767l-5.789,8.103C358.841,215.373,366.081,217.629,384.311,213.072z"/>
</g>
<path style="fill:#FFE15A;" d="M368.789,197.837c0.75,0.748,2.988,6.144,2.527,6.946c-0.297,0.515-6.257,1.997-7.223,1.241  c-0.862-0.674-1.87-6.486-1.293-7.157C363.323,198.261,368.163,197.213,368.789,197.837z"/>
<path style="fill:#73AF00;" d="M376.453,197.549c0.692,0.793,2.26,6.068,1.639,6.741c-0.399,0.433-7.042,0.957-7.965,0.127  c-0.822-0.74-1.004-6.227-0.278-6.761C370.505,197.171,375.876,196.887,376.453,197.549z"/>
<path style="fill:#FFE15A;" d="M383.706,197.349c0.717,0.747,2.353,5.707,1.711,6.337c-0.413,0.405-7.284,0.882-8.241,0.099  c-0.853-0.698-1.054-5.852-0.305-6.353C377.552,196.979,383.108,196.726,383.706,197.349z"/>
<g>
	<path style="fill:#73AF00;" d="M391.077,197.694c0.635,0.815,1.831,6.019,1.165,6.623c-0.428,0.387-7.09,0.405-7.951-0.465   c-0.768-0.776-0.568-6.08,0.193-6.542C385.171,196.892,390.547,197.013,391.077,197.694z"/>
	<path style="fill:#73AF00;" d="M406.289,200.848c0.491,0.909,0.444,5.743-0.313,6.228c-0.487,0.311-6.485-0.758-7.191-1.758   c-0.63-0.892,0.444-6.09,1.271-6.421C400.802,198.598,405.879,200.088,406.289,200.848z"/>
</g>
<path style="fill:#FFE15A;" d="M399.298,198.786c0.601,0.828,1.059,5.681,0.334,6.194c-0.466,0.33-7.33-0.234-8.162-1.131  c-0.743-0.801-0.2-5.803,0.613-6.175C392.821,197.336,398.796,198.096,399.298,198.786z"/>
<circle style="fill:#9B8278;" cx="368.36" cy="185.78" r="2.59"/>
<g>
</g>
<g>
</g>
<g>
</g>
<g>
</g>
<g>
</g>
<g>
</g>
<g>
</g>
<g>
</g>
<g>
</g>
<g>
</g>
<g>
</g>
<g>
</g>
<g>
</g>
<g>
</g>
<g>
</g>
</svg>
