<?xml version="1.0" encoding="iso-8859-1"?>
<!-- Generator: Adobe Illustrator 19.0.0, SVG Export Plug-In . SVG Version: 6.00 Build 0)  -->
<svg xmlns="http://www.w3.org/2000/svg" xmlns:xlink="http://www.w3.org/1999/xlink" version="1.1" id="Layer_1" x="0px" y="0px" viewBox="0 0 512.001 512.001" style="enable-background:new 0 0 512.001 512.001;" xml:space="preserve">
<path style="fill:#41479B;" d="M503.172,423.725H8.828c-4.875,0-8.828-3.953-8.828-8.828V97.104c0-4.875,3.953-8.828,8.828-8.828  h494.345c4.875,0,8.828,3.953,8.828,8.828v317.793C512,419.773,508.047,423.725,503.172,423.725z"/>
<path style="fill:#F5F5F5;" d="M3.978,422.079L512,211.863V150.07L0,414.898C0,417.941,1.635,420.491,3.978,422.079z"/>
<path style="fill:#FF9B55;" d="M508.658,90.352L0,406.07v8.828L512,150.07V97.104C512,94.337,510.649,91.971,508.658,90.352z"/>
<polygon style="fill:#F5F5F5;" points="145.903,210.17 203.034,203.035 145.903,195.901 174.858,178.142 138.831,186.951   160.757,157.037 130.844,178.963 139.652,142.936 121.894,171.891 114.759,114.76 107.624,171.891 89.865,142.936 98.674,178.963   68.76,157.037 90.686,186.951 54.659,178.142 83.614,195.901 26.483,203.035 83.614,210.17 54.659,227.929 90.686,219.12   68.76,249.034 98.674,227.108 89.865,263.135 107.624,234.18 114.759,291.311 121.894,234.18 139.652,263.135 130.844,227.108   160.757,249.034 138.831,219.12 174.858,227.929 "/>
<g>
</g>
<g>
</g>
<g>
</g>
<g>
</g>
<g>
</g>
<g>
</g>
<g>
</g>
<g>
</g>
<g>
</g>
<g>
</g>
<g>
</g>
<g>
</g>
<g>
</g>
<g>
</g>
<g>
</g>
</svg>
