<?xml version="1.0" encoding="iso-8859-1"?>
<!-- Generator: Adobe Illustrator 19.0.0, SVG Export Plug-In . SVG Version: 6.00 Build 0)  -->
<svg xmlns="http://www.w3.org/2000/svg" xmlns:xlink="http://www.w3.org/1999/xlink" version="1.1" id="Layer_1" x="0px" y="0px" viewBox="0 0 512.001 512.001" style="enable-background:new 0 0 512.001 512.001;" xml:space="preserve">
<path style="fill:#FF4B55;" d="M512,112.237H0V97.104c0-4.875,3.953-8.828,8.828-8.828h494.345c4.875,0,8.828,3.953,8.828,8.828  L512,112.237L512,112.237z"/>
<rect y="112.231" style="fill:#F5F5F5;" width="512" height="23.96"/>
<rect y="136.201" style="fill:#FF4B55;" width="512" height="23.96"/>
<rect y="160.151" style="fill:#F5F5F5;" width="512" height="23.96"/>
<rect y="184.121" style="fill:#FF4B55;" width="512" height="23.96"/>
<rect y="208.081" style="fill:#F5F5F5;" width="512" height="23.96"/>
<rect y="232.041" style="fill:#FF4B55;" width="512" height="23.96"/>
<rect y="256.001" style="fill:#F5F5F5;" width="512" height="23.96"/>
<polygon style="fill:#FF4B55;" points="512,303.923 0,303.923 0,264.829 8.828,264.829 8.83,279.961 512,279.961 "/>
<rect y="303.921" style="fill:#F5F5F5;" width="512" height="23.96"/>
<rect y="327.881" style="fill:#FF4B55;" width="512" height="23.96"/>
<rect y="351.851" style="fill:#F5F5F5;" width="512" height="23.96"/>
<rect y="375.801" style="fill:#FF4B55;" width="512" height="23.96"/>
<path style="fill:#F5F5F5;" d="M503.172,423.725H8.828c-4.875,0-8.828-3.953-8.828-8.828v-15.133h512v15.133  C512,419.773,508.047,423.725,503.172,423.725z"/>
<path style="fill:#41479B;" d="M308.966,279.961H8.828c-4.875,0-8.828-3.953-8.828-8.828V97.104c0-4.875,3.953-8.828,8.828-8.828  h300.138c4.875,0,8.828,3.953,8.828,8.828v174.029C317.793,276.01,313.841,279.961,308.966,279.961z"/>
<g>
	<path style="fill:#FFE15A;" d="M83.862,184.023c0-33.387,27.1-60.47,60.456-60.47c8.393,0,16.373,1.718,23.641,4.814   c0.943,0.402,1.654-0.911,0.807-1.489c-12.025-8.186-26.731-12.671-42.505-11.851c-34.679,1.803-63.036,29.736-65.278,64.39   c-2.607,40.308,29.289,73.699,68.959,73.699c14.336,0,27.662-4.417,38.729-11.906c0.852-0.577,0.146-1.892-0.801-1.491   c-7.244,3.072-15.192,4.776-23.55,4.776C110.962,244.494,83.862,217.411,83.862,184.023"/>
	<path style="fill:#FFE15A;" d="M222.061,184.023l25.558-9.889c1.263-0.489,0.833-2.376-0.518-2.268l-27.308,2.187l18.766-20.06   c0.926-0.989-0.28-2.5-1.45-1.818l-23.718,13.836l8.186-26.176c0.404-1.292-1.338-2.131-2.095-1.009l-15.354,22.745l-3.939-27.148   c-0.194-1.341-2.13-1.342-2.326-0.001l-2.516,17.178l-1.044,7.27l-0.402,2.702l-15.354-22.726c-0.758-1.122-2.502-0.282-2.095,1.01   l8.216,26.154l-23.716-13.836c-1.17-0.683-2.376,0.829-1.45,1.818l18.765,20.06l-27.315-2.187   c-1.351-0.108-1.782,1.779-0.518,2.268l25.581,9.889l-25.582,9.891c-1.265,0.489-0.833,2.376,0.518,2.268l27.316-2.187   l-18.766,20.11c-0.925,0.991,0.284,2.5,1.453,1.816l23.715-13.885l-8.216,26.154c-0.406,1.292,1.336,2.133,2.095,1.01   l15.354-22.726l0.402,2.766l1.044,7.206l2.517,17.224c0.196,1.342,2.132,1.34,2.326-0.001l3.939-27.193l15.354,22.745   c0.758,1.122,2.5,0.285,2.095-1.009l-8.186-26.176l23.715,13.885c1.169,0.684,2.377-0.825,1.453-1.816l-18.767-20.11l27.309,2.187   c1.351,0.108,1.782-1.779,0.518-2.268L222.061,184.023z"/>
</g>
<g>
</g>
<g>
</g>
<g>
</g>
<g>
</g>
<g>
</g>
<g>
</g>
<g>
</g>
<g>
</g>
<g>
</g>
<g>
</g>
<g>
</g>
<g>
</g>
<g>
</g>
<g>
</g>
<g>
</g>
</svg>
