<?xml version="1.0" encoding="iso-8859-1"?>
<!-- Generator: Adobe Illustrator 19.0.0, SVG Export Plug-In . SVG Version: 6.00 Build 0)  -->
<svg xmlns="http://www.w3.org/2000/svg" xmlns:xlink="http://www.w3.org/1999/xlink" version="1.1" id="Layer_1" x="0px" y="0px" viewBox="0 0 512.004 512.004" style="enable-background:new 0 0 512.004 512.004;" xml:space="preserve">
<path style="fill:#41479B;" d="M512.003,256.002H0.061V97.123c0-4.874,3.952-8.827,8.827-8.827h494.288  c4.874,0,8.827,3.952,8.827,8.827v158.878l0,0V256.002z"/>
<g>
	<path style="fill:#F5F5F5;" d="M0.061,256.002h511.943V414.88c0,4.874-3.952,8.827-8.827,8.827H8.888   c-4.874,0-8.827-3.952-8.827-8.827L0.061,256.002L0.061,256.002z"/>
	<path style="fill:#F5F5F5;" d="M503.177,88.297h-52.959l-163.521,53.567V88.297h-61.328v53.567L61.847,88.297H8.887   c-4.874,0-8.827,3.952-8.827,8.827v7.002l140.293,45.958H0.061v44.133h140.293L0.061,240.174v15.828h61.786l163.521-53.567v53.567   h61.327v-53.567l163.521,53.567h61.786v-15.828l-140.293-45.958h140.293v-44.133H371.709l140.293-45.958v-7.002   C512.003,92.249,508.051,88.297,503.177,88.297z"/>
</g>
<g>
	<rect x="0.061" y="158.911" style="fill:#FF4B55;" width="511.94" height="26.48"/>
	<rect x="242.791" y="88.301" style="fill:#FF4B55;" width="26.48" height="167.71"/>
</g>
<path style="fill:#FFE15A;" d="M301.286,156.772l-13.021,6.731l-5.143-11.963c-0.531-1.235-2.66-1.455-3.591-0.373l-10.606,12.336  l-11.089-17.199c-0.744-1.153-2.864-1.153-3.608,0l-11.089,17.199l-10.606-12.336c-0.931-1.082-3.061-0.862-3.591,0.373  l-5.143,11.963l-13.021-6.731c-1.721-0.889-3.847,0.566-2.923,2l12.72,19.729h-0.551c-1.476,0-2.673,0.928-2.673,2.073v5.852  c0,1.145,1.197,2.073,2.673,2.073h72.013c1.476,0,2.673-0.928,2.673-2.073v-5.852c0-1.145-1.197-2.073-2.673-2.073h-0.551  l12.72-19.729C305.134,157.338,303.006,155.883,301.286,156.772z"/>
<g>
	<polygon style="fill:#FF4B55;" points="178.989,194.215 0.061,252.27 0.061,256.002 21.045,256.002 211.413,194.215  "/>
	<polygon style="fill:#FF4B55;" points="512.003,256.002 512.003,247.959 346.409,194.215 313.984,194.215 504.311,256.002  "/>
</g>
<g>
	<path style="fill:#41479B;" d="M511.946,304.548c-25.633,0-25.633-7.723-51.267-7.723c-25.616,0-25.616,7.723-51.232,7.723   c-25.594,0-25.594-7.723-51.188-7.723c-25.59,0-25.59,7.723-51.18,7.723c-25.597,0-25.597-7.723-51.194-7.723   s-25.597,7.723-51.194,7.723s-25.597-7.723-51.194-7.723c-25.586,0-25.586,7.723-51.172,7.723c-25.573,0-25.573-7.723-51.147-7.723   c-25.588,0-25.588,7.723-51.178,7.723v-23.17c25.588,0,25.588-7.723,51.178-7.723c25.573,0,25.573,7.723,51.147,7.723   c25.586,0,25.586-7.723,51.172-7.723c25.597,0,25.597,7.723,51.194,7.723s25.597-7.723,51.194-7.723s25.597,7.723,51.194,7.723   c25.59,0,25.59-7.723,51.18-7.723c25.594,0,25.594,7.723,51.188,7.723c25.616,0,25.616-7.723,51.232-7.723   c25.633,0,25.633,7.723,51.267,7.723V304.548z"/>
	<path style="fill:#41479B;" d="M511.946,350.887c-25.633,0-25.633-7.723-51.267-7.723c-25.616,0-25.616,7.723-51.232,7.723   c-25.594,0-25.594-7.723-51.188-7.723c-25.59,0-25.59,7.723-51.18,7.723c-25.597,0-25.597-7.723-51.194-7.723   s-25.597,7.723-51.194,7.723s-25.597-7.723-51.194-7.723c-25.586,0-25.586,7.723-51.172,7.723c-25.573,0-25.573-7.723-51.147-7.723   c-25.588,0-25.588,7.723-51.178,7.723v-23.17c25.588,0,25.588-7.723,51.178-7.723c25.573,0,25.573,7.723,51.147,7.723   c25.586,0,25.586-7.723,51.172-7.723c25.597,0,25.597,7.723,51.194,7.723s25.597-7.723,51.194-7.723s25.597,7.723,51.194,7.723   c25.59,0,25.59-7.723,51.18-7.723c25.594,0,25.594,7.723,51.188,7.723c25.616,0,25.616-7.723,51.232-7.723   c25.633,0,25.633,7.723,51.267,7.723V350.887z"/>
	<path style="fill:#41479B;" d="M511.946,397.227c-25.633,0-25.633-7.723-51.267-7.723c-25.616,0-25.616,7.723-51.232,7.723   c-25.594,0-25.594-7.723-51.188-7.723c-25.59,0-25.59,7.723-51.18,7.723c-25.597,0-25.597-7.723-51.194-7.723   s-25.597,7.723-51.194,7.723s-25.597-7.723-51.194-7.723c-25.586,0-25.586,7.723-51.172,7.723c-25.573,0-25.573-7.723-51.147-7.723   c-25.588,0-25.588,7.723-51.178,7.723v-23.17c25.588,0,25.588-7.723,51.178-7.723c25.573,0,25.573,7.723,51.147,7.723   c25.586,0,25.586-7.723,51.172-7.723c25.597,0,25.597,7.723,51.194,7.723s25.597-7.723,51.194-7.723s25.597,7.723,51.194,7.723   c25.59,0,25.59-7.723,51.18-7.723c25.594,0,25.594,7.723,51.188,7.723c25.616,0,25.616-7.723,51.232-7.723   c25.633,0,25.633,7.723,51.267,7.723V397.227z"/>
</g>
<g>
	<path style="fill:#FF4B55;" d="M194.245,150.083L5.731,88.933c-3.306,1.275-5.67,4.434-5.67,8.19v0.458l161.76,52.502H194.245z"/>
	<path style="fill:#FF4B55;" d="M332.589,150.083l177.846-57.694c-1.577-2.407-4.166-4.092-7.259-4.092h-12.645l-190.366,61.786   H332.589z"/>
</g>
<g>
	<path style="fill:#FFE15A;" d="M401.658,411.819c18.539-9.548,25.209-23.868,27.637-29.188   c3.678-8.059,20.746-14.558,20.746-14.558s-21.083,0.099-32.368,14.749c-10.403,13.506-29.133,14.668-47.197,25.002   c-1.722-2.165-3.494-4.287-5.333-6.35l56.286-68.136l-68.136,56.286c-2.667-2.379-5.425-4.655-8.263-6.836   c1.794-4.664,5.333-11.872,12.283-20.08c13.474-15.915,14.156-31.698,14.363-37.542c0.316-8.853,13.595-21.39,13.595-21.39   s-19.441,8.16-24.26,26.013c-4.44,16.451-21.284,24.691-34.017,41.135c-2.416-1.345-4.863-2.641-7.361-3.851l25.912-84.438   l-41.398,78.052c-3.368-1.174-6.787-2.238-10.262-3.167c-0.124-4.998,0.393-12.998,3.664-23.216   c6.357-19.861,0.947-34.703-1.098-40.182c-3.097-8.3,4.375-24.964,4.375-24.964s-14.839,14.979-12.459,33.317   c2.193,16.902-10.223,30.966-15.691,51.039c-2.735-0.31-5.488-0.557-8.266-0.715l-8.379-87.969l-8.379,87.969   c-3.598,0.204-7.152,0.563-10.676,1.022c-2.029-4.567-4.624-12.167-5.514-22.887c-1.727-20.781-12.405-32.424-16.39-36.703   c-6.038-6.482-5.512-24.738-5.512-24.738s-7.977,19.516,1.24,35.548c8.493,14.773,2.409,32.515,5.034,53.146   c-2.671,0.762-5.311,1.592-7.916,2.501l-41.398-78.052l25.912,84.438c-3.231,1.563-6.375,3.274-9.469,5.062   c-3.622-3.443-8.924-9.471-13.844-19.026c-9.548-18.539-23.869-25.209-29.188-27.637c-8.059-3.678-14.558-20.745-14.558-20.745   s0.098,21.083,14.749,32.367c13.506,10.403,14.668,29.134,25.001,47.198c-2.165,1.722-4.288,3.494-6.35,5.333l-68.138-56.29   l56.286,68.136c-2.379,2.667-4.655,5.425-6.836,8.263c-4.664-1.794-11.873-5.335-20.08-12.283   c-15.915-13.474-31.698-14.156-37.543-14.364c-8.853-0.314-21.389-13.594-21.389-13.594s8.16,19.441,26.013,24.26   c14.757,3.983,22.956,17.929,36.347,29.953h261.209C388.25,420.263,393.661,415.938,401.658,411.819z"/>
	<polygon style="fill:#FFE15A;" points="444.819,423.707 472.131,409.221 424.927,423.707  "/>
	<polygon style="fill:#FFE15A;" points="39.931,409.221 67.244,423.707 87.137,423.707  "/>
</g>
<g>
</g>
<g>
</g>
<g>
</g>
<g>
</g>
<g>
</g>
<g>
</g>
<g>
</g>
<g>
</g>
<g>
</g>
<g>
</g>
<g>
</g>
<g>
</g>
<g>
</g>
<g>
</g>
<g>
</g>
</svg>
