<?xml version="1.0" encoding="iso-8859-1"?>
<!-- Generator: Adobe Illustrator 19.0.0, SVG Export Plug-In . SVG Version: 6.00 Build 0)  -->
<svg xmlns="http://www.w3.org/2000/svg" xmlns:xlink="http://www.w3.org/1999/xlink" version="1.1" id="Layer_1" x="0px" y="0px" viewBox="0 0 512.001 512.001" style="enable-background:new 0 0 512.001 512.001;" xml:space="preserve">
<path style="fill:#73AF00;" d="M0,311.908h512v102.988c0,4.875-3.953,8.828-8.828,8.828H8.828c-4.875,0-8.828-3.953-8.828-8.828  V311.908z"/>
<path style="fill:#82AFFF;" d="M8.828,88.276h494.345c4.875,0,8.828,3.953,8.828,8.828v102.988H0V97.104  C0,92.229,3.953,88.276,8.828,88.276z"/>
<rect y="200.09" style="fill:#FF4B55;" width="512" height="111.81"/>
<g>
	<path style="fill:#F5F5F5;" d="M268.04,292.608c-19.81,0-35.881-16.071-35.881-35.898c0-19.792,16.071-35.898,35.881-35.898   c7.371,0,14.168,2.266,19.832,6.103c0.867,0.588,1.857-0.553,1.131-1.308c-8.466-8.801-20.448-14.172-33.732-13.718   c-22.824,0.779-41.718,19.077-43.177,41.868c-1.671,26.104,18.999,47.798,44.735,47.798c12.676,0,24.069-5.3,32.206-13.773   c0.718-0.748-0.274-1.871-1.132-1.289C282.233,290.339,275.424,292.608,268.04,292.608z"/>
	<path style="fill:#F5F5F5;" d="M299.452,234.611l3.723,10.467l10.034-4.769c0.756-0.36,1.545,0.429,1.185,1.185l-4.769,10.034   l10.467,3.723c0.789,0.28,0.789,1.396,0,1.676l-10.467,3.723l4.769,10.034c0.36,0.756-0.429,1.545-1.185,1.185l-10.034-4.769   l-3.723,10.467c-0.28,0.789-1.396,0.789-1.676,0l-3.723-10.467l-10.034,4.769c-0.756,0.36-1.545-0.429-1.185-1.185l4.769-10.034   l-10.467-3.723c-0.789-0.28-0.789-1.396,0-1.676l10.467-3.723l-4.769-10.034c-0.36-0.756,0.429-1.545,1.185-1.185l10.034,4.769   l3.723-10.467C298.057,233.823,299.172,233.823,299.452,234.611z"/>
</g>
<g>
</g>
<g>
</g>
<g>
</g>
<g>
</g>
<g>
</g>
<g>
</g>
<g>
</g>
<g>
</g>
<g>
</g>
<g>
</g>
<g>
</g>
<g>
</g>
<g>
</g>
<g>
</g>
<g>
</g>
</svg>
