<?xml version="1.0" encoding="iso-8859-1"?>
<!-- Generator: Adobe Illustrator 19.0.0, SVG Export Plug-In . SVG Version: 6.00 Build 0)  -->
<svg xmlns="http://www.w3.org/2000/svg" xmlns:xlink="http://www.w3.org/1999/xlink" version="1.1" id="Layer_1" x="0px" y="0px" viewBox="0 0 512.003 512.003" style="enable-background:new 0 0 512.003 512.003;" xml:space="preserve">
<path style="fill:#FFE15A;" d="M503.172,423.726H8.828c-4.875,0-8.828-3.953-8.828-8.828V97.105c0-4.875,3.953-8.828,8.828-8.828  h494.345c4.875,0,8.828,3.953,8.828,8.828v317.793C512,419.774,508.047,423.726,503.172,423.726z"/>
<rect x="26.483" y="114.762" style="fill:#41479B;" width="485.52" height="282.48"/>
<g>
	<polygon style="fill:#FF4B55;" points="26.483,114.761 269.241,256.002 147.863,114.762  "/>
	<polygon style="fill:#FF4B55;" points="269.241,256.002 269.241,114.761 390.622,114.762  "/>
	<polygon style="fill:#FF4B55;" points="512,114.761 269.241,256.002 512,185.381  "/>
	<polygon style="fill:#FF4B55;" points="269.241,256.002 512,256.002 512,326.623  "/>
	<polygon style="fill:#FF4B55;" points="269.241,256.002 26.485,185.382 26.485,256.003  "/>
	<polygon style="fill:#FF4B55;" points="26.485,326.624 269.241,256.002 26.485,397.244  "/>
</g>
<g>
	<polygon style="fill:#FFE15A;" points="273.303,230.167 304.957,157.163 281.585,233.224  "/>
	<path style="fill:#FFE15A;" d="M314.986,272.147c0.69-1.953,1.292-3.944,1.729-6.002l52.757,4.679l-51.897-10.491   c0.127-1.429,0.218-2.869,0.218-4.331c0-1.408-0.093-2.793-0.211-4.17l51.474-10.84l-52.29,5.066   c-0.458-2.199-1.109-4.321-1.853-6.4l46.726-24.428l-49.02,19.054c-1.249-2.488-2.705-4.847-4.345-7.069l38.744-35.724   l-42.489,31.232c-4.505-4.776-9.943-8.655-16.056-11.296l15.432-50.217l-20.919,48.246c-4.362-1.288-8.965-2.006-13.743-2.006   c-4.815,0-9.458,0.725-13.849,2.031l-20.931-48.273l15.447,50.266c-6.092,2.649-11.512,6.527-16,11.298l-42.56-31.284   l38.815,35.789c-1.631,2.215-3.075,4.564-4.317,7.043l-49.119-19.093l46.826,24.481c-0.736,2.067-1.383,4.174-1.837,6.358   l-52.406-5.077l51.59,10.866c-0.117,1.368-0.21,2.745-0.21,4.145c0,1.454,0.092,2.886,0.217,4.307l-52.013,10.514l52.872-4.69   c0.435,2.044,1.031,4.022,1.714,5.962l-46.628,23.827l48.881-18.478c7.924,16.046,24.405,27.111,43.51,27.111   c19.091,0,35.561-11.046,43.492-27.071l48.781,18.44L314.986,272.147z"/>
</g>
<path style="fill:#F5F5F5;" d="M512,397.243L274.791,259.231c-3.431-1.996-7.668-1.996-11.098,0L26.483,397.243H512z"/>
<g>
	<circle style="fill:#FF4B55;" cx="269.29" cy="325.262" r="1.837"/>
	<path style="fill:#FF4B55;" d="M266.482,263.726c5.511,6.813-3.406,10.22-2.304,16.733c0,0-1.803-2.706-1.102-6.513   c0.701-3.807-1.704-5.01-1.704-5.01s1.102,4.308-1.603,6.713c-2.706,2.404-1.903,7.915-1.903,7.915s-3.406-2.304-2.706-5.811   c0,0-4.609,4.008-0.501,10.721c0,0-2.706-0.201-3.708-1.903c0,0-2.399,7.063,7.267,12.449c9.666,5.386,11.069-7.439,11.069-7.439   l6.913,8.617c0,0,8.282-0.234,12.224-9.118l-4.743,0.868c0.3-2.505,6.646-3.172,4.141-10.687c0,0-0.201,1.603-2.004,2.706   c0,0,0.067-5.176-3.673-8.584c0,0-0.134,2.772-1.336,3.774c0,0,0.401-3.574-1.803-6.379c-2.106-2.68-2.304-5.143-2.304-5.143   s-2.505,4.609-1.603,6.913c0,0-2.089-0.508-2.304-3.306C272.327,265.162,266.482,263.726,266.482,263.726z"/>
</g>
<ellipse style="fill:#FFE15A;" cx="269.29" cy="318.402" rx="15.637" ry="6.702"/>
<ellipse style="fill:#FF4B55;" cx="269.29" cy="316.942" rx="13.522" ry="6.06"/>
<g>
	<path style="fill:#FF82AA;" d="M272.118,317.731h-5.67c-0.1,1.768,0.701,4.332,2.83,5.262v0.006c0.001,0,0.002-0.002,0.002-0.002   s0.004,0.002,0.006,0.002v-0.006C271.417,322.063,272.218,319.499,272.118,317.731z"/>
	<path style="fill:#FF82AA;" d="M276.626,316.64l-5.143,1.207c0.313,1.742,1.625,4.069,3.771,4.521l0.001,0.006l0.003-0.004   c0.001,0,0.003,0.002,0.003,0.002v-0.006C276.98,321.007,277.12,318.34,276.626,316.64z"/>
	<path style="fill:#FF82AA;" d="M279.287,314.794l-3.581,2.346c0.906,1.521,2.817,3.335,4.672,3.231l0.003,0.004l0.001-0.004   c0,0,0.003,0.001,0.004,0.001l-0.003-0.004C281.219,318.707,280.32,316.23,279.287,314.794z"/>
	<path style="fill:#FF82AA;" d="M279.182,311.169l-1.409,3.556c1.91,2.43,5.041,2.179,5.041,2.179   C282.94,314.926,280.471,312.38,279.182,311.169z"/>
	<path style="fill:#FF82AA;" d="M261.895,316.64l5.143,1.207c-0.313,1.742-1.625,4.069-3.77,4.521l-0.001,0.006l-0.003-0.004   l-0.004,0.002l0.001-0.006C261.54,321.007,261.399,318.34,261.895,316.64z"/>
	<path style="fill:#FF82AA;" d="M259.233,314.794l3.581,2.346c-0.906,1.521-2.817,3.335-4.672,3.231l-0.003,0.004l-0.001-0.004   l-0.004,0.001l0.003-0.004C257.301,318.707,258.2,316.23,259.233,314.794z"/>
	<path style="fill:#FF82AA;" d="M259.338,311.169l1.409,3.556c-1.91,2.43-5.041,2.179-5.041,2.179   C255.581,314.926,258.049,312.38,259.338,311.169z"/>
</g>
<ellipse style="fill:#FFE15A;" cx="269.29" cy="313.272" rx="10.975" ry="4.918"/>
<ellipse style="fill:#FF4B55;" cx="269.29" cy="313.272" rx="8.166" ry="3.196"/>
<path style="fill:#41479B;" d="M270.112,368.526c-5.337,0.454-10.026-3.514-10.482-8.844c-0.234-2.664,1.752-5.016,4.42-5.242  c2.667-0.227,5.012,1.751,5.238,4.42c0.227,2.669,2.577,4.642,5.24,4.421c2.67-0.226,4.651-2.581,4.419-5.244  C279.402,363.376,275.446,368.07,270.112,368.526"/>
<path style="fill:#FF9B55;" d="M259.63,359.682c-0.234-2.664,1.752-5.016,4.42-5.242c2.667-0.227,5.012,1.751,5.238,4.42  c0.227,2.669,2.577,4.642,5.24,4.421c2.67-0.226,4.651-2.581,4.419-5.244c-0.447-5.343-5.141-9.295-10.478-8.842  C263.135,349.652,259.176,354.345,259.63,359.682"/>
<path style="fill:#FFE15A;" d="M269.288,342.988c-8.765,0-15.87,7.105-15.87,15.87c0,8.765,7.105,15.87,15.87,15.87  s15.87-7.106,15.87-15.87C285.158,350.093,278.052,342.988,269.288,342.988z M269.288,371.423c-6.938,0-12.564-5.625-12.564-12.564  c0-6.939,5.625-12.564,12.564-12.564s12.564,5.625,12.564,12.564C281.852,365.798,276.226,371.423,269.288,371.423z"/>
<path style="fill:#FF4B55;" d="M269.288,346.295c-6.938,0-12.564,5.625-12.564,12.564c0,6.939,5.625,12.564,12.564,12.564  s12.564-5.625,12.564-12.564C281.852,351.92,276.226,346.295,269.288,346.295z M269.288,368.482c-5.315,0-9.624-4.309-9.624-9.624  s4.309-9.624,9.624-9.624s9.624,4.309,9.624,9.624C278.911,364.174,274.603,368.482,269.288,368.482z"/>
<circle style="fill:#FF9B55;" cx="264.41" cy="358.852" r="1.212"/>
<circle style="fill:#41479B;" cx="274.11" cy="358.852" r="1.212"/>
<g>
	<circle style="fill:#FF4B55;" cx="269.29" cy="339.092" r="1.469"/>
	<circle style="fill:#FF4B55;" cx="270.75" cy="341.652" r="1.469"/>
	<circle style="fill:#FF4B55;" cx="267.82" cy="341.652" r="1.469"/>
	<circle style="fill:#FF4B55;" cx="269.29" cy="378.672" r="1.469"/>
	<circle style="fill:#FF4B55;" cx="267.82" cy="376.112" r="1.469"/>
	<circle style="fill:#FF4B55;" cx="270.75" cy="376.112" r="1.469"/>
</g>
<path style="fill:#FF9B55;" d="M266.602,297.517c-1.009-5.629-3.703-9.855-6.018-9.44c-2.315,0.415-3.374,5.314-2.365,10.942  c0.728,4.062,2.339,7.327,4.046,8.711c-0.705,1.209-1.134,3.053-1.143,5.337c1.268,0.108,2.574,0.102,3.916-0.138  c1.341-0.241,2.569-0.689,3.72-1.23c-0.802-2.138-1.845-3.719-2.926-4.608C266.952,305.2,267.33,301.579,266.602,297.517z"/>
<path style="fill:#41479B;" d="M271.942,297.517c1.009-5.629,3.703-9.855,6.018-9.44c2.315,0.415,3.373,5.314,2.365,10.942  c-0.728,4.062-2.339,7.327-4.046,8.711c0.705,1.209,1.134,3.053,1.143,5.337c-1.268,0.108-2.574,0.102-3.916-0.138  c-1.342-0.239-2.569-0.689-3.72-1.23c0.802-2.138,1.845-3.719,2.926-4.608C271.592,305.2,271.213,301.579,271.942,297.517z"/>
<path style="fill:#F5F5F5;" d="M273.592,297.387c0-6.2-1.907-11.227-4.258-11.227s-4.258,5.026-4.258,11.227  c0,4.474,1.011,8.267,2.446,10.071c-0.907,1.156-1.655,3.041-2.067,5.478c1.229,0.359,2.516,0.601,3.879,0.601  s2.65-0.243,3.879-0.601c-0.413-2.436-1.16-4.322-2.067-5.478C272.583,305.654,273.592,301.86,273.592,297.387z"/>
<g>
	<path style="fill:#FFE15A;" d="M269.288,309.112c-2.774,0-5.319-0.258-6.974-0.715c-0.569-0.15-0.903-0.732-0.748-1.305   c0.158-0.566,0.757-0.94,1.305-0.74c2.927,0.781,9.906,0.781,12.833,0c0.569-0.207,1.152,0.174,1.305,0.74   c0.153,0.574-0.179,1.156-0.748,1.305C274.606,308.855,272.062,309.112,269.288,309.112z"/>
	<path style="fill:#FFE15A;" d="M260.17,325.947c1.152-0.15,2.605-0.501,2.706-2.254c0,0-2.605-0.25-2.605-0.05   S260.17,325.947,260.17,325.947z"/>
</g>
<g>
	<path style="fill:#FF4B55;" d="M234.019,319.435c1.302,0.367,2.572,0.634,2.973,2.238c0,0,1.336-2.671-0.534-4.275   C236.117,317.105,234.019,319.435,234.019,319.435z"/>
	<path style="fill:#FF4B55;" d="M239.563,314.959c1.302,0.367,2.572,0.634,2.973,2.238c0,0,1.336-2.671-0.534-4.275   C241.661,312.63,239.563,314.959,239.563,314.959z"/>
</g>
<path style="fill:#FFE15A;" d="M234.42,324.244c-0.801-0.201-2.205-2.004-0.401-4.809s-6.112,1.402-6.412,3.708  c-0.3,2.304-0.601,6.412,1.203,5.311C230.613,327.35,234.42,324.244,234.42,324.244z"/>
<path style="fill:#FF4B55;" d="M243.004,324.545c0.267-1.47,0-2.472,1.87-3.807c1.87-1.335,2.137-2.071,2.137-2.94  c0,0-1.018,1.086-2.823,1.536c-1.103,0.276-2.053,1.069-2.053,1.069s-0.468-1.67,1.203-2.605c0,0-2.94,0-3.406,2.671  c-0.468,2.671,1.069,3.073-1.135,3.34c-2.205,0.267-7.348-0.801-9.151,3.273c-1.803,4.075,3.673,1.135,5.143,0.601  s6.145,0.601,6.88-0.401C242.403,326.282,243.004,324.545,243.004,324.545z"/>
<path style="fill:#FFF5E6;" d="M223.75,331.859l7.915-13.025c0,0,7.865-3.039,7.932-3.441c0.067-0.401,2.605-3.673,2.605-4.141  c0-0.468-0.267-2.739-1.269-3.139c-1.002-0.401-4.192,0.946-5.578,1.3c-1.386,0.354-3.573-2.234-3.573-2.234  s-12.758,2.404-13.694,3.941c-0.935,1.536-5.344,12.557-5.544,13.694c-0.201,1.135,0,8.951,0.267,8.818  C213.078,333.495,223.75,331.859,223.75,331.859z"/>
<path style="fill:#FF4B55;" d="M242.669,309.315c-1.203-1.737-3.406-1.737-4.342-0.333c-0.935,1.402-2.938,1.402-3.406,3.139  c-0.37,1.372,1.87,3.874,3.207,3.406c1.337-0.468,3.807-2.004,3.807-2.004S243.872,311.051,242.669,309.315z M239.011,312.851  c-0.548,0.701-1.924-0.171-1.933-0.949s1.14-0.821,1.711-0.417C239.161,311.748,239.459,312.28,239.011,312.851z M241.07,311.12  c-0.802,0.386-1.652-1.003-1.316-1.705c0.335-0.702,1.385-0.234,1.719,0.381C241.692,310.197,241.724,310.806,241.07,311.12z"/>
<path style="fill:#FFF5E6;" d="M245.202,359.845c1.331,0.134,3.093-0.049,3.459-3.061c0.42-3.452,1.464-4.658,3.193-3.859  c1.729,0.799,1.301,2.178,1.301,2.178s1.903,5.01,0.902,7.013c-1.002,2.004-3.306,4.408-5.01,4.809s-5.21-1.903-5.21-1.903  L245.202,359.845z"/>
<path style="fill:#FFE6D7;" d="M235.588,348.191c1.135-0.534,15.162-10.286,16.833-13.961c1.67-3.673,0.735-6.346,2.94-6.479  c2.205-0.134,5.945-0.267,5.611-3.006s-4.008-1.002-5.01-1.536s-4.141-2.004-4.743,0.134s0,4.075-0.868,5.143  c-0.868,1.069-4.743,2.94-5.41,2.805c-0.668-0.134-2.094-0.308-3.185,0.381s-1.692,1.623-1.692,1.623s-4.108,0.167-4.693,0.718  c-0.585,0.551-2.788,3.49-2.788,3.49L235.588,348.191z"/>
<path style="fill:#5AA587;" d="M237.058,345.986c0,0,2.671-1.002,4.576-4.71c1.903-3.708,3.807-2.205,6.613-4.209  c2.805-2.004,1.002-5.01,0.201-6.212c-0.801-1.203-0.25-4.308,2.505-4.209c1.813,0.066,7.615,5.711,5.01,11.322  c0,0-0.401-1.002-1.402-2.205c0,0,1.503,3.708-2.004,7.815c0,0,0.1-2.104-1.002-3.507c0,0-0.1,5.211-4.108,8.516  c0,0,0.501-3.406-0.1-4.809c0,0-0.601,4.509-6.513,8.617c0,0,0.902-1.603,0.702-4.209l-5.01,2.605L237.058,345.986z"/>
<path style="fill:#F5DCD2;" d="M198.951,363.119c0,0-1.803,5.511,3.106,7.114c4.909,1.603,7.615-0.501,9.418,0  c1.803,0.501,1.402,3.708-1.102,6.412c-2.505,2.706-5.01,3.006-7.816,1.002c-2.805-2.004-3.006-3.807-5.911-3.106  c-2.905,0.702-6.913-2.104-6.913-2.104s2.605-11.322,2.905-11.222C192.939,361.316,198.951,363.119,198.951,363.119z"/>
<path style="fill:#FFF5E6;" d="M173.476,349.333c0,0,3.459-3.327,16.9-7.452c13.44-4.125,20.626-5.855,20.626-5.855l10.513-3.327  c0,0,4.948-0.019,8.195-0.941c3.249-0.922,3.249-0.922,3.249-0.922s8.65,12.243,2.13,24.618l2.262,2.13c0,0,2.378,0.726,4.183,1.361  c1.805,0.636,0.474,4.095,0.474,4.095l-6.92,3.193l-20.227-0.931c0,0-0.399-0.931-7.053,1.197c-6.654,2.13-9.581-2.661-22.356-3.061  C172.678,363.04,173.476,349.333,173.476,349.333z"/>
<g>
	<path style="fill:#5AA587;" d="M230.979,301.567c0,0,2.037,2.037,0.935,4.207c0,0-2.271-2.337-4.141-2.872   c-2.879-0.822-3.474,0.751-9.836,1.052c-4.003,0.189-5.62,4.025-9.535,3.09c-4.191-1.002-7.648,0.918-7.648,0.918   s2.404-0.3,4.359,1.554c1.953,1.853,5.41,1.452,5.41,1.452s-3.156,2.205-5.811,1.152c-2.655-1.053-6.463,0.902-6.463,0.902   c0.701-0.05,2.254,0.2,4.008,2.053c1.754,1.853,5.662,1.402,5.662,1.402c-0.701,0.852-2.655,1.803-4.501,1.45   c-4.184-0.802-8.65,1.065-8.65,1.065s2.662-0.931,6.254,1.73c3.593,2.661,7.719,1.065,7.719,1.065c0,1.73-3.601,8.394-9.99,8.168   c-7.955-0.281-9.971,4.341-9.971,4.341s3.193-1.065,7.319-0.399c7.991,1.289,13.44-3.327,13.44-3.327s-1.331,6.254-6.786,5.988   s-12.375,5.323-12.375,5.323s6.147-1.108,14.086-1.205c2.611-0.032,4.734-1.062,6.549-2.286c4.774-3.224,9.182-3.224,9.182-3.224   c-5.21,1.203-7.915,6.913-7.915,6.913s4.008-3.507,9.818-3.507c5.812,0,7.615-6.813,7.615-6.813   c-5.41,0.099-6.212-4.309-6.212-4.309s-1.603,0.501-3.106,2.305c-0.951,1.141-2.558,1.528-3.658,1.682   c-0.401-3.513,2.252-6.721,2.252-6.721s-3.593-5.455,1.065-11.311c4.658-5.855,15.303-3.992,15.303-3.992   C236.457,304.505,232.316,301.433,230.979,301.567z"/>
	<path style="fill:#5AA587;" d="M220.159,320.938c1.737-0.267,9.82-2.94,9.685-6.546c-0.134-3.607-4.943-2.338-4.675-0.401   c0.267,1.937,2.004,1.536,2.004,1.536s-0.168,0.873-3.741,1.603C220.493,317.731,220.159,320.938,220.159,320.938z"/>
	<path style="fill:#5AA587;" d="M241.534,358.945c0,0,5.01-0.801,4.809,2.805c-0.201,3.607-3.073,7.414-9.017,9.085   c0,0,2.205-1.903,1.704-3.006c-0.501-1.102-3.006-1.402-4.308,0.501s-3.507,2.706-5.41,2.404c0,0,3.406-2.505,1.002-3.406   c-2.166-0.812-1.336,2.706-6.513,3.306c0,0,3.807-3.006,1.603-3.807c-2.204-0.801-3.406,4.408-7.315,4.008   c0,0,3.273-3.273,1.503-3.807c-2.788-0.842-3.507,4.008-8.516,1.903c0,0,2.505-1.102,0.501-3.807   c-2.004-2.706,0.801-6.112,2.205-7.514c1.404-1.402,2.404-2.304,2.004-3.708c0,0,3.574,2.238,1.77,6.178   c-1.694,3.701,5.162,1.657,10.487,1.203c5.478-0.468,8.727,2.674,12.224,1.603C243.538,361.883,241.534,358.945,241.534,358.945z"/>
	<path style="fill:#5AA587;" d="M144.6,360.644c0,0,6.572,3.031,10.298-0.03c3.726-3.061,4.738,0.562,9.13-2.1   c4.392-2.661,4.125-1.197,7.585-1.197c3.459,0,5.988-5.589,3.859-9.448c0,0,7.226-2.802,5.743-8.596   c-1.102-4.308-6.542-2.98-6.542-2.98s-5.74-3.608-9.714,1.065c-3.247,3.82-1.464,6.388-6.92,7.053   c-5.455,0.665-6.254,6.254-12.109,5.589c0,0,3.992,5.19,10.113,1.863C156.044,351.862,155.901,356.874,144.6,360.644z"/>
	<path style="fill:#5AA587;" d="M202.759,370.434c0,0,5.611,5.01-5.41,8.015c0,0,0.702-0.902,1.503-2.505   c0,0-3.406,2.505-7.816,2.304c0,0,1.302-1.002,1.603-2.205c0,0-4.008,1.102-6.913-0.801c0,0,3.507-0.201,5.711-3.507   c0,0,1.002,2.004,3.106,1.002c2.104-1.002,3.31,0.439,5.21,0.501C201.305,373.289,202.658,372.488,202.759,370.434z"/>
	<path style="fill:#5AA587;" d="M199.987,339.507c0,0-4.008,1.87-2.137,5.41c1.247,2.36,5.153,2.927,6.679,0.735   c1.302-1.87,0.269-3.686-1.102-3.942c-1.436-0.267-2.304,0.334-2.973,1.536C200.454,343.247,197.982,342.313,199.987,339.507z"/>
	<path style="fill:#5AA587;" d="M217.988,345.736c0,0,8.703,0.331,8.266,6.362c-0.192,2.654-3.782,4.507-6.046,3.115   c-1.932-1.187-1.619-3.165-0.611-4.042c1.11-0.966,2.208-0.618,3.298,0.214C222.895,351.384,223.448,348.09,217.988,345.736z"/>
	<path style="fill:#5AA587;" d="M235.372,334.012c0,0,4.697-3.151,6.527,0.6c0.804,1.651-0.696,4-2.53,3.954   c-1.565-0.04-2.062-1.329-1.766-2.201c0.328-0.961,1.105-1.133,2.042-1.015C239.646,335.351,239.93,332.91,235.372,334.012z"/>
	<path style="fill:#5AA587;" d="M241.756,331.671c0,0,4.333-2.908,6.02,0.554c0.742,1.523-0.642,3.69-2.334,3.647   c-1.443-0.036-1.902-1.225-1.628-2.03c0.302-0.886,1.018-1.046,1.885-0.937C245.698,332.906,245.961,330.655,241.756,331.671z"/>
	<path style="fill:#5AA587;" d="M225.525,350.891c0,0,7.489,0.285,7.113,5.475c-0.166,2.283-3.254,3.878-5.203,2.68   c-1.663-1.022-1.752-2.897-1.031-3.791c1.252-1.553,2.755-0.852,2.755-0.852S230.223,352.917,225.525,350.891z"/>
	<path style="fill:#5AA587;" d="M231.014,355.003c0,0,8.266-0.801,7.652,4.778c-0.16,1.455-2.081,2.481-3.328,1.715   c-1.064-0.653-1.121-1.853-0.659-2.425c0.801-0.993,1.762-0.545,1.762-0.545S235.923,356.056,231.014,355.003z"/>
</g>
<path style="fill:#FFE6D7;" d="M178.001,381.537c0,0,1.131,2.296,1.863,4.524c0.627,1.907,3.859,3.193,5.589,1.996  c1.73-1.197,4.651-4.777,3.454-5.575c-1.197-0.799-6.381-0.147-7.179-2.942c-0.799-2.795-0.532-4.658-0.532-4.658  s6.935,2.063,10.242-3.147c3.307-5.21,2.834-10.297,4.13-12.822c1.013-1.974,2.795-2.927,2.795-2.927  c-2.037-8.066-26.88-13.839-23.997,7.097l-3.903,8.872L178.001,381.537z"/>
<g>
	<path style="fill:#5AA587;" d="M169.193,381.188c1.704,1.102,7.949,4.275,11.823,1.87c3.168-1.966,3.207-4.209,1.203-4.71   s-3.106,0.902-4.209,0c-1.102-0.901-7.315-6.012-5.01-7.615c2.305-1.603,3.552-2.9,3.507-5.711   c-0.033-2.071-1.837-4.075-3.975-4.275c-2.665-0.249-4.743,0.868-7.548,0.868l3.273,1.67c-2.104,1.002-2.271,3.841-4.776,4.342   c0,0,1.704,1.937,3.841,1.336c0,0-0.735,2.004-2.739,2.271c0,0,1.87,2.137,3.607,2.739c0,0-1.135,0.801-2.905,0.468   c0,0,2.772,4.075,6.913,5.11L169.193,381.188z"/>
	<path style="fill:#5AA587;" d="M181.263,373.558c0,0,1.113-0.193,1.208-1.548c0.055-0.781-0.725-1.794-2.052-1.718   c-1.555,0.089-2.61,2.154-1.865,3.523c1.907,3.501,9.007,2.095,9.875,0.826C188.43,374.641,182.753,374.908,181.263,373.558z"/>
</g>
<g>
	<path style="fill:#FFE15A;" d="M184.589,390.206c0.309-0.434,0.559-1.611-0.042-2.338c0,0,0.326-1.678,1.603-1.077   c0,0,0.543,1.344,0.108,2.28C185.825,390.005,184.589,390.206,184.589,390.206z"/>
	<path style="fill:#FFE15A;" d="M187.196,389.264c-0.022-1.21-0.294-1.873-1.27-1.973c0,0-0.25-1.753,1.203-1.753   c0,0,1.077,0.951,1.087,1.983C188.225,388.551,187.196,389.264,187.196,389.264z"/>
	<path style="fill:#FFE15A;" d="M188.807,388.09c-0.238-1.187-0.463-2.013-1.55-2.093c0,0-0.578-1.436,1.024-1.636   c0,0,1.022,0.82,1.217,1.832C189.692,387.205,188.807,388.09,188.807,388.09z"/>
	<path style="fill:#FFE15A;" d="M190.418,386.25c-0.493-1.106-0.984-1.548-2.062-1.388c0,0-0.927-1.302,0.351-2.004   c0,0,1.556,0.444,1.967,1.389C191.086,385.192,190.418,386.25,190.418,386.25z"/>
	<path style="fill:#FFE15A;" d="M209.438,379.473c0.227-0.482,0.265-1.685-0.456-2.293c0,0,0.022-1.709,1.386-1.345   c0,0,0.772,1.227,0.511,2.223C210.618,379.056,209.438,379.473,209.438,379.473z"/>
	<path style="fill:#FFE15A;" d="M211.836,378.084c-0.236-1.187-0.621-1.791-1.6-1.716c0,0-0.557-1.681,0.872-1.939   c0,0,1.228,0.745,1.421,1.758S211.836,378.084,211.836,378.084z"/>
	<path style="fill:#FFE15A;" d="M213.212,376.644c-0.445-1.126-0.813-1.899-1.898-1.785c0,0-0.824-1.311,0.717-1.792   c0,0,1.151,0.626,1.523,1.587C213.926,375.616,213.212,376.644,213.212,376.644z"/>
	<path style="fill:#FFE15A;" d="M214.472,374.545c-0.682-1.001-1.244-1.349-2.276-1c0,0-1.143-1.118-0.011-2.035   c0,0,1.61,0.161,2.184,1.017C214.942,373.386,214.472,374.545,214.472,374.545z"/>
</g>
<path style="fill:#FFE6D7;" d="M242.735,312.855c0.217,1.085-0.334,2.271-2.938,3.406s-2.538,0.668-4.275,2.872  c-1.737,2.205-1.937,2.271-4.075,2.671c-2.137,0.401-3.139,7.013-0.601,6.012c2.538-1.002,2.872-3.073,5.677-2.404  c2.805,0.669,4.275,1.603,6.479-0.868c0,0,2.137,2.872-1.87,4.075c-4.008,1.203-6.195,1.295-8.173,2.217  c-1.98,0.922-9,3.177-9.461-3.386c-0.134-1.903,1.269-2.638,2.071-4.041c0.801-1.402,1.603-2.338,3.54-3.874  s0.735-2.805,3.874-3.273c3.139-0.468,5.745-0.401,6.679-2.671C240.598,311.319,242.468,311.519,242.735,312.855z"/>
<g>
	<path style="fill:#5AA587;" d="M190.134,344.7c0,0-0.602-2.393,2.189-3.407c-0.655,0.199-1.258,0.377-1.946,0.589   c-0.587,0.18-1.053,0.349-1.602,0.526c-0.214,0.289-0.502,0.442-0.647,0.847c-0.849,2.378,1.251,5.463,3.756,5.127   c2.136-0.288,2.742-2.168,2.044-3.287C193.195,343.923,191.586,343.648,190.134,344.7z"/>
	<path style="fill:#5AA587;" d="M190.998,370.108c-3.029,0.678-4.392-0.492-4.392-0.492s1.113-0.193,1.208-1.548   c0.055-0.781-0.725-1.794-2.052-1.718c-1.555,0.089-2.61,2.154-1.864,3.523c1.641,3.011,6.302,2.3,8.356,0.165   c0.108-0.22,0.22-0.438,0.317-0.657C192.122,369.666,191.548,369.986,190.998,370.108z"/>
	<path style="fill:#5AA587;" d="M194.059,365.046c0.077-0.343,0.186-0.689,0.252-1.016c-3.56,1.44-4.598-0.373-4.598-0.373   s1.113-0.193,1.208-1.548c0.055-0.781-0.725-1.794-2.052-1.717c-1.555,0.089-2.61,2.154-1.864,3.523   C188.745,367.106,191.844,366.217,194.059,365.046z"/>
	<path style="fill:#5AA587;" d="M202.068,366.74c-2.069,1.854-3.65,1.752-3.65,1.752s0.826-0.769,0.167-1.956   c-0.381-0.685-1.587-1.107-2.657-0.319c-1.255,0.924-1.011,3.23,0.361,3.97c3.378,1.821,5.57-0.995,6.742-3.262   C202.711,366.881,202.388,366.806,202.068,366.74z"/>
</g>
<g>
	<path style="fill:#FFE15A;" d="M255.392,364.947c-0.149-0.738-0.922-2.143-1.874-2.24c0,0-1.122-1.97,0.153-2.686   c0,0,1.402,0.759,1.869,2.114C256.008,363.491,255.392,364.947,255.392,364.947z"/>
	<path style="fill:#FFE15A;" d="M256.281,361.371c-0.97-1.16-1.664-1.528-2.356-0.63c0,0-1.543-1.457-0.632-2.937   c0,0,1.427-0.169,2.249,0.826C256.364,359.627,256.281,361.371,256.281,361.371z"/>
	<path style="fill:#FFE15A;" d="M256.364,358.584c-1.088-0.916-1.881-1.493-2.626-0.462c0,0-1.497-0.812-0.651-2.642   c0,0,1.289-0.242,2.21,0.548C256.22,356.817,256.364,358.584,256.364,358.584z"/>
	<path style="fill:#FFE15A;" d="M255.919,355.145c-1.183-0.576-1.841-0.509-2.39,0.747c0,0-1.61-0.327-1.364-2.314   c0,0,1.326-1.152,2.332-0.651C255.502,353.428,255.919,355.145,255.919,355.145z"/>
</g>
<circle style="fill:#F5F5F5;" cx="230.11" cy="316.592" r="1.87"/>
<circle style="fill:#41479B;" cx="230.11" cy="316.592" r="0.678"/>
<circle style="fill:#F5F5F5;" cx="233.96" cy="309.762" r="1.519"/>
<circle style="fill:#41479B;" cx="233.96" cy="309.762" r="0.551"/>
<path style="fill:#FFF5E6;" d="M180.014,346.487c-1.73,1.331-7.715-1.603-11.923-0.201c-5.439,1.813-5.394,5.309-5.394,5.309  s3.39-4.206,9.034-2.136c3.123,1.145,4.939,1.205,4.939,1.205L180.014,346.487z"/>
<path style="fill:#FFE15A;" d="M278.31,325.947c-1.152-0.15-2.605-0.501-2.706-2.254c0,0,2.605-0.25,2.605-0.05  S278.31,325.947,278.31,325.947z"/>
<g>
	<path style="fill:#FF4B55;" d="M304.46,319.435c-1.302,0.367-2.572,0.634-2.973,2.238c0,0-1.336-2.671,0.534-4.275   C302.362,317.105,304.46,319.435,304.46,319.435z"/>
	<path style="fill:#FF4B55;" d="M298.916,314.959c-1.302,0.367-2.572,0.634-2.973,2.238c0,0-1.336-2.671,0.534-4.275   C296.818,312.63,298.916,314.959,298.916,314.959z"/>
</g>
<path style="fill:#FFE15A;" d="M304.06,324.244c0.801-0.201,2.205-2.004,0.401-4.809s6.112,1.402,6.412,3.708  c0.3,2.306,0.601,6.412-1.203,5.311C307.866,327.35,304.06,324.244,304.06,324.244z"/>
<path style="fill:#FF4B55;" d="M295.476,324.545c-0.267-1.47,0-2.472-1.87-3.807c-1.87-1.336-2.137-2.071-2.137-2.94  c0,0,1.018,1.086,2.823,1.536c1.103,0.276,2.054,1.069,2.054,1.069s0.468-1.67-1.203-2.605c0,0,2.94,0,3.406,2.671  c0.468,2.671-1.069,3.073,1.135,3.34c2.204,0.267,7.348-0.801,9.151,3.273c1.803,4.074-3.673,1.135-5.143,0.601  s-6.145,0.601-6.88-0.401C296.077,326.281,295.476,324.545,295.476,324.545z"/>
<path style="fill:#FFF5E6;" d="M314.73,331.859l-7.915-13.025c0,0-7.865-3.039-7.932-3.441c-0.067-0.401-2.605-3.673-2.605-4.141  c0-0.468,0.267-2.739,1.269-3.139c1.002-0.401,4.192,0.946,5.578,1.3c1.386,0.354,3.573-2.234,3.573-2.234  s12.758,2.404,13.694,3.941c0.935,1.536,5.344,12.557,5.544,13.694c0.201,1.135,0,8.951-0.267,8.818  C325.401,333.495,314.73,331.859,314.73,331.859z"/>
<path style="fill:#FF4B55;" d="M296.545,313.523c0,0,2.472,1.536,3.807,2.004c1.336,0.467,3.576-2.036,3.207-3.406  c-0.467-1.737-2.472-1.737-3.406-3.139c-0.935-1.402-3.139-1.402-4.342,0.333C294.607,311.051,296.545,313.523,296.545,313.523z   M299.69,311.484c0.572-0.404,1.72-0.36,1.711,0.417c-0.009,0.778-1.385,1.65-1.933,0.949  C299.02,312.28,299.318,311.748,299.69,311.484z M297.005,309.795c0.334-0.615,1.384-1.082,1.719-0.381s-0.514,2.091-1.316,1.705  C296.756,310.806,296.787,310.197,297.005,309.795z"/>
<path style="fill:#FFF5E6;" d="M293.278,359.845c-1.331,0.134-3.093-0.049-3.459-3.061c-0.42-3.452-1.464-4.658-3.193-3.859  c-1.729,0.799-1.301,2.178-1.301,2.178s-1.903,5.01-0.902,7.013c1.002,2.004,3.306,4.408,5.01,4.809s5.211-1.903,5.211-1.903  L293.278,359.845z"/>
<path style="fill:#FFE6D7;" d="M302.89,348.191c-1.135-0.534-15.162-10.286-16.833-13.961c-1.671-3.674-0.735-6.346-2.94-6.479  c-2.205-0.134-5.945-0.267-5.611-3.006s4.008-1.002,5.01-1.536s4.141-2.004,4.743,0.134c0.601,2.137,0,4.075,0.868,5.143  c0.868,1.069,4.743,2.94,5.41,2.805c0.668-0.135,2.094-0.308,3.185,0.381c1.09,0.689,1.692,1.623,1.692,1.623  s4.108,0.167,4.693,0.718c0.585,0.551,2.788,3.49,2.788,3.49L302.89,348.191z"/>
<path style="fill:#5AA587;" d="M301.421,345.986c0,0-2.671-1.002-4.576-4.71c-1.903-3.708-3.807-2.205-6.613-4.209  c-2.805-2.004-1.002-5.01-0.201-6.212c0.801-1.203,0.25-4.308-2.505-4.209c-1.813,0.066-7.615,5.711-5.01,11.322  c0,0,0.401-1.002,1.402-2.205c0,0-1.503,3.708,2.004,7.815c0,0-0.1-2.104,1.002-3.507c0,0,0.1,5.211,4.108,8.516  c0,0-0.501-3.406,0.1-4.809c0,0,0.601,4.509,6.513,8.617c0,0-0.901-1.603-0.702-4.209l5.01,2.605L301.421,345.986z"/>
<path style="fill:#F5DCD2;" d="M339.529,363.119c0,0,1.803,5.511-3.106,7.114c-4.909,1.603-7.615-0.501-9.418,0  c-1.803,0.501-1.402,3.708,1.102,6.412c2.505,2.706,5.01,3.006,7.816,1.002c2.805-2.004,3.006-3.807,5.911-3.106  c2.905,0.702,6.913-2.104,6.913-2.104s-2.605-11.322-2.905-11.222C345.54,361.316,339.529,363.119,339.529,363.119z"/>
<path style="fill:#FFF5E6;" d="M365.003,349.333c0,0-3.459-3.327-16.9-7.452c-13.44-4.125-20.626-5.855-20.626-5.855l-10.513-3.327  c0,0-4.948-0.019-8.195-0.941s-3.249-0.922-3.249-0.922s-8.65,12.243-2.13,24.618l-2.262,2.13c0,0-2.378,0.726-4.183,1.361  c-1.805,0.636-0.474,4.095-0.474,4.095l6.92,3.193l20.227-0.931c0,0,0.399-0.931,7.053,1.197c6.654,2.129,9.581-2.661,22.356-3.061  C365.801,363.04,365.003,349.333,365.003,349.333z"/>
<g>
	<path style="fill:#5AA587;" d="M307.499,301.567c0,0-2.037,2.037-0.935,4.207c0,0,2.271-2.337,4.141-2.872   c2.879-0.822,3.474,0.751,9.836,1.052c4.003,0.189,5.62,4.025,9.535,3.09c4.191-1.002,7.648,0.918,7.648,0.918   s-2.404-0.3-4.359,1.554c-1.953,1.853-5.41,1.452-5.41,1.452s3.156,2.205,5.811,1.152c2.655-1.052,6.463,0.902,6.463,0.902   c-0.701-0.05-2.254,0.2-4.008,2.053c-1.753,1.854-5.662,1.402-5.662,1.402c0.701,0.852,2.655,1.803,4.501,1.45   c4.184-0.802,8.65,1.065,8.65,1.065s-2.661-0.931-6.254,1.73s-7.719,1.065-7.719,1.065c0,1.73,3.601,8.394,9.99,8.168   c7.955-0.281,9.971,4.341,9.971,4.341s-3.193-1.065-7.319-0.399c-7.991,1.289-13.44-3.327-13.44-3.327s1.331,6.254,6.786,5.988   s12.375,5.323,12.375,5.323s-6.147-1.108-14.086-1.205c-2.611-0.032-4.734-1.062-6.549-2.286c-4.773-3.224-9.182-3.224-9.182-3.224   c5.21,1.203,7.915,6.913,7.915,6.913s-4.008-3.507-9.819-3.507c-5.812,0-7.615-6.813-7.615-6.813   c5.41,0.099,6.212-4.309,6.212-4.309s1.603,0.501,3.106,2.305c0.951,1.141,2.558,1.528,3.658,1.682   c0.401-3.513-2.252-6.721-2.252-6.721s3.593-5.455-1.065-11.311s-15.304-3.992-15.304-3.992   C302.023,304.505,306.164,301.433,307.499,301.567z"/>
	<path style="fill:#5AA587;" d="M318.321,320.938c-1.737-0.267-9.82-2.94-9.685-6.546c0.135-3.606,4.943-2.338,4.675-0.401   c-0.267,1.937-2.004,1.536-2.004,1.536s0.168,0.873,3.741,1.603C317.986,317.731,318.321,320.938,318.321,320.938z"/>
	<path style="fill:#5AA587;" d="M296.946,358.945c0,0-5.01-0.801-4.809,2.805c0.201,3.607,3.073,7.414,9.017,9.085   c0,0-2.205-1.903-1.704-3.006c0.501-1.102,3.006-1.402,4.308,0.501s3.507,2.706,5.41,2.404c0,0-3.406-2.505-1.002-3.406   c2.166-0.812,1.336,2.706,6.513,3.306c0,0-3.807-3.006-1.603-3.807c2.205-0.801,3.406,4.408,7.315,4.008   c0,0-3.273-3.273-1.503-3.807c2.788-0.842,3.507,4.008,8.516,1.903c0,0-2.505-1.102-0.501-3.807   c2.004-2.706-0.801-6.112-2.205-7.514c-1.402-1.402-2.404-2.304-2.004-3.708c0,0-3.574,2.238-1.77,6.178   c1.694,3.701-5.162,1.657-10.487,1.203c-5.478-0.468-8.727,2.674-12.224,1.603C294.942,361.883,296.946,358.945,296.946,358.945z"/>
	<path style="fill:#5AA587;" d="M393.879,360.644c0,0-6.572,3.031-10.298-0.03c-3.726-3.061-4.738,0.562-9.13-2.1   c-4.392-2.661-4.125-1.197-7.585-1.197c-3.459,0-5.988-5.589-3.859-9.448c0,0-7.227-2.802-5.743-8.596   c1.102-4.308,6.542-2.98,6.542-2.98s5.74-3.608,9.714,1.065c3.247,3.82,1.464,6.388,6.92,7.053   c5.455,0.665,6.254,6.254,12.109,5.589c0,0-3.992,5.19-10.113,1.863C382.435,351.862,382.579,356.874,393.879,360.644z"/>
	<path style="fill:#5AA587;" d="M335.721,370.434c0,0-5.611,5.01,5.41,8.015c0,0-0.702-0.902-1.503-2.505   c0,0,3.406,2.505,7.816,2.304c0,0-1.302-1.002-1.603-2.205c0,0,4.008,1.102,6.913-0.801c0,0-3.507-0.201-5.711-3.507   c0,0-1.002,2.004-3.106,1.002c-2.104-1.002-3.31,0.439-5.211,0.501C337.174,373.289,335.821,372.488,335.721,370.434z"/>
	<path style="fill:#5AA587;" d="M338.493,339.507c0,0,4.008,1.87,2.137,5.41c-1.247,2.36-5.153,2.927-6.679,0.735   c-1.302-1.87-0.269-3.686,1.102-3.942c1.437-0.267,2.304,0.334,2.973,1.536C338.025,343.247,340.497,342.313,338.493,339.507z"/>
	<path style="fill:#5AA587;" d="M320.491,345.736c0,0-8.703,0.331-8.266,6.362c0.192,2.654,3.781,4.507,6.046,3.115   c1.932-1.187,1.619-3.165,0.611-4.042c-1.11-0.966-2.208-0.618-3.298,0.214C315.584,351.384,315.031,348.09,320.491,345.736z"/>
	<path style="fill:#5AA587;" d="M303.107,334.012c0,0-4.697-3.151-6.527,0.6c-0.804,1.651,0.696,4,2.53,3.954   c1.565-0.04,2.062-1.329,1.766-2.201c-0.328-0.961-1.105-1.133-2.042-1.015C298.834,335.351,298.549,332.91,303.107,334.012z"/>
	<path style="fill:#5AA587;" d="M296.724,331.671c0,0-4.333-2.908-6.02,0.554c-0.742,1.523,0.642,3.69,2.334,3.647   c1.443-0.036,1.902-1.225,1.628-2.03c-0.302-0.886-1.018-1.046-1.885-0.937C292.781,332.906,292.519,330.655,296.724,331.671z"/>
	<path style="fill:#5AA587;" d="M312.954,350.891c0,0-7.489,0.285-7.113,5.475c0.166,2.283,3.254,3.878,5.203,2.68   c1.663-1.022,1.752-2.897,1.031-3.791c-1.252-1.553-2.755-0.852-2.755-0.852S308.256,352.917,312.954,350.891z"/>
	<path style="fill:#5AA587;" d="M307.466,355.003c0,0-8.266-0.801-7.652,4.778c0.16,1.455,2.081,2.481,3.328,1.715   c1.064-0.653,1.121-1.853,0.659-2.425c-0.801-0.993-1.762-0.545-1.762-0.545S302.557,356.056,307.466,355.003z"/>
</g>
<path style="fill:#FFE6D7;" d="M360.479,381.537c0,0-1.131,2.296-1.863,4.524c-0.627,1.907-3.859,3.193-5.589,1.996  c-1.73-1.197-4.651-4.777-3.454-5.575c1.197-0.798,6.381-0.147,7.18-2.942s0.532-4.658,0.532-4.658s-6.935,2.063-10.242-3.147  c-3.306-5.211-2.834-10.297-4.13-12.822c-1.013-1.974-2.795-2.927-2.795-2.927c2.037-8.066,26.88-13.839,23.997,7.097l3.903,8.872  L360.479,381.537z"/>
<g>
	<path style="fill:#5AA587;" d="M369.287,381.188c-1.704,1.102-7.949,4.275-11.823,1.87c-3.168-1.966-3.207-4.209-1.203-4.71   s3.106,0.902,4.209,0c1.102-0.901,7.315-6.012,5.01-7.615c-2.305-1.603-3.552-2.9-3.507-5.711c0.033-2.071,1.837-4.075,3.975-4.275   c2.665-0.249,4.743,0.868,7.548,0.868l-3.273,1.67c2.104,1.002,2.271,3.841,4.776,4.342c0,0-1.704,1.937-3.841,1.336   c0,0,0.735,2.004,2.739,2.271c0,0-1.87,2.137-3.607,2.739c0,0,1.135,0.801,2.905,0.468c0,0-2.772,4.075-6.913,5.11L369.287,381.188   z"/>
	<path style="fill:#5AA587;" d="M357.216,373.558c0,0-1.113-0.193-1.208-1.548c-0.055-0.781,0.725-1.794,2.052-1.718   c1.555,0.089,2.61,2.154,1.865,3.523c-1.907,3.501-9.007,2.095-9.875,0.826C350.049,374.641,355.726,374.908,357.216,373.558z"/>
</g>
<g>
	<path style="fill:#FFE15A;" d="M353.889,390.206c-0.309-0.434-0.559-1.611,0.042-2.338c0,0-0.326-1.678-1.603-1.077   c0,0-0.543,1.344-0.108,2.28C352.653,390.005,353.889,390.206,353.889,390.206z"/>
	<path style="fill:#FFE15A;" d="M351.283,389.264c0.022-1.21,0.293-1.873,1.27-1.973c0,0,0.25-1.753-1.203-1.753   c0,0-1.077,0.951-1.087,1.983C350.254,388.551,351.283,389.264,351.283,389.264z"/>
	<path style="fill:#FFE15A;" d="M349.673,388.09c0.238-1.187,0.463-2.013,1.55-2.093c0,0,0.578-1.436-1.024-1.636   c0,0-1.022,0.82-1.217,1.832C348.787,387.204,349.673,388.09,349.673,388.09z"/>
	<path style="fill:#FFE15A;" d="M348.062,386.25c0.493-1.106,0.984-1.548,2.062-1.388c0,0,0.927-1.302-0.351-2.004   c0,0-1.556,0.444-1.969,1.389C347.393,385.192,348.062,386.25,348.062,386.25z"/>
	<path style="fill:#FFE15A;" d="M329.042,379.473c-0.227-0.482-0.265-1.685,0.456-2.293c0,0-0.022-1.709-1.387-1.345   c0,0-0.772,1.227-0.512,2.223C327.861,379.056,329.042,379.473,329.042,379.473z"/>
	<path style="fill:#FFE15A;" d="M326.644,378.084c0.236-1.187,0.621-1.791,1.6-1.716c0,0,0.557-1.681-0.872-1.939   c0,0-1.228,0.745-1.421,1.758C325.757,377.2,326.644,378.084,326.644,378.084z"/>
	<path style="fill:#FFE15A;" d="M325.267,376.644c0.445-1.126,0.813-1.899,1.898-1.785c0,0,0.824-1.311-0.717-1.792   c0,0-1.151,0.626-1.523,1.587C324.553,375.616,325.267,376.644,325.267,376.644z"/>
	<path style="fill:#FFE15A;" d="M324.008,374.545c0.682-1.001,1.244-1.349,2.276-1c0,0,1.143-1.118,0.011-2.035   c0,0-1.61,0.161-2.184,1.017C323.538,373.386,324.008,374.545,324.008,374.545z"/>
</g>
<path style="fill:#FFE6D7;" d="M295.743,312.855c-0.217,1.085,0.334,2.271,2.94,3.406c2.605,1.135,2.538,0.668,4.275,2.872  c1.737,2.205,1.937,2.271,4.075,2.671c2.137,0.401,3.139,7.013,0.601,6.012c-2.538-1.002-2.872-3.073-5.677-2.404  s-4.275,1.603-6.479-0.868c0,0-2.137,2.872,1.87,4.075c4.008,1.203,6.195,1.295,8.173,2.217c1.98,0.922,9,3.177,9.461-3.386  c0.134-1.903-1.269-2.638-2.071-4.041c-0.801-1.402-1.603-2.338-3.54-3.874c-1.938-1.536-0.735-2.805-3.874-3.273  c-3.139-0.468-5.745-0.401-6.679-2.671C297.88,311.319,296.01,311.519,295.743,312.855z"/>
<g>
	<path style="fill:#5AA587;" d="M348.345,344.7c0,0,0.602-2.393-2.189-3.407c0.655,0.199,1.258,0.377,1.946,0.589   c0.587,0.18,1.053,0.349,1.602,0.526c0.214,0.289,0.502,0.442,0.647,0.847c0.849,2.378-1.251,5.463-3.756,5.127   c-2.136-0.288-2.742-2.168-2.044-3.287C345.283,343.923,346.892,343.648,348.345,344.7z"/>
	<path style="fill:#5AA587;" d="M347.48,370.108c3.029,0.678,4.392-0.492,4.392-0.492s-1.113-0.193-1.208-1.548   c-0.055-0.781,0.725-1.794,2.052-1.718c1.555,0.089,2.61,2.154,1.864,3.523c-1.641,3.011-6.302,2.3-8.356,0.165   c-0.108-0.22-0.22-0.438-0.317-0.657C346.357,369.666,346.932,369.986,347.48,370.108z"/>
	<path style="fill:#5AA587;" d="M344.42,365.046c-0.077-0.343-0.186-0.689-0.252-1.016c3.56,1.44,4.598-0.373,4.598-0.373   s-1.113-0.193-1.208-1.548c-0.055-0.781,0.725-1.794,2.052-1.717c1.555,0.089,2.61,2.154,1.864,3.523   C349.735,367.106,346.634,366.217,344.42,365.046z"/>
	<path style="fill:#5AA587;" d="M336.412,366.74c2.069,1.854,3.65,1.752,3.65,1.752s-0.826-0.769-0.167-1.956   c0.381-0.685,1.587-1.107,2.657-0.319c1.255,0.924,1.011,3.23-0.361,3.97c-3.378,1.821-5.57-0.995-6.742-3.262   C335.767,366.881,336.09,366.806,336.412,366.74z"/>
</g>
<g>
	<path style="fill:#FFE15A;" d="M283.087,364.947c0.149-0.738,0.922-2.143,1.874-2.24c0,0,1.122-1.97-0.153-2.686   c0,0-1.402,0.759-1.869,2.114C282.471,363.491,283.087,364.947,283.087,364.947z"/>
	<path style="fill:#FFE15A;" d="M282.198,361.371c0.97-1.16,1.664-1.528,2.356-0.63c0,0,1.543-1.457,0.632-2.937   c0,0-1.427-0.169-2.249,0.826C282.115,359.626,282.198,361.371,282.198,361.371z"/>
	<path style="fill:#FFE15A;" d="M282.115,358.584c1.088-0.916,1.881-1.493,2.626-0.462c0,0,1.497-0.812,0.651-2.642   c0,0-1.289-0.242-2.211,0.548C282.26,356.817,282.115,358.584,282.115,358.584z"/>
	<path style="fill:#FFE15A;" d="M282.56,355.145c1.183-0.576,1.841-0.509,2.39,0.747c0,0,1.611-0.327,1.364-2.314   c0,0-1.326-1.152-2.332-0.651C282.977,353.43,282.56,355.145,282.56,355.145z"/>
</g>
<circle style="fill:#F5F5F5;" cx="308.37" cy="316.592" r="1.87"/>
<circle style="fill:#41479B;" cx="308.37" cy="316.592" r="0.678"/>
<circle style="fill:#F5F5F5;" cx="304.51" cy="309.762" r="1.519"/>
<circle style="fill:#41479B;" cx="304.51" cy="309.762" r="0.551"/>
<path style="fill:#FFF5E6;" d="M358.465,346.487c1.73,1.331,7.715-1.603,11.923-0.201c5.439,1.813,5.394,5.309,5.394,5.309  s-3.39-4.206-9.034-2.136c-3.123,1.145-4.939,1.205-4.939,1.205L358.465,346.487z"/>
<g>
</g>
<g>
</g>
<g>
</g>
<g>
</g>
<g>
</g>
<g>
</g>
<g>
</g>
<g>
</g>
<g>
</g>
<g>
</g>
<g>
</g>
<g>
</g>
<g>
</g>
<g>
</g>
<g>
</g>
</svg>
