<?xml version="1.0" encoding="iso-8859-1"?>
<!-- Generator: Adobe Illustrator 19.0.0, SVG Export Plug-In . SVG Version: 6.00 Build 0)  -->
<svg xmlns="http://www.w3.org/2000/svg" xmlns:xlink="http://www.w3.org/1999/xlink" version="1.1" id="Layer_1" x="0px" y="0px" viewBox="0 0 512.001 512.001" style="enable-background:new 0 0 512.001 512.001;" xml:space="preserve">
<path style="fill:#FF4B55;" d="M503.172,423.725H8.828c-4.875,0-8.828-3.953-8.828-8.828V97.104c0-4.875,3.953-8.828,8.828-8.828  h494.345c4.875,0,8.828,3.953,8.828,8.828v317.793C512,419.773,508.047,423.725,503.172,423.725z"/>
<path style="fill:#464655;" d="M3.256,90.411C1.311,92.03,0,94.376,0,97.104v317.793c0,4.875,3.953,8.828,8.828,8.828h494.345  c2.146,0,4.041-0.86,5.571-2.134L3.256,90.411z"/>
<g>
	<path style="fill:#F5F5F5;" d="M51.499,250.288l-5.052,15.148l-15.968,0.124c-1.532,0.012-2.166,1.966-0.935,2.876l12.845,9.485   l-4.817,15.224c-0.462,1.46,1.201,2.668,2.446,1.778l12.991-9.286L66,294.923c1.246,0.891,2.908-0.318,2.446-1.778l-4.817-15.224   l12.845-9.485c1.231-0.909,0.597-2.863-0.935-2.876l-15.968-0.124l-5.052-15.148C54.038,248.836,51.983,248.836,51.499,250.288z"/>
	<path style="fill:#F5F5F5;" d="M160.282,250.288l-5.052,15.148l-15.968,0.124c-1.532,0.012-2.166,1.966-0.935,2.876l12.845,9.485   l-4.817,15.224c-0.462,1.46,1.201,2.668,2.446,1.778l12.991-9.286l12.991,9.286c1.246,0.891,2.908-0.318,2.446-1.778l-4.817-15.224   l12.845-9.485c1.231-0.909,0.597-2.863-0.935-2.876l-15.968-0.124l-5.052-15.148C162.822,248.836,160.767,248.836,160.282,250.288z   "/>
	<path style="fill:#F5F5F5;" d="M105.89,184.352l-5.052,15.148l-15.968,0.124c-1.532,0.012-2.166,1.966-0.935,2.876l12.845,9.485   l-4.817,15.224c-0.462,1.46,1.201,2.668,2.446,1.778l12.991-9.286l12.991,9.286c1.246,0.89,2.908-0.318,2.446-1.778l-4.817-15.224   l12.845-9.485c1.231-0.909,0.597-2.863-0.935-2.876l-15.968-0.124l-5.052-15.148C108.429,182.9,106.375,182.9,105.89,184.352z"/>
	<path style="fill:#F5F5F5;" d="M105.89,346.5l-5.052,15.148l-15.968,0.124c-1.532,0.012-2.166,1.966-0.935,2.876l12.845,9.485   l-4.817,15.224c-0.462,1.46,1.201,2.668,2.446,1.778l12.991-9.286l12.991,9.286c1.246,0.891,2.908-0.318,2.446-1.778l-4.817-15.224   l12.845-9.485c1.231-0.909,0.597-2.863-0.935-2.876l-15.968-0.124L108.91,346.5C108.429,345.048,106.375,345.048,105.89,346.5z"/>
	<path style="fill:#F5F5F5;" d="M131.229,306.992l-2.687,8.055l-8.491,0.066c-0.814,0.007-1.152,1.045-0.497,1.529l6.83,5.044   l-2.561,8.096c-0.246,0.777,0.638,1.419,1.301,0.945l6.909-4.938l6.909,4.938c0.662,0.473,1.546-0.169,1.301-0.945l-2.561-8.096   l6.83-5.044c0.655-0.483,0.318-1.523-0.497-1.529l-8.491-0.066l-2.687-8.055C132.579,306.22,131.486,306.22,131.229,306.992z"/>
</g>
<path style="fill:#FFE15A;" d="M437.565,248.346c-1.292-10.004-5.566-19.89-8.671-25.995c1.533,0.767,3.917,2.148,3.917,2.148  l-2.104-7.628c5.26,2.104,9.206,6.182,9.206,6.182c-2.631-13.152-6.708-19.332-6.708-19.332l3.288,1.184  c-6.182-15.256-15.388-19.596-15.388-19.596l5.26-1.315c-7.759-9.732-18.675-13.02-18.675-13.02l7.102-3.42  c-18.807-10.653-36.956,0.526-36.956,0.526s6.313-6.575,8.68-9.337c2.367-2.762-3.288-3.682-3.288-3.682s5.524-3.814,5.26-6.05  c-0.264-2.237-5.26-1.052-5.26-1.052s4.34-4.471,4.34-6.97c0-2.499-4.471-0.92-4.471-0.92s1.447-3.025,1.842-5.393  c0.395-2.367-3.946-0.395-3.946-0.395s4.866-8.68,4.604-10.521c-0.263-1.842-12.757,5.918-21.7,14.467  c-8.943,8.55-7.87,22.286-7.078,25.555s1.288,10.893-2.674,13.566c-3.961,2.674-11.029-3.874-14.536-7.907  c-3.507-4.033-7.891-2.631-12.45-1.052c-4.559,1.578-13.152-0.526-15.782-0.877c-2.631-0.351,2.98,2.631,7.715,4.384  s6.839,5.962,13.503,8.417c5.836,2.151,10.51,7.61,5.918,10.126c-3.578,1.961-3.551-1.184-19.332-5.26  c-15.782-4.076-34.72,36.035-34.72,36.035c10.138-1.254,15.32-7.327,15.32-7.327l-2.739,7.857  c7.492-1.419,11.156-5.975,11.156-5.975l-1.981,7.923c5.743-1.783,9.705-7.923,9.705-7.923l-1.684,7.823  c5.644-2.674,8.616-7.823,8.616-7.823c0.594,2.872,1.062,8.733,1.062,8.733c8.742-4.673,10.784-11.31,10.784-11.31  c9.995,30.249,24.462,35.246,24.462,35.246l0.789-7.891c4.471,6.313,10.784,9.469,10.784,9.469l-1.052-6.839  c15.519,18.938,33.405,23.673,33.405,23.673l-4.58-10.482l5.632,1.143c-6.05-5.129-8.286-14.072-8.286-14.072l4.735,0.789  c-7.628-6.97-11.442-14.993-11.442-14.993l4.604,0.789c-1.447-2.236-2.631-10.126-2.631-10.126  c8.417,2.631,12.757,5.918,12.757,5.918l0.499-2.865c7.221,5.203,19.079,14.889,27.297,27.066c0.011,3.972-0.631,7.983-2.281,12.009  c-7.538,18.386-27.356,17.185-36.124,13.326c0,0,27.18,21.218,42.086-8.943c0.945-1.91,1.536-3.956,1.959-6.054  c1.859,4.434,3.144,9.058,3.39,13.857c1.578,30.775-30.511,27.882-30.511,27.882s35.509,14.204,37.088-26.829  C447.628,266.141,443.765,257.019,437.565,248.346z M405.301,217.627l0.155-0.888c5.393,1.578,11.048,5.393,11.048,5.393  l1.249-3.748c5.335,6.411,9.596,13.31,11.968,20.452C422.519,231.098,413.888,223.912,405.301,217.627z"/>
<g>
</g>
<g>
</g>
<g>
</g>
<g>
</g>
<g>
</g>
<g>
</g>
<g>
</g>
<g>
</g>
<g>
</g>
<g>
</g>
<g>
</g>
<g>
</g>
<g>
</g>
<g>
</g>
<g>
</g>
</svg>
