<?xml version="1.0" encoding="iso-8859-1"?>
<!-- Generator: Adobe Illustrator 19.0.0, SVG Export Plug-In . SVG Version: 6.00 Build 0)  -->
<svg xmlns="http://www.w3.org/2000/svg" xmlns:xlink="http://www.w3.org/1999/xlink" version="1.1" id="Layer_1" x="0px" y="0px" viewBox="0 0 512.001 512.001" style="enable-background:new 0 0 512.001 512.001;" xml:space="preserve">
<path style="fill:#FF4B55;" d="M512,118.772H0V97.104c0-4.875,3.953-8.828,8.828-8.828h494.345c4.875,0,8.828,3.953,8.828,8.828  L512,118.772L512,118.772z"/>
<rect y="118.781" style="fill:#F5F5F5;" width="512" height="30.495"/>
<rect y="149.261" style="fill:#FF4B55;" width="512" height="30.495"/>
<rect y="179.761" style="fill:#F5F5F5;" width="512" height="30.495"/>
<path style="fill:#FF4B55;" d="M512,240.754H8.828c-4.875,0-8.828-3.953-8.828-8.828v-21.667h512V240.754z"/>
<polygon style="fill:#F5F5F5;" points="512,271.248 0,271.248 0,229.518 8.826,229.518 8.828,240.754 512,240.754 "/>
<rect y="271.251" style="fill:#FF4B55;" width="512" height="30.495"/>
<rect y="301.741" style="fill:#F5F5F5;" width="512" height="30.495"/>
<rect y="332.241" style="fill:#FF4B55;" width="512" height="30.495"/>
<rect y="362.741" style="fill:#F5F5F5;" width="512" height="30.495"/>
<path style="fill:#FF4B55;" d="M503.172,423.725H8.828c-4.875,0-8.828-3.953-8.828-8.828V393.23h512v21.667  C512,419.773,508.047,423.725,503.172,423.725z"/>
<path style="fill:#41479B;" d="M141.241,240.754H8.828c-4.875,0-8.828-3.953-8.828-8.828V97.104c0-4.875,3.953-8.828,8.828-8.828  h132.414c4.875,0,8.828,3.953,8.828,8.828v134.822C150.069,236.801,146.116,240.754,141.241,240.754z"/>
<path style="fill:#F5F5F5;" d="M72.512,127.738l-8.428,25.27l-26.638,0.206c-2.554,0.02-3.614,3.279-1.559,4.797l21.429,15.825  l-8.035,25.398c-0.77,2.435,2.003,4.45,4.081,2.965l21.674-15.49l21.672,15.49c2.078,1.485,4.851-0.53,4.081-2.965l-8.035-25.398  l21.429-15.825c2.055-1.517,0.995-4.778-1.559-4.797l-26.638-0.206l-8.428-25.27C76.748,125.314,73.321,125.314,72.512,127.738z"/>
<g>
</g>
<g>
</g>
<g>
</g>
<g>
</g>
<g>
</g>
<g>
</g>
<g>
</g>
<g>
</g>
<g>
</g>
<g>
</g>
<g>
</g>
<g>
</g>
<g>
</g>
<g>
</g>
<g>
</g>
</svg>
