<?xml version="1.0" encoding="iso-8859-1"?>
<!-- Generator: Adobe Illustrator 19.0.0, SVG Export Plug-In . SVG Version: 6.00 Build 0)  -->
<svg xmlns="http://www.w3.org/2000/svg" xmlns:xlink="http://www.w3.org/1999/xlink" version="1.1" id="Layer_1" x="0px" y="0px" viewBox="0 0 512.001 512.001" style="enable-background:new 0 0 512.001 512.001;" xml:space="preserve">
<path style="fill:#F5F5F5;" d="M503.172,423.724H8.828c-4.875,0-8.828-3.953-8.828-8.828V97.104c0-4.875,3.953-8.828,8.828-8.828  h494.345c4.875,0,8.828,3.953,8.828,8.828v317.792C512,419.772,508.047,423.724,503.172,423.724z"/>
<path style="fill:#FF4B55;" d="M482.573,141.43c-1.711-0.604-3.616,0.285-4.224,2.017c-2.185,6.168-4.552,11.697-7.004,16.92  c-6.239,6.173-14.008,10.777-21.507,12.14c-12.138,2.207-18.023,8.092-18.023,8.092c-21.333-6.253-25.379,5.517-30.162,10.667  c-2.678,2.883-6.15,3.884-9.279,3.916c-11.425-6.231-19.121-13.827-19.264-13.969c-1.284-1.302-3.388-1.311-4.681-0.025  c-1.302,1.284-1.311,3.38-0.025,4.681c0.969,0.981,19.576,19.424,43.448,23.258c-6.93,2.04-12.036,3.471-12.036,3.471  s-7.724,0-30.896,18.759s-39.357,20.598-49.655,20.231c-10.3-0.367-18.024-4.046-29.058,4.414  c-11.034,8.46-25.379,6.989-34.207,6.989s-23.172,1.471-34.207-6.989s-18.759-4.781-29.058-4.414  c-10.298,0.367-26.483-1.471-49.655-20.231s-30.896-18.759-30.896-18.759s-5.107-1.431-12.036-3.471  c23.871-3.834,42.478-22.277,43.448-23.258c1.284-1.302,1.276-3.396-0.025-4.681c-1.293-1.284-3.396-1.276-4.681,0.025  c-0.143,0.14-7.839,7.736-19.264,13.969c-3.129-0.032-6.601-1.033-9.279-3.916c-4.782-5.15-8.828-16.92-30.162-10.667  c0,0-5.885-5.885-18.023-8.092c-7.498-1.363-15.268-5.967-21.507-12.14c-2.451-5.224-4.818-10.752-7.004-16.92  c-0.608-1.732-2.513-2.621-4.224-2.017c-1.725,0.612-2.63,2.5-2.017,4.224c0.066,0.186,0.142,0.345,0.209,0.532  c0.322,1.693,7.038,35.57,31.6,59.058c17.299,16.541,34.076,41.781,41.196,55.908c23.172,45.977,67.31,107.77,155.586,107.77  s132.413-61.793,155.586-107.77c7.121-14.127,23.897-39.368,41.196-55.908c24.562-23.487,31.277-57.365,31.6-59.058  c0.066-0.186,0.142-0.345,0.209-0.532C485.202,143.931,484.297,142.043,482.573,141.43z"/>
<g>
</g>
<g>
</g>
<g>
</g>
<g>
</g>
<g>
</g>
<g>
</g>
<g>
</g>
<g>
</g>
<g>
</g>
<g>
</g>
<g>
</g>
<g>
</g>
<g>
</g>
<g>
</g>
<g>
</g>
</svg>
