<?xml version="1.0" encoding="iso-8859-1"?>
<!-- Generator: Adobe Illustrator 19.0.0, SVG Export Plug-In . SVG Version: 6.00 Build 0)  -->
<svg xmlns="http://www.w3.org/2000/svg" xmlns:xlink="http://www.w3.org/1999/xlink" version="1.1" id="Layer_1" x="0px" y="0px" viewBox="0 0 512.001 512.001" style="enable-background:new 0 0 512.001 512.001;" xml:space="preserve">
<path style="fill:#FFE15A;" d="M503.172,423.724H8.828c-4.875,0-8.828-3.953-8.828-8.828V97.104c0-4.875,3.953-8.828,8.828-8.828  h494.345c4.875,0,8.828,3.953,8.828,8.828v317.792C512,419.772,508.047,423.724,503.172,423.724z"/>
<path style="fill:#41479B;" d="M247.172,256H8.828C3.953,256,0,252.047,0,247.172V97.104c0-4.875,3.953-8.828,8.828-8.828h238.344  c4.875,0,8.828,3.953,8.828,8.828v150.069C255.999,252.049,252.048,256,247.172,256z"/>
<path style="fill:#F5F5F5;" d="M247.172,88.276h-15.333l-81.77,53.573V88.276h-44.138v53.573l-81.77-53.573H8.828  C3.953,88.276,0,92.229,0,97.104v7.002l70.155,45.963H0v44.138h70.155L0,240.171v7.001C0,252.047,3.953,256,8.828,256h15.333  l81.77-53.573V256h44.138v-53.573L231.838,256h15.333c4.875,0,8.828-3.953,8.828-8.828v-7.002l-70.154-45.963h70.154v-44.138  h-70.155l70.155-45.963v-7.002C255.999,92.229,252.048,88.276,247.172,88.276z"/>
<g>
	<polygon style="fill:#FF4B55;" points="255.999,158.897 141.241,158.897 141.241,88.276 114.758,88.276 114.758,158.897 0,158.897    0,185.379 114.758,185.379 114.758,256 141.241,256 141.241,185.379 255.999,185.379  "/>
	<path style="fill:#FF4B55;" d="M97.103,150.069L4.207,89.768C1.735,91.333,0,93.961,0,97.104v0.458l80.889,52.507H97.103z"/>
	<path style="fill:#FF4B55;" d="M166.283,150.069l88.374-57.366c-1.536-2.599-4.246-4.427-7.485-4.427h-1.909l-95.194,61.793   H166.283z"/>
	<path style="fill:#FF4B55;" d="M89.474,194.207L1.269,251.463C2.79,254.125,5.542,256,8.828,256h1.665l95.195-61.793H89.474z"/>
	<path style="fill:#FF4B55;" d="M255.859,247.867l-82.666-53.659H156.98l93.873,60.934   C253.666,253.837,255.594,251.102,255.859,247.867z"/>
</g>
<circle style="fill:#41479B;" cx="128" cy="172.14" r="26.483"/>
<g>
	<path style="fill:#FFE15A;" d="M129.787,150.668l4.425,13.266l13.984,0.108c1.811,0.014,2.561,2.325,1.105,3.4l-11.25,8.307   l4.218,13.333c0.546,1.726-1.419,3.154-2.892,2.101L128,183.052l-11.377,8.131c-1.473,1.053-3.438-0.375-2.892-2.101l4.218-13.333   l-11.25-8.307c-1.457-1.076-0.706-3.386,1.105-3.4l13.984-0.108l4.425-13.266C126.785,148.95,129.215,148.95,129.787,150.668z"/>
	<path style="fill:#FFE15A;" d="M56.501,161.474l2.379,7.133l7.519,0.058c0.973,0.008,1.377,1.25,0.594,1.828l-6.048,4.467   l2.268,7.168c0.294,0.928-0.764,1.696-1.555,1.13l-6.116-4.372l-6.116,4.372c-0.792,0.566-1.848-0.202-1.555-1.13l2.268-7.168   l-6.048-4.467c-0.783-0.578-0.38-1.821,0.594-1.828l7.519-0.058l2.379-7.133C54.888,160.551,56.193,160.551,56.501,161.474z"/>
	<path style="fill:#FFE15A;" d="M202.085,161.474l2.379,7.133l7.519,0.058c0.973,0.008,1.377,1.25,0.594,1.828l-6.048,4.467   l2.268,7.168c0.294,0.928-0.764,1.696-1.555,1.13l-6.116-4.372l-6.116,4.372c-0.792,0.566-1.848-0.202-1.555-1.13l2.268-7.168   l-6.048-4.467c-0.783-0.578-0.38-1.821,0.594-1.828l7.519-0.058l2.379-7.133C200.472,160.551,201.777,160.551,202.085,161.474z"/>
	<path style="fill:#FFE15A;" d="M129.074,107.894l2.379,7.133l7.519,0.058c0.973,0.008,1.377,1.25,0.594,1.828l-6.049,4.466   l2.268,7.168c0.294,0.928-0.764,1.696-1.555,1.13l-6.116-4.372l-6.116,4.372c-0.792,0.566-1.848-0.202-1.555-1.13l2.268-7.168   l-6.048-4.467c-0.783-0.578-0.38-1.821,0.594-1.828l7.519-0.058l2.379-7.133C127.46,106.971,128.767,106.971,129.074,107.894z"/>
	<path style="fill:#FFE15A;" d="M129.074,216.316l2.379,7.133l7.519,0.058c0.973,0.008,1.377,1.25,0.594,1.828l-6.049,4.466   l2.268,7.168c0.294,0.928-0.764,1.696-1.555,1.13l-6.116-4.372l-6.116,4.372c-0.792,0.566-1.848-0.202-1.555-1.13l2.268-7.168   l-6.048-4.467c-0.783-0.578-0.38-1.821,0.594-1.828l7.519-0.058l2.379-7.133C127.46,215.393,128.767,215.393,129.074,216.316z"/>
</g>
<g>
</g>
<g>
</g>
<g>
</g>
<g>
</g>
<g>
</g>
<g>
</g>
<g>
</g>
<g>
</g>
<g>
</g>
<g>
</g>
<g>
</g>
<g>
</g>
<g>
</g>
<g>
</g>
<g>
</g>
</svg>
