<?xml version="1.0" encoding="iso-8859-1"?>
<!-- Generator: Adobe Illustrator 19.0.0, SVG Export Plug-In . SVG Version: 6.00 Build 0)  -->
<svg xmlns="http://www.w3.org/2000/svg" xmlns:xlink="http://www.w3.org/1999/xlink" version="1.1" id="Layer_1" x="0px" y="0px" viewBox="0 0 512.001 512.001" style="enable-background:new 0 0 512.001 512.001;" xml:space="preserve">
<path style="fill:#82AFFF;" d="M512,200.093H0V97.104c0-4.875,3.953-8.828,8.828-8.828h494.345c4.875,0,8.828,3.953,8.828,8.828  L512,200.093L512,200.093z"/>
<path style="fill:#73AF00;" d="M503.172,423.725H8.828c-4.875,0-8.828-3.953-8.828-8.828V311.909h512v102.988  C512,419.773,508.047,423.725,503.172,423.725z"/>
<rect y="200.091" style="fill:#F5F5F5;" width="512" height="111.81"/>
<g>
	<rect y="190.161" style="fill:#FF4B55;" width="512" height="13.942"/>
	<rect y="307.891" style="fill:#FF4B55;" width="512" height="13.942"/>
</g>
<g>
	<path style="fill:#F5F5F5;" d="M113.491,172.072c-18.072,0-32.721-14.614-32.721-32.621c0-18.073,14.648-32.753,32.721-32.753   c0.07,0,0.138,0,0.206,0.001c1.064,0.014,1.437-1.399,0.499-1.902c-5.565-2.983-11.916-4.671-18.668-4.622   c-21.624,0.154-39.189,18.073-38.959,39.697c0.226,21.401,17.722,38.724,39.242,38.724c6.659,0,12.921-1.685,18.417-4.627   c0.935-0.501,0.557-1.914-0.503-1.899C113.645,172.072,113.568,172.072,113.491,172.072z"/>
	<path style="fill:#F5F5F5;" d="M139.113,163.051l-1.461,4.382l-4.619,0.035c-0.598,0.004-0.846,0.768-0.365,1.123l3.716,2.744   l-1.394,4.404c-0.18,0.57,0.469,1.042,0.956,0.694l3.758-2.686l3.758,2.686c0.487,0.348,1.135-0.124,0.956-0.694l-1.394-4.404   l3.715-2.744c0.481-0.355,0.233-1.119-0.365-1.123l-4.619-0.035l-1.461-4.382C140.105,162.484,139.303,162.484,139.113,163.051z"/>
	<path style="fill:#F5F5F5;" d="M171.656,163.051l-1.461,4.382l-4.619,0.035c-0.598,0.004-0.846,0.768-0.365,1.123l3.715,2.744   l-1.394,4.404c-0.18,0.57,0.469,1.042,0.956,0.694l3.758-2.686l3.758,2.686c0.487,0.348,1.135-0.124,0.956-0.694l-1.394-4.404   l3.715-2.744c0.481-0.355,0.233-1.119-0.365-1.123l-4.619-0.035l-1.461-4.382C172.647,162.484,171.844,162.484,171.656,163.051z"/>
	<path style="fill:#F5F5F5;" d="M204.198,163.051l-1.461,4.382l-4.619,0.035c-0.598,0.004-0.846,0.768-0.365,1.123l3.716,2.744   l-1.394,4.404c-0.18,0.57,0.469,1.042,0.956,0.694l3.758-2.686l3.758,2.686c0.487,0.348,1.135-0.124,0.956-0.694l-1.394-4.404   l3.715-2.744c0.481-0.355,0.233-1.119-0.365-1.123l-4.619-0.035l-1.461-4.382C205.19,162.484,204.387,162.484,204.198,163.051z"/>
	<path style="fill:#F5F5F5;" d="M236.74,163.051l-1.461,4.382l-4.619,0.035c-0.598,0.004-0.846,0.768-0.365,1.123l3.715,2.744   l-1.394,4.404c-0.18,0.57,0.469,1.042,0.956,0.694l3.758-2.686l3.758,2.686c0.487,0.348,1.135-0.124,0.956-0.694l-1.394-4.404   l3.715-2.744c0.481-0.355,0.233-1.119-0.365-1.123l-4.619-0.035l-1.461-4.382C237.732,162.484,236.929,162.484,236.74,163.051z"/>
	<path style="fill:#F5F5F5;" d="M269.283,163.051l-1.461,4.382l-4.619,0.035c-0.598,0.004-0.846,0.768-0.365,1.123l3.716,2.744   l-1.394,4.404c-0.18,0.57,0.469,1.042,0.956,0.694l3.758-2.686l3.758,2.686c0.487,0.348,1.135-0.124,0.956-0.694l-1.394-4.404   l3.716-2.744c0.481-0.355,0.233-1.119-0.365-1.123l-4.619-0.035l-1.461-4.382C270.274,162.484,269.472,162.484,269.283,163.051z"/>
	<path style="fill:#F5F5F5;" d="M171.656,132.679l-1.461,4.382l-4.619,0.035c-0.598,0.004-0.846,0.768-0.365,1.123l3.715,2.744   l-1.394,4.404c-0.18,0.57,0.469,1.042,0.956,0.694l3.758-2.686l3.758,2.686c0.487,0.348,1.135-0.124,0.956-0.694l-1.394-4.404   l3.715-2.744c0.481-0.355,0.233-1.119-0.365-1.123l-4.619-0.035l-1.461-4.382C172.647,132.11,171.844,132.11,171.656,132.679z"/>
	<path style="fill:#F5F5F5;" d="M204.198,132.679l-1.461,4.382l-4.619,0.035c-0.598,0.004-0.846,0.768-0.365,1.123l3.716,2.744   l-1.394,4.404c-0.18,0.57,0.469,1.042,0.956,0.694l3.758-2.686l3.758,2.686c0.487,0.348,1.135-0.124,0.956-0.694l-1.394-4.404   l3.715-2.744c0.481-0.355,0.233-1.119-0.365-1.123l-4.619-0.035l-1.461-4.382C205.19,132.11,204.387,132.11,204.198,132.679z"/>
	<path style="fill:#F5F5F5;" d="M236.74,132.679l-1.461,4.382l-4.619,0.035c-0.598,0.004-0.846,0.768-0.365,1.123l3.715,2.744   l-1.394,4.404c-0.18,0.57,0.469,1.042,0.956,0.694l3.758-2.686l3.758,2.686c0.487,0.348,1.135-0.124,0.956-0.694l-1.394-4.404   l3.715-2.744c0.481-0.355,0.233-1.119-0.365-1.123l-4.619-0.035l-1.461-4.382C237.732,132.11,236.929,132.11,236.74,132.679z"/>
	<path style="fill:#F5F5F5;" d="M269.283,132.679l-1.461,4.382l-4.619,0.035c-0.598,0.004-0.846,0.768-0.365,1.123l3.716,2.744   l-1.394,4.404c-0.18,0.57,0.469,1.042,0.956,0.694l3.758-2.686l3.758,2.686c0.487,0.348,1.135-0.124,0.956-0.694l-1.394-4.404   l3.716-2.744c0.481-0.355,0.233-1.119-0.365-1.123l-4.619-0.035l-1.461-4.382C270.274,132.11,269.472,132.11,269.283,132.679z"/>
	<path style="fill:#F5F5F5;" d="M204.198,163.051l-1.461,4.382l-4.619,0.035c-0.598,0.004-0.846,0.768-0.365,1.123l3.716,2.744   l-1.394,4.404c-0.18,0.57,0.469,1.042,0.956,0.694l3.758-2.686l3.758,2.686c0.487,0.348,1.135-0.124,0.956-0.694l-1.394-4.404   l3.715-2.744c0.481-0.355,0.233-1.119-0.365-1.123l-4.619-0.035l-1.461-4.382C205.19,162.484,204.387,162.484,204.198,163.051z"/>
	<path style="fill:#F5F5F5;" d="M204.198,102.305l-1.461,4.382l-4.619,0.035c-0.598,0.004-0.846,0.768-0.365,1.123l3.716,2.744   l-1.394,4.404c-0.18,0.57,0.469,1.042,0.956,0.694l3.758-2.686l3.758,2.686c0.487,0.348,1.135-0.124,0.956-0.694l-1.394-4.404   l3.715-2.744c0.481-0.355,0.233-1.119-0.365-1.123l-4.619-0.035l-1.461-4.382C205.19,101.738,204.387,101.738,204.198,102.305z"/>
	<path style="fill:#F5F5F5;" d="M236.74,163.051l-1.461,4.382l-4.619,0.035c-0.598,0.004-0.846,0.768-0.365,1.123l3.715,2.744   l-1.394,4.404c-0.18,0.57,0.469,1.042,0.956,0.694l3.758-2.686l3.758,2.686c0.487,0.348,1.135-0.124,0.956-0.694l-1.394-4.404   l3.715-2.744c0.481-0.355,0.233-1.119-0.365-1.123l-4.619-0.035l-1.461-4.382C237.732,162.484,236.929,162.484,236.74,163.051z"/>
	<path style="fill:#F5F5F5;" d="M269.283,163.051l-1.461,4.382l-4.619,0.035c-0.598,0.004-0.846,0.768-0.365,1.123l3.716,2.744   l-1.394,4.404c-0.18,0.57,0.469,1.042,0.956,0.694l3.758-2.686l3.758,2.686c0.487,0.348,1.135-0.124,0.956-0.694l-1.394-4.404   l3.716-2.744c0.481-0.355,0.233-1.119-0.365-1.123l-4.619-0.035l-1.461-4.382C270.274,162.484,269.472,162.484,269.283,163.051z"/>
	<path style="fill:#F5F5F5;" d="M236.74,102.305l-1.461,4.382l-4.619,0.035c-0.598,0.004-0.846,0.768-0.365,1.123l3.715,2.744   l-1.394,4.404c-0.18,0.57,0.469,1.042,0.956,0.694l3.758-2.686l3.758,2.686c0.487,0.348,1.135-0.124,0.956-0.694l-1.394-4.404   l3.715-2.744c0.481-0.355,0.233-1.119-0.365-1.123l-4.619-0.035l-1.461-4.382C237.732,101.738,236.929,101.738,236.74,102.305z"/>
	<path style="fill:#F5F5F5;" d="M269.283,102.305l-1.461,4.382l-4.619,0.035c-0.598,0.004-0.846,0.768-0.365,1.123l3.716,2.744   l-1.394,4.404c-0.18,0.57,0.469,1.042,0.956,0.694l3.758-2.686l3.758,2.686c0.487,0.348,1.135-0.124,0.956-0.694l-1.394-4.404   l3.716-2.744c0.481-0.355,0.233-1.119-0.365-1.123l-4.619-0.035l-1.461-4.382C270.274,101.738,269.472,101.738,269.283,102.305z"/>
</g>
<g>
</g>
<g>
</g>
<g>
</g>
<g>
</g>
<g>
</g>
<g>
</g>
<g>
</g>
<g>
</g>
<g>
</g>
<g>
</g>
<g>
</g>
<g>
</g>
<g>
</g>
<g>
</g>
<g>
</g>
</svg>
