<?xml version="1.0" encoding="iso-8859-1"?>
<!-- Generator: Adobe Illustrator 19.0.0, SVG Export Plug-In . SVG Version: 6.00 Build 0)  -->
<svg xmlns="http://www.w3.org/2000/svg" xmlns:xlink="http://www.w3.org/1999/xlink" version="1.1" id="Layer_1" x="0px" y="0px" viewBox="0 0 512 512" style="enable-background:new 0 0 512 512;" xml:space="preserve">
<path style="fill:#73AF00;" d="M170.667,423.721H8.828c-4.875,0-8.828-3.953-8.828-8.828V97.101c0-4.875,3.953-8.828,8.828-8.828  h161.839V423.721z"/>
<rect x="170.67" y="88.277" style="fill:#F5F5F5;" width="170.67" height="335.45"/>
<g>
	<path style="fill:#73AF00;" d="M503.172,423.721H341.333V88.273h161.839c4.875,0,8.828,3.953,8.828,8.828v317.792   C512,419.769,508.047,423.721,503.172,423.721z"/>
	<path style="fill:#73AF00;" d="M314.959,342.595l-27.396-159.812c-1.046-6.102-3.217-11.957-6.402-17.266L256,123.583   l-25.161,41.935c-3.186,5.309-5.356,11.164-6.402,17.266L197.04,342.597c-0.523,3.052,1.827,5.841,4.925,5.841h44.041v39.973   h19.987v-39.974h44.041C313.131,348.437,315.483,345.649,314.959,342.595z"/>
</g>
<g>
</g>
<g>
</g>
<g>
</g>
<g>
</g>
<g>
</g>
<g>
</g>
<g>
</g>
<g>
</g>
<g>
</g>
<g>
</g>
<g>
</g>
<g>
</g>
<g>
</g>
<g>
</g>
<g>
</g>
</svg>
