<?xml version="1.0" encoding="iso-8859-1"?>
<!-- Generator: Adobe Illustrator 19.0.0, SVG Export Plug-In . SVG Version: 6.00 Build 0)  -->
<svg xmlns="http://www.w3.org/2000/svg" xmlns:xlink="http://www.w3.org/1999/xlink" version="1.1" id="Layer_1" x="0px" y="0px" viewBox="0 0 512 512" style="enable-background:new 0 0 512 512;" xml:space="preserve">
<polygon style="fill:#464655;" points="0,150.069 0,361.931 141.241,256 "/>
<path style="fill:#FF4B55;" d="M70.621,88.276l158.897,123.586H512V97.103c0-4.875-3.953-8.828-8.828-8.828H70.621V88.276z"/>
<path style="fill:#41479B;" d="M70.621,423.724l158.897-123.586H512v114.759c0,4.875-3.953,8.828-8.828,8.828H70.621V423.724z"/>
<path style="fill:#73AF00;" d="M56.889,88.276H8.828C3.953,88.276,0,92.228,0,97.103v36.21L154.974,256L0,378.69v36.206  c0,4.875,3.953,8.828,8.828,8.828h48.056L224.147,291.31H512v-70.62H224.148L56.889,88.276z"/>
<polygon style="fill:#F5F5F5;" points="85.333,88.276 56.889,88.276 224.148,220.69 512,220.69 512,203.034 230.291,203.034 "/>
<polygon style="fill:#FFE15A;" points="0,133.313 0,155.831 126.53,256 0,356.173 0,378.69 154.974,256 "/>
<polygon style="fill:#F5F5F5;" points="224.147,291.31 56.884,423.724 85.329,423.724 230.289,308.966 512,308.966 512,291.31 "/>
<g>
</g>
<g>
</g>
<g>
</g>
<g>
</g>
<g>
</g>
<g>
</g>
<g>
</g>
<g>
</g>
<g>
</g>
<g>
</g>
<g>
</g>
<g>
</g>
<g>
</g>
<g>
</g>
<g>
</g>
</svg>
