<?xml version="1.0" encoding="iso-8859-1"?>
<!-- Generator: Adobe Illustrator 19.0.0, SVG Export Plug-In . SVG Version: 6.00 Build 0)  -->
<svg xmlns="http://www.w3.org/2000/svg" xmlns:xlink="http://www.w3.org/1999/xlink" version="1.1" id="Layer_1" x="0px" y="0px" viewBox="0 0 512.001 512.001" style="enable-background:new 0 0 512.001 512.001;" xml:space="preserve">
<path style="fill:#3CC8FF;" d="M503.172,423.724H8.828c-4.875,0-8.828-3.953-8.828-8.828V97.104c0-4.875,3.953-8.828,8.828-8.828  h494.345c4.875,0,8.828,3.953,8.828,8.828v317.792C512,419.772,508.047,423.724,503.172,423.724z"/>
<path style="fill:#41479B;" d="M247.172,256H8.828C3.953,256,0,252.047,0,247.172V97.104c0-4.875,3.953-8.828,8.828-8.828h238.344  c4.875,0,8.828,3.953,8.828,8.828v150.069C255.999,252.049,252.048,256,247.172,256z"/>
<path style="fill:#F5F5F5;" d="M247.172,88.276h-15.333l-81.77,53.573V88.276h-44.138v53.573l-81.77-53.573H8.828  C3.953,88.276,0,92.229,0,97.104v7.002l70.155,45.963H0v44.138h70.155L0,240.171v7.001C0,252.047,3.953,256,8.828,256h15.333  l81.77-53.573V256h44.138v-53.573L231.838,256h15.333c4.875,0,8.828-3.953,8.828-8.828v-7.002l-70.154-45.963h70.154v-44.138  h-70.155l70.155-45.963v-7.002C255.999,92.229,252.048,88.276,247.172,88.276z"/>
<g>
	<polygon style="fill:#FF4B55;" points="255.999,158.897 141.241,158.897 141.241,88.276 114.758,88.276 114.758,158.897 0,158.897    0,185.379 114.758,185.379 114.758,256 141.241,256 141.241,185.379 255.999,185.379  "/>
	<path style="fill:#FF4B55;" d="M97.103,150.069L4.207,89.768C1.735,91.333,0,93.961,0,97.104v0.458l80.889,52.507H97.103z"/>
	<path style="fill:#FF4B55;" d="M166.283,150.069l88.374-57.366c-1.536-2.599-4.246-4.427-7.485-4.427h-1.909l-95.194,61.793   H166.283z"/>
	<path style="fill:#FF4B55;" d="M89.474,194.207L1.269,251.463C2.79,254.125,5.542,256,8.828,256h1.665l95.195-61.793H89.474z"/>
	<path style="fill:#FF4B55;" d="M255.859,247.867l-82.666-53.659H156.98l93.873,60.934   C253.666,253.837,255.594,251.102,255.859,247.867z"/>
</g>
<g>
	<path style="fill:#FFE15A;" d="M284.332,362.783l4.297,12.884l13.581,0.105c1.758,0.013,2.487,2.258,1.073,3.302l-10.925,8.067   l4.097,12.949c0.531,1.676-1.378,3.063-2.809,2.04l-11.049-7.897l-11.049,7.897c-1.43,1.023-3.339-0.364-2.809-2.04l4.097-12.949   l-10.925-8.067c-1.415-1.045-0.685-3.288,1.073-3.302l13.581-0.105l4.297-12.884C281.415,361.115,283.775,361.115,284.332,362.783z   "/>
	<path style="fill:#FFE15A;" d="M409.33,265.572l4.297,12.884l13.581,0.105c1.758,0.013,2.487,2.258,1.073,3.302l-10.925,8.067   l4.097,12.949c0.531,1.676-1.378,3.063-2.809,2.04l-11.049-7.897l-11.049,7.897c-1.43,1.023-3.339-0.364-2.809-2.04l4.097-12.949   l-10.925-8.067c-1.415-1.045-0.685-3.288,1.073-3.302l13.581-0.105l4.297-12.884C406.415,263.904,408.774,263.904,409.33,265.572z"/>
	<path style="fill:#FFE15A;" d="M468.27,229.447l4.297,12.884l13.581,0.105c1.758,0.013,2.487,2.258,1.073,3.302l-10.925,8.067   l4.097,12.949c0.531,1.676-1.378,3.063-2.809,2.04l-11.049-7.897l-11.049,7.897c-1.43,1.023-3.339-0.364-2.809-2.04l4.097-12.949   l-10.925-8.067c-1.415-1.045-0.685-3.288,1.073-3.302l13.581-0.105l4.297-12.884C465.354,227.778,467.714,227.778,468.27,229.447z"/>
	<path style="fill:#FFE15A;" d="M454.209,105.498l4.297,12.884l13.581,0.105c1.758,0.013,2.487,2.258,1.073,3.302l-10.925,8.067   l4.097,12.949c0.531,1.676-1.378,3.063-2.809,2.04l-11.049-7.897l-11.049,7.897c-1.43,1.023-3.339-0.364-2.809-2.04l4.097-12.949   l-10.925-8.067c-1.415-1.045-0.685-3.288,1.073-3.302l13.581-0.105l4.297-12.884C451.293,103.83,453.652,103.83,454.209,105.498z"/>
	<path style="fill:#FFE15A;" d="M336.584,394.979l-4.297-12.884l-13.581-0.105c-1.758-0.013-2.487-2.258-1.073-3.302l10.925-8.067   l-4.097-12.949c-0.531-1.676,1.378-3.063,2.809-2.04l11.049,7.897l11.049-7.897c1.43-1.023,3.339,0.364,2.809,2.04l-4.097,12.949   l10.925,8.067c1.415,1.045,0.685,3.288-1.073,3.302l-13.581,0.105l-4.297,12.884C339.499,396.647,337.14,396.647,336.584,394.979z"/>
	<path style="fill:#FFE15A;" d="M377.205,358.523l-4.297-12.884l-13.581-0.105c-1.758-0.013-2.487-2.258-1.073-3.302l10.925-8.067   l-4.097-12.949c-0.531-1.676,1.378-3.063,2.809-2.04l11.049,7.897l11.049-7.897c1.43-1.023,3.339,0.364,2.809,2.04l-4.097,12.949   l10.925,8.067c1.415,1.045,0.685,3.288-1.073,3.302l-13.581,0.105l-4.297,12.884C380.121,360.192,377.761,360.192,377.205,358.523z   "/>
	<path style="fill:#FFE15A;" d="M413.76,199.525l-4.297-12.884l-13.581-0.105c-1.758-0.013-2.487-2.258-1.073-3.302l10.925-8.067   l-4.097-12.949c-0.531-1.676,1.378-3.063,2.809-2.04l11.049,7.897l11.049-7.897c1.43-1.023,3.339,0.364,2.809,2.04l-4.097,12.949   l10.925,8.067c1.415,1.045,0.685,3.288-1.073,3.302l-13.581,0.105l-4.297,12.884C416.677,201.192,414.317,201.192,413.76,199.525z"/>
	<path style="fill:#FFE15A;" d="M371.577,213.065l-4.297-12.884l-13.581-0.105c-1.758-0.013-2.487-2.258-1.073-3.302l10.925-8.067   l-4.097-12.949c-0.531-1.676,1.378-3.063,2.809-2.04l11.049,7.897l11.049-7.897c1.43-1.023,3.339,0.364,2.809,2.04l-4.097,12.949   l10.925,8.067c1.415,1.045,0.685,3.288-1.073,3.302l-13.581,0.105l-4.297,12.884C374.492,214.733,372.133,214.733,371.577,213.065z   "/>
	<path style="fill:#FFE15A;" d="M344.569,318.249l-4.297-12.884l-13.581-0.105c-1.758-0.013-2.487-2.258-1.073-3.302l10.925-8.067   l-4.097-12.949c-0.531-1.676,1.378-3.063,2.809-2.04l11.049,7.897l11.049-7.897c1.43-1.023,3.339,0.364,2.809,2.04l-4.097,12.949   l10.925,8.067c1.415,1.045,0.685,3.288-1.073,3.302l-13.581,0.105l-4.297,12.884C347.485,319.917,345.126,319.917,344.569,318.249z   "/>
</g>
<g>
</g>
<g>
</g>
<g>
</g>
<g>
</g>
<g>
</g>
<g>
</g>
<g>
</g>
<g>
</g>
<g>
</g>
<g>
</g>
<g>
</g>
<g>
</g>
<g>
</g>
<g>
</g>
<g>
</g>
</svg>
