<?xml version="1.0" encoding="iso-8859-1"?>
<!-- Generator: Adobe Illustrator 19.0.0, SVG Export Plug-In . SVG Version: 6.00 Build 0)  -->
<svg xmlns="http://www.w3.org/2000/svg" xmlns:xlink="http://www.w3.org/1999/xlink" version="1.1" id="Layer_1" x="0px" y="0px" viewBox="0 0 512.001 512.001" style="enable-background:new 0 0 512.001 512.001;" xml:space="preserve">
<path style="fill:#FF4B55;" d="M503.172,423.724H8.828c-4.875,0-8.828-3.953-8.828-8.828V97.104c0-4.875,3.953-8.828,8.828-8.828  h494.345c4.875,0,8.828,3.953,8.828,8.828v317.793C512,419.773,508.047,423.724,503.172,423.724z"/>
<g>
	<path style="fill:#FFE15A;" d="M225.728,224.016c-0.006,0.004-0.011,0.009-0.017,0.013L97.103,88.277H8.828   c-2.146,0-4.041,0.86-5.571,2.134l215.864,141.428C221.007,228.965,223.242,226.37,225.728,224.016z"/>
	<path style="fill:#FFE15A;" d="M212.318,260.523c-0.156-1.508-0.456-2.973-0.456-4.522c0-1.549,0.3-3.014,0.456-4.522v0.002   L0,229.518v52.966l212.318-21.964V260.523z"/>
	<path style="fill:#FFE15A;" d="M249.139,212.553c2.251-0.354,4.511-0.691,6.861-0.691c2.35,0,4.61,0.338,6.861,0.691h-0.001   l19.623-124.277h-52.966L249.139,212.553L249.139,212.553z"/>
	<path style="fill:#FFE15A;" d="M292.879,231.839L508.744,90.411c-1.531-1.274-3.425-2.134-5.571-2.134h-88.276L286.289,224.03   c-0.006-0.004-0.011-0.009-0.017-0.013C288.758,226.37,290.993,228.965,292.879,231.839z"/>
	<path style="fill:#FFE15A;" d="M286.272,287.985c0.005-0.004,0.011-0.009,0.017-0.013l128.608,135.753h88.276   c2.146,0,4.041-0.86,5.571-2.134L292.879,280.162C290.993,283.036,288.758,285.632,286.272,287.985z"/>
	<path style="fill:#FFE15A;" d="M299.682,251.482v-0.002c0.156,1.507,0.456,2.973,0.456,4.522s-0.3,3.014-0.456,4.522v-0.002   L512,282.484v-52.966L299.682,251.482z"/>
	<path style="fill:#FFE15A;" d="M262.861,299.448c-2.251,0.353-4.511,0.691-6.861,0.691s-4.61-0.338-6.861-0.691h0.001   l-19.623,124.277h52.966L262.861,299.448L262.861,299.448z"/>
	<path style="fill:#FFE15A;" d="M219.121,280.162L3.256,421.591c1.53,1.274,3.425,2.134,5.571,2.134h88.276l128.608-135.753   c0.006,0.004,0.011,0.009,0.017,0.013C223.242,285.632,221.007,283.036,219.121,280.162z"/>
	<circle style="fill:#FFE15A;" cx="256" cy="256" r="35.31"/>
</g>
<g>
</g>
<g>
</g>
<g>
</g>
<g>
</g>
<g>
</g>
<g>
</g>
<g>
</g>
<g>
</g>
<g>
</g>
<g>
</g>
<g>
</g>
<g>
</g>
<g>
</g>
<g>
</g>
<g>
</g>
</svg>
