<?xml version="1.0" encoding="iso-8859-1"?>
<!-- Generator: Adobe Illustrator 19.0.0, SVG Export Plug-In . SVG Version: 6.00 Build 0)  -->
<svg xmlns="http://www.w3.org/2000/svg" xmlns:xlink="http://www.w3.org/1999/xlink" version="1.1" id="Layer_1" x="0px" y="0px" viewBox="0 0 511.999 511.999" style="enable-background:new 0 0 511.999 511.999;" xml:space="preserve">
<path style="fill:#41479B;" d="M203.034,423.724H8.828c-4.875,0-8.828-3.953-8.828-8.828V97.104c0-4.875,3.953-8.828,8.828-8.828  h194.206V423.724z"/>
<path style="fill:#F5F5F5;" d="M503.172,422.621H203.034V88.277h300.137c4.875,0,8.828,3.953,8.828,8.828v316.689  C512,418.669,508.047,422.621,503.172,422.621z"/>
<g>
	<path style="fill:#FFE15A;" d="M262.585,254.073c-3.716,0-7.321,1.265-10.223,3.586l-17.602,14.082   c-2.902,2.322-6.507,3.586-10.223,3.586h-4.886v-2.81c0-4.317,3.499-7.817,7.817-7.817h8.124v-3.788   c0-3.777-3.062-6.839-6.839-6.839h-3.788l0,0c0-2.934-2.379-5.313-5.313-5.313l0,0c-14.673,0-26.568,11.895-26.568,26.568h-10.2   c-3.715,0-7.321-1.265-10.222-3.586l-17.603-14.082c-2.902-2.322-6.507-3.586-10.222-3.586H67.32c-2.612,0-3.919,3.157-2.072,5.004   l26.829,26.829c3.433,3.433,8.089,5.362,12.943,5.362h18.986l15.586,11.69c3.679,2.76,8.153,4.25,12.753,4.25h19.484   c3.345,0,6.495-1.575,8.501-4.25l2.125-2.834v12.398l-13.112,26.226c-1.3,2.599,0.59,5.656,3.496,5.656h42.903   c2.158,0,3.908-1.75,3.908-3.908v-47.456l7.439,9.919c2.007,2.676,5.156,4.25,8.502,4.25h19.484c4.599,0,9.074-1.492,12.753-4.25   l15.586-11.69H302.4c4.855,0,9.511-1.929,12.943-5.362l26.829-26.829c1.846-1.846,0.538-5.004-2.072-5.004h-77.515L262.585,254.073   L262.585,254.073z"/>
	<path style="fill:#FFE15A;" d="M204.736,167.979l2.54,7.617l8.03,0.062c1.039,0.008,1.471,1.335,0.634,1.952l-6.46,4.77   l2.422,7.656c0.313,0.991-0.815,1.811-1.661,1.206l-6.532-4.669l-6.532,4.669c-0.845,0.605-1.974-0.215-1.661-1.206l2.422-7.656   l-6.46-4.77c-0.836-0.618-0.405-1.944,0.634-1.952l8.03-0.062l2.54-7.617C203.012,166.992,204.407,166.992,204.736,167.979z"/>
	<path style="fill:#FFE15A;" d="M86.789,215.982l7.182,3.59l5.721-5.634c0.74-0.729,1.984-0.096,1.83,0.932l-1.195,7.94l7.126,3.701   c0.922,0.479,0.704,1.857-0.321,2.027l-7.921,1.318l-1.318,7.921c-0.171,1.025-1.548,1.244-2.027,0.321l-3.701-7.126l-7.94,1.195   c-1.028,0.154-1.662-1.088-0.932-1.83l5.634-5.721l-3.59-7.182C84.873,216.505,85.859,215.518,86.789,215.982z"/>
	<path style="fill:#FFE15A;" d="M322.08,217.435l-3.589,7.182l5.634,5.721c0.729,0.74,0.096,1.984-0.932,1.83l-7.94-1.195   l-3.701,7.126c-0.479,0.922-1.857,0.704-2.027-0.321l-1.318-7.921l-7.921-1.318c-1.025-0.171-1.244-1.548-0.321-2.027l7.126-3.701   l-1.195-7.94c-0.154-1.028,1.088-1.662,1.829-0.932l5.721,5.634l7.182-3.59C321.558,215.518,322.545,216.505,322.08,217.435z"/>
	<path style="fill:#FFE15A;" d="M140.987,180.249l5.262,6.066l7.442-3.016c0.963-0.391,1.869,0.67,1.333,1.561l-4.142,6.879   l5.167,6.146c0.669,0.796-0.06,1.985-1.073,1.75l-7.822-1.814l-4.248,6.814c-0.55,0.882-1.907,0.556-1.996-0.479l-0.692-8   l-7.793-1.935c-1.009-0.25-1.119-1.641-0.161-2.047l7.394-3.13l-0.568-8.01C139.018,179.999,140.306,179.465,140.987,180.249z"/>
	<path style="fill:#FFE15A;" d="M268.327,181.036l-0.568,8.01l7.394,3.13c0.958,0.405,0.847,1.796-0.161,2.047l-7.793,1.935   l-0.692,8c-0.089,1.036-1.445,1.362-1.996,0.479l-4.248-6.814l-7.822,1.814c-1.013,0.235-1.741-0.954-1.073-1.75l5.167-6.146   l-4.142-6.879c-0.536-0.89,0.37-1.951,1.333-1.561l7.442,3.016l5.262-6.066C267.111,179.465,268.4,179.999,268.327,181.036z"/>
	<path style="fill:#FFE15A;" d="M172.257,170.976l3.978,6.975l7.887-1.505c1.021-0.195,1.703,1.022,1.003,1.791l-5.405,5.939   l3.869,7.036c0.501,0.911-0.446,1.935-1.394,1.507l-7.318-3.305l-5.496,5.854c-0.712,0.758-1.978,0.174-1.864-0.86l0.882-7.981   l-7.266-3.418c-0.941-0.442-0.777-1.827,0.242-2.038l7.863-1.628l1.005-7.967C170.374,170.344,171.743,170.072,172.257,170.976z"/>
	<path style="fill:#FFE15A;" d="M296.996,196.589l-2.12,7.745l6.642,4.513c0.86,0.584,0.481,1.927-0.557,1.975l-8.021,0.377   l-2.239,7.711c-0.29,0.999-1.684,1.053-2.051,0.081l-2.838-7.511l-8.025,0.253c-1.039,0.033-1.522-1.276-0.711-1.926l6.268-5.02   l-2.721-7.554c-0.352-0.978,0.744-1.842,1.612-1.271l6.711,4.409l6.344-4.922C296.111,194.811,297.271,195.586,296.996,196.589z"/>
	<path style="fill:#FFE15A;" d="M112.129,195.448l6.344,4.922l6.711-4.409c0.868-0.57,1.964,0.292,1.612,1.271l-2.721,7.554   l6.268,5.02c0.811,0.65,0.329,1.959-0.711,1.926l-8.025-0.253l-2.838,7.511c-0.367,0.972-1.761,0.918-2.051-0.081l-2.239-7.711   l-8.021-0.377c-1.038-0.049-1.417-1.391-0.557-1.975l6.642-4.513l-2.12-7.745C110.147,195.586,111.307,194.811,112.129,195.448z"/>
	<path style="fill:#FFE15A;" d="M237.174,171.376l1.005,7.967l7.863,1.628c1.018,0.211,1.182,1.596,0.242,2.038l-7.266,3.418   l0.882,7.981c0.114,1.033-1.153,1.618-1.864,0.86l-5.496-5.854l-7.318,3.305c-0.948,0.428-1.895-0.597-1.394-1.507l3.869-7.036   l-5.405-5.939c-0.7-0.769-0.018-1.986,1.003-1.791l7.887,1.505l3.978-6.975C235.676,170.072,237.043,170.344,237.174,171.376z"/>
</g>
<path style="fill:#FF4B55;" d="M72.181,126.184v22.849c0,9.449-7.688,17.137-17.137,17.137s-17.137-7.688-17.137-17.137v-22.849  H72.181 M77.892,114.759H32.195c-3.155,0-5.713,2.558-5.713,5.713v28.562c0,15.774,12.788,28.562,28.562,28.562  s28.562-12.788,28.562-28.562v-28.562C83.605,117.317,81.047,114.759,77.892,114.759L77.892,114.759z"/>
<path style="fill:#F5F5F5;" d="M72.181,126.184v22.849c0,9.449-7.688,17.137-17.137,17.137s-17.137-7.688-17.137-17.137v-22.849  H72.181"/>
<g>
	<circle style="fill:#FFE15A;" cx="32.15" cy="120.471" r="2.856"/>
	<circle style="fill:#FFE15A;" cx="77.848" cy="120.471" r="2.856"/>
	<circle style="fill:#FFE15A;" cx="32.15" cy="143.321" r="2.856"/>
	<circle style="fill:#FFE15A;" cx="77.848" cy="143.321" r="2.856"/>
	<circle style="fill:#FFE15A;" cx="54.999" cy="120.471" r="2.856"/>
	<circle style="fill:#FFE15A;" cx="72.14" cy="164.381" r="2.856"/>
	<circle style="fill:#FFE15A;" cx="38.19" cy="164.381" r="2.856"/>
</g>
<g>
	<path style="fill:#41479B;" d="M58.733,141.872v4.919c0,2.034-1.655,3.689-3.689,3.689s-3.689-1.655-3.689-3.689v-4.919H58.733"/>
	<path style="fill:#41479B;" d="M58.733,130.21v4.919c0,2.034-1.655,3.689-3.689,3.689s-3.689-1.655-3.689-3.689v-4.919H58.733"/>
	<path style="fill:#41479B;" d="M58.733,153.654v4.919c0,2.034-1.655,3.689-3.689,3.689s-3.689-1.655-3.689-3.689v-4.919H58.733"/>
	<path style="fill:#41479B;" d="M68.67,141.872v4.919c0,2.034-1.655,3.689-3.689,3.689c-2.034,0-3.689-1.655-3.689-3.689v-4.919   H68.67"/>
	<path style="fill:#41479B;" d="M48.797,141.872v4.919c0,2.034-1.655,3.689-3.689,3.689s-3.689-1.655-3.689-3.689v-4.919H48.797"/>
</g>
<g>
</g>
<g>
</g>
<g>
</g>
<g>
</g>
<g>
</g>
<g>
</g>
<g>
</g>
<g>
</g>
<g>
</g>
<g>
</g>
<g>
</g>
<g>
</g>
<g>
</g>
<g>
</g>
<g>
</g>
</svg>
