<?xml version="1.0" encoding="iso-8859-1"?>
<!-- Generator: Adobe Illustrator 19.0.0, SVG Export Plug-In . SVG Version: 6.00 Build 0)  -->
<svg xmlns="http://www.w3.org/2000/svg" xmlns:xlink="http://www.w3.org/1999/xlink" version="1.1" id="Layer_1" x="0px" y="0px" viewBox="0 0 512.001 512.001" style="enable-background:new 0 0 512.001 512.001;" xml:space="preserve">
<path style="fill:#464655;" d="M512,200.093H0V97.104c0-4.875,3.953-8.828,8.828-8.828h494.345c4.875,0,8.828,3.953,8.828,8.828  L512,200.093L512,200.093z"/>
<path style="fill:#73AF00;" d="M503.172,423.724H8.828c-4.875,0-8.828-3.953-8.828-8.828V311.908h512v102.988  C512,419.772,508.047,423.724,503.172,423.724z"/>
<rect y="200.09" style="fill:#FF4B55;" width="512" height="111.81"/>
<g>
	<path style="fill:#F5F5F5;" d="M95.398,233.164l5.247,11.381l12.169-2.994c0.76-0.186,1.389,0.602,1.038,1.302l-5.626,11.198   l9.928,7.648c0.62,0.478,0.395,1.462-0.371,1.623l-12.263,2.583l0.211,12.531c0.013,0.782-0.897,1.22-1.5,0.723l-9.665-7.977   l-9.665,7.977c-0.604,0.498-1.513,0.06-1.5-0.723l0.211-12.531l-12.263-2.583c-0.766-0.161-0.99-1.145-0.371-1.623l9.928-7.648   l-5.626-11.198c-0.351-0.7,0.278-1.489,1.038-1.302l12.169,2.994l5.247-11.381C94.061,232.454,95.072,232.454,95.398,233.164z"/>
	<rect y="194.21" style="fill:#F5F5F5;" width="512" height="15.01"/>
	<rect y="302.79" style="fill:#F5F5F5;" width="512" height="15.01"/>
</g>
<path style="fill:#41479B;" d="M2.877,421.335L233.2,259.613c2.504-1.758,2.504-5.466,0-7.224L2.877,90.666  C1.131,92.28,0,94.539,0,97.104v317.792C0,417.461,1.131,419.722,2.877,421.335z"/>
<path style="fill:#FFE15A;" d="M73.561,214.847l19.831,20.297l25.624-12.192c3.317-1.579,6.735,1.974,5.03,5.228l-13.175,25.132  l19.513,20.602c2.527,2.667,0.204,7.016-3.418,6.399l-27.973-4.765l-13.564,24.925c-1.756,3.227-6.61,2.361-7.142-1.273  l-4.114-28.077l-27.896-5.197c-3.612-0.673-4.288-5.556-0.995-7.186l25.432-12.588l-3.678-28.138  C66.559,214.371,70.993,212.22,73.561,214.847z"/>
<g>
</g>
<g>
</g>
<g>
</g>
<g>
</g>
<g>
</g>
<g>
</g>
<g>
</g>
<g>
</g>
<g>
</g>
<g>
</g>
<g>
</g>
<g>
</g>
<g>
</g>
<g>
</g>
<g>
</g>
</svg>
