<?xml version="1.0" encoding="iso-8859-1"?>
<!-- Generator: Adobe Illustrator 19.0.0, SVG Export Plug-In . SVG Version: 6.00 Build 0)  -->
<svg xmlns="http://www.w3.org/2000/svg" xmlns:xlink="http://www.w3.org/1999/xlink" version="1.1" id="Layer_1" x="0px" y="0px" viewBox="0 0 512.001 512.001" style="enable-background:new 0 0 512.001 512.001;" xml:space="preserve">
<path style="fill:#41479B;" d="M503.172,423.724H8.828c-4.875,0-8.828-3.953-8.828-8.828V97.104c0-4.875,3.953-8.828,8.828-8.828  h494.345c4.875,0,8.828,3.953,8.828,8.828v317.792C512,419.772,508.047,423.724,503.172,423.724z"/>
<path style="fill:#FF4B55;" d="M503.172,88.276H8.828C3.953,88.276,0,92.229,0,97.104v317.792c0,4.875,3.953,8.828,8.828,8.828  h494.345c4.875,0,8.828-3.953,8.828-8.828V97.104C512,92.229,508.047,88.276,503.172,88.276z M494.344,247.172H408.26  l-143.432-75.934v-65.307h229.517v141.241H494.344z M255.999,325.462L124.798,256L256,186.539L387.202,256L255.999,325.462z   M247.172,105.931v65.307l-143.433,75.934H17.655V105.931H247.172z M17.655,264.828h86.084l143.433,75.935v65.306H17.655V264.828z   M264.827,406.069v-65.307l143.434-75.934h86.083v141.241H264.827z"/>
<polygon style="fill:#F5F5F5;" points="255.999,186.539 124.798,256 255.999,325.462 387.202,256 "/>
<polygon style="fill:#73AF00;" points="211.861,302.093 300.138,302.093 361.599,269.555 333.95,241.907 324.298,241.907   317.173,249.032 312.09,243.949 301.925,243.949 262.931,282.942 213.981,282.942 202.865,266.483 188.758,266.483 183.2,274.271   176.953,274.271 173.201,281.626 "/>
<path style="fill:#FFE15A;" d="M257.182,213.708l3.509,10.52l11.09,0.086c1.436,0.011,2.031,1.844,0.876,2.697l-8.921,6.588  l3.346,10.573c0.433,1.369-1.126,2.502-2.294,1.666l-9.022-6.449l-9.022,6.449c-1.169,0.835-2.727-0.298-2.294-1.666l3.346-10.573  l-8.921-6.588c-1.155-0.853-0.559-2.685,0.876-2.697l11.09-0.086l3.509-10.52C254.801,212.347,256.728,212.347,257.182,213.708z"/>
<g>
</g>
<g>
</g>
<g>
</g>
<g>
</g>
<g>
</g>
<g>
</g>
<g>
</g>
<g>
</g>
<g>
</g>
<g>
</g>
<g>
</g>
<g>
</g>
<g>
</g>
<g>
</g>
<g>
</g>
</svg>
