<?xml version="1.0" encoding="iso-8859-1"?>
<!-- Generator: Adobe Illustrator 19.0.0, SVG Export Plug-In . SVG Version: 6.00 Build 0)  -->
<svg xmlns="http://www.w3.org/2000/svg" xmlns:xlink="http://www.w3.org/1999/xlink" version="1.1" id="Layer_1" x="0px" y="0px" viewBox="0 0 512.001 512.001" style="enable-background:new 0 0 512.001 512.001;" xml:space="preserve">
<g>
	<rect y="125.551" style="fill:#F5F5F5;" width="512" height="37.27"/>
	<rect y="200.091" style="fill:#F5F5F5;" width="512" height="37.27"/>
	<rect y="274.641" style="fill:#F5F5F5;" width="512" height="37.27"/>
</g>
<rect y="311.911" style="fill:#41479B;" width="512" height="37.27"/>
<rect y="349.181" style="fill:#F5F5F5;" width="512" height="37.27"/>
<g>
	<path style="fill:#41479B;" d="M8.828,423.725h494.345c4.875,0,8.828-3.953,8.828-8.828v-28.445H0v28.445   C0,419.773,3.953,423.725,8.828,423.725z"/>
	<path style="fill:#41479B;" d="M512,125.549V97.104c0-4.875-3.953-8.828-8.828-8.828H8.828C3.953,88.277,0,92.229,0,97.104v65.717   v37.271v74.545h512v-37.272H176.552v-37.272H512v-37.272H176.552v-37.272C176.552,125.549,512,125.549,512,125.549z"/>
</g>
<polygon style="fill:#F5F5F5;" points="176.552,162.821 106.912,162.821 106.912,88.277 69.64,88.277 69.64,162.821 0,162.821   0,200.093 69.64,200.093 69.64,274.637 106.912,274.637 106.912,200.093 176.552,200.093 "/>
<g>
</g>
<g>
</g>
<g>
</g>
<g>
</g>
<g>
</g>
<g>
</g>
<g>
</g>
<g>
</g>
<g>
</g>
<g>
</g>
<g>
</g>
<g>
</g>
<g>
</g>
<g>
</g>
<g>
</g>
</svg>
