<?xml version="1.0" encoding="iso-8859-1"?>
<!-- Generator: Adobe Illustrator 19.0.0, SVG Export Plug-In . SVG Version: 6.00 Build 0)  -->
<svg xmlns="http://www.w3.org/2000/svg" xmlns:xlink="http://www.w3.org/1999/xlink" version="1.1" id="Layer_1" x="0px" y="0px" viewBox="0 0 512.001 512.001" style="enable-background:new 0 0 512.001 512.001;" xml:space="preserve">
<path style="fill:#FF4B55;" d="M503.172,423.725H8.828c-4.875,0-8.828-3.953-8.828-8.828V97.104c0-4.875,3.953-8.828,8.828-8.828  h494.345c4.875,0,8.828,3.953,8.828,8.828v317.793C512,419.773,508.047,423.725,503.172,423.725z"/>
<path style="fill:#73AF00;" d="M185.379,88.277H8.828C3.953,88.277,0,92.229,0,97.104v317.793c0,4.875,3.953,8.828,8.828,8.828  H185.38V88.277H185.379z"/>
<circle style="fill:#FFE15A;" cx="185.45" cy="256.001" r="79.38"/>
<path style="fill:#FF4B55;" d="M211.932,229.518v35.31c0,14.603-11.88,26.483-26.483,26.483s-26.483-11.88-26.483-26.483v-35.31  H211.932 M220.759,211.863h-70.621c-4.875,0-8.828,3.953-8.828,8.828v44.138c0,24.376,19.762,44.138,44.138,44.138  s44.138-19.762,44.138-44.138v-44.138C229.587,215.816,225.634,211.863,220.759,211.863L220.759,211.863z"/>
<path style="fill:#F5F5F5;" d="M211.932,229.518v35.31c0,14.603-11.88,26.483-26.483,26.483s-26.483-11.88-26.483-26.483v-35.31  H211.932"/>
<g>
	<circle style="fill:#FFE15A;" cx="150.07" cy="220.691" r="4.414"/>
	<circle style="fill:#FFE15A;" cx="220.69" cy="220.691" r="4.414"/>
	<circle style="fill:#FFE15A;" cx="150.07" cy="256.001" r="4.414"/>
	<circle style="fill:#FFE15A;" cx="220.69" cy="256.001" r="4.414"/>
	<circle style="fill:#FFE15A;" cx="185.38" cy="220.691" r="4.414"/>
	<circle style="fill:#FFE15A;" cx="211.88" cy="288.551" r="4.414"/>
	<circle style="fill:#FFE15A;" cx="159.4" cy="288.551" r="4.414"/>
</g>
<g>
	<path style="fill:#41479B;" d="M191.149,253.763v7.602c0,3.144-2.558,5.702-5.702,5.702s-5.702-2.558-5.702-5.702v-7.602   L191.149,253.763"/>
	<path style="fill:#41479B;" d="M191.149,235.741v7.602c0,3.144-2.558,5.702-5.702,5.702s-5.702-2.558-5.702-5.702v-7.602H191.149"/>
	<path style="fill:#41479B;" d="M191.149,271.97v7.602c0,3.144-2.558,5.702-5.702,5.702s-5.702-2.558-5.702-5.702v-7.602H191.149"/>
	<path style="fill:#41479B;" d="M206.506,253.763v7.602c0,3.144-2.558,5.702-5.702,5.702s-5.702-2.558-5.702-5.702v-7.602   L206.506,253.763"/>
	<path style="fill:#41479B;" d="M175.794,253.763v7.602c0,3.144-2.558,5.702-5.702,5.702s-5.702-2.558-5.702-5.702v-7.602   L175.794,253.763"/>
</g>
<g>
</g>
<g>
</g>
<g>
</g>
<g>
</g>
<g>
</g>
<g>
</g>
<g>
</g>
<g>
</g>
<g>
</g>
<g>
</g>
<g>
</g>
<g>
</g>
<g>
</g>
<g>
</g>
<g>
</g>
</svg>
