<?xml version="1.0" encoding="utf-8"?>
<!-- Generator: Adobe Illustrator 16.0.0, SVG Export Plug-In . SVG Version: 6.00 Build 0)  -->
<!DOCTYPE svg PUBLIC "-//W3C//DTD SVG 1.1//EN" "http://www.w3.org/Graphics/SVG/1.1/DTD/svg11.dtd">
<svg version="1.1" id="Layer_1" xmlns="http://www.w3.org/2000/svg" xmlns:xlink="http://www.w3.org/1999/xlink" x="0px" y="0px"
	 width="239.667px" height="77.5px" viewBox="0 0 239.667 77.5" enable-background="new 0 0 239.667 77.5" xml:space="preserve">
<g>
	<polygon fill="#FFFFFF" points="6.237,6.686 12.434,11.498 12.428,57.061 12.428,64.374 6.237,59.585 	"/>
	<polygon fill="#FFFFFF" points="14.39,12.971 20.588,17.783 20.583,63.345 48.427,49.547 48.427,39.402 54.624,44.215 
		54.624,53.461 20.583,70.658 14.39,65.871 	"/>
	<polygon fill="#FFFFFF" points="22.504,53.078 40.314,44.513 40.314,33.091 46.512,37.904 46.512,48.428 22.504,60.288 	"/>
</g>
<g>
	<path fill="#FFFFFF" d="M76.978,58.477v1.588c-2.684,0-4.969-0.896-6.857-2.692c-1.89-1.793-2.833-4.089-2.833-6.886V17.053H69.1
		v33.434c0,2.306,0.766,4.213,2.297,5.726C72.926,57.721,74.786,58.477,76.978,58.477z"/>
	<path fill="#FFFFFF" d="M104.688,34.052v25.501h-1.813v-6.346c-1.058,2.152-2.645,3.854-4.76,5.099
		c-2.116,1.247-4.383,1.87-6.801,1.87c-3.702,0-6.876-1.312-9.519-3.938c-2.646-2.627-3.968-5.771-3.968-9.438
		c0-3.664,1.322-6.811,3.968-9.436c2.643-2.625,5.816-3.938,9.519-3.938c2.418,0,4.732,0.643,6.942,1.926
		c2.21,1.285,3.75,2.985,4.618,5.101v-6.402H104.688z M79.642,46.859c0,3.174,1.16,5.922,3.484,8.244
		c2.323,2.323,5.081,3.484,8.273,3.484s5.921-1.161,8.188-3.484c2.267-2.322,3.4-5.08,3.4-8.272c0-3.191-1.144-5.96-3.429-8.302
		c-2.286-2.342-5.015-3.513-8.189-3.513c-3.172,0-5.921,1.181-8.244,3.542C80.802,40.919,79.642,43.688,79.642,46.859z"/>
	<path fill="#FFFFFF" d="M132.964,34.052h1.644L122.085,60.29l-12.583-26.238h1.983l10.768,22.384L132.964,34.052z"/>
	<path fill="#FFFFFF" d="M164.869,34.052v25.501h-1.813v-6.346c-1.06,2.152-2.646,3.854-4.761,5.099
		c-2.116,1.247-4.383,1.87-6.801,1.87c-3.703,0-6.875-1.312-9.521-3.938c-2.646-2.627-3.968-5.771-3.968-9.438
		c0-3.664,1.322-6.811,3.968-9.436c2.646-2.625,5.817-3.938,9.521-3.938c2.418,0,4.732,0.643,6.941,1.926
		c2.211,1.285,3.749,2.985,4.619,5.101v-6.402H164.869z M139.82,46.859c0,3.174,1.161,5.922,3.485,8.244
		c2.323,2.323,5.081,3.484,8.272,3.484s5.922-1.161,8.188-3.484c2.269-2.322,3.399-5.08,3.399-8.272c0-3.191-1.144-5.96-3.429-8.302
		c-2.286-2.342-5.016-3.513-8.188-3.513c-3.174,0-5.922,1.181-8.244,3.542C140.981,40.919,139.82,43.688,139.82,46.859z"/>
	<path fill="#FFFFFF" d="M181.358,58.477v1.588c-2.685,0-4.969-0.896-6.856-2.692c-1.892-1.793-2.834-4.089-2.834-6.886V17.053
		h1.812v33.434c0,2.306,0.767,4.213,2.295,5.726C177.305,57.721,179.166,58.477,181.358,58.477z"/>
	<path fill="#FFFFFF" d="M187.533,27.876c-1.096,0-1.643-0.51-1.643-1.53s0.547-1.53,1.643-1.53s1.645,0.51,1.645,1.53
		S188.628,27.876,187.533,27.876z M188.439,34.11v25.444h-1.812V34.11H188.439z"/>
	<path fill="#FFFFFF" d="M205.1,58.307v1.588c-2.683,0-4.968-0.898-6.856-2.693c-1.889-1.793-2.834-4.088-2.834-6.885V23.796h1.814
		V34.11h7.82v1.586h-7.82v14.621c0,2.305,0.765,4.213,2.295,5.723C201.048,57.553,202.91,58.307,205.1,58.307z"/>
	<path fill="#FFFFFF" d="M222.384,60.232h-0.51c-3.59,0-6.715-1.349-9.379-4.052c-2.664-2.7-3.994-5.845-3.994-9.435
		c0-3.588,1.32-6.695,3.965-9.321c2.646-2.626,5.912-3.938,9.805-3.938c3.891,0,7.234,1.549,10.029,4.646l-17.793,17.566
		c2.455,1.967,4.816,2.947,7.084,2.947s4.297-0.519,6.092-1.559c1.793-1.038,3.277-2.428,4.447-4.164v2.891
		C229.449,58.761,226.199,60.232,222.384,60.232z M221.791,35.072c-3.006,0-5.67,1.162-7.992,3.486
		c-2.322,2.322-3.484,4.997-3.484,8.019c0,3.021,1,5.666,3.003,7.933l16.491-16.377C227.464,36.092,224.792,35.072,221.791,35.072z"
		/>
</g>
</svg>
