<?xml version="1.0" encoding="utf-8"?>
<!-- Generator: Adobe Illustrator 16.0.0, SVG Export Plug-In . SVG Version: 6.00 Build 0)  -->
<!DOCTYPE svg PUBLIC "-//W3C//DTD SVG 1.1//EN" "http://www.w3.org/Graphics/SVG/1.1/DTD/svg11.dtd">
<svg version="1.1" id="Layer_1" xmlns="http://www.w3.org/2000/svg" xmlns:xlink="http://www.w3.org/1999/xlink" x="0px" y="0px"
	 width="239.667px" height="100px" viewBox="0 0 239.667 100" enable-background="new 0 0 239.667 100" xml:space="preserve">
<g>
	<polygon fill="#FFFFFF" points="6.237,18.014 12.434,22.826 12.428,68.389 12.428,75.702 6.237,70.913 	"/>
	<polygon fill="#FFFFFF" points="14.39,24.299 20.588,29.111 20.583,74.673 48.427,60.875 48.427,50.73 54.624,55.543 
		54.624,64.789 20.583,81.986 14.39,77.199 	"/>
	<polygon fill="#FFFFFF" points="22.504,64.406 40.314,55.841 40.314,44.419 46.512,49.232 46.512,59.756 22.504,71.616 	"/>
</g>
<g>
	<path fill="#FFFFFF" d="M76.978,69.804v1.589c-2.684,0-4.969-0.897-6.857-2.693c-1.89-1.793-2.833-4.088-2.833-6.886V28.381h1.812
		v33.433c0,2.306,0.766,4.214,2.297,5.726C72.926,69.049,74.786,69.804,76.978,69.804z"/>
	<path fill="#FFFFFF" d="M104.688,45.38v25.501h-1.813v-6.346c-1.058,2.152-2.645,3.853-4.76,5.099
		c-2.116,1.247-4.383,1.87-6.801,1.87c-3.702,0-6.876-1.312-9.519-3.938c-2.646-2.627-3.968-5.771-3.968-9.437
		c0-3.664,1.322-6.811,3.968-9.436c2.643-2.625,5.816-3.938,9.519-3.938c2.418,0,4.732,0.643,6.942,1.926
		c2.21,1.285,3.75,2.985,4.618,5.101V45.38H104.688z M79.642,58.188c0,3.173,1.16,5.922,3.484,8.244
		c2.323,2.323,5.081,3.484,8.273,3.484s5.921-1.161,8.188-3.484c2.267-2.322,3.4-5.08,3.4-8.273c0-3.191-1.144-5.96-3.429-8.302
		c-2.286-2.342-5.015-3.513-8.189-3.513c-3.172,0-5.921,1.181-8.244,3.542C80.802,52.247,79.642,55.015,79.642,58.188z"/>
	<path fill="#FFFFFF" d="M132.964,45.38h1.644l-12.523,26.238L109.503,45.38h1.983l10.767,22.384L132.964,45.38z"/>
	<path fill="#FFFFFF" d="M164.868,45.38v25.501h-1.813v-6.346c-1.059,2.152-2.645,3.853-4.76,5.099
		c-2.117,1.247-4.384,1.87-6.801,1.87c-3.703,0-6.876-1.312-9.521-3.938c-2.645-2.627-3.967-5.771-3.967-9.437
		c0-3.664,1.322-6.811,3.967-9.436c2.645-2.625,5.817-3.938,9.521-3.938c2.417,0,4.732,0.643,6.941,1.926
		c2.211,1.285,3.749,2.985,4.619,5.101V45.38H164.868z M139.82,58.188c0,3.173,1.161,5.922,3.485,8.244
		c2.323,2.323,5.081,3.484,8.273,3.484c3.191,0,5.922-1.161,8.188-3.484c2.268-2.322,3.4-5.08,3.4-8.273
		c0-3.191-1.144-5.96-3.429-8.302c-2.287-2.342-5.016-3.513-8.188-3.513c-3.174,0-5.922,1.181-8.245,3.542
		C140.981,52.247,139.82,55.015,139.82,58.188z"/>
	<path fill="#FFFFFF" d="M181.358,69.804v1.589c-2.685,0-4.969-0.897-6.857-2.693c-1.891-1.793-2.834-4.088-2.834-6.886V28.381
		h1.812v33.433c0,2.306,0.766,4.214,2.295,5.726C177.305,69.049,179.166,69.804,181.358,69.804z"/>
	<path fill="#FFFFFF" d="M187.533,39.204c-1.096,0-1.643-0.51-1.643-1.53s0.547-1.53,1.643-1.53c1.095,0,1.644,0.51,1.644,1.53
		S188.628,39.204,187.533,39.204z M188.439,45.438v25.444h-1.812V45.438H188.439z"/>
	<path fill="#FFFFFF" d="M205.1,69.635v1.587c-2.682,0-4.968-0.898-6.856-2.692c-1.889-1.793-2.834-4.089-2.834-6.885V35.124h1.814
		v10.314h7.821v1.586h-7.821v14.62c0,2.305,0.765,4.213,2.295,5.723C201.049,68.881,202.909,69.635,205.1,69.635z"/>
	<path fill="#FFFFFF" d="M222.384,71.561h-0.509c-3.591,0-6.716-1.349-9.379-4.052c-2.664-2.7-3.995-5.845-3.995-9.435
		c0-3.588,1.321-6.695,3.966-9.321s5.912-3.938,9.804-3.938c3.891,0,7.234,1.549,10.03,4.646l-17.794,17.566
		c2.455,1.967,4.817,2.948,7.085,2.948c2.267,0,4.296-0.519,6.091-1.559c1.793-1.038,3.277-2.427,4.447-4.164v2.89
		C229.449,70.089,226.199,71.561,222.384,71.561z M221.79,46.4c-3.005,0-5.669,1.162-7.992,3.486
		c-2.322,2.322-3.484,4.997-3.484,8.018s1,5.667,3.003,7.933l16.491-16.377C227.465,47.42,224.792,46.4,221.79,46.4z"/>
</g>
</svg>
